<svg xmlns="http://www.w3.org/2000/svg" width="47.021" height="45.023" viewBox="0 0 47.021 45.023">
  <g id="_0_3_" data-name="0 (3)" transform="translate(0.65 0.65)">
    <path id="Path_561" data-name="Path 561" d="M129.734,186.266l-3.569,3.413,16.712,15.98,3.569-3.413" transform="translate(-116.498 -171.18)" fill="none" stroke="#707070" stroke-linecap="round" stroke-linejoin="round" stroke-miterlimit="10" stroke-width="1.3"/>
    <path id="Path_562" data-name="Path 562" d="M198.677,148.889h-.007" transform="translate(-181.635 -137.435)" fill="none" stroke="#707070" stroke-linecap="round" stroke-linejoin="round" stroke-miterlimit="10" stroke-width="1.3"/>
    <path id="Path_563" data-name="Path 563" d="M124.291,238.147l11.554-.762-16.709-15.977-.8,11.048Z" transform="translate(-109.467 -202.908)" fill="none" stroke="#707070" stroke-linecap="round" stroke-linejoin="round" stroke-miterlimit="10" stroke-width="1.3"/>
    <path id="Path_564" data-name="Path 564" d="M32.261,348.1h0a3.9,3.9,0,0,1,0-5.692l7.639-7.3,5.952,5.692-7.639,7.3A4.346,4.346,0,0,1,32.261,348.1Z" transform="translate(-31.028 -305.559)" fill="none" stroke="#707070" stroke-linecap="round" stroke-linejoin="round" stroke-miterlimit="10" stroke-width="1.3"/>
    <path id="Path_565" data-name="Path 565" d="M317.291,219.213a3.948,3.948,0,0,1,.477.6A3.427,3.427,0,0,1,322,223.851a3.278,3.278,0,0,1,0,5.72,3.427,3.427,0,0,1-4.227,4.042,3.589,3.589,0,0,1-5.982,0,3.423,3.423,0,0,1-4.227-4.042,3.275,3.275,0,0,1,0-5.72,3.206,3.206,0,0,1,.826-3.047" transform="translate(-277.952 -200.926)" fill="none" stroke="#707070" stroke-linecap="round" stroke-linejoin="round" stroke-miterlimit="10" stroke-width="1.3"/>
    <path id="Path_566" data-name="Path 566" d="M364.985,271.844a3.345,3.345,0,0,1-4.585,0,3,3,0,0,1,0-4.381,3.344,3.344,0,0,1,4.581,0A3,3,0,0,1,364.985,271.844Z" transform="translate(-326.078 -243.665)" fill="none" stroke="#707070" stroke-linecap="round" stroke-linejoin="round" stroke-miterlimit="10" stroke-width="1.3"/>
    <path id="Path_567" data-name="Path 567" d="M143.188,45.627a3.56,3.56,0,0,1-3.193.8,3.6,3.6,0,0,1-5.988-.006,3.423,3.423,0,0,1-4.227-4.042,3.28,3.28,0,0,1,0-5.72,3.431,3.431,0,0,1,4.227-4.042,3.589,3.589,0,0,1,5.982,0,3.427,3.427,0,0,1,4.227,4.042,3.374,3.374,0,0,1,.783.62" transform="translate(-118.241 -31.008)" fill="none" stroke="#707070" stroke-linecap="round" stroke-linejoin="round" stroke-miterlimit="10" stroke-width="1.3"/>
    <path id="Path_568" data-name="Path 568" d="M187.2,94.057a3.345,3.345,0,0,1-4.585,0,3,3,0,0,1,0-4.381,3.344,3.344,0,0,1,4.581,0A3,3,0,0,1,187.2,94.057Z" transform="translate(-166.357 -83.153)" fill="none" stroke="#707070" stroke-linecap="round" stroke-linejoin="round" stroke-miterlimit="10" stroke-width="1.3"/>
    <path id="Path_569" data-name="Path 569" d="M279.6,86.219a3.591,3.591,0,0,1-5.983,0,3.425,3.425,0,0,1-4.227-4.042,3.277,3.277,0,0,1,0-5.722,3.426,3.426,0,0,1,4.227-4.042,3.591,3.591,0,0,1,5.984,0,3.426,3.426,0,0,1,4.227,4.042,3.277,3.277,0,0,1,0,5.721A3.426,3.426,0,0,1,279.6,86.219Z" transform="translate(-243.663 -66.942)" fill="none" stroke="#707070" stroke-linecap="round" stroke-linejoin="round" stroke-miterlimit="10" stroke-width="1.3"/>
    <path id="Path_570" data-name="Path 570" d="M326.826,133.826a3.345,3.345,0,0,1-4.585,0,3,3,0,0,1,0-4.381,3.344,3.344,0,0,1,4.581,0A3,3,0,0,1,326.826,133.826Z" transform="translate(-291.797 -119.058)" fill="none" stroke="#707070" stroke-linecap="round" stroke-linejoin="round" stroke-miterlimit="10" stroke-width="1.3"/>
  </g>
</svg>
