<svg id="Layer_x0020_1" xmlns="http://www.w3.org/2000/svg" width="43.408" height="43.353" viewBox="0 0 43.408 43.353">
  <path id="Path_978" data-name="Path 978" d="M678.262,31.97c-.691,1.759-4.332,1.16-6.487,1.16-3.633,0-22.654.174-23.563-.167-1.917-.719-1.26-4.4-1.26-6.512,0-3.745-.194-22.612.193-23.66.643-1.741,4.546-1.138,6.634-1.138,3.722,0,22.608-.252,23.6.241,1.62.807,1.065,4.6,1.065,6.56q0,3.959,0,7.918c0,2.2.221,14.585-.177,15.6ZM648.06.226c-2.779.839-2.682,2.945-2.681,6.069,0,4.653-.317,23.95.131,25.8.656,2.714,3.159,2.638,6.109,2.635,4.459,0,24.257.284,25.852-.164,2.855-.8,2.563-3.839,2.566-6.2,0-4.457.286-24.208-.175-25.836-.728-2.573-3.3-2.45-6.167-2.448-4.186,0-24.384-.237-25.635.14Z" transform="translate(-636.719 -0.013)" fill="#b3b3b3" fill-rule="evenodd"/>
  <path id="Path_979" data-name="Path 979" d="M642.78,2810.327c.473,1,2.213,2.85,3.262,3,.517-.428.176-.087.605-.6-.141-.983-.5-1.052-1.014-1.632l29.092-.049c-.687.67-1.211.976-.836,2.14,1.221.251,1.5-.422,2.078-1.011a7.059,7.059,0,0,0,1.6-1.848c-.193-.508-2.269-3.095-3.455-3.072-.261.36-.469.445-.285.956.225.627.428.42.859,1.26l-29-.005c.35-.761-.044-.028.455-.736.4-.567.9-.734-.1-1.548a8.171,8.171,0,0,0-3.262,3.146Z" transform="translate(-634.26 -2769.973)" fill="#b3b3b3" fill-rule="evenodd"/>
  <path id="Path_980" data-name="Path 980" d="M2.3,9.138c.008,9.01.2,20.283-.02,28.961-.733-.481-1.06-1.377-1.964-.656-1.064,1.065,2.48,3.589,2.835,3.545.111-.014,2.978-2.4,2.967-3.1-.03-1.8-1.875.108-2.236.282l0-29.1c1.034.523.814,1.243,2.022.878l.141-.431c.158-1.794.233,1.423.037-.418-.086-.809-.437-.76-1.415-1.76C3.9,6.546,3.445,5.693,2.248,6.724c-.46.4-3.621,3.242-1.525,3.3.868.025.13.024.968-.526.546-.359-.332.031.614-.362Z" transform="translate(-0.012 -6.166)" fill="#b3b3b3" fill-rule="evenodd"/>
  <path id="Path_981" data-name="Path 981" d="M1024.413,370.882c1.518.141,1.313-.362,1.307-1.859a15.672,15.672,0,0,0-.16-2.883l-4.587.17c-.306,1.469.405,1.228,1.015,1.434l.755.315L1002.635,388.3a.861.861,0,0,1-.121-.2c-.027-.055-.08-.134-.11-.2l-.161-.4c-.157-.428.119-.163-.224-.716-.326-.525-.6-.411-1.211-.313-.575,2.158-.666,4.476,1.017,4.737l3.049-.152c.05-.015.15-.008.185-.089.248-.578,1.268-.806-1-1.426-.565-.154-.223.038-.561-.188l20.36-20.355c.309.483.2,1.245.558,1.889Z" transform="translate(-987.171 -361.287)" fill="#b3b3b3" fill-rule="evenodd"/>
</svg>
