<svg xmlns="http://www.w3.org/2000/svg" width="50" height="47.001" viewBox="0 0 50 47.001">
  <g id="_0_22_" data-name="0 (22)" transform="translate(-42.34 -30.507)">
    <rect id="Rectangle_283" data-name="Rectangle 283" width="38.878" height="10.038" transform="translate(47.901 66.885)" fill="none" stroke="#707070" stroke-linecap="round" stroke-linejoin="round" stroke-miterlimit="10" stroke-width="1"/>
    <line id="Line_134" data-name="Line 134" x1="49" transform="translate(42.84 77.008)" fill="none" stroke="#707070" stroke-linecap="round" stroke-linejoin="round" stroke-miterlimit="10" stroke-width="1"/>
    <path id="Path_766" data-name="Path 766" d="M101.564,273.8a3.094,3.094,0,0,1-3.262,2.888H58.729a3.094,3.094,0,0,1-3.262-2.888v-6.25a3.1,3.1,0,0,1,3.262-2.9H98.3a3.094,3.094,0,0,1,3.262,2.9Z" transform="translate(-11.176 -209.804)" fill="none" stroke="#707070" stroke-linecap="round" stroke-linejoin="round" stroke-miterlimit="10" stroke-width="1"/>
    <rect id="Rectangle_284" data-name="Rectangle 284" width="26.032" height="6.721" transform="translate(54.324 48.127)" fill="none" stroke="#707070" stroke-linecap="round" stroke-linejoin="round" stroke-miterlimit="10" stroke-width="1"/>
    <path id="Path_767" data-name="Path 767" d="M152.6,121.739v4.184a2.071,2.071,0,0,1-2.183,1.938h-26.5a2.071,2.071,0,0,1-2.183-1.938v-4.184a2.071,2.071,0,0,1,2.183-1.938h26.5A2.071,2.071,0,0,1,152.6,121.739Z" transform="translate(-69.829 -79.734)" fill="none" stroke="#707070" stroke-linecap="round" stroke-linejoin="round" stroke-miterlimit="10" stroke-width="1"/>
    <path id="Path_768" data-name="Path 768" d="M242.494,34.861a2.029,2.029,0,0,1-4.03,0c0-.987,2.012-3.854,2.012-3.854S242.494,33.874,242.494,34.861Z" transform="translate(-173.14)" fill="none" stroke="#707070" stroke-linecap="round" stroke-linejoin="round" stroke-miterlimit="10" stroke-width="1"/>
    <line id="Line_135" data-name="Line 135" y2="3.415" transform="translate(67.337 36.652)" fill="none" stroke="#707070" stroke-linecap="round" stroke-linejoin="round" stroke-miterlimit="10" stroke-width="1"/>
  </g>
</svg>
