<svg xmlns="http://www.w3.org/2000/svg" width="28.649" height="28.716" viewBox="0 0 28.649 28.716">
  <g id="Layer_x0020_1" transform="translate(0 0)">
    <g id="_2043758010080" transform="translate(0 0)">
      <path id="Path_954" data-name="Path 954" d="M2.5,2675.88c.181-.778,1.368-4.392,1.376-4.754l3.393,3.362a8.388,8.388,0,0,0-1.2.336L2.5,2675.88Zm2.049-6.865c.127-.494.309-1.056.446-1.524L5.442,2666l6.959,6.927-3.018.891-4.832-4.8Zm1.579-5.145c0-.3.961-3.271,1.112-3.83a1.28,1.28,0,0,1,.251-.563.875.875,0,0,1,.827-.3c.421,0,1.093.811,1.486,1.2l8.914,8.913a1.093,1.093,0,0,1,.485.892c0,.9-1.047,1.032-2.015,1.3-.457.127-.861.268-1.3.388-1.791.492-.89.893-3.456-1.673l-6.3-6.333ZM0,2677.443a.956.956,0,0,0,.938.938c.271,0,2.454-.683,2.729-.773l13.619-4.083a12.736,12.736,0,0,0,2.589-.915,2.82,2.82,0,0,0,1.267-2.548c0-1.372-1.634-2.666-2.674-3.706l-6.38-6.38c-1.229-1.229-2.153-2.737-3.956-2.737a2.941,2.941,0,0,0-2.3,1.2,33.7,33.7,0,0,0-1.763,5.306c-.126.457-.264.866-.4,1.35-.636,2.227-1.43,4.593-2.051,6.831-.119.428-.262.876-.4,1.35-.176.593-1.211,3.851-1.211,4.168Z" transform="translate(0 -2649.665)" fill="#ed3237" fill-rule="evenodd"/>
      <path id="Path_955" data-name="Path 955" d="M7461.22,6.448a.965.965,0,0,0,1.87.368c.608-1.468,1.172-1.725,2.583-2.3a5.193,5.193,0,0,0,2.471-2.345,5.278,5.278,0,0,0,.458-1.168.977.977,0,0,0-1.9-.338,3.383,3.383,0,0,1-2.469,2.348A5.286,5.286,0,0,0,7462,4.785a4.984,4.984,0,0,0-.312.5,4.731,4.731,0,0,0-.463,1.162Z" transform="translate(-7439.953 0)" fill="#ed3237" fill-rule="evenodd"/>
      <path id="Path_956" data-name="Path 956" d="M7351.5,4343.738a.9.9,0,0,0,.477.837c.5.274,1.394,0,2.146-.154a3.464,3.464,0,0,1,3.366.647.978.978,0,0,0,1.686-.7,1.445,1.445,0,0,0-.78-1.083c-2.134-1.412-3.326-1.043-5.46-.618C7352.416,4342.772,7351.5,4342.836,7351.5,4343.738Z" transform="translate(-7330.544 -4329.909)" fill="#ed3237" fill-rule="evenodd"/>
      <path id="Path_957" data-name="Path 957" d="M5332.571,54.981c0,.747,1.1,2.173,2.564-.751.883-1.761.688-3.1.688-5.067a.968.968,0,0,0-1.7-.514c-.374.493-.019,2.024-.208,3.17a4.694,4.694,0,0,1-.985,2.393,1.085,1.085,0,0,0-.357.768Z" transform="translate(-5317.371 -48.158)" fill="#ed3237" fill-rule="evenodd"/>
      <path id="Path_958" data-name="Path 958" d="M8602.34,2513.124c0,.611.512.417.861.7.254.207.233.924.64.924.387,0,.437-.278.538-.588.141-.433.278-.4.661-.528.295-.1.564-.316.329-.657-.188-.274-.559-.209-.792-.4-.214-.177-.2-.526-.376-.751a.387.387,0,0,0-.694.09c-.236.485-.064.546-.453.735C8602.811,2512.767,8602.34,2512.813,8602.34,2513.124Z" transform="translate(-8577.819 -2504.487)" fill="#ed3237" fill-rule="evenodd"/>
      <path id="Path_959" data-name="Path 959" d="M3803,837.572c.381,0,.4-.692.606-.9.321-.321.9-.081.9-.731,0-.45-.776-.272-.979-.709-.058-.124-.323-1.207-.854-.625-.2.223-.177.6-.405.785-.208.17-.557.159-.755.375-.228.248-.125.511.256.659s.551.119.684.5C3802.551,837.226,3802.59,837.572,3803,837.572Z" transform="translate(-3790.556 -832.062)" fill="#ed3237" fill-rule="evenodd"/>
      <path id="Path_960" data-name="Path 960" d="M8185.4,5838.83a.969.969,0,1,0,1.938,0A.969.969,0,0,0,8185.4,5838.83Z" transform="translate(-8162.069 -5821.248)" fill="#ed3237" fill-rule="evenodd"/>
      <path id="Path_961" data-name="Path 961" d="M6012.871,3389.628a.972.972,0,1,0,1.939.125A.972.972,0,0,0,6012.871,3389.628Z" transform="translate(-5995.732 -3379.114)" fill="#ed3237" fill-rule="evenodd"/>
    </g>
  </g>
</svg>
