<?xml version="1.0" encoding="UTF-8"?>
<!DOCTYPE svg PUBLIC "-//W3C//DTD SVG 1.1//EN" "http://www.w3.org/Graphics/SVG/1.1/DTD/svg11.dtd">
<!-- Creator: CorelDRAW 2021 (64-Bit) -->
<svg xmlns="http://www.w3.org/2000/svg" xml:space="preserve" width="25.9611mm" height="25.9627mm" version="1.1" style="shape-rendering:geometricPrecision; text-rendering:geometricPrecision; image-rendering:optimizeQuality; fill-rule:evenodd; clip-rule:evenodd"
viewBox="0 0 266.85 266.87"
 xmlns:xlink="http://www.w3.org/1999/xlink"
 xmlns:xodm="http://www.corel.com/coreldraw/odm/2003">
 <defs>
  <style type="text/css">
   <![CDATA[
    .fil0 {fill:red}
   ]]>
  </style>
 </defs>
 <g id="Layer_x0020_1">
  <metadata id="CorelCorpID_0Corel-Layer"/>
  <g id="_1692203645104">
   <path class="fil0" d="M251.63 220.7l4.37 1.41 -0.41 -3.06c-0.66,-10.03 -11.26,-39.86 -9.44,-47.3 1.05,-4.29 3.05,-6.06 5.03,-9.32 40.8,-67.32 -2.29,-150.69 -80.22,-161.37 -18.07,-2.48 -35.17,-0.42 -50.95,4.53 -15.3,4.8 -27.21,12.44 -37.35,20.66 -34.45,27.93 -50.09,79.29 -29.2,124.63 19.16,41.59 62.27,66.71 108.74,64.04 22.48,-1.29 39,-11.2 47.01,-9.64 5.39,1.05 15.65,5.61 21.02,7.63l21.39 7.8z"/>
   <path class="fil0" d="M167.96 226.91c-5.03,0.59 -9.68,1.89 -15.13,2.56 -15.01,1.85 -31.56,0 -45.47,-4.14 -18.32,-5.46 -32.12,-14.55 -43.57,-24.66 -17.22,-15.21 -32.97,-42.71 -34.3,-68.7 -0.29,-5.61 -0.61,-10.47 -0.21,-16.42 0.26,-3.92 1.93,-12.14 1.76,-14.56 -3.18,4.44 -14.53,11.28 -23.51,31.89 -6.11,14.04 -9.05,29.73 -6.74,47.52 1.11,8.53 3.23,15.41 5.95,22.27 1.4,3.54 2.8,6.39 4.52,9.44 1.91,3.38 3.54,5.28 5.28,8.68 4.1,8.01 -5.63,33.79 -6.11,46.08 5.93,-1.63 34.01,-13.88 38.63,-14.84 5.94,-1.23 15.38,3.57 21.5,5.12 23.12,5.86 47.14,3.38 67.39,-6.76 7.48,-3.75 26.83,-16.1 30.01,-23.48z"/>
   <path class="fil0" d="M251.63 220.7c0.45,0.44 0.21,0.36 0.88,0.74l4.14 1.32c-0.01,-2.17 -0,-2.25 -1.05,-3.72l0.41 3.06 -4.37 -1.41z"/>
  </g>
 </g>
</svg>
