<svg xmlns="http://www.w3.org/2000/svg" width="46.608" height="43.325" viewBox="0 0 46.608 43.325">
  <g id="Group_858" data-name="Group 858" transform="translate(-1312.129 -117.676)">
    <g id="Layer_x0020_1" transform="translate(1312.129 117.676)">
      <path id="Path_937" data-name="Path 937" d="M12.312,18.677H.818l.369-.971L6.615,3.421l.177-.466H41.45l.177.466,5.429,14.285.369.971h-11.5V17.24h9.422L40.463,4.392H7.779L2.9,17.24h9.415v1.436Zm17.078,0H18.858V17.24H29.39Z" transform="translate(-0.818 14.598)" fill="#707070"/>
      <path id="Path_938" data-name="Path 938" d="M2.326,7.777q-.017-.21-.014-.416a3.2,3.2,0,0,1,.832-2.22,3.48,3.48,0,0,1,2.1-1.018,5.187,5.187,0,0,1,.771-.047h.008v0l.051,0a5.127,5.127,0,0,1,.712.047,3.48,3.48,0,0,1,2.1,1.018,3.2,3.2,0,0,1,.832,2.22q0,.205-.014.416c.826,1.359-.22,2.77-.6,3.209a3.848,3.848,0,0,1-1.454,2.041,2.865,2.865,0,0,1-3.284,0,3.848,3.848,0,0,1-1.454-2.041c-.377-.438-1.422-1.849-.6-3.209Zm1.416-.4a3.256,3.256,0,0,0,.029.449.717.717,0,0,1-.142.59h0c-.5.631.249,1.5.411,1.676a.715.715,0,0,1,.209.334h0a2.5,2.5,0,0,0,.933,1.42,1.464,1.464,0,0,0,1.679,0,2.474,2.474,0,0,0,.917-1.367.715.715,0,0,1,.191-.358l.512.5-.511-.5s.979-.982.46-1.684a.717.717,0,0,1-.168-.57h0A3.31,3.31,0,0,0,8.3,7.372a1.8,1.8,0,0,0-.445-1.249,2.079,2.079,0,0,0-1.257-.581,3.772,3.772,0,0,0-.509-.036.731.731,0,0,1-.074,0v0a3.8,3.8,0,0,0-.567.036,2.079,2.079,0,0,0-1.257.581,1.8,1.8,0,0,0-.445,1.249Z" transform="translate(8.747 23.512)" fill="#707070"/>
      <path id="Path_939" data-name="Path 939" d="M8.869,11.82H8.862v0l-.052,0a21.716,21.716,0,0,1-6.685-1.029l.25-.671-.252.672a.718.718,0,0,1-.463-.737c.005-.449.111-2.849,1.748-3.712h0l.016-.009h0l.021-.01,2.1-1.159h0a.718.718,0,0,1,.865.131A3.658,3.658,0,0,0,11.4,5.28h0a.719.719,0,0,1,.87-.076l2.066,1.14h0v0l.04.024c1.764.974,1.706,3.754,1.706,3.762l-.715-.008.718.011a.719.719,0,0,1-.532.683,22.025,22.025,0,0,1-6.68,1.006Zm-5.755-2.2A21.212,21.212,0,0,0,8.8,10.39a.732.732,0,0,1,.074,0v0a21.375,21.375,0,0,0,5.748-.77,2.578,2.578,0,0,0-.935-1.993l-.05-.025h0l-1.68-.927a5.087,5.087,0,0,1-6.152-.016l-1.672.922c-.017.011-.035.021-.053.031l-.33-.638.328.637c-.7.363-.907,1.39-.966,2.01Z" transform="translate(5.873 31.502)" fill="#707070"/>
      <path id="Path_940" data-name="Path 940" d="M2.326,7.777q-.017-.21-.014-.416a3.2,3.2,0,0,1,.832-2.22,3.48,3.48,0,0,1,2.1-1.018,5.187,5.187,0,0,1,.771-.047h.008v0l.051,0a5.127,5.127,0,0,1,.712.047,3.48,3.48,0,0,1,2.1,1.018,3.2,3.2,0,0,1,.832,2.22q0,.205-.014.416c.826,1.359-.22,2.77-.6,3.209a3.848,3.848,0,0,1-1.454,2.041,2.865,2.865,0,0,1-3.284,0,3.848,3.848,0,0,1-1.454-2.041c-.377-.438-1.422-1.849-.6-3.209Zm1.416-.4a3.256,3.256,0,0,0,.029.449.717.717,0,0,1-.142.59h0c-.5.631.249,1.5.411,1.676a.715.715,0,0,1,.209.334h0a2.5,2.5,0,0,0,.933,1.42,1.464,1.464,0,0,0,1.679,0,2.474,2.474,0,0,0,.917-1.367.715.715,0,0,1,.191-.358l.512.5-.511-.5s.979-.982.46-1.684a.717.717,0,0,1-.168-.57h0A3.31,3.31,0,0,0,8.3,7.372a1.8,1.8,0,0,0-.445-1.249,2.079,2.079,0,0,0-1.257-.581,3.772,3.772,0,0,0-.509-.036.731.731,0,0,1-.074,0v0a3.8,3.8,0,0,0-.567.036,2.079,2.079,0,0,0-1.257.581,1.8,1.8,0,0,0-.445,1.249Z" transform="translate(8.747 23.512)" fill="#707070"/>
      <path id="Path_941" data-name="Path 941" d="M8.869,11.82H8.862v0l-.052,0a21.716,21.716,0,0,1-6.685-1.029l.25-.671-.252.672a.718.718,0,0,1-.463-.737c.005-.449.111-2.849,1.748-3.712h0l.016-.009h0l.021-.01,2.1-1.159h0a.718.718,0,0,1,.865.131A3.658,3.658,0,0,0,11.4,5.28h0a.719.719,0,0,1,.87-.076l2.066,1.14h0v0l.04.024c1.764.974,1.706,3.754,1.706,3.762l-.715-.008.718.011a.719.719,0,0,1-.532.683,22.025,22.025,0,0,1-6.68,1.006Zm-5.755-2.2A21.212,21.212,0,0,0,8.8,10.39a.732.732,0,0,1,.074,0v0a21.375,21.375,0,0,0,5.748-.77,2.578,2.578,0,0,0-.935-1.993l-.05-.025h0l-1.68-.927a5.087,5.087,0,0,1-6.152-.016l-1.672.922c-.017.011-.035.021-.053.031l-.33-.638.328.637c-.7.363-.907,1.39-.966,2.01Z" transform="translate(5.873 31.502)" fill="#707070"/>
      <path id="Path_942" data-name="Path 942" d="M2.346,4.7q-.017-.21-.014-.416a3.2,3.2,0,0,1,.832-2.22,3.48,3.48,0,0,1,2.1-1.018A5.186,5.186,0,0,1,6.039,1h.008V1L6.1,1a5.126,5.126,0,0,1,.712.047,3.48,3.48,0,0,1,2.1,1.018,3.2,3.2,0,0,1,.832,2.22q0,.205-.014.416c.826,1.36-.22,2.77-.6,3.209A3.848,3.848,0,0,1,7.681,9.954a2.865,2.865,0,0,1-3.284,0A3.848,3.848,0,0,1,2.942,7.912c-.377-.438-1.422-1.849-.6-3.209Zm1.416-.4a3.256,3.256,0,0,0,.029.449.717.717,0,0,1-.142.59h0c-.5.631.249,1.5.411,1.676a.715.715,0,0,1,.209.334h0A2.5,2.5,0,0,0,5.2,8.77a1.464,1.464,0,0,0,1.679,0A2.474,2.474,0,0,0,7.8,7.4a.715.715,0,0,1,.191-.358l.512.5-.511-.5s.979-.982.46-1.684a.717.717,0,0,1-.168-.57h0A3.31,3.31,0,0,0,8.316,4.3,1.8,1.8,0,0,0,7.871,3.05,2.079,2.079,0,0,0,6.614,2.47a3.772,3.772,0,0,0-.509-.036.731.731,0,0,1-.074,0v0a3.8,3.8,0,0,0-.567.036,2.079,2.079,0,0,0-1.257.581A1.8,1.8,0,0,0,3.762,4.3Z" transform="translate(8.903 -1)" fill="#707070"/>
      <path id="Path_943" data-name="Path 943" d="M8.888,8.748H8.881v0l-.052,0A21.717,21.717,0,0,1,2.144,7.719l.25-.671-.252.672a.718.718,0,0,1-.463-.737c.005-.449.111-2.849,1.748-3.712h0l.016-.009h0l.021-.01,2.1-1.159h0a.718.718,0,0,1,.865.131A3.7,3.7,0,0,0,8.9,3.2a3.706,3.706,0,0,0,2.514-.989h0a.719.719,0,0,1,.87-.076l2.066,1.14h0v0l.04.024c1.764.974,1.706,3.754,1.706,3.762l-.715-.008.718.011a.719.719,0,0,1-.532.683,22.025,22.025,0,0,1-6.68,1.006Zm-5.755-2.2a21.212,21.212,0,0,0,5.687.771.729.729,0,0,1,.074,0v0a21.375,21.375,0,0,0,5.748-.77,2.578,2.578,0,0,0-.935-1.993l-.05-.025h0L11.979,3.6A5.1,5.1,0,0,1,8.9,4.628,5.107,5.107,0,0,1,5.827,3.585l-1.672.922c-.017.011-.035.021-.053.031L3.772,3.9l.328.637c-.7.363-.907,1.39-.966,2.01Z" transform="translate(6.029 6.989)" fill="#707070"/>
      <path id="Path_944" data-name="Path 944" d="M4.234,7.777q-.017-.21-.014-.416a3.2,3.2,0,0,1,.832-2.22,3.48,3.48,0,0,1,2.1-1.018,5.187,5.187,0,0,1,.771-.047h.008v0l.051,0a5.127,5.127,0,0,1,.712.047,3.48,3.48,0,0,1,2.1,1.018,3.2,3.2,0,0,1,.832,2.22q0,.205-.014.416c.826,1.359-.22,2.77-.6,3.209a3.848,3.848,0,0,1-1.454,2.041,2.865,2.865,0,0,1-3.284,0A3.848,3.848,0,0,1,4.83,10.985c-.377-.438-1.422-1.849-.6-3.209Zm1.416-.4a3.256,3.256,0,0,0,.029.449.717.717,0,0,1-.142.59h0c-.5.631.249,1.5.411,1.676a.715.715,0,0,1,.209.334h0a2.5,2.5,0,0,0,.933,1.42,1.464,1.464,0,0,0,1.679,0,2.474,2.474,0,0,0,.917-1.367.715.715,0,0,1,.191-.358l.512.5-.511-.5s.979-.982.46-1.684a.717.717,0,0,1-.168-.57h0a3.311,3.311,0,0,0,.035-.493,1.8,1.8,0,0,0-.445-1.249A2.079,2.079,0,0,0,8.5,5.542a3.772,3.772,0,0,0-.509-.036.731.731,0,0,1-.074,0v0a3.8,3.8,0,0,0-.567.036,2.079,2.079,0,0,0-1.257.581A1.8,1.8,0,0,0,5.65,7.372Z" transform="translate(23.964 23.512)" fill="#707070"/>
      <path id="Path_945" data-name="Path 945" d="M10.776,11.82h-.007v0l-.052,0a21.716,21.716,0,0,1-6.685-1.029l.25-.671-.252.672a.718.718,0,0,1-.463-.737c.005-.449.111-2.849,1.748-3.712h0l.016-.009h0l.021-.01,2.1-1.159h0a.718.718,0,0,1,.865.131A3.658,3.658,0,0,0,13.3,5.28h0a.719.719,0,0,1,.87-.076l2.066,1.14h0v0l.04.024c1.764.974,1.706,3.754,1.706,3.762l-.715-.008.718.011a.719.719,0,0,1-.532.683,22.025,22.025,0,0,1-6.68,1.006Zm-5.755-2.2a21.212,21.212,0,0,0,5.687.771.732.732,0,0,1,.074,0v0a21.375,21.375,0,0,0,5.748-.77A2.578,2.578,0,0,0,15.6,7.626l-.05-.025h0l-1.68-.927a5.087,5.087,0,0,1-6.152-.016l-1.672.922c-.017.011-.035.021-.053.031l-.33-.638.328.637c-.7.363-.907,1.39-.966,2.01Z" transform="translate(21.089 31.502)" fill="#707070"/>
      <path id="Path_946" data-name="Path 946" d="M4.248,4.7q-.017-.21-.014-.416a3.2,3.2,0,0,1,.832-2.22A3.48,3.48,0,0,1,7.17,1.05,5.186,5.186,0,0,1,7.941,1h.008V1L8,1a5.126,5.126,0,0,1,.712.047,3.48,3.48,0,0,1,2.1,1.018,3.2,3.2,0,0,1,.832,2.22q0,.205-.014.416c.826,1.36-.22,2.77-.6,3.209A3.848,3.848,0,0,1,9.583,9.954a2.865,2.865,0,0,1-3.284,0A3.848,3.848,0,0,1,4.844,7.912c-.377-.438-1.422-1.849-.6-3.209Zm1.416-.4a3.256,3.256,0,0,0,.029.449.717.717,0,0,1-.142.59h0c-.5.631.249,1.5.411,1.676a.715.715,0,0,1,.209.334h0A2.5,2.5,0,0,0,7.1,8.77a1.464,1.464,0,0,0,1.679,0A2.474,2.474,0,0,0,9.7,7.4a.715.715,0,0,1,.191-.358l.512.5-.511-.5s.979-.982.46-1.684a.717.717,0,0,1-.168-.57h0a3.311,3.311,0,0,0,.035-.493A1.8,1.8,0,0,0,9.773,3.05,2.079,2.079,0,0,0,8.516,2.47a3.772,3.772,0,0,0-.509-.036.731.731,0,0,1-.074,0v0a3.8,3.8,0,0,0-.567.036,2.079,2.079,0,0,0-1.257.581A1.8,1.8,0,0,0,5.664,4.3Z" transform="translate(24.076 -1)" fill="#707070"/>
      <path id="Path_947" data-name="Path 947" d="M10.79,8.748h-.007v0l-.052,0A21.716,21.716,0,0,1,4.046,7.719l.25-.671-.252.672a.718.718,0,0,1-.463-.737c.005-.449.111-2.849,1.748-3.712h0l.016-.009h0l.021-.01,2.1-1.159h0a.718.718,0,0,1,.865.131A3.7,3.7,0,0,0,10.8,3.2a3.706,3.706,0,0,0,2.514-.989h0a.719.719,0,0,1,.87-.076l2.066,1.14h0v0l.04.024C18.058,4.268,18,7.049,18,7.057l-.715-.008L18,7.059a.719.719,0,0,1-.532.683,22.025,22.025,0,0,1-6.68,1.006Zm-5.755-2.2a21.212,21.212,0,0,0,5.687.771.729.729,0,0,1,.074,0v0a21.375,21.375,0,0,0,5.748-.77,2.578,2.578,0,0,0-.935-1.993l-.05-.025h0L13.881,3.6A5.1,5.1,0,0,1,10.8,4.628,5.107,5.107,0,0,1,7.729,3.585l-1.672.922c-.017.011-.035.021-.053.031L5.674,3.9,6,4.536c-.7.363-.907,1.39-.966,2.01Z" transform="translate(21.202 6.989)" fill="#707070"/>
    </g>
  </g>
</svg>
