<svg xmlns="http://www.w3.org/2000/svg" width="39.526" height="47.401" viewBox="0 0 39.526 47.401">
  <g id="Group_860" data-name="Group 860" transform="translate(-1564.727 -114.775)">
    <g id="Layer_x0020_1" transform="translate(1565 114.996)">
      <g id="_3092396748080" transform="translate(0 0.004)">
        <path id="Path_1515" data-name="Path 1515" d="M3.838,248.639c1.462-.191,2.932-1.046,4.13-.421a35.434,35.434,0,0,1,3.075,1.888L3.8,249.142c-.225-.026-.244.134-.792-.273l.827-.23Zm13.735-20.571c-.284,2.627-.928,4.975-2.335,6.392A7.735,7.735,0,0,1,8.9,236.476c-5.672-.851-7.2-7.016-5.6-10.578l14.276,2.17ZM17.618,223l.828.292-.4.894-.462,2.987L3.231,225.034l.621-3.977L17.618,223Zm-5,28.135,1.256.069a2.272,2.272,0,0,0-.2-.916c-1.083-.2-4.735-2.442-5.764-3.161l1.391-9.444a.78.78,0,0,1,.18-.087c1.467-.524,5.246.137,7.789-4.609.806-1.5,1.889-8.441,1.88-10.527L3.3,220.21c-.846,1.387-1.669,9-1.253,10.836a7.772,7.772,0,0,0,6.4,6.137l-1.452,9.876C5.76,247.314.546,248.233,0,249.138l.336.21C1.288,249.8,10.243,251,12.622,251.131Z" transform="translate(0 -204.554)" fill="#707070" stroke="#707070" stroke-width="0.4" fill-rule="evenodd"/>
        <path id="Path_1516" data-name="Path 1516" d="M294.425,248.766l.862.221c-.335.248.528.253-.786.29l-7.248.907a30.6,30.6,0,0,1,3.22-1.913c1.1-.476,2.657.326,3.953.495ZM280.888,228.15l.723-.173,13.608-1.949c.225,2.862.749,4.9-.743,7.175-3.8,5.811-13.026,4.4-13.6-4.162-.022-.033-1.052-1.305.008-.891ZM280.6,223.1l13.856-1.925.566,3.987c-1.819.2-13.9,2.285-14.3,1.93a6.577,6.577,0,0,1-.525-3l-.316-.8Zm4.03,27.357a2.932,2.932,0,0,0-.242.871l1.341-.054c.883-.063,11.626-1.317,12.544-2.013-.408-.729-.515-.559-1.509-.783l-5.541-1.294-1.268-9.727c.814-.429,1.366-.448,2.3-.959,6.386-3.511,3.6-10.381,2.973-16.141-1.916-.132-6.138.765-8.251,1.065-2.557.363-5.32.763-7.85,1.181.016,2.356,1.01,8.805,1.974,10.638,2.466,4.688,6.876,4.045,7.947,4.505l1.338,9.58-5.75,3.131Z" transform="translate(-259.276 -204.681)" fill="#707070" stroke="#707070" stroke-width="0.4" fill-rule="evenodd"/>
        <path id="Path_1519" data-name="Path 1519" d="M233.173,7.585c-.628-.839-3.015-3.425-2.729-5.1A1.881,1.881,0,0,1,232.771.954c1.158.32.969,1.324,1.6,2.163,1.025-.422,1.2-1.479,2.626-1.1,1.937.52,2.159,3.872-3.824,5.562Zm-.309.847c1.978-.09,5.287-2.1,5.834-3.214,1.37-2.8-.958-4.928-4.074-3.579a2.632,2.632,0,0,0-5.056,1.009c-.1,2.362,2.228,4.61,3.295,5.784Z" transform="translate(-213.244 -0.004)" fill="#707070" stroke="#707070" stroke-width="0.4" fill-rule="evenodd"/>
        <path id="Path_1520" data-name="Path 1520" d="M153.668,144.354c.086-1.712.074-2.082,1.839-1.588.518,1.515-.149,2.521-.529,3.9-1.782-.108-5.341-.845-2.977-2.707C152.989,144.09,152.542,144.307,153.668,144.354Zm-.756-1.186c-3.691-.259-4.114,4.606,2.619,4.307.235-.719,2.616-5.683-.851-5.73-1.232-.017-1.494.484-1.768,1.424Z" transform="translate(-139.585 -131.667)" fill="#707070" stroke="#707070" stroke-width="0.4" fill-rule="evenodd"/>
        <path id="Path_1521" data-name="Path 1521" d="M443.279,320.134l-.312-.421-.564-.033c-.351,1.208.358,2.493-.6,4.335-1.251,2.4-2.557,1.611-2.181,3.061,1.207.011,2.258-1.315,2.756-2.222.877-1.6.808-2.739.9-4.721Z" transform="translate(-408.305 -296.953)" fill="#707070" stroke="#707070" stroke-width="0.4" fill-rule="evenodd"/>
        <path id="Path_1522" data-name="Path 1522" d="M56.54,320.185c.087,1.9.07,3.19.924,4.664.5.859,1.822,2.374,2.872,2.222.058-.114.656.039-.036-.758-.577-.664-1.076,0-2.178-2.135-1.127-2.18-.3-3.009-.707-4.468l-.567.031-.306.444Z" transform="translate(-52.52 -296.98)" fill="#707070" stroke="#707070" stroke-width="0.4" fill-rule="evenodd"/>
        <path id="Path_1523" data-name="Path 1523" d="M298.177,134.266a2.18,2.18,0,0,0,.833-.577c.646-3.473,4.784-3.47,5.2-3.609.975-.321.309.168.537-.611C302.708,128.343,297.289,131.455,298.177,134.266Z" transform="translate(-276.887 -120.045)" fill="#707070" stroke="#707070" stroke-width="0.4" fill-rule="evenodd"/>
        <path id="Path_1526" data-name="Path 1526" d="M206.2,98.4c.378,1.3,1.433.458,2.805,2.146a8.933,8.933,0,0,1,.918,1.59c.47,1.35-.18,1.236.733,1.808,1.629-2.089-3.229-6.706-4.457-5.543Z" transform="translate(-191.54 -91.234)" fill="#707070" stroke="#707070" stroke-width="0.4" fill-rule="evenodd"/>
        <path id="Path_1527" data-name="Path 1527" d="M339.251,170.378l-.021.54.775.063c.252-2.093,1.155-.6,2.023-1.835,0,0-.09-.956-1.838-.06-.618.316-.716.556-.939,1.293Z" transform="translate(-315.112 -156.709)" fill="#707070" stroke="#707070" stroke-width="0.4" fill-rule="evenodd"/>
        <path id="Path_1528" data-name="Path 1528" d="M143.313,118.573l.541-.132.144-.448-.233-.254c-1.995.052-2.18-.142-2.615.8.058.035.144.026.176.1s.137.071.181.076Z" transform="translate(-131.115 -109.37)" fill="#707070" stroke="#707070" stroke-width="0.4" fill-rule="evenodd"/>
        <path id="Path_1529" data-name="Path 1529" d="M177.531,643.942c.471.353.8.67,1.312.112.279-.3.192.061.116-.518-.118-.9-.019-.114-.369-.442a2.263,2.263,0,0,1,.2.916l-1.256-.069Z" transform="translate(-164.908 -597.365)" fill="#707070" stroke="#707070" stroke-width="0.4" fill-rule="evenodd"/>
        <path id="Path_1530" data-name="Path 1530" d="M352.387,644.737l-1.341.054a2.91,2.91,0,0,1,.242-.871c-.023.022-.421-.023-.4.584a.759.759,0,0,0,.264.468C351.792,645.367,352.036,644.976,352.387,644.737Z" transform="translate(-325.937 -598.141)" fill="#707070" stroke="#707070" stroke-width="0.4" fill-rule="evenodd"/>
        <path id="Path_1531" data-name="Path 1531" d="M293.892,218.779c-.195-1.118.08-.484-.525-.729C292.83,219,293.06,218.689,293.892,218.779Z" transform="translate(-272.241 -202.548)" fill="#707070" stroke="#707070" stroke-width="0.4" fill-rule="evenodd"/>
        <path id="Path_1532" data-name="Path 1532" d="M186.99,95.159c.9-.188.754.177.651-.651C186.814,94.369,187.146,94.238,186.99,95.159Z" transform="translate(-173.696 -87.698)" fill="#707070" stroke="#707070" stroke-width="0.4" fill-rule="evenodd"/>
        <path id="Path_1533" data-name="Path 1533" d="M494.466,620.6c1.315-.036.451-.041.786-.29l-.862-.221.075.511Z" transform="translate(-459.241 -576.005)" fill="#707070" stroke="#707070" stroke-width="0.4" fill-rule="evenodd"/>
        <path id="Path_1534" data-name="Path 1534" d="M297.728,328.754l.009-.891.723-.173-.723.173C296.676,327.448,297.706,328.72,297.728,328.754Z" transform="translate(-276.124 -304.393)" fill="#707070" stroke="#707070" stroke-width="0.4" fill-rule="evenodd"/>
        <path id="Path_1535" data-name="Path 1535" d="M339.335,192.873l-.775-.063.021-.54c-.023.045-.07.062-.072.132l.009.708C340.191,193.439,338.662,193.215,339.335,192.873Z" transform="translate(-314.444 -178.601)" fill="#707070" stroke="#707070" stroke-width="0.4" fill-rule="evenodd"/>
        <path id="Path_1536" data-name="Path 1536" d="M43.152,620.593l.035-.5-.827.23C42.908,620.728,42.927,620.568,43.152,620.593Z" transform="translate(-39.348 -576.005)" fill="#707070" stroke="#707070" stroke-width="0.4" fill-rule="evenodd"/>
        <path id="Path_1537" data-name="Path 1537" d="M172.255,117.322l-.144.448-.541.132c0,.71.466.054.541-.132.346-.237.374.036.144-.448.114-.4.184-.311-.233-.254Z" transform="translate(-159.372 -108.698)" fill="#707070" stroke="#707070" stroke-width="0.4" fill-rule="evenodd"/>
        <path id="Path_1538" data-name="Path 1538" d="M299.448,192.487c.326.245-.471.38.508.143l.325-.72A2.167,2.167,0,0,1,299.448,192.487Z" transform="translate(-278.159 -178.266)" fill="#707070" stroke="#707070" stroke-width="0.4" fill-rule="evenodd"/>
        <path id="Path_1539" data-name="Path 1539" d="M248.239,260.586l.4-.894-.828-.291a2.385,2.385,0,0,1,.275.233l.136.14a1.972,1.972,0,0,0,.135.151Z" transform="translate(-230.192 -240.958)" fill="#707070" stroke="#707070" stroke-width="0.4" fill-rule="evenodd"/>
        <path id="Path_1540" data-name="Path 1540" d="M290.136,260.106c.047-.981-.133-.44.4-1l-.716.2Z" transform="translate(-269.215 -240.689)" fill="#707070" stroke="#707070" stroke-width="0.4" fill-rule="evenodd"/>
        <path id="Path_1541" data-name="Path 1541" d="M56.54,314.8l.306-.444.567-.031c0-.873-.484-.108-.567.031Z" transform="translate(-52.52 -291.591)" fill="#707070" stroke="#707070" stroke-width="0.4" fill-rule="evenodd"/>
        <path id="Path_1542" data-name="Path 1542" d="M480.164,314.537l.312.421-.312-.421c.047-.933-.54-.057-.564-.033Z" transform="translate(-445.503 -291.777)" fill="#707070" stroke="#707070" stroke-width="0.4" fill-rule="evenodd"/>
      </g>
    </g>
  </g>
</svg>
