<svg xmlns="http://www.w3.org/2000/svg" width="56.051" height="38.092" viewBox="0 0 56.051 38.092">
  <g id="Layer_x0020_1" transform="translate(-0.027 0.017)">
    <path id="Path_1353" data-name="Path 1353" d="M19.92,23.828l15.462-.169,1.255,13.267L19.381,36.9l.539-13.073ZM36.5,23.646c3.834.05,12.7-.764,15.462.278L54.9,36.845l-17.237.072L36.5,23.646ZM20.439,11.555l13.755-.142,1.158,11.2-15.388-.007.476-11.054Zm-1.5,11.008-15.364.047,1.905-11.19,13.714-.007Zm16.468-11.05L49.2,11.429,51.755,22.6l-15.4.008-.949-11.091ZM20.834,1.168c2.739-.01,10.417-.4,12.578.222l.685,8.963L20.48,10.344l.354-9.176Zm-13.5.012,12.442-.018-.475,9.185-13.643,0L7.339,1.18Zm48.74,36.661V36.568C54.038,32.407,51.1,10.17,49.21,8.323c-1.945,2.477,4.9,2.057-13.927,1.976l-.794-9.122,11.919-.008c1.682.931,1.23,4.786,2.321,6.29.2-.237.593-.2.385-1.908-.038-.316-.392-1.528-.491-1.948A13.627,13.627,0,0,0,47.69.275C43.99-.3,22.237.152,15.462.151c-3.746,0-8.682-.7-9.308.973C5.5,2.878-.01,35.951.028,37.854c1.776.1,5.925.484,7.21-.322-.83-1.138-3.04-.591-6.182-.639L3.471,23.666l15.376-.016-.515,13.276c-1.459-.017-4.345-.568-5.145.606,1.184.715,38.592.619,42.892.31Z" transform="translate(0 0)" fill="#707070" fill-rule="evenodd"/>
    <path id="Path_1357" data-name="Path 1357" d="M976.825,3142.267l-1.905,11.19,15.364-.047.255-11.15" transform="translate(-971.346 -3130.846)" fill="none" fill-rule="evenodd"/>
    <path id="Path_1361" data-name="Path 1361" d="M2131.927,10136.037c-1.422-.013-1.014.547-1.107.676a1.611,1.611,0,0,0,2.225,0C2132.929,10136.554,2133.4,10136.052,2131.927,10136.037Z" transform="translate(-2123.041 -10099.182)" fill="#707070" fill-rule="evenodd"/>
  </g>
</svg>
