<?xml version="1.0" encoding="UTF-8"?>
<!DOCTYPE svg PUBLIC "-//W3C//DTD SVG 1.1//EN" "http://www.w3.org/Graphics/SVG/1.1/DTD/svg11.dtd">
<!-- Creator: CorelDRAW 2021 (64-Bit) -->
<svg xmlns="http://www.w3.org/2000/svg" xml:space="preserve" width="72.7745mm" height="61.5775mm" version="1.1" style="shape-rendering:geometricPrecision; text-rendering:geometricPrecision; image-rendering:optimizeQuality; fill-rule:evenodd; clip-rule:evenodd"
viewBox="0 0 1208.66 1022.7"
 xmlns:xlink="http://www.w3.org/1999/xlink"
 xmlns:xodm="http://www.corel.com/coreldraw/odm/2003">
 <defs>
  <style type="text/css">
   <![CDATA[
    .fil0 {fill:#707070}
   ]]>
  </style>
 </defs>
 <g id="Layer_x0020_1">
  <metadata id="CorelCorpID_0Corel-Layer"/>
  <path class="fil0" d="M302.88 862.45c-6.48,19.85 -48.8,36.67 -64.65,28.94 -2.88,2.67 -0.58,0.12 -2.41,3.9 -4.35,8.95 -9.36,16.32 3.26,26.74 53.05,43.78 206.37,40.93 269.39,16.01 79.28,-31.34 14.55,-59.94 -38.49,-70.77 -44.75,-9.13 -100.94,-10.02 -147.05,-3.04 -13.85,2.1 -8.83,2.2 -20.06,-1.79zm873.52 141.21c-2.8,-5.29 -11.95,-10.84 -16.33,-16.08 -5.65,-6.76 -10.28,-10.38 -16.4,-15.85l-84.23 -81.07c-4.94,-5.54 -11.44,-10.14 -16.97,-15.32 -3.28,-3.08 -5.08,-6.03 -8.35,-9.09l-42.25 -39.76c-5.38,-4.9 -9.67,-12.4 -19.15,-12.6 -43.43,-0.93 -88.23,0.09 -131.82,0.09 -131.72,0 -263.44,0 -395.16,0l-128.2 -0.8 -6.28 34.28c25.69,-3.35 48.79,-6.25 75.35,-6.25 53.48,0 120.68,7.29 158.39,35.61 7.16,5.38 17.63,13.84 18.89,28.15 3.22,36.61 -52.69,53.31 -81.17,59.71 -55.26,12.4 -115.48,12.69 -171.52,3.52 -38.54,-6.3 -123.78,-27.77 -90.18,-81.97 -15.48,-8.08 -24.08,-16.49 -32.27,-31.92 -17.24,16.04 -22.61,19.68 -39.53,37.65 -11.99,12.74 -28.6,23.77 -39.53,37.09 -6.01,7.32 -13.16,12.6 -20.11,18.88l-18.84 18.78c-6.4,5.7 -36.03,32.39 -38.45,36.98 377.52,1.32 756.38,-1.27 1133.89,0.03l10.24 -0.03zm-780.75 -383.75c-6.09,3.02 -13.01,9.23 -18.95,13.03 -4.8,3.07 -34.85,24.66 -35.9,27.35l-20.69 135.4 75.58 0.06 -0.04 -175.84zm665.42 -87.55c22.32,-40.15 45.91,-78.81 67.94,-118.92l51.32 -89.8c23.67,-40.12 -10.5,-81.49 -49.48,-73.55 -25.6,5.21 -33.54,27.13 -45.12,47.44 -22.59,39.62 -45.59,78.74 -68.07,118.76 -11.1,19.76 -22.58,40.26 -34.13,59.97 -9.08,15.49 -7.42,18.63 -28.46,13.27l-186.41 -45.9c-19.76,-5.07 -68.63,-2.44 -91.75,-2.44l-186.83 0c-44.37,0 -40.85,-0.95 -71.85,20.86l-54.79 39.34c-16.88,13.95 -61.6,44.45 -81.06,58.75 -47.86,35.15 -45.13,27.68 -54.19,85.53 -8.46,54.01 -16.59,107.77 -24.84,162 -2.3,15.13 -3.84,26.44 2.66,39.92 17.08,35.42 68.62,35.93 85.77,-1.2 5.72,-12.38 22.95,-136.75 26.47,-160.38 1.41,-9.44 2.88,-33.87 8,-39.07l41.46 -29.82c4.52,-3.2 8.84,-6.27 13.05,-9.76 4.8,-3.98 9.07,-5.93 13.39,-9.48 7.2,-5.91 7.02,-7.08 17.45,-4.14 4.87,10.52 2.37,81.65 2.37,100.11 0,17.41 1.04,90.7 -0.7,101.8l382.14 0.14c-2.43,-15.14 -0.72,-44.92 -0.72,-61.62 0,-31.13 -2.66,-170.32 2.61,-180.54 11.74,-3.58 61.89,11.64 77.06,15.36 24.93,6.11 49.59,12.15 74.54,18.19 26.83,6.5 53.05,17.71 75.61,1.29 11.42,-8.31 28.34,-41.33 36.56,-56.12zm-248.01 40.85l-0.08 222.53c50.59,-1.1 102.89,-0.02 154.26,-0.09 29.19,-0.04 18.95,1.83 48.95,29.36 7.17,6.58 13.39,11.09 20.04,18.95l70.08 65.69c3.72,3.5 5.89,6.89 9.69,10.44l59.8 57.11c3.27,3.3 6.49,5.63 10.02,8.84 3.86,3.52 5.89,6.87 9.74,10.38 7.06,6.44 16.49,9.89 11.89,23.75 -11.71,3.92 -266,1.82 -300.69,1.82l-755.38 0c-23.89,0 -137.73,2.41 -150.15,-1.83 -5.2,-15.62 7.38,-18.24 15.29,-27.06 11.38,-12.68 44.47,-40.85 58.55,-55.71 5.11,-5.4 6.71,-7.55 11.94,-12.22 8.2,-7.32 14.92,-15.12 23.09,-22.6l47.4 -44.04c13.47,-11.81 12,-16.17 25.37,-20.54 0.25,-0.08 0.72,-0.18 1.05,-0.34 -3.18,-21.68 21.27,-164.68 27.66,-204.46 4.26,-26.54 5.77,-41.37 20.26,-57.85l55.39 -41.37c4.77,-3.39 7.12,-4.6 11.75,-8.43 7.22,-5.98 14.85,-10.61 22.53,-16.47l90.3 -65.58c14.09,-10.53 32.29,-20.54 56.77,-20.52l233.9 0.02c24.58,0 50.54,-2.23 73.74,3.61 20.75,5.22 41.34,10.21 62.53,15.35 21.03,5.1 41.64,10.35 62.47,15.43 19.7,4.8 44.41,12.52 63.92,15.42 1.45,-5.58 10.68,-20.35 14.17,-26.26l103.75 -181.19c5.23,-9.52 10.07,-15.44 18.58,-21.82 28.77,-21.53 70.88,-13.79 88.49,9.72 6.03,8.05 10.56,13.9 13.96,26.31 3.3,12.04 3.24,24.82 -0.21,36.56 -4.18,14.21 -20.93,40.51 -28.54,53.54 -40.25,68.92 -79.44,137.85 -118.4,206.84 -10.53,18.65 -19.58,30.8 -43.49,37.2 -22.1,5.92 -47.67,-3.74 -68.83,-8.74 -21.78,-5.14 -44.14,-10.88 -65.9,-16.16 -10.8,-2.62 -21.46,-5.14 -32.39,-7.83 -8.94,-2.2 -24.83,-7.07 -33.25,-7.78z"/>
  <path class="fil0" d="M484.81 328.47c2.81,6.07 25.83,27.24 33.97,32.92 13.27,9.26 26.97,16.79 45.19,21.98 37.54,10.69 81.82,5.19 112.02,-13.04 22.73,-13.72 30.52,-20.95 44.85,-38.49 6.31,-7.72 3.68,-32.27 3.68,-47.93 0,-16.56 1.7,-128.05 -1.11,-134.01 -4.24,-9 -24.05,-26.96 -33.57,-33.48 -65,-44.5 -147.25,-33.15 -194.25,21.15 -15.69,18.13 -11.44,15.13 -11.44,56.29 0,15.31 -1.11,130.78 0.66,134.61zm-19.25 -155.7c-39.61,4.69 -36.79,44.5 -36.79,66.79 0,22.32 -2.48,60.58 37.1,65.52l-0.31 -132.31zm277.47 132.32c14.23,-1.63 26.15,-11.39 31.32,-20.45 7.89,-13.81 6.02,-29.01 6.02,-46.42 0,-15.98 1.41,-34.06 -6.65,-45.78 -5.77,-8.38 -16.05,-18.03 -30.93,-19.68l0.24 132.33zm0.03 -150.65c10.31,1.54 18.69,4.59 26.4,8.69 28.82,15.32 29.24,48.11 29.24,75.09 0,25.25 1.78,39.53 -10.52,58.85 -8.3,13.04 -23.32,23.01 -44.87,26.39 3.74,18.21 -37.43,50.69 -50.53,58.32 -59.12,34.42 -126.41,35.14 -182.56,-3.76l-23.5 -19.53c-3.99,-4.03 -9.42,-10.12 -13.17,-15.05 -4.85,-6.38 -8.13,-9.88 -8.1,-20.04 -21.79,-3.03 -34.07,-12.6 -43.63,-25.01 -12.92,-16.76 -11.4,-35.54 -11.4,-58.84 0,-25.75 -1.92,-40.05 10.91,-59.33 8.46,-12.72 21.83,-22.41 44.27,-25.78 -1.27,-12.5 9.35,-22.26 19.91,-33.71 60.59,-65.67 173.16,-67.3 237.9,-0.25 8.99,9.31 20.41,20.09 19.66,33.95z"/>
  <path class="fil0" d="M843.11 860.14c-53.24,-1.57 -134.37,3.5 -169.86,32.96 -27.77,23.05 12.75,40.33 35.99,48 134.04,44.26 368.04,-17.35 222.22,-66.24 -26.82,-8.99 -58.46,-13.85 -88.35,-14.73zm-197.16 55.5c-8.07,-32.31 33.8,-50.5 59.63,-58.81 32.54,-10.47 70,-14.54 105.75,-15.48 46.23,-1.21 170.23,8.93 183.7,58.61 8.94,32.97 -33.66,51.36 -60.56,59.61 -32.66,10.01 -69.66,14.24 -105.65,14.96 -45.17,0.91 -170.38,-8.85 -182.87,-58.89z"/>
  <path class="fil0" d="M425.4 145.84c-4.26,-14.98 13.3,-46.24 20.16,-56.94 52.1,-81.32 156.67,-114.86 246.87,-66.51 4.7,2.52 8.63,4.66 12.72,7.47 38.42,26.41 62.51,55.73 77.96,102.26 5.99,18.05 -10.9,21.3 -15.63,11.46 -12.67,-26.39 -5.7,-29.43 -34.22,-65.22 -22.83,-28.66 -69.51,-57.3 -120.85,-59.81 -24.3,-1.19 -47.91,3.38 -68.59,11.34 -16.83,6.48 -24.88,12 -37.9,21.18 -2.06,1.45 -3.68,2.2 -5.74,3.73 -2.12,1.57 -3.92,3.43 -5.8,4.92 -9.11,7.24 -12.12,10.76 -19.19,19.78 -13.22,16.84 -21.98,29.93 -29.59,51 -4.56,12.61 -4.58,23.73 -20.18,15.35z"/>
  <path class="fil0" d="M843.55 895.37c-13.82,-2.68 -31.85,-2.63 -45.68,-0.08 -6.37,1.17 -14.26,2.77 -17.91,7.54 27.92,9.63 53.44,10.96 81.23,-0.15l-17.64 -7.3zm-5.64 -19.23c12.77,1.49 24.2,4.78 33.65,10.16 24.37,13.86 2.57,50.06 -69.4,41.19 -11.94,-1.47 -24.38,-4.8 -32.59,-10.4 -9.31,-6.35 -13.88,-17.72 -3.36,-27.76 14.41,-13.75 48.56,-15.9 71.7,-13.2z"/>
  <path class="fil0" d="M428.71 902.84c-2.65,-3.24 -3.33,-3.44 -8.13,-5.03 -10.25,-3.4 -21.86,-4.45 -32.64,-4.42 -11.36,0.03 -33.08,1.4 -39.92,8.71 22.15,12.9 57.9,8.99 80.69,0.74zm-26.81 -27.16c19.38,1.39 60.78,13.75 42.94,36.33 -23.72,30.01 -143.18,16.84 -112.51,-21.05 11.68,-14.44 46.78,-16.91 69.58,-15.28z"/>
 </g>
</svg>
