<?xml version="1.0" standalone="no"?>
<!DOCTYPE svg PUBLIC "-//W3C//DTD SVG 20010904//EN"
 "http://www.w3.org/TR/2001/REC-SVG-20010904/DTD/svg10.dtd">
<svg version="1.0" xmlns="http://www.w3.org/2000/svg"
 width="58.000000pt" height="58.000000pt" viewBox="0 0 58.000000 58.000000"
 preserveAspectRatio="xMidYMid meet">

<g transform="translate(0.000000,58.000000) scale(0.100000,-0.100000)"
fill="#000000" stroke="none">
<path d="M87 568 c-21 -17 -77 -170 -77 -211 0 -61 84 -187 124 -187 40 0 139
39 168 67 28 27 88 168 88 206 0 38 -15 48 -139 93 -134 48 -140 50 -164 32z
m161 -49 c67 -25 117 -49 122 -59 11 -21 -38 -162 -71 -204 -19 -25 -123 -66
-166 -66 -34 0 -103 110 -103 164 0 38 42 169 62 193 16 20 34 17 156 -28z"/>
<path d="M100 462 c0 -5 20 -9 45 -10 25 0 43 4 39 9 -7 11 -84 12 -84 1z"/>
<path d="M95 430 c-3 -6 4 -10 16 -10 12 0 31 -7 41 -17 16 -15 18 -15 18 0 0
28 -61 50 -75 27z"/>
<path d="M240 433 c1 -11 70 -54 70 -43 0 10 -49 50 -61 50 -5 0 -9 -3 -9 -7z"/>
<path d="M220 381 c0 -6 7 -8 15 -4 9 3 25 -3 37 -13 20 -19 20 -19 17 1 -3
14 -13 21 -37 23 -17 2 -32 -1 -32 -7z"/>
<path d="M94 328 c13 -66 74 -91 130 -54 34 22 33 36 -3 36 -15 0 -49 11 -75
25 -26 14 -50 25 -53 25 -3 0 -3 -15 1 -32z m113 -43 c-7 -19 -55 -17 -76 4
-33 33 -25 39 29 22 27 -9 48 -20 47 -26z"/>
<path d="M423 400 c-35 -14 -27 -21 15 -14 47 7 53 1 86 -93 37 -100 34 -135
-14 -210 -45 -72 -54 -74 -145 -43 -70 24 -92 42 -112 92 -8 21 -19 38 -24 38
-15 0 20 -72 48 -102 26 -27 128 -68 170 -68 39 0 123 126 123 187 0 41 -56
194 -77 211 -19 14 -39 14 -70 2z"/>
<path d="M395 290 c-3 -5 13 -9 40 -8 25 0 45 4 45 9 0 12 -77 11 -85 -1z"/>
<path d="M465 260 c-5 -7 -19 -10 -37 -6 -26 5 -29 4 -18 -9 7 -8 18 -15 24
-15 18 0 52 27 44 35 -3 3 -9 1 -13 -5z"/>
<path d="M332 220 c-7 -11 -22 -20 -35 -20 -16 0 -18 -3 -8 -9 17 -11 51 -2
58 15 9 24 -2 35 -15 14z"/>
<path d="M393 180 c-26 -11 -43 -40 -43 -74 0 -31 3 -32 39 -5 15 11 47 23 69
26 49 7 52 14 16 42 -29 23 -46 25 -81 11z m66 -19 c12 -8 8 -11 -15 -17 -16
-3 -40 -13 -52 -21 -32 -20 -37 -12 -11 20 21 27 52 34 78 18z"/>
</g>
</svg>
