<svg id="_1724643855600" xmlns="http://www.w3.org/2000/svg" width="31.077" height="39.851" viewBox="0 0 31.077 39.851">
  <path id="Path_1116" data-name="Path 1116" d="M20.313,36.7l6.041.013c.215.209.127.466.126.86,0,.254.074.741-.085.859-.162.194-.208.143-.748.137l-5.157-.01c-.268-.047-.113.052-.213-.109-.045-.077-.053-.017-.086-.214-.006-.035-.013-.2-.013-.2-.016-.347-.068-1.212.135-1.332Zm-4.09-5.633,2.707-.013c.282.451.06,7.36.022,7.456a8.712,8.712,0,0,1-2.726-.044c-.077-.094-.058.014-.106-.225l-.01-6.393c-.005-.542-.055-.516.113-.781Zm-4.062-.013,2.707.013c.078.122.059,0,.1.23.007.036.016.2.016.208l-.007,6.181c0,.1.012.37,0,.454-.058.548.041.206-.119.325a8.712,8.712,0,0,1-2.726.044c-.167-.425-.082-5.439-.095-6.662-.01-1.041.03-.655.117-.794ZM4.738,36.712l6.041-.013c.156.159.1-.128.138.415a3.231,3.231,0,0,1-.1,1.335c-.276.253-4.794.118-5.485.121-.773,0-.582-.022-.632-.14-.14-.195-.215-1.582.041-1.72ZM4.671,4.283l21.784-.009-.018,31.152h-6.2c-.065-.981.146-4.363-.183-4.941-.612-1.074-3.122-.671-4.512-.671s-3.9-.4-4.512.671c-.329.573-.119,3.962-.2,4.941h-6.2L4.671,4.283ZM23.649,1.432V3.013l-4.342-.056L23.65,1.432ZM7.452,1.4l4.364,1.57-.535.037H7.442ZM6.2,2.975C3.069,3.4-.784,2.109.151,4.143a24.552,24.552,0,0,0,3.239.15L3.365,38.52a22.434,22.434,0,0,0-3.238.14c-.638,1.576,1.438,1.134,2.739,1.133H28.338c1.283,0,3.257.423,2.627-1.134a22.583,22.583,0,0,0-3.262-.14l.01-34.226a24.576,24.576,0,0,0,3.229-.15c.936-2.035-2.918-.745-6.044-1.169A13.127,13.127,0,0,0,24.773.06c-.86-.332-3.234.8-4.623,1.271-5.931,2.025-3.224,2.087-9.286-.032C9.848.945,7.2-.281,6.319.06A13.127,13.127,0,0,0,6.2,2.975Z" transform="translate(-0.008 0)" fill="#707070" fill-rule="evenodd"/>
  <path id="Path_1117" data-name="Path 1117" d="M843.113,585.983l3.1-.006,0,3.088-2.686.006-.415-.036v-3.052Zm-.208-1.225c-.947.2-1.052.745-1.049,1.813a21.307,21.307,0,0,0,.045,2.765c.184.859.83,1,1.852,1,2.891-.011,3.728.414,3.718-1.961a18.66,18.66,0,0,0-.062-2.763c-.209-.85-.873-.895-1.856-.891A21.094,21.094,0,0,0,842.9,584.758Z" transform="translate(-822.269 -571.106)" fill="#707070" fill-rule="evenodd"/>
  <path id="Path_1118" data-name="Path 1118" d="M548.661,880.334l3.1.013v3.062l-.427.012-2.244,0-.427-.019v-3.071Zm-.494-1.148c-.848.347-.765,1.008-.761,2.066.01,2.887-.321,3.436,2.131,3.427,2.873-.01,3.491.341,3.481-2.08a13.59,13.59,0,0,0-.086-2.722c-.28-.835-1.025-.815-2.047-.81a9.791,9.791,0,0,0-2.718.118Z" transform="translate(-534.673 -858.604)" fill="#707070" fill-rule="evenodd"/>
  <path id="Path_1119" data-name="Path 1119" d="M253.317,290.55l3.044.013.007,3.077-3.1.005.051-3.094Zm-.33-1.185c-.9.277-.981.84-.976,1.913.016,2.9-.394,3.642,2.033,3.63,2.909-.014,3.589.363,3.579-2.058a15.728,15.728,0,0,0-.082-2.718c-.249-.82-.919-.842-1.925-.838a13.613,13.613,0,0,0-2.631.07Z" transform="translate(-246.137 -282.544)" fill="#707070" fill-rule="evenodd"/>
  <path id="Path_1120" data-name="Path 1120" d="M842.7,290.9l3.067,0,.01,3.115-3.12-.032Zm-.266-1.209c-.954.234-1.027.717-1.023,1.825.009,2.687-.463,3.755,1.9,3.745,2.831-.012,3.729.427,3.718-1.946-.011-2.54.435-3.678-1.919-3.669A21.443,21.443,0,0,0,842.435,289.687Z" transform="translate(-821.824 -282.892)" fill="#707070" fill-rule="evenodd"/>
  <path id="Path_1121" data-name="Path 1121" d="M547.712,585.968l3.1.016v3.088l-.44.013-2.241,0-.436-.02Zm-.209-1.208c-.98.228-1.06.681-1.056,1.817.008,2.76-.45,3.769,1.91,3.759,2.792-.011,3.716.426,3.7-1.961-.012-2.78.406-3.663-1.905-3.654a22.34,22.34,0,0,0-2.653.038Z" transform="translate(-533.717 -571.112)" fill="#707070" fill-rule="evenodd"/>
  <path id="Path_1122" data-name="Path 1122" d="M548.038,290.361l3.062.006.007,3.1-3.12-.013.05-3.1Zm-.326-1.177c-.922.3-.974.833-.969,1.908.013,2.751-.436,3.643,2.021,3.63,2.83-.014,3.6.394,3.592-2.058a16.315,16.315,0,0,0-.083-2.728c-.275-.779-1.031-.831-1.935-.827a12.4,12.4,0,0,0-2.625.074Z" transform="translate(-534.013 -282.359)" fill="#707070" fill-rule="evenodd"/>
  <path id="Path_1123" data-name="Path 1123" d="M253.34,880.317l2.666-.007.423.04v3.058l-.425.028h-2.693l.028-3.119Zm-.511-1.137c-.849.329-.769,1.016-.765,2.072.01,2.845-.388,3.435,2.144,3.427,2.824-.009,3.479.357,3.468-2.08-.012-2.751.409-3.544-2.12-3.532a10.166,10.166,0,0,0-2.727.113Z" transform="translate(-246.19 -858.604)" fill="#707070" fill-rule="evenodd"/>
  <path id="Path_1124" data-name="Path 1124" d="M252.825,585.934l2.7-.007.423.044v3.057l-.424.026h-2.693Zm-.178-1.209c-1,.22-1.067.667-1.064,1.821.008,2.868-.426,3.768,1.922,3.759a18.83,18.83,0,0,0,2.786-.063c.826-.209.91-.921.906-1.9-.012-2.762.4-3.663-1.893-3.654a22.834,22.834,0,0,0-2.658.035Z" transform="translate(-245.71 -571.08)" fill="#707070" fill-rule="evenodd"/>
  <path id="Path_1125" data-name="Path 1125" d="M843.414,880.347l3.117-.006v3.119l-2.694.007-.423-.044Zm-.488-1.132c-.83.358-.763,1-.759,2.06a11.8,11.8,0,0,0,.115,2.679c.313.8.98.752,2,.748,2.963-.01,3.5.325,3.493-2.08-.012-3.036.332-3.542-2.145-3.531a9.455,9.455,0,0,0-2.708.124Z" transform="translate(-822.578 -858.628)" fill="#707070" fill-rule="evenodd"/>
</svg>
