<svg xmlns="http://www.w3.org/2000/svg" width="46.592" height="45.977" viewBox="0 0 46.592 45.977">
  <g id="Layer_x0020_1" transform="translate(-0.127 -0.941)">
    <path id="Path_1509" data-name="Path 1509" d="M30.558,20.123l1.747,1a3.294,3.294,0,0,0,2.37.447c-.155,1.305-.955,1.491-1.6,2.082l-2,1.708c-.529.416-1.228,1.223-1.972,1.721-.688.461-1.181,1.305-2.57.932a2.074,2.074,0,0,1-1.467-2.191,2.266,2.266,0,0,1,.606-1.228,9.259,9.259,0,0,1,1.006-.845c.6-.427.627-.632,1.478-1.25l1.529-1.3a6.173,6.173,0,0,0,.875-1.079Zm.7,21.436a.472.472,0,0,1,.275.4,3.082,3.082,0,0,0,1,2.073,3.235,3.235,0,0,0,4.414-.057,3.075,3.075,0,0,0,.945-2.177c-.119-4.709-.277-11.118-.017-11.657,1.029-.089.8.477.808,1.362l.176,10.163a.466.466,0,0,1,.13.294,3.07,3.07,0,0,0,1.007,2.071,3.286,3.286,0,0,0,4.456-.056,3.064,3.064,0,0,0,.954-2.178.465.465,0,0,1,.009-.088c-.287-4.411.34-24.7-.255-26.533a4.882,4.882,0,0,0-2.094-2.265,8.119,8.119,0,0,0-3.846-.45c-1.268,0-3.191-.11-4.383.035-1.071.131-2.508,1-2.67,1.577,3.016,1.467,1.765,1.565,5.713.883a29.614,29.614,0,0,1,3.21-.527A2.976,2.976,0,0,1,44,18.547a2.863,2.863,0,0,1-1.979,1.74l-6.338,1.1a3.494,3.494,0,0,1-1.349,2.534l-1.06.892a19.621,19.621,0,0,0-2.01,1.763c-.212.464.126,11.489-.008,14.985Zm7.179,1.971a4.072,4.072,0,0,1-.816,1.113,4.206,4.206,0,0,1-5.749.072,4.063,4.063,0,0,1-.953-1.313,4.061,4.061,0,0,1-.883,1.24,4.258,4.258,0,0,1-5.788.074,4.067,4.067,0,0,1-.962-1.315,4.064,4.064,0,0,1-.915,1.247,4.479,4.479,0,0,1-5.946.074,4.107,4.107,0,0,1-.84-1.022,4.1,4.1,0,0,1-.763.95,4.5,4.5,0,0,1-5.963.072,4.1,4.1,0,0,1-.945-1.207,4.071,4.071,0,0,1-.823,1.127,4.206,4.206,0,0,1-5.749.072,4.015,4.015,0,0,1-1.3-2.7.461.461,0,0,1,.049-.239q0-.062,0-.13L.034,20.228c0-1.767-.249-4.405.491-5.893A5.162,5.162,0,0,1,4.2,11.655l.365-.079-.225-.168a8.73,8.73,0,0,0-.782-.579,6.969,6.969,0,0,1-1.526-2.27A6.031,6.031,0,0,1,1.954,4.27c1.871-5.4,10.071-5.62,11.919.231.91,2.881-.787,6.291-2.607,6.941.449.259,1.593.359,2.3.765a7.615,7.615,0,0,1,1.551,1.324c.706-.367,1.525-.83,2.237-1.233a8.416,8.416,0,0,1,2.449-.933,7.309,7.309,0,0,1-1.389-1.208,4.509,4.509,0,0,1-.995-1.537A6.147,6.147,0,0,1,23.082.04c6.778-.084,8.429,8.476,3.494,11.326.311.175.918.207,1.34.369.924.353,2.781,1.648,3.476,1.807.788-1.641,3.209-1.817,3.7-2.1a5.345,5.345,0,0,1-2.4-2.755A6.16,6.16,0,0,1,38.428.154,6.65,6.65,0,0,1,42.3,1.406a5.585,5.585,0,0,1,1.533,1.683,6.085,6.085,0,0,1,.456,5.532,6.266,6.266,0,0,1-.42.845c-.151.248-.365.516-.521.747A4.332,4.332,0,0,1,42.007,11.4c-.4.115-.11.025-.225.155l.376.1a5.244,5.244,0,0,1,3.718,2.728c.674,1.472.448,4.171.448,5.94L46.377,40.2a10.469,10.469,0,0,1-.034,1.955,4,4,0,0,1-1.221,2.494,4.258,4.258,0,0,1-5.788.074,4.074,4.074,0,0,1-.9-1.187ZM23.806,41.715a.463.463,0,0,1,.086.241A3.07,3.07,0,0,0,24.9,44.027a3.286,3.286,0,0,0,4.456-.056,3.067,3.067,0,0,0,.951-2.083c0-.016,0-.032,0-.049-.05-1.25.028-13.127-.063-14.436-.886.623-1.946,2.065-3.933,1.521a2.892,2.892,0,0,1-2.152-3.482,3.307,3.307,0,0,1,1.054-1.778c.694-.566,4.212-3.342,4.432-4.015-.356-.433-1.781-.867-1.985-1.317-.229-.5.252-.793.819-.512.366.181.75.427,1.065.605L32.7,20.243a2.357,2.357,0,0,0,1.206.436c.584.03,7.646-1.087,8.429-1.543a2.05,2.05,0,0,0-.908-3.754,14.726,14.726,0,0,0-2.844.4c-4.152.7-3.48,1.075-7.642-1.319-4.09-2.352-3.388-2.153-7.762-2.153-3.087,0-3.347-.306-5.688,1.008L13.22,15.682c-2.7,1.621-6.381-.631-8.368-.286a2.044,2.044,0,0,0-.767,3.777,60.9,60.9,0,0,0,8.453,1.505c.905-.068,4.589-2.547,5.413-2.894.634-.267.976.2.717.613-.278.441-1.592.814-1.96,1.254.207.623,1.448,1.412,2.135,2.127L20.4,23.049c.637.608,1.511,1.024,1.8,2.4a3.035,3.035,0,0,1-4.538,3.18,5.372,5.372,0,0,1-.826-.643,7.454,7.454,0,0,0-.712-.578c-.085,1.053.207,11.238-.021,14.326a.463.463,0,0,1,.005.075,3.885,3.885,0,0,1-.037.49,3.055,3.055,0,0,0,1,1.728,3.506,3.506,0,0,0,4.637-.056,3.013,3.013,0,0,0,.985-2.173.464.464,0,0,1,.139-.326c-.114-4.58-.237-10.22.006-10.723,1.029-.089.8.477.808,1.362l.166,9.609Zm-8.743.3a8.807,8.807,0,0,1,.122-.409c.007-.163.02-.346.021-.546l-.052-14.276c-.063-.461-1.568-1.6-2.013-1.929-.368-.267-.648-.674-1-.943-1.2-.912-1.152-1.08-1.479-2.517-2.479-.643-6.29-.55-7.6-1.794a3.119,3.119,0,0,1-.352-4c1.312-1.748,3.513-1.052,5.852-.638,3.695.655,2.817.56,5.632-.9a3.951,3.951,0,0,0-2.768-1.586c-1.165-.126-3.041-.016-4.282-.016-1.361,0-2.79-.165-3.9.487A4.5,4.5,0,0,0,1.2,15.166C.591,17,1.365,39.045,1.014,42.133A3.086,3.086,0,0,0,2,44.029a3.235,3.235,0,0,0,4.414-.057,3.091,3.091,0,0,0,.875-1.56c-.119-4.71-.277-11.128-.018-11.667,1.029-.089.8.477.808,1.362l.163,9.434a.465.465,0,0,1,.045.086.467.467,0,0,1,.168.327,3.025,3.025,0,0,0,1.042,2.067,3.536,3.536,0,0,0,4.662-.057,3.045,3.045,0,0,0,.936-1.664q-.02-.14-.03-.283ZM11.668,21.568c1.552.221,2.041-.3,3.2-.907a10.623,10.623,0,0,1,.938-.538c.293.3.3.627.813,1.041L18.1,22.411c.223.206.349.223.572.409l1.965,1.732a2.054,2.054,0,0,1-2.261,3.365l-1.532-1.191c-.26-.271-.4-.273-1-.856L12.285,22.9a2.5,2.5,0,0,1-.617-1.332ZM22.637.99a5.43,5.43,0,0,1,3.975,1.236,4.615,4.615,0,0,1,1.206,1.416c1.3,2.276.65,4.156-.6,5.9a5.333,5.333,0,0,1-9.326-2.8A5.332,5.332,0,0,1,22.637.99Zm15.154.159a5.145,5.145,0,0,1,4.017,1.128,4.16,4.16,0,0,1,1.244,1.378,5.664,5.664,0,0,1,.692,1.905,5.266,5.266,0,0,1-4.512,5.906,5.336,5.336,0,0,1-6.021-4.42,5.231,5.231,0,0,1,4.579-5.9Zm-30.6,0a5.341,5.341,0,0,1,5.946,4.428A5.32,5.32,0,0,1,2.607,7.058a5.24,5.24,0,0,1,4.588-5.91Z" transform="translate(0.223 1.003)" fill="#707070" stroke="#707070" stroke-width="0.2" fill-rule="evenodd"/>
    <path id="Path_1510" data-name="Path 1510" d="M8519.068,3063.478l-.312-.124.154-.134c-.412.117-.113.025-.23.158Z" transform="translate(-8475.791 -3048.077)" fill="#707070" fill-rule="evenodd"/>
    <path id="Path_1511" data-name="Path 1511" d="M856.24,3064.214l.375-.081-.231-.173.154.127Z" transform="translate(-851.935 -3048.813)" fill="#707070" fill-rule="evenodd"/>
  </g>
</svg>
