<?xml version="1.0" encoding="UTF-8"?>
<!DOCTYPE svg PUBLIC "-//W3C//DTD SVG 1.1//EN" "http://www.w3.org/Graphics/SVG/1.1/DTD/svg11.dtd">
<!-- Creator: CorelDRAW 2021 (64-Bit) -->
<svg xmlns="http://www.w3.org/2000/svg" xml:space="preserve" width="56.1339mm" height="49.3291mm" version="1.1" style="shape-rendering:geometricPrecision; text-rendering:geometricPrecision; image-rendering:optimizeQuality; fill-rule:evenodd; clip-rule:evenodd"
viewBox="0 0 2026.34 1780.7"
 xmlns:xlink="http://www.w3.org/1999/xlink"
 xmlns:xodm="http://www.corel.com/coreldraw/odm/2003">
 <defs>
  <style type="text/css">
   <![CDATA[
    .fil0 {fill:#707070}
   ]]>
  </style>
 </defs>
 <g id="Layer_x0020_1">
  <metadata id="CorelCorpID_0Corel-Layer"/>
  <path class="fil0" d="M442.54 669.73c0,-83.78 -14.28,-129.67 44.59,-130.2l876.17 0.13c246.23,0 221.44,-27.38 219.89,129.97 -380.22,0.14 -760.39,0.03 -1140.65,0.1zm-113.19 562.31c6.02,29.37 42.33,24.73 72.48,24.84 30.12,0.1 63,-3.58 55.95,-39.86 -5.89,-30.31 -40.94,-25.65 -72.38,-25.79 -30.8,-0.14 -63.68,3.59 -56.04,40.82zm1238.6 0c6.02,29.37 42.33,24.73 72.47,24.84 30.13,0.1 63,-3.58 55.95,-39.86 -5.89,-30.31 -40.95,-25.65 -72.38,-25.79 -30.8,-0.14 -63.68,3.59 -56.04,40.82zm-1238.6 130.38c6.02,29.35 42.33,24.75 72.48,24.84 30.22,0.08 63,-3.51 56.04,-39.91 -5.81,-30.37 -41.05,-25.6 -72.48,-25.74 -30.8,-0.13 -63.68,3.59 -56.04,40.82zm1238.55 -260.76c6.12,29.45 42.43,24.74 72.53,24.84 29.89,0.1 63.32,-3.6 56.05,-39.85 -6.09,-30.37 -41.18,-25.67 -72.49,-25.81 -30.52,-0.13 -63.84,3.51 -56.09,40.82zm-1238.6 0c6.11,29.45 42.43,24.74 72.53,24.84 29.89,0.1 63.32,-3.6 56.05,-39.85 -6.09,-30.37 -41.18,-25.67 -72.49,-25.81 -30.52,-0.13 -63.84,3.51 -56.09,40.82zm1238.65 260.76c6.02,29.36 42.32,24.77 72.48,24.85 30.22,0.09 63,-3.53 56.04,-39.93 -5.81,-30.37 -41.05,-25.6 -72.47,-25.74 -30.8,-0.13 -63.68,3.59 -56.04,40.82zm-1238.65 -391.14c6.1,29.4 42.41,24.71 72.53,24.83 30.08,0.12 63.26,-3.43 56,-39.87 -6.04,-30.32 -40.9,-25.68 -72.43,-25.82 -30.52,-0.13 -63.83,3.55 -56.09,40.85zm1238.61 0c6.08,29.52 42.35,24.71 72.51,24.83 30.08,0.12 63.26,-3.43 56,-39.87 -6.04,-30.31 -40.9,-25.69 -72.43,-25.82 -30.6,-0.13 -63.75,3.58 -56.07,40.85zm-685.39 415.87c0,-52.95 -6.09,-181.7 3.57,-225.04 29.19,-130.98 223.65,-136.72 253.74,-0.09 9.58,43.52 3.27,171.78 3.42,225.1l65.21 0.03c0,-77.32 10.77,-214.8 -17.06,-276.59 -27,-59.94 -89.9,-114.54 -178.49,-114.75 -88.14,-0.21 -151.69,54.77 -178.59,114.62 -28.4,63.19 -17.07,198.17 -17.07,276.68l65.28 0.05zm-814.55 260.78l1890.03 0.03 0.14 64.87 -1890.45 -0.08 0.28 -64.81zm114.11 -130.43l1661.91 0.04 -0.03 64.86 -1662.22 -0.04 0.34 -64.86zm-65.54 64.88c-56.62,-0.17 -104.57,0.29 -113.03,53.81 -8.22,52.01 -3.49,111.85 29.38,131.91 33.47,20.42 262.65,9.87 319.96,9.87l1320.08 0c56.84,0 286.7,10.5 319.87,-9.92 31.96,-19.68 39.81,-83.64 28.84,-135.26 -10.92,-51.38 -57.3,-50.34 -112.36,-50.43 -0.3,-121.77 -2.75,-130.39 -126.34,-130.39l-1540.1 0.08c-123.95,-0.05 -125.77,8.17 -126.3,130.33zm519.34 -1108.25l12.5 -16.1 -96.06 -368.99 -101.3 389.1c11.58,-2.58 24.93,-3.99 40.35,-4.02l144.51 0.01zm-212.68 14.15l0 -6.91 111.92 -461.5 330.69 158.17 138.25 -178.04 138.26 178.04 330.69 -158.17 111.92 461.5 0 0.53c10.71,3.5 20.52,8.24 29.1,14.62 43.49,32.36 34.39,105.93 34.49,173.23 50.24,-0.07 100.48,-0.1 150.72,-0.11 115.72,-0.02 149.69,27.28 142.68,159.26 -2.74,51.49 -65.94,36.74 -113.81,36.81l-0.32 521.36 -65.26 0.06 0.03 -521.5 -260.4 -0.02 -0.31 521.47 -65.28 0.06 0.05 -521.48 -847.11 0.01 -0.32 521.39 -65.26 0.06 0.03 -521.5 -260.4 0.02 -0.32 521.42 -65.26 0.09 0.02 -521.48c-48.31,0 -111.38,14.51 -114.13,-36.77 -2.78,-51.81 -1.56,-94.6 23.97,-127.17 26.77,-34.15 78.62,-32.09 118.7,-32.08 50.24,0.01 100.48,-0.05 150.72,0.1 0.08,-75.4 -9.88,-150.89 45.94,-181.44zm1133.23 -12.78l-100.61 -386.45 -96.06 368.99 12.54 16.15 56.18 0c41.89,0 88.39,-4.31 127.95,1.31zm-264.6 -1.32l-287.76 -370.57 -287.73 370.53 575.49 0.04zm-617.55 -49.49l171.49 -220.84 -267.08 -125.05 95.6 345.89zm488.1 -220.84l171.49 220.84 95.6 -345.89 -267.08 125.05zm255.9 531.06l5.78 -0.04 2.71 -0.02 8.54 -0.06 2.61 -0.02 5.97 -0.04 7.98 -0.05 0.62 -0 8.63 -0.06 4.76 -0.04 3.88 -0.03 8.66 -0.06 1.52 -0.01 7.15 -0.05 6.93 -0.05 1.75 -0.01 8.68 -0.06 3.66 -0.03 5.01 -0.04 8.67 -0.06 0.4 -0 8.26 -0.05 5.78 -0.04 2.85 -0.02 8.61 -0.06 2.52 -0.02 6.07 -0.04 7.84 -0.05 0.71 -0 8.52 -0.05 8.48 -0.05 8.43 -0.05 1.38 -0.01 7 -0.04 6.56 -0.04 1.77 -0.01 8.27 -0.04 3.38 -0.02 4.82 -0.03 8.13 -0.04 0.27 0 7.78 -0.04 5.26 -0.02 2.72 -0.01 7.89 -0.03 2.21 -0.01 5.6 -0.02 0.56 -0 7.16 -0.02 7.61 -0.02 3.98 -0.01 3.53 -0.01 7.4 -0.01 1.12 0 6.18 -0.01 5.57 -0.01 1.6 0 7.05 -0 0.88 0 4.68 0 3.54 0 9.38 0.01 3.17 0.01 4.78 0.01 0.48 0 6.37 0.01 0.09 0 4.15 0.02 1.98 0 5.43 0.03 0.64 0 7.87 0.04 1.86 0.01 7.51 0.05 0.77 0 1.66 0.02 5.13 0.05 2.73 0.03 6.5 0.08 1.67 0.02 6.74 0.1 0.05 0c2.18,0.03 4.27,0.07 6.32,0.11l1.39 0.03c1.97,0.04 3.88,0.08 5.71,0.13l0.92 0.02 4.89 0.13 0.58 0.01 0.42 0.01c1.59,0.05 3.1,0.1 4.55,0.15l0.9 0.03c1.51,0.06 2.95,0.11 4.3,0.17l0.62 0.03c1.14,0.05 2.2,0.11 3.22,0.17l0.88 0.05c1.08,0.06 2.09,0.13 3.02,0.2l0.65 0.05c0.95,0.07 1.83,0.15 2.61,0.23 33.89,3.47 32.54,32.08 32.54,64.82 -113.83,-0.16 -227.64,-0.27 -341.44,-0.34l-35.32 0.43 -14.18 -0.37 -9.12 0.17 -24.89 -0.28 -9.3 0.42 -11.54 0.05 -9.11 -0.47 -25.86 0.13 -9.42 -0.16 -1.77 0 -10.77 0.07 -9.58 -0.02 -28.78 0.26 -9.38 -0.02 -13.19 -0.28 -9.12 0.45 -23.94 -0.04 -8.66 0.05 -13.04 -0.15 -8.68 -0.17 -23.65 0.25 -10.35 -0.19 -11.36 0.5 -10.97 -0.63 -16.55 -0.12 -12.78 0 -8.2 0.77 -12.33 -0.51 -9.03 0.16 -49.88 0.13 -10.7 -0.34 -10.99 0.13 -9.47 -0.1 -50.85 0.26 -8.76 -0.41 -11.96 0.34 -9.29 -0.23 -25.79 0.43 -9.65 -0.52 -12.13 0.37 -9.12 -0.38 -29.76 -0 -9.47 0.38 -12.51 0 -8.94 -0.39 -24.01 0.36 -9.21 -0.24 -12.84 0.05 -8.41 0.06 -44.55 -0.08 -9.3 -0.15 -2.03 0 -11.44 0.31 -9.45 0.34 -53.18 0.1 -24.88 -0.71 -2.98 0 -6.23 0.39 -10.62 -0.28 -12.22 -0.04 -10.35 0.3 -44.05 -0.32 -3.57 0 -9.33 0.32 -11.18 0.06 -7.5 -0.37 -26.45 0.01 -6.95 0.23 -8.42 -0.22 -5.44 0 -8.28 0.39 -43.34 -0.04 -5.95 -0.31 -8.88 0 -6.6 0.23 -8.79 -0.22c-83.14,0.06 -166.29,0.12 -249.44,0.18 0,-80.69 15.75,-64.92 130.34,-64.92l2.97 0 2.99 0 3 0 3.01 0 3.02 0c59.58,-0 125.98,-0.01 178.82,0.13l7.6 -0.11 13.57 0.05 7.75 0.13 10.59 0.02 622.3 0.07 8.5 -0.17 11.78 0.03 9.3 -0.39c21.73,0.66 62.02,0.8 112.54,0.67 44.36,-0.17 88.72,-0.4 133.07,-0.69l7.97 -0.05z"/>
 </g>
</svg>
