<?xml version="1.0" encoding="UTF-8"?>
<!DOCTYPE svg PUBLIC "-//W3C//DTD SVG 1.1//EN" "http://www.w3.org/Graphics/SVG/1.1/DTD/svg11.dtd">
<!-- Creator: CorelDRAW 2021 (64-Bit) -->
<svg xmlns="http://www.w3.org/2000/svg" xml:space="preserve" width="90.0969mm" height="102.857mm" version="1.1" style="shape-rendering:geometricPrecision; text-rendering:geometricPrecision; image-rendering:optimizeQuality; fill-rule:evenodd; clip-rule:evenodd"
viewBox="0 0 3144.13 3589.43"
 xmlns:xlink="http://www.w3.org/1999/xlink"
 xmlns:xodm="http://www.corel.com/coreldraw/odm/2003">
 <defs>
  <style type="text/css">
   <![CDATA[
    .str0 {stroke:#707070;stroke-width:6.98;stroke-miterlimit:22.9256}
    .fil0 {fill:gray}
   ]]>
  </style>
 </defs>
 <g id="Layer_x0020_1">
  <metadata id="CorelCorpID_0Corel-Layer"/>
  <g id="_2656541607984">
   <path class="fil0 str0" d="M1809.09 1026.39c-35.14,-218.76 352.42,-55.43 462.72,-9.43 916.04,382.01 1090.6,1784.45 63.23,2323.28 -534.45,280.31 -1187.26,135.64 -1567.76,-327.26 -359.4,-437.24 -302.69,-778.21 -302.69,-1321.79 0,-120.96 13.29,-446.68 -8.66,-535.47 -88.48,-27.8 -220.36,-11.26 -307.78,-169.99 -58.02,-105.35 -41.5,-312.76 -37.26,-448.55l877.45 -2.04c4.31,223.12 43.19,514.63 -219.79,586.53 -187.16,51.17 -146.32,-92.46 -146.32,680.33 0,164.09 -12.79,389.36 10.87,546.21 82.74,548.45 569.89,1030.61 1213.63,971.91 588.05,-53.61 1042.74,-525.74 1031.83,-1161.36 -2.82,-164.23 -47.47,-311.18 -103.19,-439.27 -109.63,-252.01 -316.76,-433.37 -556.69,-551.63 -64.65,-31.87 -126.75,-51.89 -200.37,-70.41 -97.15,-24.44 -157.81,-4.53 -209.23,-71.04zm-1072.59 -592.18c-7.52,-236.27 -31.33,-352.98 87.86,-320.13 30.23,70.6 14.46,230.13 13.18,320.93l-101.04 -0.8zm-505.73 -244.97c-0,-105.75 102.67,-115.35 102.65,12.31l0.14 184.67 -0.76 48.71 -100.99 -0.7 -1.01 -48 -0.03 -196.98zm492.32 1045.62c183.62,-24.84 316.14,-142.55 355.99,-308.01 21.89,-90.93 12.86,-219.64 13.23,-319.06 0.62,-168.39 24.73,-177.35 -150.4,-172.33 -0.92,-172.13 47.59,-435.66 -156.96,-431.97 -200.04,3.6 -144.83,261.54 -150.9,430.3l-196.5 1.48c-1.32,-178.17 45.26,-429.7 -157.19,-426.06 -199.1,3.58 -144.61,247.22 -151.11,422.37l-110.08 13.46c-27.56,84.51 -16.88,456.72 17.01,541.44 92.74,231.81 290.67,232.2 317.45,261.31 35.9,81.07 0.74,871.22 12.35,1047.18 68.72,1041.41 1282.9,1656.99 2161.93,1053.27 100.4,-68.96 203.43,-163.03 279.64,-249.48 154.76,-175.54 279.54,-419.42 321.45,-726.04 43.86,-320.83 -40.64,-647.1 -173.85,-869.91 -63.5,-106.2 -154.87,-233.12 -226.82,-302.46 -272.78,-262.87 -1000.04,-587.42 -1028.04,-220.64 -20.39,267.12 284.97,125.13 654.81,384.43 732.34,513.47 466.81,1722.84 -466.62,1849.08 -588.7,79.61 -1100.97,-347.41 -1160.8,-935.37 -14.14,-138.98 -4.27,-842.73 -4.57,-1042.99z"/>
   <path class="fil0 str0" d="M1534.65 1443.05l336.91 -0.35c-29.72,97.55 -109.89,230.23 -156.45,328.99 -50.84,107.83 -137.88,244.19 -111.49,316.13 98.39,21.92 431.91,9.62 559.52,7.94 -22.59,49.47 -78.59,125.3 -109.94,174.71l-331.43 504.84c14.55,-87.28 110.76,-394.21 88.58,-473.2 -81.88,-26.16 -501.62,-8.91 -630.94,-12.02l355.24 -847.04zm194.04 549.83c37.82,-144.43 286.86,-522.78 274.64,-635.02 -71.65,-35.11 -435.29,-29.07 -533.89,-11.88 -74.88,143.86 -151.82,351.73 -220.03,514.57 -41.17,98.28 -212.95,440.6 -187.82,524.41 147.34,36.57 467.66,-15.28 641.61,12.65 -28.42,93.73 -166.02,647.47 -143.07,709.33 77.91,23.4 89.52,-23.39 127.18,-81.8l459.53 -710.26c242.97,-383.25 292.74,-328.64 -418.15,-321.99z"/>
   <path class="fil0 str0" d="M698.51 652.62l-295.46 -0.02c-101.87,0 -98.47,79.36 -46.37,99.09 20.89,7.91 172.44,3.86 206.41,3.86 47.96,0.01 248.94,31.12 215.52,-66.91 -12.6,-36.97 -32.93,-36.02 -80.1,-36.02z"/>
   <path class="fil0 str0" d="M332.26 924.97c57.19,29.73 389.76,24.41 440.12,3.32 37.49,-124.83 -115.97,-86.82 -381.64,-86.8 -57.28,0.02 -70.45,28.37 -58.48,83.48z"/>
  </g>
 </g>
</svg>
