<?xml version="1.0" encoding="UTF-8"?>
<!DOCTYPE svg PUBLIC "-//W3C//DTD SVG 1.1//EN" "http://www.w3.org/Graphics/SVG/1.1/DTD/svg11.dtd">
<!-- Creator: CorelDRAW 2021 (64-Bit) -->
<svg xmlns="http://www.w3.org/2000/svg" xml:space="preserve" width="195.141mm" height="195.223mm" version="1.1" style="shape-rendering:geometricPrecision; text-rendering:geometricPrecision; image-rendering:optimizeQuality; fill-rule:evenodd; clip-rule:evenodd"
viewBox="0 0 2314.61 2315.59"
 xmlns:xlink="http://www.w3.org/1999/xlink"
 xmlns:xodm="http://www.corel.com/coreldraw/odm/2003">
 <defs>
  <style type="text/css">
   <![CDATA[
    .fil0 {fill:#707070}
   ]]>
  </style>
 </defs>
 <g id="Layer_x0020_1">
  <metadata id="CorelCorpID_0Corel-Layer"/>
  <path class="fil0" d="M292.8 1633.11l394.53 394.19c-280.41,255.09 -197.52,301.19 -448.45,48.81 -81.02,-81.47 -194.27,-161.18 -154.68,-233.99 10.09,-18.56 185.79,-190.64 208.6,-209.01zm371.73 -369.02c127.07,126.98 255.81,264.8 388.17,386.42 -98.9,106.68 -222.55,225.79 -328.7,327.78 -7.56,-21.53 -337.94,-344.58 -383.4,-387.91l323.93 -326.29zm44.16 -49.58c49.14,-52.81 165.11,-160.52 280.04,-173.43 42.27,76.8 7.82,123.38 80.8,204.47 62.99,69.99 120.87,42.51 205.9,80.76 -17.52,109.92 -117.36,240.9 -177.06,283.53l-389.69 -395.32zm473.44 -218.68c28.22,92.35 52.75,100.25 133.9,143.5l-23.06 125.12c-184.52,-35.08 -208.73,-54.01 -240,-237.06l129.16 -31.56zm45.91 -27.52c55.04,-70.38 153.45,-148.69 222.56,-226.03l121.35 126.74 -226.16 218.33c-73.86,-38.54 -80.15,-45.32 -117.74,-119.04zm330.86 -322.16c40.2,14.92 96.27,71.3 111.75,110 -14.49,35.09 -31.03,48.31 -55.86,64.37 -38.81,-43.75 -77.36,-81.96 -121.06,-121.72l65.16 -52.66zm-47.38 -62.89c-41.33,23.14 -175.47,169.05 -217,210.31 -97.09,96.47 -90.71,128 -273.16,161.63 -256.59,47.3 -394.88,234.1 -517,356.25 -145.95,145.98 -283.53,284.99 -430.53,430.32 -176.73,174.74 -10.65,262.18 229.09,505.14 170.78,173.08 280.6,-9.38 502.29,-232.02 141.25,-141.85 305.08,-288.13 430.71,-441.6 59.27,-72.4 109.56,-173.88 127.71,-296.86 22.78,-154.28 93.43,-185.16 172.02,-264.02 37.79,-37.91 198.97,-181.47 206.72,-233.88 13.53,-91.4 -137.16,-247.73 -230.85,-195.28z"/>
  <path class="fil0" d="M2109 269.18l-63.25 -57.38 71.25 -73.09c32.49,16.85 41.91,27.37 59.92,58.45l-67.92 72.02zm-30.78 64.03c104.5,4.66 169.95,-125.18 169.27,-136.05 -14.41,-32.36 -63.21,-79.63 -85.7,-100.48 -56.72,-52.57 -83.73,-8.92 -118.38,26.07 -93.58,94.49 -87.53,91.09 34.8,210.46z"/>
  <path class="fil0" d="M1755.79 669.94c2.72,1.54 7.32,-0.18 8.82,3.13 1.46,3.22 6.77,2.34 8.79,2.44 68.27,3.86 89.21,-74.4 245.37,-95.68 166.27,-22.66 220.33,77.46 294.84,70.43 5.9,-48.4 -12.58,-67.23 -97.92,-104.31 -116.46,-50.6 -242.32,-31.13 -354.05,21.11 -100.55,47.02 -117.62,60.02 -105.85,102.87z"/>
  <path class="fil0" d="M1666.64 3.16c-9.7,62.85 87.98,141.7 71.67,283.44 -16.1,139.97 -92.01,207.82 -97.91,228.68 -0.69,2.46 -1.66,5.66 -1.99,8.21l6.83 36.1c70.72,17.16 208.61,-240.66 127.25,-452.63 -17.52,-45.64 -54.93,-123.58 -105.85,-103.79z"/>
  <path class="fil0" d="M1699.51 615.82c54.92,20.03 97.94,-50.27 174.03,-126.35 28.83,-28.83 49.25,-49.6 78.48,-78.07 34.31,-33.42 66.06,-46.34 50.48,-98.71 -54.46,-12.63 -105.02,61.58 -174.38,131.37 -70.62,71.05 -146.13,120.36 -128.61,171.77z"/>
 </g>
</svg>
