<svg xmlns="http://www.w3.org/2000/svg" width="49.301" height="44.605" viewBox="0 0 49.301 44.605">
  <g id="_0_1_" data-name="0 (1)" transform="translate(-30.361 -62.866)">
    <path id="Path_758" data-name="Path 758" d="M195.546,281.26a9.422,9.422,0,0,1,6.48,4.016" transform="translate(-146.983 -193.241)" fill="none" stroke="#707070" stroke-linecap="round" stroke-linejoin="round" stroke-miterlimit="10" stroke-width="1.3"/>
    <path id="Path_759" data-name="Path 759" d="M39.318,281.26a9.308,9.308,0,0,0-5.536,2.848,10.263,10.263,0,0,0-2.772,7.06,8.663,8.663,0,0,0,8.431,8.888h9a8.305,8.305,0,0,0,7.045-4.007" transform="translate(0 -193.241)" fill="none" stroke="#707070" stroke-linecap="round" stroke-linejoin="round" stroke-miterlimit="10" stroke-width="1.3"/>
    <path id="Path_760" data-name="Path 760" d="M114.411,121.9a6.027,6.027,0,0,1,.124,1.192v4.334a5.249,5.249,0,0,1-5.11,5.387,4.963,4.963,0,0,1-3.608-1.575,5.508,5.508,0,0,1-1.5-3.811v-4.334a5.422,5.422,0,0,1,.186-1.428" transform="translate(-65.484 -51.589)" fill="none" stroke="#707070" stroke-linecap="round" stroke-linejoin="round" stroke-miterlimit="10" stroke-width="1.3"/>
    <path id="Path_761" data-name="Path 761" d="M116.323,255.894l0,0a5.272,5.272,0,0,0-5.669,0l-.005,0a1.18,1.18,0,0,1-1.786-1.068l0-4.026a1.18,1.18,0,0,1,1.787-1.065h0a5.272,5.272,0,0,0,5.674,0h0a1.18,1.18,0,0,1,1.787,1.065l0,4.026A1.18,1.18,0,0,1,116.323,255.894Z" transform="translate(-69.544 -165.102)" fill="none" stroke="#707070" stroke-linecap="round" stroke-linejoin="round" stroke-miterlimit="10" stroke-width="1.3"/>
    <path id="Path_762" data-name="Path 762" d="M91.21,68.408v1.9H82.544A4.461,4.461,0,0,1,78.2,65.731v-2.2h8.383A4.753,4.753,0,0,1,91.21,68.408Z" transform="translate(-42.16)" fill="none" stroke="#707070" stroke-linecap="round" stroke-linejoin="round" stroke-miterlimit="10" stroke-width="1.3"/>
    <path id="Path_763" data-name="Path 763" d="M279.878,90.812A147.341,147.341,0,0,1,278.329,73.8c-.023-4.864-3.174-9.214-7.719-10.088-6.023-1.151-11.273,3.7-11.273,9.835,0,6.872-1.386,15.687-1.665,18.184v.008" transform="translate(-202.483 -0.002)" fill="none" stroke="#707070" stroke-linecap="round" stroke-linejoin="round" stroke-miterlimit="10" stroke-width="1.3"/>
    <path id="Path_764" data-name="Path 764" d="M272.412,285.588v1.665a8.669,8.669,0,0,1-8.431,8.888h-8.044a8.668,8.668,0,0,1-8.431-8.888v-1.665a9.7,9.7,0,0,1,4.763-8.446,2.275,2.275,0,0,1,3.212,1.072,4.854,4.854,0,0,0,8.957,0,2.275,2.275,0,0,1,3.213-1.072A9.692,9.692,0,0,1,272.412,285.588Z" transform="translate(-193.4 -189.32)" fill="none" stroke="#707070" stroke-linecap="round" stroke-linejoin="round" stroke-miterlimit="10" stroke-width="1.3"/>
    <path id="Path_765" data-name="Path 765" d="M326.436,123.473v4.349a5.278,5.278,0,0,1-5.128,5.414,4.968,4.968,0,0,1-3.629-1.589,5.552,5.552,0,0,1-1.5-3.825v-3.87a4.683,4.683,0,0,0,1.061.115,5.38,5.38,0,0,0,4.8-3.062,4.792,4.792,0,0,0,3.856,1.979,4.975,4.975,0,0,0,.514-.027A5.129,5.129,0,0,1,326.436,123.473Z" transform="translate(-254.75 -51.008)" fill="none" stroke="#707070" stroke-linecap="round" stroke-linejoin="round" stroke-miterlimit="10" stroke-width="1.3"/>
  </g>
</svg>
