<svg xmlns="http://www.w3.org/2000/svg" width="5874.703" height="5537.557" viewBox="0 0 5874.703 5537.557">
  <g id="Layer_x0020_1" transform="translate(0.01 -0.01)">
    <g id="_2422330445168" transform="translate(-0.01 0.01)">
      <path id="Path_1606" data-name="Path 1606" d="M2715.745,4918.539l265.678,1.482,2013.405-.148,215.447-1.334,29.042,412.372-152.917-.3-2378.657-.148,8.149-412.075Zm-259.01-1197.552c140.174,139.285,66.827,1424.112,66.679,1609.479l-1192.366.148c2.964-447.489-33.191-1014.259-4-1443.819,12.891-190.553-41.044-154.695,111.576-201.37.3-.148,902.683-44.6,1018.112,35.414Zm2675.6-1662.674,54.232,32.154c102.093-27.116,78.682-42.23,52.6,62.085l-4,2568.322c-39.415,31.562,29.042,33.339-145.212,54.973l-1788.327-4c-141.952-.444-518.613,59.418-605.888-46.972,115.873-1339.207-23.56-1228.372-766.807-1228.224-976.475.148-799.7-105.649-781.328,1830.409l-507.648,4.3.148-3202.807L2871.922,223.163C3187.98,305.992,4672.7,1766.7,5132.188,2058.313ZM76.893,2541.66c207.3,30.08,167.734-123.874,381.551-203.444l-4,2981.73c-89.053,8.149-193.221-.889-265.382,6.075C-32.46,5347.506,49.777,5318.315-.01,5449.3c189.22,145.656,2362.8,67.123,2615.293,67.123,453.12,0,2979.211,33.044,3150.65-15.41,95.721-27.116,45.49-4,108.761-51.712-73.643-173.81,97.055-84.756-434.746-124.319l-21.486-2979.211c144.471,80.9,217.669,213.521,378.44,199.3,60.751-210.854-317.54-430.3-615.668-670.345-506.907-408.075-967.139-860.454-1486.2-1259.045-128.764-98.833-259.9-214.261-375.179-311.612C3170.94,178.413,3107.225,95.139,2935.638.01,2697.669,88.174,833.328,1764.629,340.793,2167.369c-130.839,106.983-315.021,199.888-263.9,374.291Z" transform="translate(0.01 -0.01)" fill="#707070" fill-rule="evenodd"/>
      <path id="Path_1609" data-name="Path 1609" d="M442.754,426.785l619.966-3.408,6.075,641.6-647.081.148L442.9,426.786ZM274.279,1208.261c166.7,55.714,782.514,110.391,917.649-38.97,103.871-118.836,79.422-483.792,64.011-674.2-26.227-323.467-191.294-256.047-513.131-256.343-264.2-.3-464.233-63.123-502.018,213.224C213.082,654.975,234.271,1045.713,274.279,1208.261Z" transform="translate(3153.606 3211.213)" fill="#707070" fill-rule="evenodd"/>
      <path id="Path_1610" data-name="Path 1610" d="M570.065,311.4c459.64-213.817,688.57,478.161,280.94,658.046C402.627,1167.557,126.873,517.513,570.065,311.4ZM524.428,126.33C-147.547,371.264,191.922,1390.561,895.9,1151.851,1575.434,921.438,1229.445-130.606,524.427,126.33Z" transform="translate(2225.112 1190.948)" fill="#707070" fill-rule="evenodd"/>
    </g>
  </g>
</svg>
