<svg xmlns="http://www.w3.org/2000/svg" width="7096.037" height="7082.033" viewBox="0 0 7096.037 7082.033">
  <g id="Layer_x0020_1" transform="translate(0.002 0.022)">
    <path id="Path_1836" data-name="Path 1836" d="M5448.17,4940.48c14.01-777.98,660.97-1330.65,1396.65-1408.92C6877.73,5130.8,6965.67,4919.46,5448.17,4940.48ZM3109.78,4661.09c-5.67-13.74-21.65-9.61-30.87-17.32l2.87-128.21c121.25-83.26,813.16-82.3,935.12-.03l1.73,128.24c-122.83,106.17-173.89,24.16-347,85.49-82.71,970.41-80.38,1553.45,431.82,2094.69l-1108.39-4.59c507.12-527.09,517.7-1133.92,430.56-2090.09-119.59-42.18-76.41-6.36-176.98-24.95l-138.86-43.23ZM1650.74,4928.6c-316,32.45-1086.13,76.7-1276.02-102.21C169.2,4632.78,243.38,3870.06,254.07,3531.36,1005.37,3619.9,1620.27,4158.35,1650.74,4928.6Zm-65.96-927.77,510.42-2,2906.39-.24,510.98,6.57c-73.13,109.43-67.34,106.77-106.58,226.42l-3706.38-4.54-114.82-226.2ZM700.26,1631.02c307.22-152.61,2743.48-1366.05,2848.12-1366.09,108.81-.05,2542.06,1212.2,2848.53,1373.2l-5696.65-7.11Zm2695.5,251.96c85.28,67.35,53.76,14.4,58.41,192.78,8.74,335.35,22.73,1511.6-23.49,1675.84l-1763.16,38.23c-147.23,1.04-264.71,22.87-376.9-53.09-57.96-39.24-31.74-32.72-74.34-78.68-187.84-239.59-787.99-396.62-1193.17-359.77C-12.26,3603.56.49,4194.52,12.24,4516.419c19.41,531.47,389.38,585.08,542.35,683-62.63,399.8-454.5,1579.87-401.72,1852.42,262.59-1.77,218.57-80.08,281.22-350.6l346.09-1366.89c96.47,158.22,237.79,705.89,302.78,917.43,113.01,367.89,182.69,801.02,389.14,801.63,127.16-142.9,39.53-243.46-21.4-439.6l-415.94-1383.79-28.53-63.98,881.55,3.89-14.54-345.89-52.13-353.68,1017.31-.04,3.05,462.55,348.12,21.99c9.61,475.38,74.32,1082.38-150.2,1445.35-316.09,511.02-865.37,391.36-1133.18,447.73,7.45,238.29,27.09,221.81,270.69,219.64l2311.78-4.41c663.69.15,692.97,79.92,703.78-216.58-243.11-46.37-454.73,13.57-713.55-99.64-707.48-309.44-582.03-1028.78-571.43-1796.07l348.54-25.72,4.4-455,1015.14-1.03-59.67,387.98-3.65,309.83c145.5-5.13,285.6-3.81,430.71-5.1,36.83-.33,191.14-5.33,215.46-1.95,180.39,25.08,71.68-31.03,122.84,59.64l-429.73,1779.2,191.12,64.53,72.67-162.92,389.71-1562.16c91.95,168.5,233.46,694.62,301.7,919.41,194.11,639.38,160.6,790.81,437.92,794.64,57.6-304.42-402.5-1390.31-492.95-1796.78l-24.79-85.71,151.43-17.7c327.64-41.51,501.05-315.37,507.49-677.29,5.97-335.33,24.69-859.07-11.22-1177.43-403.68-32.33-1008.97,121.98-1192.71,361.04-97.42,105.59,84.17-5.65-101.35,97.89-61.83,34.51-16.94,17.07-97.15,30.12-68.45,11.14-220.44,3.8-297.09,3.45l-1624.53-1.11c-77.95-11.22-80.22-29.61-95.1-37.96-22.35-85.28-82.88-1817.41,35.89-1865.67,726.92-30.75,2578.62,94.87,3117.68-40.2,84.58-397.11-351.29-443.41-672.58-613.5L3548.35-.022c-118.68.06-1516.98,712.6-1761.67,828.9-295.35,140.37-570.97,263.62-865.46,417.65-316.77,165.68-727.87,203.52-643.59,597.78,471.67,120.71,2455.2,27.57,3118.1,38.65Z" fill="#707070" fill-rule="evenodd"/>
    <path id="Path_1837" data-name="Path 1837" d="M5881.92,3658.37c-263.27,149.32-603,91.52-1051.3,91.52-387.81,0-776.16-2-1163.91.87l35.89-1865.67c-118.77,48.26-58.24,1780.38-35.89,1865.67,14.88,8.35,17.14,26.74,95.1,37.96l1624.53,1.11c76.64.35,228.63,7.69,297.09-3.45,80.22-13.05,35.33,4.38,97.15-30.12,185.51-103.54,3.93,7.69,101.35-97.89Z" fill="#5c5c5c" fill-rule="evenodd"/>
    <path id="Path_1838" data-name="Path 1838" d="M1216.28,3658.06c42.6,45.95,16.38,39.44,74.34,78.68,112.19,75.96,229.67,54.13,376.9,53.09l1763.16-38.23c46.22-164.24,32.23-1340.49,23.49-1675.84-4.65-178.38,26.87-125.43-58.41-192.78l24.8,1868.64-1667.31-1.85c-313.59.75-312.74,35.85-536.98-91.71Z" fill="#5c5c5c" fill-rule="evenodd"/>
    <path id="Path_1839" data-name="Path 1839" d="M5981.27,5219.52c-51.16-90.67,57.55-34.57-122.84-59.64-24.33-3.38-178.63,1.62-215.46,1.95-145.11,1.29-285.21-.03-430.71,5.1l3.65-309.83c-55.19,114.94-44.84,169.93-25.58,320.66Z" fill="#909090" fill-rule="evenodd"/>
    <path id="Path_1840" data-name="Path 1840" d="M1034.77,5230c204.84-105.42,611.3,6.53,870.9-52.24,20.87-150.71,35.46-245.72-32.42-353.74l14.54,345.89-881.55-3.89,28.53,63.98Z" fill="#909090" fill-rule="evenodd"/>
    <path id="Path_1841" data-name="Path 1841" d="M5551.55,6998.72c85.62,95.58,35.68,101.06,193.75,55.9,25.06-29.39,17.17-7.97,51.82-78.4,33.74-68.6-4.47,34.69,18.22-75.89l-72.67,162.92Z" fill="#909090" fill-rule="evenodd"/>
    <path id="Path_1842" data-name="Path 1842" d="M6451.72,5255.45c8.92-8.47,22.11-34.32,26.53-25.65,4.24,8.31,20.61-19.46,26.15-23.87,19.25-15.34,70.38-51.56,73.97-53.89l-151.43,17.7,24.79,85.71Z" fill="#909090" fill-rule="evenodd"/>
  </g>
</svg>
