<svg xmlns="http://www.w3.org/2000/svg" width="32.164" height="35.9" viewBox="0 0 32.164 35.9">
  <g id="Group_861" data-name="Group 861" transform="translate(-153 -2806.272)">
    <path id="Path_67" data-name="Path 67" d="M17,1417.5c-.572,0-2.254.025-2.753-.031-.143-.016-.325,0-.472,0-.221,0-.266-.037-.474-.039a38.587,38.587,0,0,1-5.188-.636,25.819,25.819,0,0,1-3.088-.8c-.234-.079-.478-.166-.7-.248-.718-.259-1.717-.585-1.717-1.4a8.917,8.917,0,0,1,.162-1.523,7.546,7.546,0,0,1,.742-2.262,6.952,6.952,0,0,1,.422-.86c.127-.194.217-.342.354-.525a6.386,6.386,0,0,1,2.951-2.215,4.125,4.125,0,0,1,2.83-.112,9.82,9.82,0,0,0,2.293.711,16.229,16.229,0,0,0,3.179.338,4.247,4.247,0,0,0,.917,0c.153-.013.354,0,.512,0a21.808,21.808,0,0,0,2.72-.321,12.065,12.065,0,0,0,1.6-.417c1.21-.4.7-.508,2.129-.508a6.107,6.107,0,0,1,2.613.867,6.538,6.538,0,0,1,1.841,1.639,5.934,5.934,0,0,1,.651,1.071c.106.211.162.4.268.611a7.145,7.145,0,0,1,.62,2.018,9.541,9.541,0,0,1,.162,1.6,1.042,1.042,0,0,1-.352.6,6.446,6.446,0,0,1-2.015.916,31.023,31.023,0,0,1-6.494,1.308c-1.169.113-2.419.217-3.7.217Zm-17-2.015a1.674,1.674,0,0,0,1.024,1.5,16.565,16.565,0,0,0,2.524,1.139c.138.052.266.1.432.154.086.03.134.053.214.079l2.151.633a37.781,37.781,0,0,0,5.188.893,47.509,47.509,0,0,0,5.575.213,39.965,39.965,0,0,0,6.633-.656,30.481,30.481,0,0,0,4.8-1.285c.3-.12.583-.226.9-.35l.839-.37c.287-.145.556-.259.823-.422a2.232,2.232,0,0,0,.672-.537,1.9,1.9,0,0,0,.4-.848,8.617,8.617,0,0,0-.058-1.151l-.109-1.1a19.906,19.906,0,0,0-.4-2.057,8.576,8.576,0,0,0-.462-1.369,7.2,7.2,0,0,0-1.018-2.06,11.239,11.239,0,0,0-1.428-1.613l-1.049-.819a9.154,9.154,0,0,0-1.582-.873,7.058,7.058,0,0,0-.887-.322,4.252,4.252,0,0,0-1.766-.212,1.739,1.739,0,0,0-.859.241,13.614,13.614,0,0,1-12.122.394,3.228,3.228,0,0,0-2.406-.635,7.089,7.089,0,0,0-2.711.917,9.868,9.868,0,0,0-2.951,2.507l-.267.356a13.148,13.148,0,0,0-1.9,5.386,16.321,16.321,0,0,0-.19,2.265Z" transform="translate(153 1422.068)" fill="#707070" fill-rule="evenodd"/>
    <path id="Path_68" data-name="Path 68" d="M493.685,15.872a6.623,6.623,0,0,1-4.588-1.9,5.866,5.866,0,0,1-.753-.859c-.121-.178-.2-.289-.321-.485a6.7,6.7,0,0,1-.406-6.016l.281-.562a6.618,6.618,0,0,1,3.2-2.918,6.5,6.5,0,0,1,2.708-.536,6.2,6.2,0,0,1,2.665.6,6.115,6.115,0,0,1,1.711,1.146c.1.094.153.106.24.2a6.645,6.645,0,0,1-4.736,11.329Zm-9.2-7.034v.769a8.756,8.756,0,0,0,.879,3.59c.125.248.233.479.378.721a9.644,9.644,0,0,0,2.071,2.435,9.349,9.349,0,0,0,3.764,1.878,9.242,9.242,0,0,0,7.546-16.485A8.62,8.62,0,0,0,497.7.9,8.772,8.772,0,0,0,494.088.01a8.915,8.915,0,0,0-4.333.869,5.569,5.569,0,0,0-.715.384,9.823,9.823,0,0,0-1.289.909l-.837.812c-.088.111-.173.172-.262.287-.164.212-.318.4-.476.623a8.164,8.164,0,0,0-.816,1.382,9.051,9.051,0,0,0-.869,3.564Z" transform="translate(-324.64 2806.262)" fill="#707070" fill-rule="evenodd"/>
  </g>
</svg>
