<svg xmlns="http://www.w3.org/2000/svg" width="2802.564" height="2500" viewBox="0 0 2802.564 2500">
  <g id="Layer_x0020_1" transform="translate(-0.018)">
    <path id="Path_1749" data-name="Path 1749" d="M2438.987,909.784l158.76.167,138.013,1524.956-41.641,0L2438.987,909.784Zm-295.164.077,93.74.273L2333.8,2180.388l-21.634-.644L2143.821,909.858ZM490.647,2179.24l-21.406,1.33L564.772,911.131l92.34-1.28L490.649,2179.24ZM107.919,2434.579l-39.723.438,135.317-1523.8,158.392-1.339L107.921,2434.582ZM1047.427,311.029c11.642-9.046,32.31-19.48,45.307-27.245,68.439-40.891,116.838-74.732,180.013-115.9L1399.272,73.47c25.082,14.93,46.683,35.858,72.311,53.01l113.99,79.169c145.887,97.215,282.022,172.137,450.6,243.9,114.758,48.846,252.645,96.122,382.557,125.039,55.229,12.293,161.6,29.829,198.486,56.9,54.268,39.825,40.893,135.128,41.026,214.294l-2513.895.014c.154-92.25-16.47-186.157,56.422-223.751C270.642,586.008,364.9,596.51,448.309,596.51c57.108,0,800.558,4.478,819.857-3.459,14.162-5.826,22.156-26.254,12.681-45.163-9.251-18.466-29.285-15.592-53.947-15.5l-548.127.014c-42.578,0-95.068,2.719-136.428-.592,31.8-12.848,69.044-23.6,102.9-35.316,70.869-24.529,129.316-50.871,196.822-80.336,26.523-11.577,69.019-39.974,98.31-39.974l177.518.016c72.885-.174,46.737-51.016,39.5-56.993-17.662-14.58-81.815-4.385-109.96-8.174ZM2662.4,910c72.115-.4,59.752-14.02,59.75-84.128,0-44.217,2.845-96.448-4.536-139.391-23.648-137.566-145-142.295-260.763-169-38.856-8.964-76.231-18.288-114.1-28.776-213.206-59.05-417.308-151-600.084-259.627-47.1-27.991-197.068-124.224-237.566-158.04C1487.866,56.647,1416.422.375,1401.262.009c-19.157-.463-33.548,17.152-45.94,26.2-77.464,56.566-122.029,93.844-209.2,148.872C892.781,335.018,639.355,452.554,343.184,518.118,225.509,544.167,106.178,551.765,84.372,689.349c-6.776,42.742-3.929,95.544-3.929,139.633,0,93.015.835,74.59,58.332,81.865-9.357,142.789-26.5,287.159-38.378,430.377-11.819,142.466-25.626,285.922-38.369,428.316L4.3,2412.742c-3.042,35.165-15.431,79.569,23.617,85.943,11.95,1.951,103.617,1.712,114.79-.594,18.744-3.866,21.851-13.63,25.457-33.767,2.969-16.587,5.584-33.927,8.413-50.785L293.633,1711.5c44.594-267.541,87.842-533.881,133.579-801.526l72.867.863c-5.241,116.856-17.294,239.846-26.624,357.206l-67.908,897.394c-5.55,77.4-10.683,84.064,108.357,79.031,36.2-1.531,36.185-24.529,40.491-57.442l123.329-938.316c15.149-112.4,32.215-226.739,44.461-338.773l1356.872,1c34.67,225.273,59.452,455.706,90.31,681.758l79.018,596.934c4.453,34.343,5.7,54.159,43.465,54.882,115.458,2.211,110.971,2.606,104.888-82.33l-40.5-537.1c-16.536-237.033-42.2-478.036-53.791-715.039l70.528.655c5.71,14.447,63.634,375.214,68.089,401.484l184.19,1104.961c5.412,32.882,4.758,74.6,34.625,81.084,9.583,2.082,108.176,2.066,117.569-.063,35.952-8.147,23.728-53.538,20.612-87.745L2701.083,1339.17c-12.9-141.879-29.495-287.335-38.685-429.178Z" transform="translate(0 0)" fill="#707070" fill-rule="evenodd"/>
    <path id="Path_1755" data-name="Path 1755" d="M7293.352,1571.156c22.641,6.04,157.213,38.888,178.642,37.608,19.3-1.154,34.21-19.193,29.108-40.073-5.457-22.341-22.871-22.876-47.658-27.451-192.177-35.472-443.819-120.067-592.581-235.57l-59.21-46.565c-8.935-9.066-24.818-28.736-42.945-28.587-19.485.16-35.982,18.207-30.847,40.369,6.128,26.466,122.871,109.558,159.167,130.192,141.563,80.479,242.96,126.5,406.323,170.073Z" transform="translate(-5207.936 -952.661)" fill="#707070" fill-rule="evenodd"/>
  </g>
</svg>
