<svg xmlns="http://www.w3.org/2000/svg" width="39.391" height="45.607" viewBox="0 0 39.391 45.607">
  <g id="Layer_x0020_1" transform="translate(-7.31 -7.32)">
    <g id="_0_x0020__x0028_24_x0029_.svg" transform="translate(7.96 7.97)">
      <g id="Group_435" data-name="Group 435">
        <path id="Path_541" data-name="Path 541" d="M148.105,182.74V188.4a9.859,9.859,0,0,1-7.2,9.493l-2.078.583" transform="translate(-129.059 -169.692)" fill="none" stroke="#707070" stroke-linecap="round" stroke-linejoin="round" stroke-miterlimit="22.926" stroke-width="1.3" fill-rule="evenodd"/>
        <path id="Path_542" data-name="Path 542" d="M263.06,182.74V188.4a9.859,9.859,0,0,0,7.2,9.493l2.078.583" transform="translate(-244.014 -169.692)" fill="none" stroke="#707070" stroke-linecap="round" stroke-linejoin="round" stroke-miterlimit="22.926" stroke-width="1.3" fill-rule="evenodd"/>
        <path id="Path_543" data-name="Path 543" d="M85.353,123.02a14.788,14.788,0,0,1,9.333,13.735v17.659h-5.5V136.755a9.284,9.284,0,0,0-9.276-9.276H79.9a9.283,9.283,0,0,0-9.268,9.276v17.659h-5.5V136.755a14.789,14.789,0,0,1,9.326-13.735" transform="translate(-60.862 -114.43)" fill="none" stroke="#707070" stroke-linecap="round" stroke-linejoin="round" stroke-miterlimit="22.926" stroke-width="1.3" fill-rule="evenodd"/>
        <path id="Path_544" data-name="Path 544" d="M65.047,545.108v2.7H30.29v-2.7a1.628,1.628,0,0,1,1.628-1.628h31.5A1.628,1.628,0,0,1,65.047,545.108Z" transform="translate(-28.623 -503.499)" fill="none" stroke="#707070" stroke-linecap="round" stroke-linejoin="round" stroke-miterlimit="22.926" stroke-width="1.3" fill-rule="evenodd"/>
        <line id="Line_76" data-name="Line 76" x1="38.091" transform="translate(0 44.307)" fill="none" stroke="#707070" stroke-linecap="round" stroke-linejoin="round" stroke-miterlimit="22.926" stroke-width="1.3"/>
        <path id="Path_545" data-name="Path 545" d="M179.438,11.917c0,5.18-7.342,9.1-7.342,9.1s-7.336-3.922-7.336-9.1a3.94,3.94,0,0,1,7.336-2,3.943,3.943,0,0,1,7.341,2Z" transform="translate(-153.053 -7.97)" fill="none" stroke="#707070" stroke-linecap="round" stroke-linejoin="round" stroke-miterlimit="22.926" stroke-width="1.3" fill-rule="evenodd"/>
      </g>
    </g>
  </g>
</svg>
