<?xml version="1.0" encoding="utf-8"?>
<!-- Generator: Adobe Illustrator 27.0.0, SVG Export Plug-In . SVG Version: 6.00 Build 0)  -->
<svg version="1.1" id="Layer_1" xmlns="http://www.w3.org/2000/svg" xmlns:xlink="http://www.w3.org/1999/xlink" x="0px" y="0px"
	 viewBox="0 0 200 200" style="enable-background:new 0 0 200 200;" xml:space="preserve">
<g>
	<g>
		<path d="M32.3,62.9c0.8-2.7,2.1-5,4.7-6.3c1.6-0.8,3.2-0.9,5-0.9c25.2,0,50.3,0,75.5,0c12.1,0,24.3,0,36.4,0
			c3.8,0,6.7,1.4,8.5,4.8c0.7,1.3,0.9,2.7,0.9,4.1c0,14.4,0,28.7,0,43.1c0,1.9-0.8,2.6-2.6,2.7c-0.2,0-0.4,0-0.6,0
			c-41.5,0-83,0-124.4,0c-1.4,0-2.6-0.1-3.3-1.6C32.3,93.4,32.3,78.1,32.3,62.9z M38.6,60.6c-1.5,1-2,2.3-2,3.9
			c0,13.5,0,26.9,0,40.4c0,0.8,0.2,1.1,1.1,1.1c0.8,0,1.1-0.3,1.1-1.1c0-3.1,0-6.1,0-9.2c0-4.1,2.2-6.2,6.2-6.3
			c35.2,0,70.4,0,105.6,0c4.1,0,6.2,2.2,6.2,6.2c0,3.1,0,6.1,0,9.2c0,0.8,0.2,1.1,1.1,1.1c1.2,0.1,1.1-0.6,1.1-1.4
			c0-13.3,0-26.5,0-39.8c0-0.5,0-0.9-0.1-1.4c-0.2-1.2-0.7-2.2-2.1-2.9c0,0.8,0,1.4,0,2c-0.2,2.6-1.6,4.6-3.9,5.3
			c-0.9,0.3-1.8,0.3-2.7,0.3c-35,0-69.9,0-104.9,0c-0.6,0-1.2,0-1.8-0.1c-2.5-0.3-4.3-2.1-4.7-4.5C38.7,62.6,38.7,61.7,38.6,60.6z
			 M97.7,59.9c-18.1,0-36.2,0-54.3,0c-0.4,0-0.8,0-1.2,0c-0.3,0-0.5,0.1-0.6,0.5c-0.8,2.9,0.6,4.8,3.6,4.8c35,0,70,0,105,0
			c2.9,0,3.6-0.8,3.6-3.6c0-1.7,0-1.7-1.6-1.7C134.1,59.9,115.9,59.9,97.7,59.9z M97.7,98.1c-18.1,0-36.2,0-54.3,0
			c-0.4,0-0.8,0-1.2,0c-0.3,0-0.5,0-0.6,0.4c-0.6,1.4,0.1,2.5,1.6,2.5c36.3,0,72.6,0,108.9,0c0.3,0,0.7,0,1,0c0.3,0,0.5-0.1,0.6-0.4
			c0.6-1.4-0.1-2.5-1.6-2.5C134,98.1,115.9,98.1,97.7,98.1z M97.7,95.2c18.3,0,36.6,0,54.8,0c0.4,0,1,0.3,1.2-0.3
			c0.2-0.5-0.1-1-0.4-1.4c-0.8-1.1-1.9-1.1-3.1-1.1c-35,0-70.1,0-105.1,0c-0.4,0-0.9,0-1.3,0.1c-0.6,0.1-1.2,0.4-1.7,0.9
			c-0.4,0.5-0.8,1-0.5,1.6c0.2,0.6,0.9,0.3,1.4,0.3C61.3,95.2,79.5,95.2,97.7,95.2z M97.8,103.8c-18.2,0-36.3,0-54.5,0
			c-0.3,0-0.7,0-1,0c-0.5,0-0.6,0.2-0.7,0.7c-0.1,1.4,0,1.5,1.6,1.5c36.3,0,72.7,0,109,0c0.3,0,0.6,0,0.9,0c0.4,0,0.7-0.1,0.7-0.6
			c0.2-1.3,0-1.5-1.4-1.5C134.3,103.8,116,103.8,97.8,103.8z"/>
		<path d="M86,119.3c-0.1,0.2-0.2,0.5-0.3,0.9c-1.9,4-1.8,8,0.2,11.9c2.5,4.8,2.6,9.7,0.3,14.6c-0.4,0.9-1.1,1.5-2.1,1.1
			c-1.1-0.5-1-1.4-0.5-2.3c1-1.9,1.5-3.9,1.4-6c0-1.9-0.5-3.8-1.4-5.5c-2-3.7-2.7-7.6-1.7-11.7c0.3-1.3,0.8-2.6,1.5-3.8
			c0.4-0.7,1-1,1.7-0.7C85.7,117.9,86,118.4,86,119.3z"/>
		<path d="M111.2,139.2c0-2.4-1-4.5-2-6.7c-2.1-4.6-2-9.2,0.2-13.8c0.4-0.9,1-1.4,2-1c1,0.5,1,1.3,0.6,2.3c-0.1,0.2-0.2,0.4-0.3,0.6
			c-1.6,3.5-1.6,7.1,0,10.6c0.8,1.7,1.6,3.4,2,5.2c0.7,3.6,0.3,6.9-1.3,10.2c-0.6,1.2-1.4,1.6-2.2,1.1c-1-0.6-0.8-1.5-0.4-2.3
			C110.8,143.4,111.2,141.3,111.2,139.2z"/>
		<path d="M98,139.6c0-2.1-0.5-4.1-1.5-6c-2.2-4.2-2.6-8.5-1.1-12.9c0.2-0.7,0.6-1.4,0.9-2.1c0.4-0.8,1-1.2,1.9-0.8
			c0.9,0.4,1.1,1.2,0.7,2c-0.8,1.6-1.3,3.2-1.5,5c-0.2,2.6,0.3,5,1.5,7.3c2.2,4.1,2.6,8.4,1,12.8c-0.2,0.7-0.6,1.3-0.9,2
			c-0.4,0.9-1.2,1.3-2.1,0.9c-0.9-0.4-0.9-1.3-0.5-2.1C97.5,143.7,98.1,141.7,98,139.6z"/>
		<path d="M97.7,86.6c-2,0-4,0-6,0c-1,0-2-0.2-2-1.5c0-1.3,1-1.4,2-1.4c4,0,8,0,12,0c1,0,2,0.2,2,1.5c0,1.3-1,1.4-2,1.4
			C101.7,86.6,99.7,86.6,97.7,86.6z"/>
		<path d="M149.2,85.1c-0.1,0.8-0.5,1.3-1.4,1.4c-0.9,0-1.4-0.5-1.4-1.3c0-0.9,0.5-1.5,1.4-1.5C148.7,83.7,149.2,84.2,149.2,85.1z"
			/>
		<path d="M142.6,85.1c0,0.8-0.5,1.4-1.3,1.4c-0.9,0-1.4-0.5-1.4-1.3c0-0.9,0.5-1.5,1.4-1.5C142,83.7,142.5,84.2,142.6,85.1z"/>
	</g>
</g>
</svg>
