<?xml version="1.0" encoding="utf-8"?>
<!-- Generator: Adobe Illustrator 27.0.0, SVG Export Plug-In . SVG Version: 6.00 Build 0)  -->
<svg version="1.1" id="Layer_1" xmlns="http://www.w3.org/2000/svg" xmlns:xlink="http://www.w3.org/1999/xlink" x="0px" y="0px"
	 viewBox="0 0 200 200" style="enable-background:new 0 0 200 200;" xml:space="preserve">
<g>
	<path d="M37.1,138.4c2.8-0.5,5.6-1.3,8.5-1.5c8.8-0.6,14.1,4.6,13.5,13.5c-0.2,2.9-0.3,4.3,3.3,4.6c6.5,0.5,12.5,3.3,17.6,7
		c3.1,2.3,4.3,1.5,6.5-0.5c7.4-6.9,11-6.9,18.9,0.2c1.4,1.3,2.7,3.1,4.9,1.4c5.9-4.7,12.7-7.3,20.1-8.2c2.2-0.3,2.3-1.4,2.2-3.5
		c-0.4-10.2,4-14.8,13.8-14.4c4,0.2,5.2,0.2,5.4-5c0.2-5.2,4.2-10.5,7.4-15.2c2.3-3.3,2-4.5-0.9-6.9c-8.3-6.6-8.3-13.7,0.2-19.9
		c3.2-2.3,3.1-3.6,1.4-6.9c-2.9-5.4-5.3-11.2-7-17.1c-0.9-3.2-1.9-3.5-4.8-3.2c-12.6,1.3-17.6-5.1-14-17.2c0.6-2,1.3-4.3-1.7-4.1
		c-7.5,0.6-13.1-4-19-7.2c-4-2.1-4.8-1.7-6.6,2.1c-3,6.2-9,8.5-14.3,6.5c-5.9-2.3-10.5-10.2-9.1-15.6c2-7.7,16-11.8,20.9-5.2
		c7.7,10.4,19.9,10.8,29.6,16.5c2.6,1.5,5.6,0.8,8.5,0.6c10-0.7,16.3,6.3,14.3,16.2c-0.8,4-0.3,7.5,1.5,11.1c2,4.1,3.6,8.4,5.1,12.7
		c1.3,3.7,3.3,6.7,6.6,9.1c10.2,7.4,9.9,16.9-0.3,23.9c-8.7,6-15.1,21.8-13,32.1c2.2,10.9-5.7,18.4-16.5,15.5
		c-9.4-2.5-24.3,2.7-30.2,10.4c-1.3,1.7-2.4,3.6-3.8,5.2c-7.2,8.4-15.2,7.8-21.2-1.4c-7.3-11.3-20.7-17-33.6-14
		c-5.1,1.2-9.5,0.6-13.1-3.6c-3.5-4-4.3-8.4-2.2-13.4C36.4,141.6,36.7,139.9,37.1,138.4C37.1,138.3,37.1,138.4,37.1,138.4z"/>
	<path d="M96.8,98.4c7.2,0,14.4,0.1,21.6,0c4.8,0,7.1,2.2,7,7c-0.1,7.9-0.1,15.8,0.1,23.8c0.1,3.7-1.5,5.3-5.1,5.1
		c-1.9-0.1-3.8,0-5.8,0c-9.7,0-9.9,0-10.2-9.9c-0.2-6.4-4.3-5.9-8.4-5.9c-4.3,0-9-0.7-9,6.1c0,3.1,2,7.8-1.9,9
		c-5.4,1.6-11.4,1.4-17-0.1c-1.5-0.4-1.6-2.2-1.6-3.7c-0.1-7.4,0.1-14.9-0.3-22.3c-0.4-7.1,3.3-9.3,9.7-9.2
		C82.9,98.5,89.8,98.4,96.8,98.4z M77.8,107c-3,0.1-6.7-0.6-6.7,4.1c0,3.7,2.6,4.7,5.8,4.6c3.4-0.1,7.1,0.3,7.1-4.7
		C83.9,106.8,80.7,107,77.8,107z M114.3,115.3c3,0.2,5.3-0.5,5.6-3.9c0.3-4.1-2.5-4.5-5.6-4.3c-2.9,0.1-6.2,0.1-6.2,4
		C108.1,114.8,111.5,115,114.3,115.3z"/>
	<path d="M95.7,94.1c-8.9,0-17.7,0-26.6,0c-1.6,0-3.6,0.9-4.6-1c-1-1.9,0.8-3,1.8-4.2c8.7-9.9,17.5-19.7,26-29.7
		c2.6-3,4.3-2.9,6.8,0c8.6,10,17.4,19.8,26,29.7c1.1,1.2,2.8,2.4,1.7,4.3c-1,1.8-3,1-4.6,1C113.4,94.1,104.6,94.1,95.7,94.1z"/>
	<path d="M29.6,115.3c-1.2-0.7-2.5-1.4-3.7-2.1C10.6,103.8,11,98.8,24,86.3c7.5-7.2,11.3-18.2,11.2-28.6c0-15.3,3.4-19.5,18.6-17.7
		c0.7,0.1,1.4,0,2.1-0.1l-0.1-0.1c0.3,0.9,0.6,1.8,0.8,2.7c4.8,15.6,2,19.6-14.2,20c-2.5,0.1-2.9,1.1-3.7,3.2
		C36.6,71.9,33.9,78,31.1,84c-1.3,2.8-0.7,4,1.8,5.8c9.1,6.7,9,13.6-0.2,20.5c-1.9,1.4-2.8,3.2-3.3,5.3L29.6,115.3z"/>
	<path d="M50.1,41.7c8.5-3.6,16.9-7.2,25.5-10.6c3.8-1.5,9.1-4.3,11.1,0.9c1.6,4.1-4.7,3.7-7.4,4.8c-9.2,3.8-17.9,11-29.3,4.8
		C50,41.6,50.1,41.7,50.1,41.7z"/>
	<path d="M26.4,109.3c10.8,6.6,15.7,24.6,10.5,37.7c0,0,0,0,0,0c0-9-5.1-15.6-7.5-23.5c-1.4-4.7-3.2-9.3-2.7-14.5
		C26.7,109,26.4,109.3,26.4,109.3z"/>
</g>
</svg>
