<?xml version="1.0"?>
<svg xmlns="http://www.w3.org/2000/svg" viewBox="0 0 64 64" width="30px" height="30px"><g><g id="Loan"><path d="M56.751,34.337a4,4,0,0,0-3.8.1L42.914,40.227A3.967,3.967,0,0,0,41.656,38a4.056,4.056,0,0,0-2.666-1H30.828a1.009,1.009,0,0,1-.707-.293l-.244-.244A4.961,4.961,0,0,0,26.346,35H18.66c-.149,0-.3.01-.5.025a5,5,0,0,0-3.038,1.438L12.5,39.086l-.933-.933a1.029,1.029,0,0,0-.715-.293,1,1,0,0,0-.711.3L2.28,46.305A1.006,1.006,0,0,0,2,47V61a1,1,0,0,0,1,1H17a1,1,0,0,0,.707-.293l8-8a1,1,0,0,0,0-1.414l-.793-.793.207-.207A1.009,1.009,0,0,1,25.828,51h13.1a4.93,4.93,0,0,0,2.5-.674l15.52-8.96a3.962,3.962,0,0,0,2-3.466,4.012,4.012,0,0,0-.534-2A3.921,3.921,0,0,0,56.751,34.337ZM16.586,60H4V47.4l6.873-7.117L23.586,53ZM55.95,39.634,40.421,48.6a2.935,2.935,0,0,1-1.491.4h-13.1a2.978,2.978,0,0,0-2.121.879l-.207.207L13.914,40.5l2.623-2.623a2.987,2.987,0,0,1,1.808-.86c.11-.009.213-.017.315-.017h7.686a2.977,2.977,0,0,1,2.117.877l.244.244A2.978,2.978,0,0,0,30.828,39H38.99a2.053,2.053,0,0,1,1.345.5,1.965,1.965,0,0,1,.659,1.288,1.871,1.871,0,0,1-.134.92,1.81,1.81,0,0,1-.447.708A1.986,1.986,0,0,1,39,43H32.42a1,1,0,0,0,0,2H39a3.979,3.979,0,0,0,2.828-1.173,3.846,3.846,0,0,0,.78-1.113l11.338-6.546a2.009,2.009,0,0,1,1.913-.04,1.926,1.926,0,0,1,.824.77,2.025,2.025,0,0,1,.267,1A1.983,1.983,0,0,1,55.95,39.634Z" data-original="#000000" class="active-path" data-old_color="#000000" fill="#515151"/><path d="M61,4H17a1,1,0,0,0-1,1V31a1,1,0,0,0,1,1H61a1,1,0,0,0,1-1V5A1,1,0,0,0,61,4ZM60,30H18V6H60Z" data-original="#000000" class="active-path" data-old_color="#000000" fill="#515151"/><path d="M20.508,24.951a6.725,6.725,0,0,1,2.541,2.541A1,1,0,0,0,23.92,28H54.08a1,1,0,0,0,.869-.5A6.864,6.864,0,0,1,57.5,24.947a1,1,0,0,0,.5-.867V11.92a1,1,0,0,0-.508-.871A6.734,6.734,0,0,1,54.95,8.508,1,1,0,0,0,54.08,8H23.92a1,1,0,0,0-.87.508,6.734,6.734,0,0,1-2.542,2.541A1,1,0,0,0,20,11.92V24.08A1,1,0,0,0,20.508,24.951ZM31,18a8,8,0,1,1,8,8A8.009,8.009,0,0,1,31,18Zm22.52-8A8.718,8.718,0,0,0,56,12.48V23.523A8.882,8.882,0,0,0,53.522,26H44.974a9.961,9.961,0,0,0,0-16ZM22,12.48A8.718,8.718,0,0,0,24.48,10h8.546a9.961,9.961,0,0,0,0,16H24.48A8.731,8.731,0,0,0,22,23.52Z" data-original="#000000" class="active-path" data-old_color="#000000" fill="#515151"/><path d="M39,15a1,1,0,0,1,1,1,1,1,0,0,0,2,0,3,3,0,0,0-2-2.816V12a1,1,0,0,0-2,0v1.184A2.993,2.993,0,0,0,39,19a1,1,0,1,1-1,1,1,1,0,0,0-2,0,3,3,0,0,0,2,2.816V24a1,1,0,0,0,2,0V22.816A2.993,2.993,0,0,0,39,17a1,1,0,0,1,0-2Z" data-original="#000000" class="active-path" data-old_color="#000000" fill="#515151"/><path d="M51,19h2a1,1,0,0,0,0-2H51a1,1,0,0,0,0,2Z" data-original="#000000" class="active-path" data-old_color="#000000" fill="#515151"/><path d="M25,19h2a1,1,0,0,0,0-2H25a1,1,0,0,0,0,2Z" data-original="#000000" class="active-path" data-old_color="#000000" fill="#515151"/></g></g> </svg>
