<?xml version="1.0" encoding="utf-8"?>
<!-- Generator: Adobe Illustrator 27.0.0, SVG Export Plug-In . SVG Version: 6.00 Build 0)  -->
<svg version="1.1" id="Layer_1" xmlns="http://www.w3.org/2000/svg" xmlns:xlink="http://www.w3.org/1999/xlink" x="0px" y="0px"
	 viewBox="0 0 200 200" style="enable-background:new 0 0 200 200;" xml:space="preserve">
<g>
	<g>
		<path d="M26.5,72.6c0.5-2.4,1.9-3.1,4.4-2.6c46,7.7,87-4.3,124.1-31.4c3.9-2.8,7.7-5.7,11.3-8.8c1.8-1.5,2.6-0.7,3.6,0.6
			c0.9,1.2,2.7,2.2,0.5,3.9c-3,2.3-5.9,4.8-8.9,7.1c-1.2,0.9-1.8,1.9-1.6,3.6c1.1,13.1,2,26.2,3,39.4c0.2,3.3,0.4,6.5,0.7,10
			c-1.6-0.3-2.5-1.4-3.5-2.2c-10.7-8.9-21.4-17.8-32.1-26.7c-0.9-0.7-1.7-2.1-2.9-1.7c-1.3,0.4-0.9,2-1,3.2c-2.2,19-4.5,38-6.8,57.5
			c-1.5-1.8-2.8-3.4-4.1-4.9C102.2,106,91.4,92.6,80.6,79.2c-2.6-3.3-4.9-2.9-6.5,0.9c-3.4,8.1-6.6,16.3-10.2,24.3
			c-1.2,2.8-0.7,4,2,5.5c18.1,10.1,37.2,15.8,58.1,15.8c15.5,0,30.5-2.6,45.2-7.3c2.7-0.9,3.9-0.4,4.5,2.4c0.4,1.7,0.3,2.7-1.6,3
			c-0.2,0-0.4,0.2-0.6,0.2c-6.8,0.6-9.4,4.7-10.9,11c-2.5,10.2-5.9,20.2-9.2,31.1c-6.4-11.7-12.5-22.8-18.9-34.5
			c-7.5,14.1-14.8,27.7-22.1,41.4c-1.3-0.8-1.3-2-1.6-2.9c-4.2-13-8.4-26-12.6-39c-1.2-3.7-1.5-3.8-4.3-0.9
			c-9.2,9.4-18.4,18.9-27.6,28.3c-0.7,0.7-1.3,1.7-2.9,2.2c-0.4-15.1-0.8-30.1-1.2-46.1c-3.5,6-5.1,12-8.1,17.7
			c-3.2-7.7-6.3-15.1-9.4-22.4c-4.3-10.3-8.6-20.6-12.9-30.9c-0.7-1.7-1.4-3.2-3.3-3.7C26.5,74.3,26.5,73.4,26.5,72.6z M112.9,109.2
			c1.6-14.7,3.1-28.4,4.7-42.7c-10.6,4.3-21,6.9-31.9,9.5C94.8,87.1,103.1,98,112.9,109.2z M52.2,116.9c5.4-12.9,10.4-25,15.5-37
			c0.7-1.6,0-1.8-1.4-1.8c-10.1,0-20.2,0.2-30.8-1.2C41.1,90.3,46.5,103.3,52.2,116.9z M153.8,46.9c-7.2,4.6-13.9,8.7-20.8,12.5
			c-2.2,1.2-0.2,1.9,0.5,2.5c6.9,5.9,13.9,11.8,20.9,17.7c0.5,0.5,1,1.2,2.2,0.7C155.6,69.5,154.7,58.6,153.8,46.9z M111.4,158.5
			c4.8-9.3,9.2-17.6,13.7-26.3c-7.3-0.7-14-0.8-20.7-2.1c-1.4-0.3-1.9,0.3-1.4,1.6C105.7,140.4,108.5,149.1,111.4,158.5z
			 M67.3,147.1c6.6-7,12.5-13.2,18.4-19.5c0.6-0.6,1.8-1.5,0-2.1c-6-2-11.7-4.7-17.3-7.4c-1.3-0.6-1.8-0.4-1.8,1.1
			C66.4,128.1,66.9,137.1,67.3,147.1z M149.8,150.5c2.2-7.3,4.2-13.8,6.1-20.2c0.5-1.5-0.1-1.9-1.6-1.7c-4.4,0.8-8.8,1.4-13.1,2.2
			c-1,0.2-1.9,0.4-1.1,1.9C143.1,138.4,146.2,144,149.8,150.5z"/>
	</g>
</g>
</svg>
