<svg xmlns="http://www.w3.org/2000/svg" width="32.482" height="21.655" viewBox="0 0 32.482 21.655">
  <path id="Icon_awesome-eye" data-name="Icon awesome-eye" d="M32.286,14.5a18.088,18.088,0,0,0-16.045-10A18.09,18.09,0,0,0,.2,14.5a1.824,1.824,0,0,0,0,1.646,18.088,18.088,0,0,0,16.045,10,18.09,18.09,0,0,0,16.045-10A1.824,1.824,0,0,0,32.286,14.5ZM16.241,23.448a8.121,8.121,0,1,1,8.121-8.121A8.121,8.121,0,0,1,16.241,23.448Zm0-13.534a5.375,5.375,0,0,0-1.427.214A2.7,2.7,0,0,1,11.041,13.9a5.4,5.4,0,1,0,5.2-3.986Z" transform="translate(0 -4.5)" fill="#707070"/>
</svg>
