<?xml version="1.0" encoding="utf-8"?>
<!-- Generator: Adobe Illustrator 27.0.0, SVG Export Plug-In . SVG Version: 6.00 Build 0)  -->
<svg version="1.1" id="Layer_1" xmlns="http://www.w3.org/2000/svg" xmlns:xlink="http://www.w3.org/1999/xlink" x="0px" y="0px"
	 viewBox="0 0 200 200" style="enable-background:new 0 0 200 200;" xml:space="preserve">
<g>
	<g>
		<path d="M172.3,67c-0.6,1.8-1.9,3.2-3.2,4.5c-8.3,8.2-16.5,16.5-24.7,24.7c-6.4,6.4-14.1,7.5-22,3c-0.8-0.4-1.1-0.1-1.5,0.3
			c-2.9,3-5.7,6-8.7,9c-0.8,0.8-0.7,1.2,0.1,1.9c11.4,10.9,22.7,21.8,34.1,32.8c1.3,1.3,2.7,2.5,3.9,3.8c4.4,4.6,4.2,11.9-0.2,16.3
			c-4.4,4.4-11.7,4.7-16.2,0.3c-3-2.9-5.9-6-8.8-9.1c-1-1-1-2.3,0-3.1c0.9-0.9,2.1-0.8,3.1,0.3c2.8,2.8,5.5,5.8,8.3,8.6
			c2.1,2.1,4.7,2.8,7.5,1.9c2.8-0.8,4.6-2.8,5.2-5.7c0.6-2.8-0.3-5.2-2.4-7.2c-6.7-6.5-13.5-13-20.2-19.4
			c-5.7-5.5-11.4-10.9-17.1-16.5c-0.8-0.8-1.2-0.8-1.9,0c-2.3,2.5-4.7,5-7.1,7.4c-0.8,0.8-0.8,1.3,0,2.1
			c6.7,6.9,13.4,13.9,20.2,20.9c0.2,0.2,0.5,0.5,0.7,0.7c0.8,1,0.7,2.1-0.1,2.9c-0.8,0.8-2,0.8-2.9,0c-1-1-2-2-2.9-3
			c-5.9-6.2-11.9-12.3-17.8-18.5c-0.8-0.8-1.2-0.8-1.9,0c-11.6,12.1-23.3,24.2-34.9,36.3c-2.2,2.3-4.7,4.1-8,4.5
			c-5,0.5-9.7-2-11.9-6.4c-2.2-4.5-1.5-9.8,2.1-13.4c4.6-4.6,9.4-9.1,14.1-13.7c8-7.7,15.9-15.3,23.9-22.9c0.7-0.7,0.8-1,0.1-1.7
			c-2.5-2.5-4.9-5-7.3-7.6c-0.4-0.4-0.7-0.7-1.4-0.5c-8.5,2.3-16.5,0.8-24-3.6C37.8,91,31.2,82.3,29,70.6
			c-2.1-10.8,2.5-21.1,11.5-25.9c6.4-3.4,13.2-3.8,19.9-1.7C75.5,47.7,84.8,58,87.9,73.6c0.8,3.8,0.5,7.6-0.6,11.4
			c-0.3,0.9-0.1,1.4,0.6,2.1c2.6,2.4,5.2,4.9,7.7,7.4c0.6,0.6,1,0.8,1.7,0.1c3.1-3.1,6.3-6.1,9.5-9.1c0.6-0.6,0.6-0.9,0.2-1.6
			c-4.2-6.9-3.3-15.1,2.3-20.9c5.2-5.4,10.6-10.7,16-16c1.1-1.1,2.3-1.2,3.2-0.3c0.9,0.9,0.9,2.1-0.3,3.3
			C123.1,54.9,118,60,112.9,65c-5.4,5.4-5.8,12.1-1.2,18.2c1.1,1.4,1,2.3-0.5,3.6c-8.8,8.4-17.5,16.9-26.3,25.3
			c-12.9,12.4-25.8,24.8-38.7,37.3c-4.4,4.2-3,11.1,2.6,12.9c3.2,1,5.9,0,8.1-2.3c6.4-6.7,12.9-13.4,19.3-20.1
			c14.3-14.8,28.5-29.7,42.8-44.5c1.8-1.9,2.4-1.9,4.5-0.3c5.3,4.1,12.3,3.6,17.3-1.4c5.3-5.2,10.5-10.5,15.8-15.8
			c3.3-3.3,6.6-6.6,9.9-9.9c0.3-0.3,0.7-0.6,1-1c0.6-0.9,0.6-1.8-0.2-2.5c-0.8-0.8-1.7-0.8-2.5-0.1c-0.7,0.5-1.2,1.2-1.8,1.8
			c-5.1,5.1-10.2,10.2-15.3,15.3c-3.7,3.6-9.7,2.4-11.6-2.3c-1.2-3-0.5-5.7,1.7-8c5.3-5.3,10.6-10.6,15.9-15.9
			c0.4-0.4,0.8-0.7,1-1.1c0.5-0.8,0.5-1.7-0.2-2.4c-0.8-0.8-1.7-0.8-2.5-0.2c-0.3,0.2-0.6,0.6-0.9,0.9c-5.3,5.3-10.6,10.7-16,16
			c-2.6,2.6-5.9,3.1-8.8,1.4c-4-2.3-4.7-7.6-1.5-11.1c2.8-3,5.8-5.8,8.7-8.7c2.6-2.6,5.2-5.2,7.8-7.8c1.2-1.2,1.3-2.3,0.4-3.2
			c-0.9-0.9-1.9-0.7-3.2,0.5c-1.1,1.1-2.1,2.1-3.2,3.2c-1,1-2.2,1-3.1,0.1c-0.9-0.9-0.8-2.1,0.2-3.1c1.2-1.3,2.5-2.6,3.8-3.8
			c2.3-2.2,5.8-2.2,8.2-0.2c2.4,2.1,2.8,5.5,1,8.1c-0.4,0.6-1,1.1-1.5,1.7c-5.3,5.3-10.6,10.6-15.9,15.9c-0.9,0.9-1.4,1.9-1,3.2
			c0.4,1.1,1.2,1.8,2.3,2c1.2,0.2,2.1-0.5,3-1.3c5.4-5.4,10.8-10.9,16.3-16.3c2.5-2.5,6-2.7,8.5-0.6c2.8,2.3,3,6.3,0.3,9.1
			c-1.8,1.9-3.6,3.7-5.4,5.5c-3.8,3.8-7.6,7.5-11.3,11.3c-1.1,1.1-1.3,2.4-0.6,3.6c0.6,1.2,1.9,1.7,3.2,1.4c0.8-0.2,1.4-0.8,1.9-1.3
			c5.2-5.2,10.5-10.2,15.4-15.5c3.5-3.8,9.6-3.6,11.5,2.3C172.3,65.3,172.3,66.2,172.3,67z M53.4,46.1c-6.4,0-11.3,1.5-15.2,5.5
			c-5.2,5.3-6.4,11.8-5,18.7c2.2,11,8.7,18.8,18.4,23.9c6.6,3.4,13.5,4.5,20.7,1.9c1.1-0.4,2.1-0.1,2.9,0.8c2.8,3,5.6,5.9,8.4,8.8
			c0.7,0.7,1,0.9,1.8,0.1c2.3-2.3,4.7-4.6,7.1-6.8c0.7-0.7,0.6-1,0-1.6c-3-2.8-5.8-5.7-8.8-8.4c-1.2-1.1-1.6-2.2-0.9-3.7
			c0.9-2.3,1.3-4.8,1.2-7.3c-0.1-6.7-2.4-12.7-6.4-18C71.3,51.6,63.1,46.6,53.4,46.1z"/>
	</g>
</g>
</svg>
