<?xml version="1.0" encoding="utf-8"?>
<!-- Generator: Adobe Illustrator 27.0.0, SVG Export Plug-In . SVG Version: 6.00 Build 0)  -->
<svg version="1.1" id="Layer_1" xmlns="http://www.w3.org/2000/svg" xmlns:xlink="http://www.w3.org/1999/xlink" x="0px" y="0px"
	 viewBox="0 0 200 200" style="enable-background:new 0 0 200 200;" xml:space="preserve">
<g>
	<g>
		<path d="M51.3,100c0-9.6,0-19.2,0-28.8c0-2.3,0.7-3.7,2.7-4.8c14.3-8.2,28.6-16.5,42.8-24.9c2.3-1.4,4.1-1.5,6.4-0.1
			c14.2,8.4,28.5,16.7,42.8,24.9c2.1,1.2,2.9,2.7,2.9,5.1c-0.1,19.3-0.1,38.6,0,57.9c0,2.3-0.8,3.7-2.8,4.8
			c-14.4,8.2-28.8,16.5-43.2,24.8c-2.1,1.2-3.8,1.1-5.9-0.1c-14.3-8.3-28.6-16.5-43-24.6c-2.1-1.2-2.9-2.7-2.9-5.1
			C51.4,119.4,51.3,109.7,51.3,100z M143.9,126.7c0.1-0.3,0.3-0.4,0.3-0.6c0-18,0-36,0.1-54c0-1.3-0.6-2-1.6-2.6
			c-12.7-7.4-25.5-14.8-38.2-22.2c-1.5-0.9-2.3-1.1-2.3,1.2c0.1,16.9,0,33.7,0,50.6c0,1.4,0.4,2.3,1.6,3
			c13.1,8.1,26.2,16.2,39.3,24.3C143.3,126.6,143.6,126.6,143.9,126.7z M55.8,127.3c14.1-8.8,27.5-17.1,41-25.4
			c1.5-0.9,1.1-2.3,1.1-3.6c0-16.4,0-32.8,0-49.2c0-0.8,0.4-1.8-0.5-2.5c-0.3,0.1-0.7,0.1-0.9,0.3c-13,7.5-26,15.1-39.1,22.6
			c-1.6,0.9-1.7,2.1-1.7,3.6c0,11,0,22.1,0,33.1C55.8,113,55.8,119.8,55.8,127.3z M111.9,112.3c-3.8-2.4-7.1-4.4-10.4-6.5
			c-0.8-0.5-1.6-0.8-2.5-0.3c-3.5,2.2-7,4.4-10.9,6.8c3.8,2.4,7.1,4.4,10.4,6.5c0.9,0.6,1.7,0.8,2.7,0.2
			C104.7,116.8,108.1,114.7,111.9,112.3z M142.2,131.2c-3.9-2.4-7.5-4.7-11-6.9c-0.6-0.4-1.2-0.4-1.9,0c-3.5,2.2-7.1,4.4-10.9,6.8
			c3.7,2.3,7,4.3,10.3,6.4c0.9,0.6,1.6,0.5,2.4,0C134.7,135.5,138.3,133.5,142.2,131.2z M81.5,131.2c-3.8-2.4-7.2-4.5-10.6-6.6
			c-0.9-0.5-1.5-0.6-2.4,0c-3.4,2.2-6.8,4.2-10.5,6.6c4.1,2.3,7.7,4.4,11.3,6.5c0.8,0.5,1.4,0.3,2.1-0.2
			C74.6,135.6,77.8,133.6,81.5,131.2z M74,121.4c3.9,2.4,7.5,5.9,11.5,6.6c3.2,0.6,6.4-3.3,9.6-5.3c0.1-0.1,0.1-0.2,0.5-0.6
			c-3.8-2.3-7.3-5.6-11.4-6.6c-2.9-0.7-5.8,3.2-8.8,4.7C75,120.5,74.7,120.8,74,121.4z M126.1,121.1c-3.2-2-5.9-3.7-8.6-5.4
			c-0.8-0.5-1.6-0.7-2.5-0.1c-3.4,2.2-6.9,4.4-10.7,6.7c3.1,1.9,5.9,3.6,8.6,5.4c1,0.6,1.8,0.6,2.7-0.1
			C118.9,125.5,122.2,123.5,126.1,121.1z M125.6,140.8c-3.7-2.3-6.8-4.2-9.9-6.2c-1-0.6-1.7-0.8-2.7-0.1c-2.8,1.8-5.6,3.5-8.8,5.5
			c3.6,2.2,6.7,4.2,9.9,6.2c0.8,0.5,1.4,0.4,2.1-0.1C119.1,144.5,122.1,142.8,125.6,140.8z M74.7,140.8c3.3,1.9,6.3,3.7,9.2,5.4
			c0.6,0.4,1.2,0.5,1.9,0.1c3.2-2,6.3-4,9.8-6.2c-3.1-1.9-5.8-3.6-8.5-5.3c-0.8-0.5-1.5-0.8-2.4-0.2
			C81.5,136.5,78.3,138.5,74.7,140.8z M110.6,149.4c-3.6-2.2-6.6-4.1-9.6-6c-0.7-0.5-1.3-0.6-2.1-0.1c-3.1,1.9-6.2,3.8-9.6,6
			c3.4,2,6.4,3.7,9.4,5.4c1,0.6,1.8,0.6,2.8,0C104.3,152.9,107.2,151.3,110.6,149.4z M110,131.1c-3.2-2-6.1-3.8-8.9-5.6
			c-0.8-0.5-1.4-0.3-2.1,0.1c-2.9,1.8-5.7,3.6-8.9,5.6c3.2,2,6,3.7,8.8,5.5c0.9,0.6,1.6,0.4,2.4-0.1
			C104,134.9,106.8,133.1,110,131.1z"/>
	</g>
</g>
</svg>
