<svg xmlns="http://www.w3.org/2000/svg" width="24.5" height="24.5" viewBox="0 0 24.5 24.5">
  <path id="Icon_material-my-location" data-name="Icon material-my-location" d="M13.75,9.3A4.455,4.455,0,1,0,18.2,13.75,4.453,4.453,0,0,0,13.75,9.3Zm9.956,3.341a10.016,10.016,0,0,0-8.842-8.842V1.5H12.636V3.794a10.016,10.016,0,0,0-8.842,8.842H1.5v2.227H3.794a10.016,10.016,0,0,0,8.842,8.842V26h2.227V23.706a10.016,10.016,0,0,0,8.842-8.842H26V12.636ZM13.75,21.545a7.8,7.8,0,1,1,7.8-7.8A7.79,7.79,0,0,1,13.75,21.545Z" transform="translate(-1.5 -1.5)" fill="#2680eb"/>
</svg>
