<?xml version="1.0" encoding="utf-8"?>
<!-- Generator: Adobe Illustrator 27.0.0, SVG Export Plug-In . SVG Version: 6.00 Build 0)  -->
<svg version="1.1" id="Layer_1" xmlns="http://www.w3.org/2000/svg" xmlns:xlink="http://www.w3.org/1999/xlink" x="0px" y="0px"
	 viewBox="0 0 200 200" style="enable-background:new 0 0 200 200;" xml:space="preserve">
<g>
	<g>
		<path d="M100.6,31.3c38,0.1,69,31.3,68.9,69.4c-0.1,37.8-31.3,68.8-69.2,68.7c-38-0.1-69-31.3-68.9-69.4
			C31.5,62.2,62.6,31.3,100.6,31.3z M156.8,100.5c0.1-31.2-25.1-56.4-56.3-56.4C69.3,44,44.1,69.1,44.1,100.3
			c-0.1,31.2,25.1,56.4,56.3,56.4C131.5,156.8,156.7,131.7,156.8,100.5z"/>
		<path d="M79.3,100.4c0-9.5,0.1-19.1-0.1-28.6c-0.1-3.2,0.9-3.9,3.9-3.8c9.9,0.4,19.9-0.7,29.8,0.7c9.9,1.5,15.7,8.4,15.7,18.2
			c-0.1,9.9-6.2,17.2-15.9,18.8c-7.2,1.2-14.4,0.7-21.6,0.7c-2.6,0-3.6,0.6-3.5,3.4c0.2,6.7-0.1,13.4,0.1,20
			c0.1,3.4-1.7,3.1-3.8,2.9c-2-0.2-4.8,1.3-4.7-2.9C79.5,120,79.3,110.2,79.3,100.4z M100.5,75.5c-4,0-7.2,0-10.5,0
			c-1.5,0-2.3,0.4-2.3,2c0,6.5,0,13.1,0,19.6c0,1.2,0.5,1.8,1.7,1.8c7.6-0.2,15.3,0.9,22.7-1c5.5-1.4,7.8-5.5,7.5-11.9
			c-0.2-5.3-3.3-8.9-8.5-9.9C107.4,75.2,103.6,75.7,100.5,75.5z"/>
	</g>
</g>
</svg>
