<?xml version="1.0" encoding="utf-8"?>
<!-- Generator: Adobe Illustrator 27.0.0, SVG Export Plug-In . SVG Version: 6.00 Build 0)  -->
<svg version="1.1" id="Layer_1" xmlns="http://www.w3.org/2000/svg" xmlns:xlink="http://www.w3.org/1999/xlink" x="0px" y="0px"
	 viewBox="0 0 64 64" style="enable-background:new 0 0 64 64;" xml:space="preserve">
<style type="text/css">
	.st0{display:none;}
	.st1{display:inline;}
	.st2{fill:#010101;}
	.st3{display:inline;fill:#010101;}
	.st4{fill:#231F20;}
	.st5{display:inline;fill:#0D0D0D;}
	.st6{fill:#0D0D0D;}
	.st7{fill:#010101;stroke:#010101;stroke-width:0.75;stroke-miterlimit:10;}
	.st8{fill:#A67D54;}
	.st9{display:inline;fill:#A67D54;}
	.st10{display:inline;fill:#0E51A4;}
	.st11{fill:#0E51A4;}
	.st12{fill:#22282A;stroke:#22282A;stroke-width:2;stroke-miterlimit:10;}
	.st13{fill:#0E51A4;stroke:#0E51A4;stroke-width:0.2;stroke-miterlimit:10;}
</style>
<g id="pARKING" class="st0">
	<g class="st1">
		<path class="st2" d="M32,4.7C16.9,4.7,4.7,16.9,4.7,32S16.9,59.3,32,59.3S59.3,47.1,59.3,32S47.1,4.7,32,4.7z M32,57.7
			C17.8,57.7,6.3,46.2,6.3,32S17.8,6.3,32,6.3S57.7,17.8,57.7,32S46.2,57.7,32,57.7z"/>
		<path class="st2" d="M34.4,17.7H23l0.1,29h1.6l0-12h9.8c4.7,0,8.5-3.8,8.5-8.5S39.1,17.7,34.4,17.7z M34.4,33.1h-9.8l0-13.8h9.8
			c3.8,0,6.9,3.1,6.9,6.9S38.2,33.1,34.4,33.1z"/>
	</g>
</g>
<g id="locate_us" class="st0">
	<g class="st1">
		<path class="st2" d="M32.2,25.9c1.8,0,3.4-0.6,4.5-1.9c1.3-1.2,1.9-2.7,1.9-4.5c0-1.6-0.7-3.2-1.9-4.5c-1.2-1.3-2.7-1.9-4.6-1.9
			c-1.9,0-3.4,0.6-4.5,1.9c-1.3,1.2-1.9,2.7-1.9,4.5s0.6,3.4,1.9,4.5C28.8,25.3,30.4,25.9,32.2,25.9z M28.8,16.1
			C28.8,16.1,28.8,16.1,28.8,16.1c0.9-1,2-1.5,3.4-1.5c1.4,0,2.5,0.5,3.4,1.4c1,1,1.5,2.2,1.5,3.4c0,1.4-0.5,2.5-1.4,3.4
			c0,0,0,0,0,0c-0.9,1-2,1.4-3.4,1.4s-2.5-0.5-3.4-1.4c0,0,0,0,0,0c-1-0.9-1.4-2-1.4-3.4S27.8,17,28.8,16.1z"/>
		<path class="st2" d="M56.7,58.7L50,36.6c-0.1-0.3-0.3-0.5-0.5-0.5l-4.4-1.3c-0.4-0.1-0.9,0.1-1,0.5c-0.1,0.4,0.1,0.9,0.5,1l4,1.1
			l6.1,20l-10.3-4.6c-0.2-0.1-0.5-0.1-0.7,0L32,58.2l-11.6-5.3c-0.2-0.1-0.5-0.1-0.7,0L9.4,57.5l6.1-20l4-1.1c0.4-0.1,0.7-0.6,0.5-1
			c-0.1-0.4-0.6-0.7-1-0.5l-4.4,1.3c-0.3,0.1-0.5,0.3-0.6,0.5L7.4,58.7c-0.1,0.3,0,0.6,0.2,0.8c0.2,0.2,0.6,0.3,0.9,0.1l11.6-5.2
			l11.6,5.3c0.1,0,0.2,0.1,0.3,0.1s0.2,0,0.3-0.1L44,54.5l11.6,5.2c0.3,0.1,0.6,0.1,0.9-0.1C56.7,59.3,56.8,59,56.7,58.7z"/>
		<path class="st2" d="M31.6,46c0.1,0.2,0.4,0.3,0.7,0.3c0,0,0,0,0,0c0.3,0,0.5-0.1,0.7-0.3l11.7-17.2c0.3-0.3,0.6-0.7,0.8-1.1
			c1.5-2.3,2.3-5.1,2.3-8c0-4.3-1.5-8-4.5-11.1c-3-3-6.7-4.5-10.9-4.5c-4.3,0-8,1.5-11.1,4.5c-3,3.1-4.5,6.8-4.5,11.1
			c0,3.4,1,6.5,3,9.1L31.6,46z M22.3,9.6c2.8-2.7,6.1-4.1,10-4.1c3.8,0,7.1,1.4,9.8,4c2.7,2.8,4.1,6.2,4.1,10c0,2.7-0.7,5.1-2.1,7.2
			c0,0,0,0.1,0,0.1c-0.2,0.4-0.3,0.6-0.6,0.8c0,0-0.1,0.1-0.1,0.1L32.3,44.1L20.9,27.8c-1.8-2.4-2.7-5.1-2.7-8.2
			C18.3,15.7,19.6,12.4,22.3,9.6z"/>
	</g>
</g>
<g id="contact_us" class="st0">
	<path class="st3" d="M56.1,9.3c-2-2.3-4.4-5.1-7.5-5.1c-1.3,0-2.7,0.5-4,1.6l-3.9,4.1c-1.4,1.4-2.7,2.8-4.1,4.3
		c-0.1,0.1-0.2,0.2-0.2,0.3c-2.2,3.8,1.5,7.1,4,9.3c0.6,0.5,1,0.9,1.4,1.3c0,0.1,0,0.5-0.3,1.2c-2.4,5.6-13,15.3-16,15.4
		c-0.6-0.5-1.1-1.1-1.7-1.8c-0.7-0.7-1.4-1.5-2.3-2.3c-1.3-1.1-2.7-1.7-4.1-1.7c-3.8,0-7,3.8-9.9,7.2c-0.7,0.8-1.4,1.6-2.1,2.4
		c-0.6,0.6-1.4,1.9-0.8,4.1c1.1,3.9,6.4,8.6,9.1,9.4c1.5,0.4,3,0.7,4.7,0.7c7.8,0,17.5-4.8,26-13c8.6-8.2,14.3-18.1,15.2-26.5
		C60.2,14.5,59.7,13.4,56.1,9.3z M58,20c-0.9,8-6.4,17.5-14.7,25.5C35,53.3,25.7,58,18.3,58c-1.5,0-2.9-0.2-4.2-0.6
		c-2.4-0.7-7.2-5-8.1-8.3c-0.3-1.1-0.1-1.9,0.4-2.6c0.7-0.8,1.4-1.6,2.1-2.5c2.6-3.1,5.6-6.6,8.6-6.6c1.1,0,2.1,0.4,3.1,1.3
		c0.8,0.7,1.5,1.5,2.2,2.2c0.6,0.7,1.2,1.4,1.9,1.9c0.2,0.2,0.6,0.3,1,0.3c4,0,15.2-11,17.5-16.4c0.6-1.3,0.6-2.3,0.1-2.8
		c-0.4-0.4-0.9-0.9-1.6-1.5c-2.8-2.5-5-4.8-3.6-7.3c1.3-1.4,2.7-2.8,4.1-4.3l3.8-4c1-0.8,2-1.2,2.9-1.2c2.4,0,4.6,2.5,6.3,4.6
		C58.2,14.2,58.5,14.8,58,20z"/>
</g>
<g id="Layer_4" class="st0">
	<g class="st1">
		<path class="st4" d="M47.1,50.2c1.8-0.6,3.4-1.6,4.7-3c2.2-2.4,3.3-5.7,2.9-9l-2.4-25.3C51.7,7,47,2.6,41.4,2.6H22.7
			c-5.6,0-10.3,4.4-10.9,10.3L9.4,38.1c-0.3,3.3,0.8,6.6,2.9,9c1.3,1.5,2.9,2.5,4.7,3l-9.4,9.7l1.4,1.3l5.2-5.4h35.5l5.2,5.4
			l1.4-1.3L47.1,50.2z M13.8,45.8c-1.8-2-2.7-4.7-2.4-7.5L13.8,13c0.5-4.9,4.3-8.5,9-8.5h18.7c4.6,0,8.5,3.7,9,8.5l2.4,25.3
			c0.3,2.8-0.6,5.5-2.5,7.5c-1.7,1.9-4,2.9-6.5,2.9H20.3C17.8,48.7,15.5,47.7,13.8,45.8z M16.1,53.8l3.1-3.2c0.3,0,0.7,0,1,0h23.5
			c0.3,0,0.7,0,1,0l3.1,3.2H16.1z"/>
		<path class="st4" d="M24.9,11.6h14.2c0.9,0,1.6-0.7,1.6-1.6V8.5c0-0.9-0.7-1.6-1.6-1.6H24.9c-0.9,0-1.6,0.7-1.6,1.6V10
			C23.3,10.9,24.1,11.6,24.9,11.6z M25.3,8.8h13.6v0.9H25.3V8.8z"/>
		<path class="st4" d="M20.2,34.4h23.6c1.3,0,2.5-0.5,3.3-1.5c0.9-0.9,1.3-2.2,1.2-3.4L47.5,18c-0.2-2.4-2.2-4.2-4.5-4.2H21.1
			c-2.4,0-4.3,1.8-4.5,4.2l-0.9,11.5c-0.1,1.2,0.3,2.5,1.2,3.4S19,34.4,20.2,34.4z M18.5,18.1c0.1-1.4,1.2-2.4,2.6-2.4H43
			c1.4,0,2.5,1.1,2.6,2.4l0.9,11.5c0.1,0.7-0.2,1.4-0.7,2s-1.2,0.8-1.9,0.8H20.2c-0.7,0-1.4-0.3-1.9-0.8s-0.7-1.2-0.7-2L18.5,18.1z"
			/>
		<path class="st4" d="M24.4,40.6c0-2.4-2-4.3-4.3-4.3s-4.3,2-4.3,4.3s2,4.3,4.3,4.3S24.4,43,24.4,40.6z M20,43
			c-1.3,0-2.4-1.1-2.4-2.4c0-1.3,1.1-2.4,2.4-2.4c1.3,0,2.4,1.1,2.4,2.4C22.5,41.9,21.4,43,20,43z"/>
		<path class="st4" d="M44,36.3c-2.4,0-4.3,2-4.3,4.3s2,4.3,4.3,4.3s4.3-2,4.3-4.3C48.4,38.2,46.4,36.3,44,36.3z M44,43
			c-1.3,0-2.4-1.1-2.4-2.4c0-1.3,1.1-2.4,2.4-2.4c1.3,0,2.4,1.1,2.4,2.4C46.5,41.9,45.4,43,44,43z"/>
	</g>
</g>
<g id="Layer_5" class="st0">
	<g class="st1">
		<path class="st4" d="M54,60.6l1.4-1.3l-8.8-9.1c3.4-0.7,6-3.8,6-7.4V13.9c0-4.2-3.4-7.6-7.5-7.6h-8.8c-0.5-1.9-2.2-3.3-4.2-3.3
			s-3.7,1.4-4.2,3.3H19c-4.2,0-7.6,3.4-7.6,7.6v28.8c0,3.6,2.6,6.7,6,7.4l-8.8,9.1l1.4,1.3l5-5.2h34L54,60.6z M32,5.1
			c1.3,0,2.4,1.1,2.4,2.4S33.4,9.8,32,9.8s-2.4-1.1-2.4-2.4S30.7,5.1,32,5.1z M13.4,42.8V13.9c0-3.1,2.5-5.6,5.6-5.6h8.8
			c0.4,2,2.1,3.4,4.2,3.4c2.1,0,3.8-1.5,4.2-3.4h8.8c3.1,0,5.6,2.5,5.6,5.6v28.8c0,3.1-2.5,5.6-5.6,5.6H19
			C15.9,48.4,13.4,45.9,13.4,42.8z M16.9,53.5l3.1-3.2h24.1l3.1,3.2H16.9z"/>
		<path class="st4" d="M24.7,40.9c0-2.3-1.9-4.2-4.2-4.2s-4.2,1.9-4.2,4.2s1.9,4.2,4.2,4.2C22.9,45.1,24.7,43.2,24.7,40.9z
			 M18.3,40.9c0-1.3,1-2.3,2.3-2.3s2.3,1,2.3,2.3s-1,2.3-2.3,2.3S18.3,42.1,18.3,40.9z"/>
		<path class="st4" d="M43.6,36.7c-2.3,0-4.2,1.9-4.2,4.2s1.9,4.2,4.2,4.2s4.2-1.9,4.2-4.2S45.9,36.7,43.6,36.7z M43.6,43.2
			c-1.3,0-2.3-1-2.3-2.3s1-2.3,2.3-2.3s2.3,1,2.3,2.3S44.8,43.2,43.6,43.2z"/>
		<path class="st4" d="M46.3,33.6c1.3,0,2.4-1.1,2.4-2.4v-15c0-1.3-1.1-2.4-2.4-2.4H17.8c-1.3,0-2.4,1.1-2.4,2.4v15
			c0,1.3,1.1,2.4,2.4,2.4H46.3z M46.8,16.3v15c0,0.2-0.2,0.4-0.4,0.4H33V15.9h13.3C46.5,15.9,46.8,16.1,46.8,16.3z M17.4,31.3v-15
			c0-0.2,0.2-0.4,0.4-0.4h13.3v15.8H17.8C17.5,31.7,17.4,31.5,17.4,31.3z"/>
	</g>
</g>
<g id="Layer_6" class="st0">
	<g class="st1">
		<path class="st4" d="M20.1,33.6l-6.8-1.3c-0.7-0.1-1.4,0-1.9,0.5c-0.5,0.5-0.9,1.1-0.9,1.8v2.8c0,1.3,1.1,2.3,2.3,2.3h7.3
			c1.3,0,2.3-1,2.3-2.3v-0.9C22.6,35.1,21.6,33.9,20.1,33.6z M20.8,37.5c0,0.3-0.2,0.5-0.5,0.5h-7.3c-0.3,0-0.5-0.2-0.5-0.5v-2.9
			c0-0.2,0.1-0.3,0.2-0.4c0.1,0,0.2-0.1,0.3-0.1c0,0,0.1,0,0.1,0l6.8,1.3c0.6,0.1,1,0.6,1,1.2L20.8,37.5L20.8,37.5z"/>
		<path class="st4" d="M50.7,32.3L44,33.6c-1.4,0.3-2.5,1.5-2.5,3v0.9c0,1.3,1,2.3,2.3,2.3h7.3c1.3,0,2.3-1,2.3-2.3v-2.9
			c0-0.7-0.3-1.4-0.8-1.8C52.1,32.4,51.4,32.2,50.7,32.3z M51.7,37.5c0,0.3-0.2,0.5-0.5,0.5h-7.3c-0.3,0-0.5-0.2-0.5-0.5v-0.9
			c0-0.6,0.4-1.1,1-1.2l6.8-1.3c0,0,0.1,0,0.1,0c0.2,0,0.3,0.1,0.3,0.1c0.1,0.1,0.2,0.2,0.2,0.4L51.7,37.5L51.7,37.5z"/>
		<path class="st4" d="M38,37.6H26.2c-0.5,0-0.9,0.4-0.9,0.9s0.4,0.9,0.9,0.9H38c0.5,0,0.9-0.4,0.9-0.9S38.5,37.6,38,37.6z"/>
		<path class="st4" d="M27.8,36.4h8.6c0.5,0,0.9-0.4,0.9-0.9s-0.4-0.9-0.9-0.9h-8.6c-0.5,0-0.9,0.4-0.9,0.9S27.3,36.4,27.8,36.4z"/>
		<path class="st4" d="M61.8,20.9c0-1.1-0.9-2-2-2h-3.1c-0.8,0-1.4,0.4-1.8,1.1l-0.4,0.7c0,0.1-0.1,0.1-0.2,0.1h-1.6
			c-1.4-2.4-2.8-4.6-4-6.1c-1.4-1.9-3.6-3-5.9-3H21.5c-2.3,0-4.6,1.1-5.9,3c-1.1,1.6-2.6,3.8-4,6.1H9.9c-0.1,0-0.2,0-0.2-0.1L9.2,20
			c-0.4-0.7-1-1.1-1.8-1.1H4.3c-1.1,0-2,0.9-2,2l-0.4,2.2l0,0.2c0,1.6,0.8,2.4,2.4,2.4h4.9c-0.6,1.5-1.1,3.1-1.3,4.4
			c-0.4,3.7-0.6,6.9-0.6,9.6h0v1c0,0,0,0,0,0.1v8.9c0,1.3,1.1,2.3,2.3,2.3h3.6c1.3,0,2.3-1,2.3-2.3v-4.8h32.9v4.8
			c0,1.3,1,2.3,2.3,2.3h3.6c1.3,0,2.3-1,2.3-2.3v-7.6c0-0.1,0-0.1,0-0.2c0-3,0-7-0.6-11.8c-0.2-1.4-0.6-2.9-1.3-4.4h4.7
			c1.6,0,2.4-0.8,2.4-2.4L61.8,20.9z M55.1,39.7V42c-0.1,0.6-0.6,1.1-1.2,1.1H10.4c-0.7,0-1.2-0.5-1.2-1.2c0-0.4,0-0.7,0-1.1v0
			c0-2.8,0.1-6.3,0.6-10.4c0.2-1.5,0.8-3.3,1.6-5.1c2.5,0.7,11,2.8,20.7,2.8c9.7,0,18.3-2.1,20.9-2.8c0.8,1.8,1.4,3.5,1.6,5.1
			C54.9,33.9,55.1,37.1,55.1,39.7L55.1,39.7z M17,15.8c1-1.4,2.7-2.3,4.4-2.3h21.3c1.8,0,3.4,0.9,4.5,2.3c1.4,1.9,3.3,4.8,4.9,7.8
			c-2.8,0.7-11,2.6-20.1,2.6c-9.1,0-17.1-1.9-19.9-2.6C13.7,20.6,15.6,17.7,17,15.8z M4.3,23.9c-0.6,0-0.6,0-0.6-0.5l0.4-2.2l0-0.1
			c0-0.1,0.1-0.2,0.2-0.2h3.1c0.1,0,0.2,0,0.2,0.1l0.4,0.7c0.4,0.7,1,1.1,1.8,1.1h0.8c-0.2,0.4-0.4,0.8-0.6,1.2L4.3,23.9L4.3,23.9z
			 M13.9,49.7c0,0.3-0.2,0.5-0.5,0.5H9.7c-0.3,0-0.5-0.2-0.5-0.5v-5.1c0.4,0.2,0.8,0.3,1.2,0.3h3.4L13.9,49.7L13.9,49.7z M54.5,50.3
			h-3.6c-0.3,0-0.5-0.2-0.5-0.5v-4.8h3.5c0.4,0,0.8-0.1,1.2-0.3v5.1C55.1,50,54.8,50.3,54.5,50.3z M59.8,23.9h-5.5
			c-0.2-0.4-0.4-0.8-0.6-1.2h0.6c0.8,0,1.4-0.4,1.8-1.1l0.4-0.7c0-0.1,0.1-0.1,0.2-0.1h3.1c0.1,0,0.2,0.1,0.2,0.2l0.4,2.3
			C60.4,23.9,60.4,23.9,59.8,23.9z"/>
	</g>
</g>
<g id="Layer_7" class="st0">
	<path class="st5" d="M62.3,10.3c-0.1-0.4-0.4-0.8-0.8-0.9c-9.6-3.7-17.6,4.4-17.9,4.7L32.9,24.1H18.5c-1.2,0-2.4,0.4-3.4,1L12.2,27
		c-0.4,0.3-0.6,0.8-0.6,1.3c0.1,0.5,0.4,0.9,0.9,1.1l10.8,3.8l-7.5,7.1c-0.9,0.8-2,1.2-3.2,1.1l-6.5-0.6C5,40.7,3.8,41.1,3,41.9
		l-0.8,0.8c-0.3,0.3-0.5,0.8-0.4,1.2c0,0.4,0.3,0.8,0.6,1.1l10.2,6.2c3,2.2,7.2,1.9,9.9-0.7l10.1-10l2.7,13.6
		c0.1,0.6,0.5,1.1,1.1,1.2c0.2,0,0.3,0.1,0.4,0.1c0.4,0,0.8-0.2,1.1-0.5l2-2.2c0.9-1,1.3-2.2,1.3-3.4l1.3-18.5l19.5-19.2
		C62.2,11.1,62.4,10.7,62.3,10.3z M13.6,28.1l2.4-1.6c0.8-0.5,1.6-0.8,2.6-0.8h12.6l-6.6,6.2L13.6,28.1z M40.9,30l-1.3,19.2
		c0,0.9-0.3,1.8-0.9,2.4l-1.9,2.2l-3.2-16.5L21.3,49.3c-2.1,2.1-5.4,2.3-7.8,0.5L3.4,43.8L4.2,43c0.5-0.5,1.2-0.7,1.9-0.7l6.5,0.6
		c1.6,0.1,3.2-0.4,4.4-1.5l27.9-26.2c0.1-0.1,7.3-7.4,15.7-4.5L40.9,30z"/>
</g>
<g id="Layer_8" class="st0">
	<g class="st1">
		<path class="st6" d="M56.5,23.6l-1.1,1.6c2.1,1.4,4.5,3.8,4.5,6.8c0,6-9.9,11.4-23.1,12.4l0.2,1.9c14.4-1.1,24.9-7.2,24.9-14.4
			C61.8,28.9,60,26,56.5,23.6z"/>
		<path class="st6" d="M28.7,44.5C15.1,43.7,4.2,38.3,4.2,32c0-3,2.5-5.4,4.5-6.8l-1.1-1.6C4.1,26,2.3,28.9,2.3,32
			c0,7.6,11.4,13.7,26.4,14.5v3.7l5.6-4.7l-5.6-4.7L28.7,44.5L28.7,44.5z"/>
		<path class="st6" d="M16.2,30.6c0.9,0.4,1.8,0.6,2.8,0.6c1.6,0,2.9-0.5,3.9-1.4c1-0.9,1.5-2.1,1.5-3.6c0-1-0.3-1.9-0.8-2.6
			c-0.5-0.6-1.1-1.1-1.9-1.4c0.6-0.3,1.2-0.8,1.6-1.3c0.5-0.7,0.8-1.5,0.8-2.4c0-1.5-0.5-2.7-1.4-3.5c-0.9-0.9-2.1-1.3-3.7-1.3
			c-1,0-1.9,0.2-2.7,0.6c-0.8,0.4-1.4,1-1.9,1.7c-0.4,0.7-0.7,1.6-0.7,2.5v0.2h1.9v-0.2c0-1,0.3-1.7,0.9-2.3
			c0.6-0.6,1.5-0.9,2.5-0.9c1,0,1.9,0.3,2.4,0.8c0.5,0.5,0.8,1.3,0.8,2.3c0,0.6-0.1,1.1-0.4,1.5c-0.3,0.4-0.7,0.8-1.2,1
			c-0.5,0.3-1.2,0.4-1.9,0.4H17v1.6h1.6c1.3,0,2.3,0.3,3,0.8c0.7,0.5,1,1.3,1,2.4c0,1.1-0.3,1.9-0.9,2.4c-0.6,0.6-1.5,0.8-2.6,0.8
			c-1.1,0-2-0.3-2.7-0.9c-0.7-0.6-1-1.4-1-2.4V26h-1.9v0.2c0,1,0.2,1.9,0.7,2.6C14.7,29.6,15.3,30.2,16.2,30.6z"/>
		<path class="st6" d="M37.5,25.3c0-1.7-0.5-3-1.3-4.1c-0.9-1.1-2.1-1.6-3.7-1.6c-0.9,0-1.7,0.2-2.5,0.5c-0.5,0.2-0.9,0.6-1.3,0.9
			c0.2-1.6,0.8-3,1.8-4c1.1-1.1,2.6-1.7,4.5-1.7h0.4v-1.7h-0.6c-2.5,0-4.5,0.9-5.9,2.6c-1.4,1.7-2.1,4-2.1,7v1.4
			c0,1.9,0.5,3.4,1.5,4.6c1,1.2,2.4,1.8,4.1,1.8c1,0,1.9-0.3,2.7-0.8s1.4-1.2,1.8-2.1C37.3,27.4,37.5,26.4,37.5,25.3z M35.7,25.4
			c0,1.2-0.3,2.2-0.9,3c-0.6,0.8-1.4,1.2-2.4,1.2c-1.1,0-2-0.4-2.7-1.3c-0.7-0.9-1.1-2-1.1-3.4v-1.1c0.2-0.7,0.7-1.3,1.4-1.8
			c0.7-0.5,1.5-0.7,2.3-0.7c1,0,1.9,0.4,2.5,1.1C35.3,23.1,35.7,24.1,35.7,25.4z"/>
		<path class="st6" d="M44.9,31.2c1.7,0,3.1-0.6,4-1.9c0.9-1.2,1.3-3.1,1.3-5.5v-3c0-2.3-0.5-4.1-1.4-5.2c-0.9-1.2-2.2-1.8-4-1.8
			c-1.7,0-3.1,0.6-4,1.9c-0.9,1.2-1.3,3.1-1.3,5.4v3c0,2.3,0.5,4.1,1.4,5.3C41.8,30.6,43.2,31.2,44.9,31.2z M41.4,24v-3.2
			c0-1.8,0.3-3.2,0.9-4.1c0.6-0.9,1.4-1.3,2.6-1.3c1.2,0,2,0.4,2.6,1.3c0.6,0.9,0.9,2.3,0.9,4.2V24c0,1.8-0.3,3.2-0.9,4.2
			c-0.6,0.9-1.4,1.4-2.6,1.4c-1.1,0-2-0.5-2.6-1.4C41.7,27.2,41.4,25.8,41.4,24z"/>
		<path class="st6" d="M55.7,19.8c0.8,0,1.5-0.3,2.1-0.9c0.6-0.6,0.9-1.3,0.9-2.2c0-0.8-0.3-1.6-0.9-2.2c-0.6-0.6-1.3-0.9-2.1-0.9
			s-1.5,0.3-2.1,0.9c-0.6,0.6-0.9,1.3-0.9,2.2s0.3,1.6,0.9,2.1C54.2,19.5,54.9,19.8,55.7,19.8z M54.2,16.8c0-0.5,0.1-0.8,0.4-1.1
			s0.7-0.4,1.1-0.4c0.4,0,0.8,0.1,1.1,0.4c0.3,0.3,0.4,0.7,0.4,1.1c0,0.5-0.1,0.8-0.4,1.1s-0.6,0.4-1.1,0.4s-0.8-0.1-1.1-0.4
			C54.4,17.6,54.2,17.2,54.2,16.8z"/>
	</g>
</g>
<g id="Layer_9" class="st0">
	<g class="st1">
		<path class="st6" d="M30.9,20.5c4.9,0,8.9-4,8.9-8.9s-4-8.9-8.9-8.9s-8.9,4-8.9,8.9S26,20.5,30.9,20.5z M30.9,4.3
			c4,0,7.3,3.3,7.3,7.3s-3.3,7.3-7.3,7.3s-7.3-3.3-7.3-7.3S26.9,4.3,30.9,4.3z"/>
		<path class="st6" d="M21.5,43.7h0.2c0.6,0,1,0.5,1,1v6.1c0,1.7,1.4,3.1,3.1,3.1h10.1c1.7,0,3.1-1.4,3.1-3.1v-6.1c0-0.6,0.5-1,1-1
			h0.2c1.1,0,2-0.9,2-2V26.3c0-2.2-1.8-4.1-4.1-4.1H23.5c-2.2,0-4.1,1.8-4.1,4.1v15.4C19.5,42.8,20.4,43.7,21.5,43.7z M21.1,26.3
			c0-1.4,1.1-2.5,2.5-2.5h14.6c1.4,0,2.5,1.1,2.5,2.5v15.4c0,0.2-0.2,0.4-0.4,0.4H40c-1.5,0-2.7,1.2-2.7,2.7v6.1
			c0,0.8-0.7,1.5-1.5,1.5H25.8c-0.8,0-1.5-0.7-1.5-1.5v-6.1c0-1.5-1.2-2.7-2.6-2.7h-0.2c-0.2,0-0.4-0.2-0.4-0.4L21.1,26.3L21.1,26.3
			z"/>
		<path class="st6" d="M53,44.3l-7.2-3.3l-0.8,7.8l3.5-2c0.3,0.7,0.5,1.5,0.5,2.3c0,5.7-8.1,10.3-18.2,10.3s-18.2-4.6-18.2-10.3
			c0-2,1-3.9,3-5.6l-1.1-1.2c-2.3,2-3.5,4.3-3.5,6.8c0,6.6,8.9,11.9,19.8,11.9c10.9,0,19.8-5.3,19.8-11.9c0-1.1-0.2-2.1-0.7-3.1
			L53,44.3z"/>
	</g>
</g>
<g id="Layer_10" class="st0">
	<g class="st1">
		<path class="st2" d="M40,33.6l-11.6,8.5l-4.3-4.9c-0.4-0.4-1-0.4-1.4-0.1c-0.4,0.3-0.4,1-0.1,1.4l4.9,5.5c0.2,0.2,0.5,0.3,0.7,0.3
			c0.2,0,0.4-0.1,0.6-0.2l12.3-9c0.4-0.3,0.5-0.9,0.2-1.3C41.1,33.3,40.5,33.2,40,33.6z"/>
		<path class="st2" d="M59,22.1c0-0.1,0-0.3-0.1-0.4V13c0,0,0-0.1,0-0.1c-0.1-2-1.4-3.2-3.4-3.2H44.2V6c0-0.5-0.4-1-1-1s-1,0.4-1,1
			v4H21.6V6c0-0.5-0.4-1-1-1c-0.5,0-1,0.4-1,1v4H8.4c-2.1,0-3.3,1.2-3.3,3.2v42.2c0,2.2,1.2,3.4,3.3,3.4h47c2.2,0,3.4-1.2,3.4-3.4
			V22.6C59,22.4,59,22.3,59,22.1z M8.4,11.8h11.2v4c0,0.5,0.4,1,1,1c0.5,0,1-0.4,1-1v-4h20.7v3.9c0,0.5,0.4,1,1,1s1-0.4,1-1v-4h11.2
			c1,0,1.4,0.4,1.5,1.3v8.1H7v-8.1C7,12.3,7.3,11.8,8.4,11.8z M55.5,56.8h-47c-0.9,0-1.4-0.2-1.4-1.5V23.1H57v32.2
			C57,56.4,56.6,56.8,55.5,56.8z"/>
	</g>
</g>
<g id="Layer_11" class="st0">
	<path class="st5" d="M58.5,57L44.3,42.8c3.7-4,5.9-9.3,5.9-15.2c0-12.4-10.1-22.5-22.5-22.5S5.3,15.2,5.3,27.6S15.4,50,27.8,50
		c5.8,0,11.2-2.2,15.2-5.9l14.2,14.2c0.2,0.2,0.4,0.3,0.7,0.3s0.5-0.1,0.7-0.3C58.9,58,58.9,57.3,58.5,57z M7.2,27.6
		c0-11.3,9.2-20.5,20.5-20.5s20.5,9.2,20.5,20.5s-9.2,20.5-20.5,20.5C16.4,48.1,7.2,38.9,7.2,27.6z"/>
</g>
<g id="Layer_12" class="st0">
	<g class="st1">
		<path class="st6" d="M59.9,24.4l-5.1-5.1c-0.4-0.4-1-0.4-1.4,0c-2.4,2.4-6.4,2.4-8.8,0s-2.4-6.4,0-8.8c0.4-0.4,0.4-1,0-1.4L39.5,4
			c-0.4-0.4-1-0.4-1.4,0L28,14.2l0,0l0,0L4.2,38c-0.4,0.4-0.4,1,0,1.4l5.1,5.1c0.4,0.4,1,0.4,1.4,0c2.4-2.4,6.4-2.3,8.8,0.1
			s2.4,6.3,0.1,8.8c-0.4,0.4-0.4,1,0,1.3l5.1,5.1c0.2,0.2,0.4,0.3,0.7,0.3c0.3,0,0.5-0.1,0.7-0.3l34-34
			C60.3,25.4,60.3,24.8,59.9,24.4z M49,33.9l-0.5-0.5c-0.4-0.4-1-0.4-1.4,0s-0.4,1,0,1.4l0.5,0.5L25.2,57.7l-3.8-3.8
			c2.5-3.2,2.2-7.8-0.7-10.8S13.2,40,10,42.5l-3.8-3.8l22.4-22.4l0.5,0.5c0.2,0.2,0.4,0.3,0.7,0.3s0.5-0.1,0.7-0.3
			c0.4-0.4,0.4-1,0-1.4L30,14.9L38.8,6l3.8,3.8c-2.5,3.2-2.3,7.9,0.6,10.8s7.6,3.2,10.8,0.6l3.8,3.8L49,33.9z"/>
		<path class="st6" d="M32.5,17.3c-0.4-0.4-1-0.4-1.4,0c-0.4,0.4-0.4,1,0,1.4l2,2c0.2,0.2,0.4,0.3,0.7,0.3s0.5-0.1,0.7-0.3
			c0.4-0.4,0.4-1,0-1.4L32.5,17.3z"/>
		<path class="st6" d="M36.5,21.3c-0.4-0.4-1-0.4-1.4,0s-0.4,1,0,1.4l2,2c0.2,0.2,0.4,0.3,0.7,0.3s0.5-0.1,0.7-0.3
			c0.4-0.4,0.4-1,0-1.4L36.5,21.3z"/>
		<path class="st6" d="M40.5,25.4c-0.4-0.4-1-0.4-1.4,0s-0.4,1,0,1.4l2,2c0.2,0.2,0.4,0.3,0.7,0.3s0.5-0.1,0.7-0.3
			c0.4-0.4,0.4-1,0-1.4L40.5,25.4z"/>
		<path class="st6" d="M44.5,29.4c-0.4-0.4-1-0.4-1.4,0s-0.4,1,0,1.4l2,2c0.2,0.2,0.4,0.3,0.7,0.3s0.5-0.1,0.7-0.3
			c0.4-0.4,0.4-1,0-1.4L44.5,29.4z"/>
	</g>
</g>
<g id="Layer_13" class="st0">
	<g class="st1">
		<path class="st2" d="M54.6,41.4V22.4c0-1.1-0.9-1.9-1.9-1.9H11c-1.1,0-1.9,0.9-1.9,1.9v18.9c0,1.1,0.9,1.9,1.9,1.9h10.8l30.8,0
			C53.8,43.3,54.6,42.4,54.6,41.4z M21.9,41.7H11c-0.2,0-0.3-0.2-0.3-0.3V22.4c0-0.2,0.1-0.3,0.3-0.3h41.7c0.2,0,0.3,0.1,0.3,0.3
			v18.9c0,0.2-0.2,0.3-0.3,0.3L21.9,41.7z"/>
		<path class="st2" d="M27.3,55.8v0.8l9.3,0l0-0.8c0-0.1,0-0.1,0-0.1c0,0,0-0.1,0-0.1v-3.2c0-1-0.4-1.9-1-2.6
			c-0.6-0.6-1.3-0.9-2.2-0.9l-2.9,0h0c-1.8,0.1-3.2,1.7-3.1,3.5l0,3.3v0.1C27.3,55.6,27.3,55.7,27.3,55.8z M30.5,50.4l2.8,0
			c0.4,0,0.7,0.2,1,0.4c0.4,0.4,0.6,0.9,0.6,1.4V55l-6,0l0-2.8C28.8,51.2,29.5,50.4,30.5,50.4z"/>
		<path class="st2" d="M37.8,58.4H26.1c-0.5,0-0.9,0.4-0.9,0.9s0.4,0.9,0.9,0.9h11.6c0.5,0,0.9-0.4,0.9-0.9
			C38.7,58.8,38.3,58.4,37.8,58.4z"/>
		<path class="st2" d="M55.2,48.8c0,0-0.1-0.1-0.1-0.1c0,0-0.1-0.1-0.1-0.1l-2.3-2.3c-0.7-0.7-1.6-1.1-2.6-1.1
			c-0.8,0-1.6,0.3-2.1,0.9l-2,2l0,0c-1.2,1.4-1.1,3.5,0.2,4.7l2.3,2.3c0.1,0.1,0.2,0.2,0.3,0.3l0.5,0.4l6.5-6.4L55.2,48.8z
			 M49.2,53.6l-2-2c-0.7-0.6-0.8-1.7-0.1-2.4l2-2c0.2-0.2,0.6-0.4,1-0.4c0.5,0,1,0.2,1.4,0.6l2,2L49.2,53.6z"/>
		<path class="st2" d="M58.8,49.7L58.8,49.7c-0.2,0-0.5,0.1-0.6,0.3l-8.2,8.2c-0.2,0.2-0.3,0.4-0.3,0.6s0.1,0.5,0.3,0.6
			s0.4,0.3,0.6,0.3c0.2,0,0.5-0.1,0.6-0.3l8.2-8.2c0.2-0.2,0.3-0.4,0.3-0.6c0-0.2-0.1-0.5-0.3-0.6C59.2,49.8,59,49.7,58.8,49.7z"/>
		<path class="st2" d="M15.9,46c-0.6-0.5-1.3-0.9-2.1-0.9h0c-1,0-1.9,0.4-2.6,1.1l-2.3,2.3c-0.1,0.1-0.2,0.2-0.2,0.3l-0.4,0.6
			l6.4,6.6l0.6-0.6c0.1-0.1,0.1-0.1,0.1-0.1l2.3-2.3c1.4-1.2,1.5-3.4,0.2-4.8L15.9,46z M16.6,51.6l-2,2l-4.2-4.3l1.9-1.9
			c0.4-0.4,0.9-0.6,1.4-0.6h0c0.4,0,0.7,0.2,1,0.4l2,2C17.4,49.9,17.4,51,16.6,51.6z"/>
		<path class="st2" d="M6,49.7c-0.3-0.3-0.9-0.3-1.3,0c-0.2,0.2-0.3,0.4-0.3,0.6c0,0.2,0.1,0.5,0.3,0.6l8.2,8.2
			c0.2,0.2,0.4,0.3,0.6,0.3c0.2,0,0.5-0.1,0.6-0.3s0.3-0.4,0.3-0.6c0-0.2-0.1-0.5-0.3-0.6L6,49.7z"/>
		<path class="st2" d="M36.5,7.2l-9.3,0V8c0,0.1,0,0.1,0,0.2v0.1l0,3.2c-0.1,1.8,1.3,3.4,3.2,3.5l2.9,0c0.8,0,1.6-0.3,2.2-0.9
			c0.7-0.7,1-1.6,1-2.6V8.3c0-0.1,0-0.1,0-0.1c0,0,0-0.1,0-0.1L36.5,7.2z M34.3,13c-0.3,0.3-0.6,0.4-1,0.4l-2.8,0
			c-1-0.1-1.7-0.9-1.6-1.9l0-2.7l6,0v2.7C34.9,12.1,34.7,12.6,34.3,13z"/>
		<path class="st2" d="M26.1,5.4h11.6c0.5,0,0.9-0.4,0.9-0.9s-0.4-0.9-0.9-0.9H26.1c-0.5,0-0.9,0.4-0.9,0.9
			C25.2,4.9,25.6,5.4,26.1,5.4z"/>
		<path class="st2" d="M48,17.7c0.5,0.5,1.3,0.8,2.2,0.9c1,0,1.9-0.4,2.5-1.1l2.3-2.3c0,0,0.1-0.1,0.1-0.1c0,0,0.1-0.1,0.1-0.1
			l0.6-0.6L49.3,8l-0.5,0.4c-0.1,0.1-0.2,0.2-0.3,0.3L46.1,11c-1.3,1.2-1.5,3.3-0.2,4.7L48,17.7z M47.3,12.1l2-1.9l4.3,4.2l-2,2
			c-0.4,0.4-0.9,0.6-1.4,0.6c-0.5,0-0.8-0.2-1.1-0.4l-2-2C46.5,13.9,46.5,12.8,47.3,12.1z"/>
		<path class="st2" d="M58.1,13.8c0.2,0.2,0.4,0.3,0.6,0.3c0.2,0,0.5-0.1,0.6-0.3s0.3-0.4,0.3-0.6c0-0.2-0.1-0.5-0.3-0.6l-8.2-8.2
			c-0.3-0.3-0.9-0.3-1.3,0c-0.2,0.2-0.3,0.4-0.3,0.6s0.1,0.5,0.3,0.6L58.1,13.8z"/>
		<path class="st2" d="M8.3,14.4L8.7,15c0.1,0.1,0.1,0.2,0.2,0.2l2.3,2.3c0.7,0.7,1.6,1.1,2.6,1.1c0.8,0,1.6-0.3,2.1-0.9l2-2
			c1.2-1.4,1.1-3.5-0.2-4.7l-2.4-2.4c0,0-0.1-0.1-0.1-0.1l-0.6-0.6l-5.9,6L8.3,14.4z M14.7,10.1l2,2c0.7,0.7,0.8,1.8,0.2,2.4l-2,2
			c-0.3,0.3-0.6,0.4-1,0.4c-0.5,0-1.1-0.2-1.4-0.6l-1.9-1.9L14.7,10.1z"/>
		<path class="st2" d="M5.3,14.3c0.2,0,0.5-0.1,0.6-0.3l8.2-8.2c0.2-0.2,0.3-0.4,0.3-0.6c0-0.2-0.1-0.5-0.3-0.6
			c-0.3-0.3-0.9-0.3-1.3,0l-8.2,8.2c-0.2,0.2-0.3,0.4-0.3,0.6c0,0.2,0.1,0.5,0.3,0.6S5.1,14.3,5.3,14.3z"/>
	</g>
</g>
<g id="Layer_14" class="st0">
	<path class="st3" d="M59,22.2h-2.3c-1.9,0-3.4,1.5-3.4,3.4v2.3c0,1.7,1.2,3.1,2.9,3.3c0.2,0,0.3,0,0.5,0h0.4
		c-1.3,5.5-6.2,9.4-12,9.4c-6.5,0-11.9-5.1-12.3-11.5v-4.8h3.5c0.7,0,1.3-0.6,1.3-1.3v-6.3c0-1.2-0.6-2.4-1.7-3v-0.5
		c0-1.5-1.2-2.7-2.7-2.7h-0.5V8.5c0-0.4-0.4-0.8-0.8-0.8s-0.8,0.4-0.8,0.8v2.1h-0.4c-1.5,0-2.7,1.2-2.7,2.7v0.5
		c-1,0.6-1.7,1.8-1.7,3v6.3c0,0.7,0.6,1.3,1.3,1.3h3.5v4.8c-0.4,6.5-5.7,11.5-12.1,11.5c-5.7,0-10.6-3.9-12-9.4h0.2
		c0.2,0,0.5,0,0.7-0.1c1.6-0.3,2.7-1.7,2.7-3.3v-2.3c0-1.9-1.5-3.4-3.4-3.4H5.1c-1.9,0-3.4,1.5-3.4,3.4v2.3c0,1.7,1.2,3.1,2.9,3.3
		c0.2,0,0.3,0,0.5,0h0.4c1.3,6.2,6.6,10.7,12.9,11v6.6c-1,0.5-1.8,1.9-1.8,3.5c0,2,1.1,3.7,2.6,3.7s2.6-1.7,2.6-3.7
		c0-1.6-0.7-3-1.8-3.5v-6.7c4.9-0.3,9.1-3.2,11.2-7.3v9.6c-1.7,0.5-3,2.5-3,4.9c0,2.8,1.7,5,3.8,5s3.8-2.2,3.8-5
		c0-2.4-1.3-4.4-3-4.9v-9.6c2.2,4.1,6.4,7,11.3,7.4v6.7c-1,0.5-1.8,1.9-1.8,3.5c0,2,1.2,3.7,2.6,3.7s2.6-1.7,2.6-3.7
		c0-1.6-0.7-3-1.8-3.5v-6.6c6.3-0.3,11.7-4.8,13-11H59c0.2,0,0.5,0,0.7-0.1c1.5-0.3,2.7-1.7,2.7-3.3v-2.3
		C62.4,23.8,60.9,22.2,59,22.2z M30.8,12.2h0.7h0.1h0.9h0.2h0.6c0.6,0,1,0.5,1,1.1v0.2h-4.6v-0.2C29.8,12.7,30.2,12.2,30.8,12.2z
		 M28.1,16.8c0-0.7,0.4-1.4,1.1-1.7H35c0.6,0.3,1.1,1,1.1,1.7v6h-7.9V16.8z M4.8,29.6c-0.9-0.1-1.5-0.9-1.5-1.8v-2.3
		c0-1,0.8-1.8,1.8-1.8h2.3c1,0,1.8,0.8,1.8,1.8v2.3c0,0.8-0.6,1.6-1.4,1.7c-0.1,0-0.3,0-0.4,0H5.1C5,29.7,4.9,29.7,4.8,29.6z
		 M19.2,54.4c-0.3,0-1-0.7-1-2.1s0.7-2.1,1-2.1s1,0.7,1,2.1C20.2,53.7,19.5,54.4,19.2,54.4z M34.2,49.3c0,1.8-1,3.4-2.2,3.4
		s-2.2-1.6-2.2-3.4s1-3.4,2.2-3.4S34.2,47.5,34.2,49.3z M45,54.4c-0.3,0-1-0.7-1-2.1s0.7-2.1,1-2.1s1,0.7,1,2.1
		C46,53.7,45.3,54.4,45,54.4z M60.8,27.9c0,0.8-0.6,1.6-1.4,1.7c-0.1,0-0.3,0-0.4,0h-2.3c-0.1,0-0.1,0-0.2,0
		c-0.9-0.1-1.5-0.9-1.5-1.8v-2.3c0-1,0.8-1.8,1.8-1.8H59c1,0,1.8,0.8,1.8,1.8V27.9z"/>
</g>
<g id="Layer_15" class="st0">
	<g class="st1">
		<path class="st2" d="M19,33.7V13.1L2.8,23.6v26.2l16-15.8L19,33.7z M4.5,45.8V24.5l12.9-8.3V33L4.5,45.8z"/>
		<path class="st2" d="M19.8,34.2L3.6,50.6h56.9L44.3,34.2H19.8z M7.6,49l12.9-13.1h23.1L56.6,49H7.6z"/>
		<path class="st2" d="M45.1,13.1v20.6l16.2,16.1V23.6L45.1,13.1z M46.7,33V16.2l12.9,8.3v21.3L46.7,33z"/>
		<path class="st2" d="M43.6,41.8c0,0,0-0.1,0-0.2c0,0,0-0.1-0.1-0.2c0,0,0,0,0-0.1s0,0-0.1,0s0,0-0.1-0.1l-2.5-2
			c-0.2-0.1-0.4-0.2-0.6-0.2c-0.2,0-0.4,0.1-0.6,0.3c-0.1,0.2-0.2,0.4-0.2,0.6s0.1,0.4,0.3,0.6l0.7,0.5H23.8l0.7-0.5
			c0.2-0.1,0.3-0.3,0.3-0.6c0-0.2,0-0.4-0.2-0.6c-0.1-0.2-0.3-0.3-0.6-0.3c-0.2,0-0.4,0-0.6,0.2l-2.5,2c0,0,0,0-0.1,0.1
			c0,0,0,0-0.1,0c0,0,0,0,0,0.1c0,0-0.1,0.1-0.1,0.2c0,0,0,0.1,0,0.2c0,0,0,0,0,0.1c0,0,0,0.1,0,0.1c0,0,0,0.1,0,0.2s0,0.1,0,0.2
			c0,0,0,0.1,0.1,0.1c0,0,0,0,0,0.1c0,0,0.1,0.1,0.1,0.1l0,0l2.5,2c0.1,0.1,0.3,0.2,0.5,0.2c0.2,0,0.5-0.1,0.6-0.3
			c0.1-0.2,0.2-0.4,0.2-0.6s-0.1-0.4-0.3-0.6l-0.7-0.5h16.6l-0.7,0.5c-0.4,0.3-0.4,0.8-0.1,1.2c0.2,0.2,0.4,0.3,0.7,0.3
			c0.2,0,0.4-0.1,0.5-0.2l2.5-2c0,0,0,0,0,0c0,0,0.1-0.1,0.1-0.1c0,0,0,0,0-0.1c0,0,0-0.1,0.1-0.1s0-0.1,0-0.2c0,0,0-0.1,0-0.2
			C43.6,41.9,43.6,41.9,43.6,41.8C43.6,41.8,43.6,41.8,43.6,41.8z"/>
	</g>
</g>
<g id="Layer_16" class="st0">
	<g class="st1">
		<path class="st2" d="M55.5,46.2H8.6c-3.2,0-5.6,1.9-5.6,4.3c0,2.3,2.5,4.3,5.6,4.3h46.8c3.2,0,5.6-1.9,5.6-4.3
			C61.1,48.1,58.6,46.2,55.5,46.2z M55.5,53.2H8.6c-2.2,0-4-1.2-4-2.7c0-1.5,1.8-2.8,4-2.8h46.8c2.2,0,4,1.2,4,2.7
			C59.5,52,57.7,53.2,55.5,53.2z"/>
		<path class="st2" d="M61,40.6h-2.1c-0.3-13.8-11.1-25.1-24.8-26.1c0.7-0.6,1.1-1.4,1.1-2.4c0-1.7-1.4-3.2-3.2-3.2
			c-1.7,0-3.2,1.4-3.2,3.2c0,0.9,0.4,1.8,1.1,2.4c-13.6,1-24.4,12.3-24.8,26.1H3.1c-0.4,0-0.8,0.4-0.8,0.8s0.4,0.8,0.8,0.8H61
			c0.4,0,0.8-0.4,0.8-0.8S61.4,40.6,61,40.6z M32,10.6c0.9,0,1.5,0.7,1.5,1.6c0,0.9-0.7,1.6-1.5,1.6c-0.9,0-1.5-0.7-1.5-1.6
			C30.5,11.2,31.2,10.6,32,10.6z M32,16c13.7,0,24.9,11,25.2,24.6H6.8C7.2,27,18.3,16,32,16z"/>
	</g>
</g>
<g id="Layer_17" class="st0">
	<g class="st1">
		<path class="st2" d="M19.2,39c0.4,0,0.8-0.4,0.8-0.8v-13c0-0.4-0.4-0.8-0.8-0.8c-0.4,0-0.8,0.4-0.8,0.8v13
			C18.4,38.6,18.8,39,19.2,39z"/>
		<path class="st2" d="M22,35.8c0.4,0,0.8-0.4,0.8-0.8v-6.5c0-0.4-0.4-0.8-0.8-0.8c-0.4,0-0.8,0.4-0.8,0.8V35
			C21.2,35.4,21.5,35.8,22,35.8z"/>
		<path class="st2" d="M16.4,35.8c0.4,0,0.8-0.4,0.8-0.8v-6.5c0-0.4-0.4-0.8-0.8-0.8c-0.4,0-0.8,0.4-0.8,0.8V35
			C15.6,35.4,16,35.8,16.4,35.8z"/>
		<path class="st2" d="M33.1,35.8c0.4,0,0.8-0.4,0.8-0.8v-6.5c0-0.4-0.4-0.8-0.8-0.8s-0.8,0.4-0.8,0.8V35
			C32.3,35.4,32.7,35.8,33.1,35.8z"/>
		<path class="st2" d="M27.5,35.8c0.4,0,0.8-0.4,0.8-0.8v-6.5c0-0.4-0.4-0.8-0.8-0.8c-0.4,0-0.8,0.4-0.8,0.8V35
			C26.7,35.4,27.1,35.8,27.5,35.8z"/>
		<path class="st2" d="M30.3,39c0.4,0,0.8-0.4,0.8-0.8v-13c0-0.4-0.4-0.8-0.8-0.8c-0.4,0-0.8,0.4-0.8,0.8v13
			C29.5,38.6,29.9,39,30.3,39z"/>
		<path class="st2" d="M24.8,39c0.4,0,0.8-0.4,0.8-0.8v-13c0-0.4-0.4-0.8-0.8-0.8c-0.4,0-0.8,0.4-0.8,0.8v13
			C24,38.6,24.3,39,24.8,39z"/>
		<path class="st2" d="M60.8,21c-0.5-0.2-1.1-0.2-1.5,0.2l-11.9,9.6c-0.2,0.1-0.3,0.3-0.4,0.5V17.5c0-0.7-0.6-1.3-1.3-1.3H3.8
			c-0.7,0-1.3,0.6-1.3,1.3v28.7c0,0.7,0.6,1.3,1.3,1.3h41.8c0.7,0,1.3-0.6,1.3-1.3V32.5c0.1,0.2,0.2,0.3,0.4,0.5l11.9,9.6
			c0.3,0.2,0.6,0.3,0.9,0.3c0.2,0,0.4,0,0.6-0.1c0.5-0.2,0.8-0.7,0.8-1.3V22.3C61.6,21.7,61.3,21.2,60.8,21z M45.4,45.9H4.1V17.8
			h41.3C45.4,17.8,45.4,45.9,45.4,45.9z M60,41.1l-11.4-9.2L60,22.6C60,22.6,60,41.1,60,41.1z"/>
	</g>
</g>
<g id="Layer_18" class="st0">
	<path class="st3" d="M32,13.2L2.7,8.7v31L31.9,55l0.1,0.1l29.4-15.4v-31L32,13.2z M59.7,37.7l-26.7-4.6V14.8l26.7-4.1V37.7z
		 M31.2,33.1L4.5,37.8V10.7l26.7,4.1V33.1z M32.2,34.7l26.3,4.6L32,53.1L5.8,39.3L32.2,34.7z"/>
</g>
<g id="Layer_19" class="st0">
	<g class="st1">
		<path class="st7" d="M17.3,60.5H6.4c-0.7,0-1.3-0.6-1.3-1.3v-1.3c0,0,0.3-5.3,6.8-5.3c6.4,0,6.8,5.2,6.8,5.2l-0.1,1.4
			C18.6,59.9,18,60.5,17.3,60.5z M11.8,53.9c-5.2,0-5.5,3.8-5.5,4v1.3h10.9l0.1-1.4C17.3,57.4,16.8,53.9,11.8,53.9z"/>
		<path class="st7" d="M11.7,52.8c-2.1,0-3.7-1.8-3.7-4c0-2.2,1.7-4,3.7-4s3.7,1.8,3.7,4C15.4,51,13.8,52.8,11.7,52.8z M11.7,46.1
			c-1.3,0-2.4,1.2-2.4,2.7s1.1,2.7,2.4,2.7s2.4-1.2,2.4-2.7S13,46.1,11.7,46.1z"/>
		<path class="st7" d="M57.7,60.5H46.8c-0.7,0-1.3-0.6-1.3-1.3v-1.3c0,0,0.3-5.3,6.8-5.3c6.4,0,6.8,5.2,6.8,5.2L59,59.2
			C59,59.9,58.4,60.5,57.7,60.5z M52.3,53.9c-5.2,0-5.5,3.8-5.5,4v1.3h10.9l0.1-1.4C57.7,57.4,57.2,53.9,52.3,53.9z"/>
		<path class="st7" d="M52.1,52.8c-2,0-3.7-1.8-3.7-4c0-2.2,1.7-4,3.7-4s3.7,1.8,3.7,4C55.8,51,54.2,52.8,52.1,52.8z M52.1,46.1
			c-1.3,0-2.4,1.2-2.4,2.7c0,1.5,1.1,2.7,2.4,2.7c1.3,0,2.4-1.2,2.4-2.7C54.5,47.3,53.5,46.1,52.1,46.1z"/>
		<path class="st7" d="M37.2,19h-11c-0.7,0-1.3-0.6-1.3-1.3v-1.3c0,0,0.3-5.3,6.8-5.3c6.4,0,6.8,5.2,6.8,5.2v1.4
			C38.6,18.4,38,19,37.2,19z M31.8,12.4c-5.2,0-5.5,3.8-5.5,4v1.3h11v-1.4C37.2,16,36.8,12.4,31.8,12.4z"/>
		<path class="st7" d="M31.6,11.3c-2,0-3.7-1.8-3.7-4c0-2.2,1.7-4,3.7-4s3.7,1.8,3.7,4C35.3,9.5,33.7,11.3,31.6,11.3z M31.6,4.6
			c-1.3,0-2.4,1.2-2.4,2.7c0,1.4,1.1,2.7,2.4,2.7c1.3,0,2.4-1.2,2.4-2.7S32.9,4.6,31.6,4.6z"/>
		<path class="st7" d="M43.5,45.7H20.1V23.2H44v21.9l0,0.7L43.5,45.7z M21.5,44.4h21.2V24.5h-9.3H21.5V44.4z"/>
		<path class="st7" d="M9.7,42.5c-0.2,0-0.4-0.1-0.6-0.3C9,42,5.8,36.6,6,29.5C7.1,9.6,24.8,5.2,25,5.2c0.4-0.1,0.7,0.1,0.8,0.5
			s-0.1,0.7-0.5,0.8c-0.7,0.2-16.9,4.2-18,23c-0.2,6.7,2.9,12,2.9,12c0.2,0.3,0.1,0.7-0.2,0.9C9.9,42.5,9.8,42.5,9.7,42.5z"/>
		<path class="st7" d="M53.9,42.5c-0.1,0-0.2,0-0.3-0.1c-0.3-0.2-0.4-0.6-0.2-0.9c0,0,3.1-5.3,2.9-12c-1-18.8-17.3-22.8-18-23
			c-0.4-0.1-0.6-0.4-0.5-0.8s0.4-0.6,0.8-0.5c0.2,0,17.9,4.4,19,24.2c0.2,7.1-3,12.6-3.1,12.8C54.3,42.4,54.1,42.5,53.9,42.5z"/>
		<path class="st7" d="M31.9,55.8c-8.4,0-14.2-4.2-14.3-4.3c-0.3-0.2-0.4-0.6-0.1-0.9c0.2-0.3,0.6-0.4,0.9-0.1c0.1,0.1,12.4,9,27,0
			c0.3-0.2,0.7-0.1,0.9,0.2c0.2,0.3,0.1,0.7-0.2,0.9C41,54.7,36.1,55.8,31.9,55.8z"/>
		<path class="st7" d="M29.8,37.9c-0.2,0-0.4-0.1-0.5-0.2l-3.1-3.5c-0.2-0.3-0.2-0.7,0.1-0.9c0.3-0.2,0.7-0.2,0.9,0.1l2.7,3l7.2-5.3
			c0.3-0.2,0.7-0.2,0.9,0.1c0.2,0.3,0.2,0.7-0.1,0.9l-7.7,5.6C30,37.9,29.9,37.9,29.8,37.9z"/>
	</g>
</g>
<g id="Layer_20" class="st0">
	<path class="st3" d="M43.3,34.3c-0.5-1.6-2-2.7-3.8-2.7c0,0,0,0,0,0l-6.7,0V26c0.8,0.7,1.8,1.1,2.8,1.1c0.5,0,1-0.1,1.6-0.3
		c2-0.8,3-3,2.3-5c0.4,0.1,0.8,0.2,1.2,0.2c1.6,0,3.1-1,3.8-2.5c0.4-1,0.4-2.1,0-3.1c-0.4-0.9-1-1.6-1.9-2c1.8-1,2.7-3.2,1.8-5.2
		l0,0c-0.8-2-3-2.9-5-2.3c0.6-2-0.4-4.2-2.3-5c-2-0.8-4.2,0-5.2,1.9C31.6,3,30.9,2.3,30,2c-1-0.4-2.1-0.4-3.1,0c-2,0.8-3,3-2.3,5
		c-0.9-0.3-1.9-0.2-2.8,0.1c-1,0.4-1.8,1.2-2.2,2.2c-0.4,1-0.4,2.1,0,3.1c0.4,0.9,1,1.6,1.9,2c-0.8,0.4-1.5,1.1-1.9,2
		c-0.4,1-0.4,2.1,0,3.1c0.6,1.6,2.2,2.5,3.8,2.5c0.4,0,0.8-0.1,1.2-0.2c-0.6,2,0.4,4.2,2.3,5l0,0c0.5,0.2,1,0.3,1.5,0.3
		c0.5,0,1.1-0.1,1.6-0.3c0.5-0.2,0.9-0.5,1.2-0.8v5.6l-6.8,0c-1.7,0-3.2,1.1-3.7,2.6c-4.7,14,1.8,26.7,2.1,27.2l0.2,0.4l18,0.1
		l0.2-0.5C46.8,49.1,44.9,39.1,43.3,34.3z M27.1,16.5c-0.5-1.3-0.5-2.8,0-4.1c0.5-1.3,1.6-2.3,2.9-2.9c0.7-0.3,1.4-0.4,2-0.4
		c2.1,0,4.1,1.2,4.9,3.3c1.1,2.7-0.2,5.8-2.9,6.9c-1.3,0.5-2.8,0.5-4.1,0C28.7,18.8,27.7,17.8,27.1,16.5z M37.9,24
		c-0.2,0.6-0.7,1.1-1.3,1.3c-1.2,0.5-2.7-0.1-3.2-1.3c-0.5-1.3,0.1-2.7,1.3-3.2c0.3-0.1,0.6-0.2,0.9-0.2c1,0,1.9,0.6,2.3,1.5
		C38.2,22.8,38.2,23.4,37.9,24z M43,18.9c-0.5,1.3-2,1.9-3.2,1.3c-1.3-0.5-1.9-2-1.3-3.2c0.4-1,1.3-1.5,2.3-1.5
		c0.3,0,0.6,0.1,0.9,0.2c0.6,0.2,1.1,0.7,1.3,1.3C43.3,17.6,43.3,18.3,43,18.9z M40.7,8.3c1,0,1.9,0.6,2.3,1.5
		c0.2,0.6,0.2,1.3,0,1.9c-0.2,0.6-0.7,1.1-1.3,1.3c-0.6,0.2-1.3,0.2-1.9,0s-1.1-0.7-1.3-1.3c-0.2-0.6-0.2-1.3,0-1.9
		c0.2-0.6,0.7-1.1,1.3-1.3C40.1,8.4,40.4,8.3,40.7,8.3z M33.3,4.8c0.4-1,1.3-1.5,2.3-1.5c0.3,0,0.6,0.1,0.9,0.2
		c1.3,0.5,1.9,2,1.3,3.2C37.4,7.9,36,8.5,34.7,8C33.4,7.5,32.8,6,33.3,4.8z M27.5,3.5c0.3-0.1,0.6-0.2,1-0.2c0.3,0,0.6,0.1,0.9,0.2
		c0.6,0.2,1.1,0.7,1.3,1.3c0.2,0.6,0.2,1.3,0,1.9S30,7.8,29.4,8c-1.3,0.5-2.7-0.1-3.2-1.3C25.7,5.4,26.2,4,27.5,3.5z M21.1,9.9
		c0.4-0.9,1.3-1.5,2.3-1.5c0.3,0,0.6,0.1,0.9,0.2c0.6,0.2,1.1,0.7,1.3,1.3c0.2,0.6,0.3,1.3,0,1.9l0,0c-0.2,0.6-0.7,1.1-1.3,1.3
		c-0.6,0.2-1.3,0.3-1.9,0C21.2,12.6,20.6,11.2,21.1,9.9z M21.1,19c-0.2-0.6-0.2-1.3,0-1.9c0.2-0.6,0.7-1.1,1.3-1.3
		c0.3-0.1,0.6-0.2,0.9-0.2c1,0,1.9,0.6,2.3,1.5c0.5,1.3-0.1,2.7-1.3,3.2C23.1,20.8,21.6,20.2,21.1,19z M30.8,24
		c-0.2,0.6-0.7,1.1-1.3,1.3c-0.6,0.2-1.3,0.3-1.9,0c-1.3-0.5-1.9-2-1.3-3.2c0.2-0.6,0.7-1.1,1.3-1.3c0.6-0.2,1.3-0.3,1.9,0
		c0.6,0.2,1.1,0.7,1.3,1.3C31,22.8,31,23.4,30.8,24z M40.1,60.5l-16-0.1c-1.1-2.3-5.8-13.5-1.8-25.5c0.3-0.9,1.2-1.5,2.2-1.5l15-0.1
		c0,0,0,0,0,0c1,0,1.9,0.6,2.2,1.6l0,0C43.3,39.3,45.1,48.7,40.1,60.5z"/>
</g>
<g id="Layer_21" class="st0">
	<g class="st1">
		<path class="st2" d="M53.6,11.8h-7.9h-0.1c-0.5,0-0.9,0.2-1.3,0.6L33.6,22.9c-0.6-1.5-1.6-2.8-2.9-3.7c1.8-1.4,2.9-3.6,2.9-5.9
			c0-4.1-3.4-7.5-7.5-7.5s-7.5,3.4-7.5,7.5c0,2.3,1.1,4.5,2.9,5.9c-2.2,1.5-3.5,4-3.5,6.7v12.2l-5,4.9h-2.5C6.3,43,3,46.3,3,50.5
			s3.4,7.5,7.5,7.5h7.8c0.6,0,1.1-0.2,1.5-0.6l31.4-30.6h2.5c4.1,0,7.5-3.4,7.5-7.5C61.1,15.2,57.8,11.8,53.6,11.8z M23.6,20.1
			l1.9-0.8l-1.8-0.9c-2-0.9-3.3-3-3.3-5.2c0-3.1,2.6-5.7,5.7-5.7s5.7,2.6,5.7,5.7c0,2.2-1.3,4.2-3.3,5.2l-1.8,0.9l1.9,0.8
			c1.8,0.8,3.1,2.3,3.6,4.2l-12.4,12V25.9C19.8,23.4,21.3,21.1,23.6,20.1z M59.3,19.3c0,3.1-2.6,5.7-5.7,5.7h-3.2L18.5,56.1
			c0,0.1-0.1,0.1-0.2,0.1h-7.8c-3.1,0-5.7-2.6-5.7-5.7s2.6-5.7,5.7-5.7h3.2l32-31.1c0,0,0.1-0.1,0.2-0.1h7.8
			C56.8,13.6,59.3,16.1,59.3,19.3z"/>
		
			<rect x="13.2" y="32.5" transform="matrix(0.7152 -0.6989 0.6989 0.7152 -13.9251 32.56)" class="st2" width="39.5" height="1.8"/>
	</g>
</g>
<g id="Layer_22" class="st0">
	<g class="st1">
		<path class="st2" d="M42.4,34.2c0-5.2-7.5-12.6-9.1-14.1L32,18.9l-1.3,1.2c-1.5,1.4-9.1,8.8-9.1,14.1c0,5.7,4.6,10.3,10.3,10.3
			C37.8,44.5,42.4,39.9,42.4,34.2z M23.3,34.2c0-3.8,5.4-9.9,8.6-12.9l0.2-0.2l0.2,0.2c3.2,3,8.6,9.1,8.6,12.9
			c0,4.8-3.9,8.7-8.7,8.7S23.3,39,23.3,34.2z"/>
		<path class="st2" d="M56.3,39.8c-0.4-0.2-0.9,0.1-1,0.5C51.8,50,42.4,56.6,32,56.6c-13.2,0-24-10.5-24.6-23.5l2.6,2.6
			c0.2,0.2,0.4,0.2,0.6,0.2s0.4-0.1,0.6-0.2c0.3-0.3,0.3-0.8,0-1.1l-4-4c-0.3-0.3-0.8-0.3-1.1,0l-4.1,4c-0.3,0.3-0.3,0.8,0,1.1
			C2.1,35.9,2.3,36,2.5,36s0.4-0.1,0.6-0.2L5.8,33C6.4,47,18,58.2,32,58.2c11.1,0,21-7,24.8-17.4C57,40.4,56.7,39.9,56.3,39.8z"/>
		<path class="st2" d="M62.1,28.1c-0.3-0.3-0.8-0.3-1.1,0l-2.7,2.7C57.7,16.8,46.1,5.6,32,5.6C21,5.6,11,12.6,7.3,23
			c-0.2,0.4,0.1,0.9,0.5,1c0.4,0.1,0.9-0.1,1-0.5C12.3,13.8,21.7,7.2,32,7.2c13.2,0,24.1,10.5,24.6,23.6l-2.6-2.6
			c-0.3-0.3-0.8-0.3-1.1,0s-0.3,0.8,0,1.1l4,4c0.2,0.2,0.4,0.2,0.6,0.2s0.4-0.1,0.6-0.2l4-4C62.5,28.9,62.5,28.4,62.1,28.1z"/>
	</g>
</g>
<g id="Layer_23" class="st0">
	<g class="st1">
		<g>
			<path class="st2" d="M33.3,14.4c-1.6,0-3.3-0.7-4.4-2c-2.1-2.4-1.8-6.1,0.6-8.2c1.2-1,2.7-1.5,4.3-1.4s3,0.8,4,2
				c2.1,2.4,1.8,6.1-0.6,8.2l0,0C36,13.9,34.6,14.4,33.3,14.4z M33.3,4.4c-1,0-1.9,0.3-2.7,1c-0.8,0.7-1.3,1.8-1.5,2.9
				c-0.1,1.1,0.3,2.2,1,3c1.5,1.8,4.1,1.9,5.9,0.5l0,0c1.8-1.5,1.9-4.1,0.5-5.9c-0.7-0.8-1.8-1.3-2.9-1.5
				C33.5,4.4,33.3,4.4,33.3,4.4z M36.5,12.3L36.5,12.3L36.5,12.3z"/>
		</g>
		<g>
			<path class="st2" d="M54.3,37.9H42.5c-0.2,0-0.5-0.1-0.6-0.3l-6.3-8.2c-0.7-0.9-0.8-2.1-0.3-3.1s1.5-1.6,2.6-1.6l0,0h16.5
				c0.5,0,0.8,0.4,0.8,0.8v11.7C55.2,37.5,54.8,37.9,54.3,37.9z M42.9,36.2h10.6v-10H37.9c-0.5,0-0.9,0.3-1.2,0.7
				c-0.2,0.5-0.2,0.9,0.1,1.3L42.9,36.2z"/>
		</g>
		<g>
			<path class="st2" d="M14,61c-2.8,0-5.1-2.3-5.1-5.1V23.5c0-1.6,0.7-3.1,1.9-4.1l8.6-7.4c1-0.9,2.3-1.3,3.6-1.3
				c1.6,0,3.1,0.7,4.1,1.9l3.6,4.2c0.6,0.8,1,1.8,1,2.8v7.5l4,5.2c0.9,1.2,0.8,2.9-0.3,3.8c-0.6,0.5-1.3,0.8-2.1,0.7
				c-0.8-0.1-1.5-0.5-1.9-1l-5-6.5c-0.1-0.1-0.2-0.4-0.2-0.5v-5.4l-6,5.1c-0.7,0.6-1.1,1.5-1.1,2.4V56C19.1,58.8,16.8,61,14,61z
				 M23,12.3c-0.9,0-1.8,0.4-2.5,0.9l-8.6,7.3c-0.8,0.7-1.3,1.8-1.3,2.9V56c0,1.9,1.5,3.4,3.4,3.4c1.9,0,3.4-1.5,3.4-3.4V30.8
				c0-1.4,0.6-2.7,1.7-3.7l7.4-6.4c0.2-0.2,0.6-0.2,0.9-0.1c0.3,0.1,0.5,0.4,0.5,0.8v6.9l4.8,6.3c0.2,0.2,0.5,0.4,0.8,0.4
				c0.3,0.1,0.6-0.1,0.9-0.3c0.5-0.4,0.5-1,0.1-1.6l-4.2-5.4c-0.1-0.1-0.2-0.4-0.2-0.5v-7.8c0-0.6-0.2-1.2-0.6-1.7l-3.6-4.2
				C25.2,12.8,24.1,12.3,23,12.3z"/>
		</g>
		<g>
			<circle class="st2" cx="39.8" cy="22.2" r="0.9"/>
		</g>
		<g>
			<circle class="st2" cx="39.8" cy="19.8" r="0.9"/>
		</g>
		<g>
			<circle class="st2" cx="39.8" cy="17.3" r="0.9"/>
		</g>
		<g>
			<circle class="st2" cx="39.8" cy="14.8" r="0.9"/>
		</g>
	</g>
</g>
<g id="Layer_24" class="st0">
	<g class="st1">
		<path class="st2" d="M55.8,2.3H8.3C6,2.3,4.2,4.2,4.2,6.4v18.3c0,2.3,1.9,4.1,4.1,4.1H25v31h-6.4v1.6h26.9v-1.6h-6.4v-31h16.7
			c2.3,0,4.1-1.9,4.1-4.1V6.4C59.9,4.2,58.1,2.3,55.8,2.3z M37.5,59.8H26.7v-31h10.8V59.8z M58.3,24.8c0,1.4-1.1,2.5-2.5,2.5H8.3
			c-1.4,0-2.5-1.1-2.5-2.5V6.4c0-1.4,1.1-2.5,2.5-2.5h47.5c1.4,0,2.5,1.1,2.5,2.5V24.8z"/>
		<path class="st2" d="M15.7,11.5c-2.3,0-4.1,1.9-4.1,4.1s1.9,4.1,4.1,4.1c2.3,0,4.1-1.9,4.1-4.1S18,11.5,15.7,11.5z M15.7,18.1
			c-1.4,0-2.5-1.1-2.5-2.5s1.1-2.5,2.5-2.5s2.5,1.1,2.5,2.5S17.1,18.1,15.7,18.1z"/>
		<path class="st2" d="M26.6,11.5c-2.3,0-4.1,1.9-4.1,4.1s1.9,4.1,4.1,4.1c2.3,0,4.1-1.9,4.1-4.1S28.9,11.5,26.6,11.5z M26.6,18.1
			c-1.4,0-2.5-1.1-2.5-2.5s1.1-2.5,2.5-2.5c1.4,0,2.5,1.1,2.5,2.5S28,18.1,26.6,18.1z"/>
		<path class="st2" d="M37.5,11.5c-2.3,0-4.1,1.9-4.1,4.1s1.8,4.1,4.1,4.1s4.1-1.9,4.1-4.1S39.8,11.5,37.5,11.5z M37.5,18.1
			c-1.4,0-2.5-1.1-2.5-2.5s1.1-2.5,2.5-2.5c1.4,0,2.5,1.1,2.5,2.5S38.9,18.1,37.5,18.1z"/>
		<path class="st2" d="M48.4,11.5c-2.3,0-4.1,1.9-4.1,4.1s1.8,4.1,4.1,4.1s4.1-1.9,4.1-4.1S50.7,11.5,48.4,11.5z M48.4,18.1
			c-1.4,0-2.5-1.1-2.5-2.5s1.1-2.5,2.5-2.5c1.4,0,2.5,1.1,2.5,2.5S49.8,18.1,48.4,18.1z"/>
	</g>
</g>
<g id="Layer_25" class="st0">
	<path class="st3" d="M44.1,59.8V2.4h-8.7v3.2H11.1v48h24.3v6.2h-9v1.6H53v-1.6H44.1z M12.7,52V7.1h26.2V52L12.7,52L12.7,52z
		 M37,53.5h3.5v-48H37V4h5.5v55.8H37V53.5z"/>
</g>
<g id="Layer_26" class="st0">
	<g class="st1">
		<path class="st2" d="M19.4,43.9H47V16.3H19.4V43.9z M21,17.9h24.4v24.4H21V17.9z"/>
		<path class="st2" d="M60.2,55.4L57,52.2c-0.3-0.3-0.8-0.3-1.1,0s-0.3,0.8,0,1.1l1.8,1.8H8.5V6.5l1.8,1.8c0.2,0.2,0.4,0.2,0.6,0.2
			s0.4-0.1,0.6-0.2c0.3-0.3,0.3-0.8,0-1.1L8.2,4C8.2,3.9,8.1,3.9,8,3.8c-0.2-0.1-0.4-0.1-0.6,0C7.3,3.9,7.2,3.9,7.1,4L3.9,7.2
			c-0.3,0.3-0.3,0.8,0,1.1c0.2,0.2,0.4,0.2,0.6,0.2S4.9,8.5,5,8.4l1.9-1.9V56c0,0.4,0.4,0.8,0.8,0.8h50l-1.8,1.8
			c-0.3,0.3-0.3,0.8,0,1.1c0.2,0.2,0.4,0.2,0.6,0.2s0.4-0.1,0.6-0.2l3.2-3.2C60.5,56.2,60.5,55.7,60.2,55.4z"/>
		<path class="st2" d="M13.9,5.4h1c0.4,0,0.8-0.4,0.8-0.8s-0.4-0.8-0.8-0.8h-1c-0.4,0-0.8,0.4-0.8,0.8S13.4,5.4,13.9,5.4z"/>
		<path class="st2" d="M43,5.4h1.9c0.4,0,0.8-0.4,0.8-0.8s-0.4-0.8-0.8-0.8H43c-0.4,0-0.8,0.4-0.8,0.8S42.6,5.4,43,5.4z"/>
		<path class="st2" d="M46.8,5.4h1.9c0.4,0,0.8-0.4,0.8-0.8s-0.4-0.8-0.8-0.8h-1.9c-0.4,0-0.8,0.4-0.8,0.8S46.4,5.4,46.8,5.4z"/>
		<path class="st2" d="M50.6,5.4h1.9c0.4,0,0.8-0.4,0.8-0.8s-0.4-0.8-0.8-0.8h-1.9c-0.4,0-0.8,0.4-0.8,0.8S50.1,5.4,50.6,5.4z"/>
		<path class="st2" d="M54.3,5.4h1.9C56.7,5.4,57,5,57,4.6s-0.4-0.8-0.8-0.8h-1.9c-0.4,0-0.8,0.4-0.8,0.8S53.9,5.4,54.3,5.4z"/>
		<path class="st2" d="M20.5,5.4h1.9c0.4,0,0.8-0.4,0.8-0.8s-0.4-0.8-0.8-0.8h-1.9c-0.4,0-0.8,0.4-0.8,0.8S20,5.4,20.5,5.4z"/>
		<path class="st2" d="M24.2,5.4h1.9c0.4,0,0.8-0.4,0.8-0.8s-0.4-0.8-0.8-0.8h-1.9c-0.4,0-0.8,0.4-0.8,0.8S23.8,5.4,24.2,5.4z"/>
		<path class="st2" d="M39.3,5.4h1.9C41.6,5.4,42,5,42,4.6s-0.4-0.8-0.8-0.8h-1.9c-0.4,0-0.8,0.4-0.8,0.8S38.8,5.4,39.3,5.4z"/>
		<path class="st2" d="M28,5.4h1.9c0.4,0,0.8-0.4,0.8-0.8s-0.4-0.8-0.8-0.8H28c-0.4,0-0.8,0.4-0.8,0.8S27.5,5.4,28,5.4z"/>
		<path class="st2" d="M16.7,5.4h1.9c0.4,0,0.8-0.4,0.8-0.8S19,3.8,18.6,3.8h-1.9c-0.4,0-0.8,0.4-0.8,0.8S16.3,5.4,16.7,5.4z"/>
		<path class="st2" d="M35.5,5.4h1.9c0.4,0,0.8-0.4,0.8-0.8s-0.4-0.8-0.8-0.8h-1.9c-0.4,0-0.8,0.4-0.8,0.8S35.1,5.4,35.5,5.4z"/>
		<path class="st2" d="M31.8,5.4h1.9c0.4,0,0.8-0.4,0.8-0.8s-0.4-0.8-0.8-0.8h-1.9c-0.4,0-0.8,0.4-0.8,0.8S31.3,5.4,31.8,5.4z"/>
		<path class="st2" d="M58.1,5.4h0.2v1.8c0,0.4,0.4,0.8,0.8,0.8s0.8-0.4,0.8-0.8V5.3c0-0.1,0-0.2-0.1-0.3c0-0.1,0.1-0.2,0.1-0.3
			c0-0.4-0.4-0.8-0.8-0.8h-1c-0.4,0-0.8,0.4-0.8,0.8S57.7,5.4,58.1,5.4z"/>
		<path class="st2" d="M59.1,46.8c-0.4,0-0.8,0.4-0.8,0.8v1.9c0,0.4,0.4,0.8,0.8,0.8s0.8-0.4,0.8-0.8v-1.9
			C59.9,47.2,59.5,46.8,59.1,46.8z"/>
		<path class="st2" d="M59.9,39.9c0-0.4-0.4-0.8-0.8-0.8s-0.8,0.4-0.8,0.8v1.9c0,0.4,0.4,0.8,0.8,0.8s0.8-0.4,0.8-0.8V39.9z"/>
		<path class="st2" d="M59.9,36.1c0-0.4-0.4-0.8-0.8-0.8s-0.8,0.4-0.8,0.8V38c0,0.4,0.4,0.8,0.8,0.8s0.8-0.4,0.8-0.8V36.1z"/>
		<path class="st2" d="M59.9,32.2c0-0.4-0.4-0.8-0.8-0.8s-0.8,0.4-0.8,0.8v1.9c0,0.4,0.4,0.8,0.8,0.8s0.8-0.4,0.8-0.8V32.2z"/>
		<path class="st2" d="M59.9,43.8c0-0.4-0.4-0.8-0.8-0.8s-0.8,0.4-0.8,0.8v1.9c0,0.4,0.4,0.8,0.8,0.8s0.8-0.4,0.8-0.8V43.8z"/>
		<path class="st2" d="M59.9,9.1c0-0.4-0.4-0.8-0.8-0.8s-0.8,0.4-0.8,0.8V11c0,0.4,0.4,0.8,0.8,0.8s0.8-0.4,0.8-0.8V9.1z"/>
		<path class="st2" d="M59.9,13c0-0.4-0.4-0.8-0.8-0.8s-0.8,0.4-0.8,0.8v1.9c0,0.4,0.4,0.8,0.8,0.8s0.8-0.4,0.8-0.8V13z"/>
		<path class="st2" d="M59.9,28.4c0-0.4-0.4-0.8-0.8-0.8s-0.8,0.4-0.8,0.8v1.9c0,0.4,0.4,0.8,0.8,0.8s0.8-0.4,0.8-0.8V28.4z"/>
		<path class="st2" d="M59.9,16.8c0-0.4-0.4-0.8-0.8-0.8s-0.8,0.4-0.8,0.8v1.9c0,0.4,0.4,0.8,0.8,0.8s0.8-0.4,0.8-0.8V16.8z"/>
		<path class="st2" d="M59.9,20.7c0-0.4-0.4-0.8-0.8-0.8s-0.8,0.4-0.8,0.8v1.9c0,0.4,0.4,0.8,0.8,0.8s0.8-0.4,0.8-0.8V20.7z"/>
		<path class="st2" d="M59.9,24.5c0-0.4-0.4-0.8-0.8-0.8s-0.8,0.4-0.8,0.8v1.9c0,0.4,0.4,0.8,0.8,0.8s0.8-0.4,0.8-0.8V24.5z"/>
	</g>
</g>
<g id="Layer_27" class="st0">
	<g class="st1">
		<path class="st2" d="M3.6,8l3.4,3.4c0.2,0.2,0.4,0.2,0.6,0.2s0.4-0.1,0.6-0.2c0.3-0.3,0.3-0.8,0-1.1L6.1,8.2h45L49,10.3
			c-0.3,0.3-0.3,0.8,0,1.1c0.2,0.2,0.4,0.2,0.6,0.2s0.4-0.1,0.6-0.2L53.6,8c0.2-0.2,0.2-0.4,0.2-0.6c0,0,0,0,0,0s0,0,0,0
			c0-0.2-0.1-0.4-0.3-0.6l-3.4-3.4c-0.3-0.3-0.8-0.3-1.1,0s-0.3,0.8,0,1.1l2.1,2.1h-45l2.1-2.1c0.3-0.3,0.3-0.8,0-1.1
			s-0.8-0.3-1.1,0L3.6,6.9C3.5,7,3.4,7.2,3.4,7.4c0,0,0,0,0,0c0,0,0,0,0,0C3.4,7.7,3.5,7.9,3.6,8z"/>
		<path class="st2" d="M59.4,55.7l-2.1,2.1v-45l2.1,2.1c0.2,0.2,0.4,0.2,0.6,0.2s0.4-0.1,0.6-0.2c0.3-0.3,0.3-0.8,0-1.1L57,10.4
			c-0.2-0.2-0.4-0.2-0.6-0.2c0,0,0,0,0,0c-0.2,0-0.4,0.1-0.6,0.3l-3.4,3.4c-0.3,0.3-0.3,0.8,0,1.1c0.2,0.2,0.4,0.2,0.6,0.2
			s0.4-0.1,0.6-0.2l2.1-2.1v45l-2.1-2.1c-0.3-0.3-0.8-0.3-1.1,0s-0.3,0.8,0,1.1l3.5,3.5c0.2,0.2,0.4,0.2,0.6,0.2c0,0,0,0,0,0
			s0,0,0,0c0.2,0,0.4-0.1,0.6-0.3l3.4-3.4c0.3-0.3,0.3-0.8,0-1.1C60.2,55.4,59.7,55.4,59.4,55.7z"/>
		<path class="st2" d="M48.8,13.5H4.9c-0.9,0-1.6,0.7-1.6,1.6V59c0,0.9,0.7,1.6,1.6,1.6h43.9c0.9,0,1.6-0.7,1.6-1.6V15.1
			C50.4,14.2,49.7,13.5,48.8,13.5z M48.8,59L5,59l0-43.9l43.8,0L48.8,59L48.8,59z"/>
	</g>
</g>
<g id="Layer_28" class="st0">
	<path class="st3" d="M60.5,23c0-0.9-0.7-1.5-1.6-1.5h-6v-8.8c0-1.9-1.5-3.4-3.4-3.4h-35c-1.9,0-3.4,1.6-3.4,3.5v8.8h-6
		c-0.8,0-1.5,0.7-1.5,1.6V50h9.9v3.6c0,0.5,0.4,0.9,0.9,0.9s0.9-0.4,0.9-0.9V50h33.5v3.6c0,0.5,0.4,0.9,0.9,0.9s0.9-0.4,0.9-0.9V50
		h9.9L60.5,23z M12.9,12.6c0-0.4,0.2-0.9,0.5-1.2c0.3-0.3,0.7-0.5,1.2-0.5h34.9c0.9,0,1.6,0.7,1.6,1.6v8.8h-1.2
		c-0.9,0-1.6,0.7-1.6,1.6v14.8c0,0,0,0.1-0.1,0.1H15.9c-0.1,0-0.1,0-0.1-0.1V23c0-0.9-0.7-1.6-1.6-1.6h-1.2
		C12.9,21.4,12.9,12.6,12.9,12.6z M58.7,48.2H5.4v-25h8.6v14.5c0,1,0.9,1.9,1.9,1.9h32.4c1,0,1.9-0.8,1.9-1.9V23.2h8.6L58.7,48.2z"
		/>
</g>
<g id="Layer_29" class="st0">
	<path class="st3" d="M37,35.5c6.4-2.1,11-8,11-15.1c0-8.8-7.1-15.9-15.9-15.9s-15.9,7.1-15.9,15.9c0,7,4.6,13,11,15.1
		c-10.6,2.3-18.6,11.7-18.6,23c0,0.4,0.4,0.8,0.8,0.8s0.8-0.4,0.8-0.8c0-12.1,9.8-21.9,21.9-21.9S54,46.4,54,58.5
		c0,0.4,0.4,0.8,0.8,0.8s0.8-0.4,0.8-0.8C55.6,47.2,47.6,37.7,37,35.5z M17.8,20.4c0-7.9,6.4-14.3,14.3-14.3s14.3,6.4,14.3,14.3
		s-6.4,14.3-14.3,14.3S17.8,28.2,17.8,20.4z"/>
</g>
<g id="Layer_30" class="st0">
	<g class="st1">
		<path class="st8" d="M13.5,53.9H8.7c-1.7,0-3.1-1.7-3.1-3.8v-8.2c-1.8-0.7-3-2.3-3-4.3V27c0-2.5,2.1-4.6,4.6-4.6c0,0,0,0,0,0H15
			c2.6,0,4.6,2,4.7,4.6v10.6c0,2-1.2,3.6-3,4.3v8.1C16.6,52.3,15.3,53.9,13.5,53.9z M7.2,23.9c-1.7,0-3.1,1.4-3.1,3.1v10.6
			c0,1.4,1,2.7,2.5,3l0.6,0.1v9.3c0,1.3,0.7,2.3,1.6,2.3h4.8c0.9,0,1.6-1,1.6-2.3v-9.3l0.6-0.1c1.4-0.3,2.4-1.6,2.5-3V27.1
			c0-1.7-1.4-3.1-3.1-3.1c0,0,0,0,0,0L7.2,23.9C7.2,23.9,7.2,23.9,7.2,23.9z"/>
		<path class="st8" d="M11.1,21.8c-3.1,0-5.6-2.5-5.6-5.6s2.5-5.6,5.6-5.6s5.6,2.5,5.6,5.6S14.2,21.8,11.1,21.8z M11.1,12.2
			C8.9,12.2,7,14,7,16.3s1.8,4.1,4.1,4.1s4.1-1.8,4.1-4.1S13.3,12.2,11.1,12.2z"/>
	</g>
	<g class="st1">
		<path class="st8" d="M55.3,53.9h-4.8c-1.7,0-3.1-1.7-3.1-3.8v-8.2c-1.8-0.7-3-2.3-3-4.3V27c0-2.6,2.1-4.6,4.7-4.6h7.7
			c2.5,0,4.6,2,4.7,4.5v10.7c0,2-1.2,3.6-3,4.3v8.1C58.4,52.3,57.1,53.9,55.3,53.9z M49,23.9c-1.7,0-3.1,1.4-3.1,3.1v10.6
			c0,1.4,1,2.7,2.5,3l0.6,0.1v9.3c0,1.3,0.7,2.3,1.6,2.3h4.8c0.9,0,1.6-1,1.6-2.3v-9.3l0.6-0.1c1.4-0.3,2.4-1.6,2.5-3V27
			c0-1.7-1.4-3.1-3.1-3.1c0,0,0,0,0,0H49C49,23.9,49,23.9,49,23.9z"/>
		<path class="st8" d="M52.9,21.8C52.9,21.8,52.9,21.8,52.9,21.8c-3.1,0-5.6-2.5-5.6-5.6c0-3.1,2.5-5.6,5.6-5.6c0,0,0,0,0,0
			c1.5,0,2.9,0.6,3.9,1.6s1.6,2.4,1.6,3.9C58.5,19.4,56,21.8,52.9,21.8z M52.9,12.2c-2.2,0-4.1,1.8-4.1,4.1s1.8,4.1,4.1,4.1l0,0
			c0,0,0,0,0,0c2.2,0,4.1-1.8,4.1-4.1c0-1.1-0.4-2.1-1.2-2.9C55,12.6,54,12.2,52.9,12.2L52.9,12.2z"/>
	</g>
	<g class="st1">
		<path class="st8" d="M22.7,51.4c-0.2,0-0.3-0.1-0.5-0.2l-3.1-3.1c-0.2-0.2-0.2-0.7,0-0.9l3.1-3.1c0.2-0.2,0.7-0.2,0.9,0
			s0.2,0.7,0,0.9l-2.6,2.6l2.6,2.7c0.2,0.3,0.2,0.7,0,0.9C23,51.3,22.9,51.4,22.7,51.4z"/>
		<path class="st8" d="M41.3,51.4c-0.2,0-0.3-0.1-0.5-0.2c-0.3-0.2-0.3-0.7,0-0.9l2.6-2.7L40.8,45c-0.2-0.2-0.2-0.7,0-0.9
			s0.7-0.2,0.9,0l3.1,3.1c0.2,0.2,0.2,0.7,0,0.9l-3.1,3.1C41.6,51.3,41.5,51.4,41.3,51.4z"/>
		<path class="st8" d="M43.6,48.3h-23c-0.4,0-0.6-0.3-0.6-0.7s0.3-0.7,0.6-0.7h23c0.4,0,0.7,0.3,0.7,0.7S44,48.3,43.6,48.3z"/>
	</g>
</g>
<g id="Layer_31" class="st0">
	<path class="st9" d="M40.8,62.1H23.2c-3.1,0-5.5-2.5-5.5-5.5V25.8c0-2.5,1.7-4.7,4.1-5.3v-2.7c0-2,1.6-3.6,3.6-3.6V3.9
		c0-1.1,0.9-1.9,1.9-1.9h9.5c1.1,0,1.9,0.9,1.9,1.9v10.2c2,0,3.6,1.6,3.6,3.6v2.7c2.4,0.6,4.1,2.8,4.1,5.3v30.8
		C46.3,59.6,43.8,62.1,40.8,62.1z M23,21.8l-0.4,0.1c-2,0.3-3.5,2-3.5,4v30.8c0,2.2,1.8,4,4,4h17.6c2.2,0,4-1.8,4-4V25.8
		c0-2-1.5-3.7-3.4-4L41,21.8H23z M23.2,20.3h17.5v-2.5c0-1.2-1-2.1-2.1-2.1H25.4c-1.2,0-2.1,0.9-2.1,2.1V20.3z M26.8,14.2h10.4V3.9
		c0-0.2-0.2-0.4-0.4-0.4h-9.5c-0.2,0-0.4,0.2-0.4,0.4L26.8,14.2L26.8,14.2z"/>
	<path class="st9" d="M32.8,7.5c-0.4-0.4-1.2-0.4-1.6,0c-0.1,0.1-0.2,0.2-0.3,0.4c-0.1,0.2-0.1,0.3-0.1,0.5c0,0.3,0.1,0.6,0.4,0.8
		c0.2,0.2,0.5,0.3,0.8,0.3c0.3,0,0.6-0.1,0.8-0.3s0.3-0.5,0.3-0.8c0-0.1,0-0.3-0.1-0.4C33,7.7,32.9,7.6,32.8,7.5z"/>
	<path class="st9" d="M35.5,40h-2.3v-2.3c0-0.7-0.5-1.2-1.2-1.2c-0.6,0-1.2,0.5-1.2,1.2V40h-2.3c-0.6,0-1.2,0.5-1.2,1.2
		c0,0.7,0.5,1.2,1.2,1.2h2.3v2.3c0,0.7,0.5,1.2,1.2,1.2c0.7,0,1.2-0.5,1.2-1.2v-2.3h2.3c0.7,0,1.2-0.5,1.2-1.2
		C36.6,40.5,36.1,40,35.5,40z"/>
</g>
<g id="Layer_32" class="st0">
	<g class="st1">
		<path class="st8" d="M35.3,31.3L35.3,31.3c0.3-0.2,0.4-0.4,0.4-0.7V9.5c0-2.3-1.8-4.1-4.1-4.1H6.1C3.8,5.4,2,7.2,2,9.5v13.2
			c0,2.3,1.8,4.1,4.1,4.1h21.2l7.3,4.5l0.4,0.1L35.3,31.3z M34.1,9.5v19.7l-6.2-3.9l0,0H6.1c-1.4,0-2.6-1.1-2.6-2.6V9.5
			c0-1.4,1.2-2.6,2.6-2.6h25.5C33,6.9,34.1,8.1,34.1,9.5z"/>
		<path class="st8" d="M48.6,36.3L48.6,36.3c5,0,9.1-4,9.1-9c0-5-4-9.1-9-9.1c0,0,0,0-0.1,0c-5,0-9,4-9,9
			C39.6,32.2,43.7,36.3,48.6,36.3z M41.3,27.4c0-2,0.8-3.9,2.2-5.3s3.3-2.2,5.3-2.2c0,0,0,0,0.1,0c4.1,0,7.5,3.3,7.5,7.4
			c0,4.1-3.3,7.5-7.4,7.6c0,0-0.1,0-0.1,0C44.6,34.8,41.3,31.4,41.3,27.4z"/>
		<path class="st8" d="M58.7,42.3c-2.6-2.6-6-4.1-9.6-4.2h-0.6c-3.7,0.1-7.1,1.5-9.7,4.2s-4,6.1-4,9.7v5.5c0,1.1,0.8,2.1,2,2.1
			c0,0,0,0,0.1,0s0,0,0.1,0h23.7c1.2,0,2.1-0.9,2.1-2.1V52C62.7,48.3,61.2,44.9,58.7,42.3z M61.1,57.5c0,0.3-0.2,0.6-0.6,0.6H36.9
			c-0.1,0-0.3,0-0.4-0.1c-0.1-0.1-0.2-0.2-0.2-0.3c0,0,0-0.1,0-0.1V52c0-6.7,5.4-12.2,12.1-12.4H49c6.7,0.1,12.2,5.7,12.2,12.4
			L61.1,57.5L61.1,57.5z"/>
		<path class="st8" d="M8.9,13.5h10.2c0.4,0,0.8-0.3,0.8-0.8c0-0.4-0.4-0.7-0.8-0.8H8.9c-0.4,0-0.7,0.4-0.8,0.8
			C8.2,13.1,8.5,13.5,8.9,13.5z"/>
		<path class="st8" d="M25.6,18.9H8.9c-0.4,0-0.7,0.4-0.8,0.8c0,0.4,0.3,0.8,0.8,0.8h16.6c0,0,0.1,0,0.1,0c0.2,0,0.3,0,0.4-0.1
			c0.1-0.1,0.2-0.3,0.3-0.5c0,0,0-0.1,0-0.1C26.4,19.2,26,18.9,25.6,18.9z"/>
	</g>
</g>
<g id="Layer_33" class="st0">
	<path class="st9" d="M14.9,52.3H4.2c-0.4,0-0.8-0.3-0.8-0.8V43c0-0.1-0.1-0.2-0.2-0.3L1.8,42c-0.3-0.1-0.4-0.4-0.4-0.7v-8
		c0-2.7,2.2-4.9,4.9-4.9H17c0,0,0.1,0,0.1,0l8.3-3.8c1.1-0.5,2.3,0,2.8,1c0.1,0.3,0.2,0.6,0.2,0.9c0,0.8-0.4,1.5-1,1.8L18,33.9l0,0
		c-0.1,0.1-0.2,0.2-0.2,0.3v7.2c0,0.3-0.2,0.5-0.4,0.7l-1.5,0.8c-0.1,0-0.2,0.2-0.2,0.3v8.5C15.7,52,15.3,52.3,14.9,52.3z M5,50.8
		h9.2V43c0-0.7,0.4-1.3,1-1.6l1.1-0.5v-6.7c0-0.7,0.4-1.2,0.9-1.6l9.5-5.5c0.2-0.1,0.3-0.3,0.3-0.5c0-0.1,0-0.2-0.1-0.2
		c-0.1-0.1-0.2-0.3-0.4-0.3c-0.1-0.1-0.3,0-0.5,0l-8.3,3.8c-0.2,0.1-0.5,0.2-0.8,0.2H6.2c-1.9,0-3.4,1.5-3.4,3.4v7.6L4,41.4
		c0.6,0.3,1,0.9,1,1.6L5,50.8L5,50.8z M61.9,35.2H24.1c-0.4,0-0.8-0.3-0.8-0.8s0.3-0.8,0.8-0.8h37.1V3.2H13.5V14
		c0,0.4-0.3,0.8-0.8,0.8S12,14.4,12,14V2.5c0-0.4,0.3-0.8,0.8-0.8h49.1c0.4,0,0.8,0.3,0.8,0.8v32C62.6,34.9,62.3,35.2,61.9,35.2z
		 M9.6,26.7c-2.8,0-5-2.2-5-5s2.2-5,5-5s5,2.2,5,5S12.3,26.7,9.6,26.7z M9.6,18.2c-1.9,0-3.5,1.6-3.5,3.5s1.6,3.5,3.5,3.5
		s3.5-1.6,3.5-3.5S11.5,18.2,9.6,18.2z"/>
	<path class="st9" d="M39.1,63H20.6v-1c0-3.8,3.1-6.9,6.9-6.9h4.7c3.8,0,6.9,3.1,6.9,6.9L39.1,63L39.1,63z M22.1,61.5h15.5
		c-0.3-2.7-2.6-4.9-5.4-4.9h-4.7C24.7,56.6,22.4,58.8,22.1,61.5z M29.9,54.5c-2.2,0-4-1.8-4-4s1.8-4,4-4s3.9,1.8,3.9,4
		S32,54.5,29.9,54.5z M29.9,48.1c-1.4,0-2.5,1.1-2.5,2.5s1.1,2.5,2.5,2.5s2.4-1.1,2.4-2.5S31.2,48.1,29.9,48.1z"/>
	<path class="st9" d="M62.6,63H44v-1c0-3.8,3.1-6.9,6.9-6.9h4.7c3.8,0,6.9,3.1,6.9,6.9C62.6,62,62.6,63,62.6,63z M45.6,61.5h15.5
		c-0.3-2.7-2.6-4.9-5.4-4.9H51C48.2,56.6,45.8,58.8,45.6,61.5z M53.3,54.5c-2.2,0-4-1.8-4-4s1.8-4,4-4s4,1.8,4,4
		S55.5,54.5,53.3,54.5z M53.3,48.1c-1.3,0-2.5,1.1-2.5,2.5S52,53,53.3,53s2.5-1.1,2.5-2.5S54.7,48.1,53.3,48.1z"/>
	<path class="st9" d="M58.4,10.2H43.7c-0.4,0-0.8-0.3-0.8-0.8s0.3-0.8,0.8-0.8h14.7c0.4,0,0.8,0.3,0.8,0.8S58.8,10.2,58.4,10.2z"/>
	<path class="st9" d="M58.4,27.8H43.7c-0.4,0-0.8-0.3-0.8-0.8s0.3-0.8,0.8-0.8h14.7c0.4,0,0.8,0.3,0.8,0.8S58.8,27.8,58.4,27.8z"/>
	<path class="st9" d="M58.4,16H31.9c-0.4,0-0.8-0.3-0.8-0.8s0.3-0.8,0.8-0.8h26.5c0.4,0,0.8,0.3,0.8,0.8S58.8,16,58.4,16z"/>
	<path class="st9" d="M58.4,21.9H31.9c-0.4,0-0.8-0.3-0.8-0.8s0.3-0.8,0.8-0.8h26.5c0.4,0,0.8,0.3,0.8,0.8S58.8,21.9,58.4,21.9z"/>
</g>
<g id="Layer_34" class="st0">
	<path class="st9" d="M54.8,59H8.6c-4.3,0-7.8-4-7.8-8.9c0-1,0.8-1.9,1.8-1.9h6c0,0,0,0,0,0h4.8c-1.5-1.2-2.7-2.6-3.6-4.1
		c-1.5-2.5-1.4-7-1.2-8.9c0-0.2,0.1-0.4,0.3-0.5c0.2-0.1,0.4-0.2,0.6-0.1c1.5,0.4,3.6,1,5.6,2c0.1-0.3,0.2-0.6,0.3-0.9
		c0,0,0-0.1,0.1-0.1c0.9-2.5,2.3-4.9,3.1-6.1c0.1-0.2,0.3-0.3,0.5-0.3c0.2,0,0.4,0,0.6,0.2c0.7,0.6,1.8,1.6,2.9,2.9l0.2,0.3
		c2.4,2.8,3.7,5.5,3.8,7.9c0,0,0,0,0.1,0c0.2-0.1,0.3-0.2,0.5-0.2c0.2-0.1,0.4-0.2,0.5-0.2c0.1-0.1,0.3-0.1,0.4-0.2l0,0l0.1,0
		c0.2-0.1,0.3-0.1,0.5-0.2c0.1,0,0.3-0.1,0.4-0.1l0.1,0l0.1,0c0.1,0,0.3-0.1,0.5-0.1c0.2,0,0.4-0.1,0.5-0.1l0.2,0c0.1,0,0.2,0,0.3,0
		c0.7-0.1,1.4-0.1,2.1,0c0.2,0,0.4,0,0.6,0.1l0.4,0.1c0.3,0,0.6,0.1,0.8,0.2l0.1,0c0.3,0.1,0.6,0.2,0.9,0.3c0.3,0.1,0.7,0.3,0.9,0.4
		c0,0,0,0,0,0c0.1,0.1,0.3,0.1,0.4,0.2c0.1-0.1,0.1-0.1,0.2-0.2c0-0.1,0.1-0.1,0.2-0.2c0.2-0.2,0.3-0.3,0.5-0.5
		c0.1-0.1,0.2-0.1,0.2-0.2c0.2-0.1,0.3-0.2,0.5-0.3c0.1-0.1,0.2-0.1,0.3-0.2c0.1-0.1,0.3-0.2,0.5-0.2c0.1,0,0.2-0.1,0.3-0.2
		c0.2-0.1,0.3-0.1,0.5-0.2c0.2,0,0.2-0.1,0.3-0.1c0.2,0,0.4-0.1,0.6-0.1c0.2,0,0.2,0,0.3,0c1.4-0.2,2.7,0,5.2,1.1
		c1.2,0.5,1.8,1.8,1.8,3.2c0,0.2,0.2,0.4,0.4,0.4l0.3,0h0c2.4,0,4.3,1.9,4.3,4.2c0,0.5-0.1,1.1-0.3,1.6h7.7c1,0,1.8,0.9,1.8,1.9
		C62.6,55,59.1,59,54.8,59z M2.6,49.7c-0.1,0-0.2,0.2-0.2,0.4c0,4.1,2.8,7.4,6.3,7.4h46.2c3.5,0,6.3-3.3,6.3-7.4
		c0-0.2-0.1-0.4-0.2-0.4H22.6c0,0,0,0,0,0h-3.3c0,0,0,0,0,0h-0.8c0,0,0,0,0,0h-2.6c0,0,0,0,0,0H9.9c0,0,0,0,0,0H2.6z M46.6,48.2h4.8
		c0.3-0.5,0.5-1,0.5-1.6c0-1.5-1.2-2.7-2.7-2.7L49,44c-0.9,0.1-1.7-0.5-2-1.2c-0.6-1.7-2-3-3.8-3.3c-0.6-0.1-1.1-0.1-1.6,0l-0.1,0
		c0,0-0.1,0-0.1,0c-0.2,0-0.3,0.1-0.4,0.1c-0.1,0-0.1,0-0.2,0.1c-0.2,0.1-0.3,0.1-0.5,0.2c-0.1,0-0.2,0.1-0.2,0.1
		C40,39.9,39.8,40,39.7,40c-0.1,0-0.2,0.1-0.2,0.2c-0.1,0.1-0.2,0.2-0.3,0.2c-0.1,0.1-0.2,0.1-0.2,0.2c-0.1,0.1-0.2,0.2-0.3,0.3
		L38.6,41l-0.1,0.1c0,0,0,0,0,0c0.3,0.2,0.5,0.4,0.8,0.6c0.6,0.5,1.2,1.1,1.6,1.8c0.3,0.4,0.5,0.6,0.6,0.9c0,0,0.1,0.2,0.1,0.2
		c0.2,0.3,0.3,0.5,0.4,0.8l0.1,0.2c0.1,0.3,0.2,0.6,0.3,0.9l0.1,0.2c0.1,0.3,0.2,0.7,0.3,1l0,0.1c0,0.2,0.1,0.3,0.1,0.5h2.8
		C46.1,48.2,46.3,48.2,46.6,48.2z M23.2,48.2h17.1c0.1-0.3,0.3-0.5,0.6-0.5c0.1,0,0.3,0,0.4,0c0-0.2-0.1-0.4-0.2-0.6
		c0,0-0.1-0.2-0.1-0.2c-0.1-0.2-0.2-0.5-0.3-0.8L40.7,46c-0.1-0.2-0.2-0.5-0.4-0.7l0-0.1c-0.2-0.3-0.3-0.6-0.5-0.8
		c-0.5-0.6-0.9-1.1-1.4-1.6c-0.2-0.2-0.5-0.4-0.7-0.5c-0.2-0.2-0.5-0.3-0.7-0.5l0,0l0,0c-0.2-0.1-0.5-0.3-0.8-0.4c0,0,0,0,0,0
		c-0.3-0.1-0.5-0.2-0.8-0.3c-0.3-0.1-0.5-0.2-0.8-0.3l-0.1,0l0,0c-0.2-0.1-0.5-0.1-0.7-0.2l-0.3,0c-0.2,0-0.4-0.1-0.6-0.1
		c-0.6-0.1-1.2,0-1.9,0c-0.1,0-0.2,0-0.2,0l-0.1,0c-0.2,0-0.4,0-0.5,0.1c-0.1,0-0.2,0.1-0.4,0.1c0,0-0.2,0-0.2,0
		c-0.1,0-0.2,0.1-0.4,0.1c-0.1,0-0.3,0.1-0.4,0.1l-0.1,0c-0.1,0-0.2,0.1-0.4,0.1c-0.1,0-0.3,0.1-0.4,0.2c-0.2,0.1-0.3,0.2-0.5,0.2
		c-0.1,0.1-0.2,0.1-0.4,0.2c-0.2,0.1-0.4,0.2-0.5,0.3l-0.2,0.2c-0.2,0.2-0.4,0.3-0.7,0.5c-0.3,0.3-0.5,0.5-0.8,0.7l0,0c0,0,0,0,0,0
		l-0.1,0.1c-0.2,0.2-0.3,0.3-0.4,0.5l-0.2,0.2c-0.1,0.2-0.3,0.3-0.4,0.5l0,0.1l0,0.1c-0.5,0.9-1,1.8-1.2,2.8c0,0,0.1,0,0.1,0
		C22.9,47.9,23.1,48,23.2,48.2z M19.5,48.2h1.4c0-0.1,0-0.2,0.1-0.4c0.3-1.3,0.8-2.5,1.5-3.6l0.1-0.1c0.1-0.2,0.3-0.4,0.4-0.6
		l0.2-0.2c0.1-0.2,0.3-0.3,0.4-0.5l0.2-0.2c0,0,0,0,0,0c0.3-0.3,0.5-0.5,0.8-0.7c0.2-0.2,0.4-0.3,0.5-0.4c0-0.2,0-0.3,0-0.4
		c0-2.7-1.9-5.5-3.5-7.4l-0.2-0.3c-0.8-0.9-1.5-1.6-2.1-2.1c-0.8,1.3-1.8,3.1-2.5,5.1c0,0,0,0.1,0,0.1c-0.1,0.4-0.2,0.8-0.3,1.2
		c0,0,0,0,0,0.1c-0.1,0.4-0.2,0.8-0.2,1.2c0,0,0,0,0,0.1c0,0.4,0,0.7,0,0.9c0,0.4,0.1,0.9,0.1,1.3c0,0.1,0,0.2,0,0.3l0.1,0.3
		c0,0.2,0.1,0.5,0.1,0.7c0,0.1,0.1,0.3,0.1,0.4l0.1,0.3c0,0.2,0.1,0.4,0.2,0.6c0,0.1,0.1,0.3,0.1,0.4l0.1,0.3
		c0.1,0.2,0.1,0.3,0.2,0.5c0.1,0.1,0.1,0.3,0.2,0.4l0.1,0.2c0.1,0.2,0.2,0.4,0.3,0.6c0.1,0.1,0.1,0.3,0.2,0.4l0.1,0.1
		c0.1,0.2,0.2,0.4,0.3,0.5c0.1,0.1,0.2,0.3,0.3,0.4c0.1,0.2,0.2,0.4,0.4,0.5C19.2,48,19.3,48.1,19.5,48.2
		C19.5,48.2,19.5,48.2,19.5,48.2z M16,48.2h1.6c0,0,0,0,0,0c-0.1-0.2-0.2-0.3-0.3-0.5c-0.1-0.2-0.2-0.4-0.3-0.6L16.9,47
		c-0.1-0.2-0.2-0.3-0.2-0.5c-0.1-0.2-0.2-0.4-0.3-0.6l-0.1-0.2c-0.1-0.2-0.1-0.3-0.2-0.5c-0.1-0.2-0.1-0.4-0.2-0.5l-0.1-0.3
		c-0.1-0.2-0.1-0.3-0.2-0.5c-0.1-0.2-0.1-0.4-0.2-0.6L15.3,43c0-0.2-0.1-0.3-0.1-0.5c-0.1-0.3-0.1-0.5-0.1-0.8L15,41.5
		c0-0.1-0.1-0.2-0.1-0.3c-0.1-0.5-0.1-1-0.2-1.4c0-0.4,0-0.8,0-1.2c0,0,0,0,0,0c0-0.1,0-0.2,0-0.3c-1.7-0.9-3.5-1.5-4.8-1.8
		c-0.1,1.9,0,5.3,1.1,7.1C12.2,45.2,14,47,16,48.2z"/>
	<path class="st9" d="M32.8,45.9h-1.8c-0.3,0-0.6-0.3-0.6-0.6v-2.7c0-0.3,0.3-0.6,0.6-0.6h1.8c0.3,0,0.6,0.3,0.6,0.6v2.7
		C33.4,45.7,33.2,45.9,32.8,45.9z M31.6,44.8h0.6v-1.5h-0.6V44.8z"/>
	<path class="st9" d="M27.8,47.4L27.8,47.4c-0.1,0-0.3-0.1-0.4-0.2l-1.8-1.8c-0.2-0.2-0.2-0.6,0-0.8l1.3-1.3
		c0.1-0.1,0.2-0.2,0.4-0.2l0,0c0.1,0,0.3,0.1,0.4,0.2l1.8,1.8c0.2,0.2,0.2,0.6,0,0.8l-1.3,1.3C28.1,47.4,27.9,47.4,27.8,47.4z
		 M26.8,45.1l1,1l0.4-0.4l-1-1L26.8,45.1z"/>
	<path class="st9" d="M36.1,47.4c-0.2,0-0.3-0.1-0.4-0.2L34.5,46c-0.2-0.2-0.2-0.6,0-0.8l1.8-1.8c0.2-0.2,0.6-0.2,0.8,0l1.3,1.3
		c0.2,0.2,0.2,0.6,0,0.8l-1.8,1.8C36.4,47.4,36.3,47.4,36.1,47.4z M35.7,45.6l0.4,0.4l1-1l-0.4-0.4L35.7,45.6z"/>
	<path class="st9" d="M49.8,44c-0.2,0-0.4-0.1-0.6-0.2c-0.3-0.3-0.2-0.8,0.1-1.1c4.7-4.2,7.5-10.4,7.5-16.7
		c0-12.1-9.8-21.9-21.9-21.9S13,13.9,13,26c0,4,1.1,7.8,3.1,11.2c0.2,0.4,0.1,0.8-0.3,1c-0.4,0.2-0.8,0.1-1-0.3
		c-2.2-3.6-3.3-7.8-3.3-12C11.5,13.1,22,2.6,34.9,2.6c12.9,0,23.4,10.5,23.4,23.4c0,6.7-3,13.3-8,17.8C50.1,43.9,49.9,44,49.8,44z"
		/>
	<path class="st9" d="M31.7,29c-0.2,0-0.4-0.1-0.6-0.2l-6-6.8c-0.3-0.3-0.2-0.8,0.1-1.1c0.3-0.3,0.8-0.2,1.1,0.1l5.6,6.3l14.5-10.7
		c0.3-0.2,0.8-0.2,1,0.2s0.2,0.8-0.2,1L32.1,28.8C32,28.9,31.9,29,31.7,29z"/>
</g>
<g id="Layer_35" class="st0">
	<path class="st9" d="M44.1,62.7h-24c-2.1,0-3.8-1.7-3.8-3.8V35.1c0-2.1,1.7-3.8,3.8-3.8h24c2.1,0,3.8,1.7,3.8,3.8v23.8
		C47.8,61,46.1,62.7,44.1,62.7z M20.1,32.8c-1.2,0-2.3,1-2.3,2.3v23.8c0,1.2,1,2.3,2.3,2.3h24c1.2,0,2.3-1,2.3-2.3V35.1
		c0-1.2-1-2.3-2.3-2.3H20.1z"/>
	<path class="st9" d="M55.4,62.8H8.8c-0.4,0-0.8-0.3-0.8-0.8s0.3-0.8,0.8-0.8h46.6c0.4,0,0.8,0.3,0.8,0.8S55.8,62.8,55.4,62.8z"/>
	<path class="st9" d="M43.1,32.8H21c-1,0-1.8-0.8-1.8-1.8V3.9c0-1,0.8-1.8,1.8-1.8h22.1c1,0,1.8,0.8,1.8,1.8V31
		C44.9,32,44.1,32.8,43.1,32.8z M21,3.6c-0.2,0-0.3,0.1-0.3,0.3V31c0,0.2,0.1,0.3,0.3,0.3h22.1c0.2,0,0.3-0.1,0.3-0.3V3.9
		c0-0.2-0.1-0.3-0.3-0.3L21,3.6L21,3.6z"/>
	<path class="st9" d="M37.9,12.8c-2,0-3.6-1.6-3.6-3.6s1.6-3.6,3.6-3.6s3.6,1.6,3.6,3.6S39.9,12.8,37.9,12.8z M37.9,7.2
		c-1.1,0-2.1,0.9-2.1,2.1s0.9,2.1,2.1,2.1S40,10.4,40,9.2S39.1,7.2,37.9,7.2z"/>
	<path class="st9" d="M29.3,52.1h-4.1c-0.8,0-1.4-0.6-1.4-1.4v-3.8c0-0.8,0.6-1.4,1.4-1.4h4.1c0.8,0,1.4,0.6,1.4,1.4v3.8
		C30.7,51.5,30.1,52.1,29.3,52.1z M29.2,46.9L25.1,47l0.1,3.7l4-0.1L29.2,46.9L29.2,46.9z"/>
	<path class="st9" d="M39,52.1h-4.1c-0.8,0-1.4-0.6-1.4-1.4v-3.8c0-0.8,0.6-1.4,1.4-1.4H39c0.8,0,1.4,0.6,1.4,1.4v3.8
		C40.4,51.5,39.8,52.1,39,52.1z M38.9,46.9L34.8,47l0.1,3.7l4-0.1L38.9,46.9L38.9,46.9z"/>
	<path class="st9" d="M39,42.5H25.1c-0.8,0-1.4-0.6-1.4-1.4v-2.1c0-0.8,0.6-1.4,1.4-1.4H39c0.8,0,1.4,0.6,1.4,1.4v2.1
		C40.4,41.9,39.8,42.5,39,42.5z M38.9,38.9L25.1,39l0.1,2.1L38.9,41L38.9,38.9L38.9,38.9z"/>
</g>
<g id="Layer_36" class="st0">
	<g class="st1">
		<path class="st8" d="M47.5,0.8H18c-1.9,0-3.5,1.6-3.5,3.5v55c0,1.9,1.6,3.5,3.5,3.5h29.5c1.9,0,3.5-1.6,3.5-3.5V4.3
			C51,2.4,49.4,0.8,47.5,0.8z M16,10.7h33.5v41H16V10.7z M18,2.3h29.5c1.1,0,2,0.9,2,2v4.9H16V4.3C16,3.2,16.9,2.3,18,2.3z
			 M47.5,61.4H18c-1.1,0-2-0.9-2-2v-6.2h33.5v6.2C49.5,60.5,48.6,61.4,47.5,61.4z"/>
		<path class="st8" d="M28.6,7h8.3c0.4,0,0.8-0.3,0.8-0.8s-0.3-0.8-0.8-0.8h-8.3c-0.4,0-0.8,0.3-0.8,0.8S28.2,7,28.6,7z"/>
		<path class="st8" d="M32.7,54.7c-1.5,0-2.6,1.2-2.6,2.7c0,1.5,1.2,2.7,2.6,2.7s2.7-1.2,2.7-2.7S34.2,54.7,32.7,54.7z M32.7,58.5
			c-0.6,0-1.1-0.5-1.1-1.2s0.5-1.2,1.1-1.2s1.2,0.5,1.2,1.2S33.4,58.5,32.7,58.5z"/>
		<path class="st8" d="M42.9,26.3L42.9,26.3c-0.1,0-0.3,0-0.4,0c0-0.1-0.1-0.3-0.1-0.4c-0.7-2.6-2.4-4.7-4.7-6s-5-1.6-7.6-0.9
			c-3.3,0.9-6,3.6-6.9,6.9c0,0.1-0.1,0.3-0.1,0.4c-0.1,0-0.3,0-0.4,0c-1.5,0-2.8,1.2-2.8,2.8v3c0,1.5,1.2,2.8,2.8,2.8
			c0.2,0,0.4,0,0.6-0.1c0.2,1.1,0.6,2.2,1.1,3.2c0.7,1.6,1.7,3,2.9,4.3l0.7,0.8c1.1,1.2,2.7,1.9,4.3,1.9h1.1c0,0,0,0,0,0
			c1.6,0,3.2-0.7,4.3-1.9l0.7-0.8c0.6-0.7,1.2-1.4,1.7-2.2l0.2-0.2h-1.8l0,0.1c-0.3,0.5-0.7,0.9-1.1,1.3l-0.7,0.8
			c-0.8,0.9-2,1.4-3.2,1.4c0,0,0,0,0,0h-1.1c-1.2,0-2.4-0.5-3.2-1.4l-0.7-0.8c-1.1-1.2-1.9-2.5-2.6-3.9c-0.6-1.3-1-2.7-1.2-4.1
			c0-0.1,0-0.2,0-0.3c0,0,0-0.1,0-0.1c-0.1-0.5-0.1-1.1-0.1-1.6v-2.6c0-0.4,0-0.7,0.1-1.1c0-0.4,0.1-0.8,0.3-1.2c0.6-2.2,2-4,4-5.1
			c2-1.1,4.3-1.4,6.4-0.7c2.8,0.8,5,3,5.8,5.8c0.1,0.4,0.2,0.8,0.3,1.2c0,0.3,0.1,0.7,0.1,1v2.5c0,0.6,0,1.1-0.1,1.7
			c0,0.1,0,0.2,0,0.2l0,0.1c-0.1,0.8-0.3,1.6-0.5,2.3c-0.3,0.8-0.6,1.6-1,2.4l-0.1,0.2h0.8c0.3,0,0.7-0.1,1-0.2l0,0l0,0
			c0.3-0.6,0.5-1.2,0.7-1.8c0.1-0.4,0.2-0.8,0.3-1.2c0.1,0,0.2,0,0.3,0.1V36c0,1.3-1.1,2.3-2.3,2.3c0,0,0,0,0,0H38
			c-0.3-0.7-1-1.2-1.8-1.2h-1.9c-0.5,0-1,0.1-1.5,0.5s-0.7,0.8-0.7,1.3c0,0.5,0.1,1,0.5,1.5s0.8,0.7,1.3,0.7c0.1,0,0.2,0,0.4,0h1.9
			c0.8,0,1.5-0.5,1.8-1.2h2.3c2.1,0,3.9-1.7,3.9-3.9v-1.3c1-0.5,1.5-1.4,1.5-2.5v-3C45.7,27.6,44.4,26.4,42.9,26.3z M42.6,33
			c0.1-0.6,0.1-1.2,0.1-1.9v-2.5c0-0.2,0-0.5,0-0.7c0,0,0.1,0,0.2,0l0,0c0.7,0,1.3,0.6,1.3,1.3l0,3c0,0.7-0.6,1.3-1.3,1.3
			c-0.1,0-0.2-0.1-0.3-0.2V33z M22.9,33c0,0,0,0.1,0,0.2c-0.1,0.1-0.2,0.2-0.3,0.2h0l0,0c-0.7,0-1.3-0.6-1.3-1.3v-3
			c0-0.7,0.6-1.3,1.3-1.3l0,0c0.1,0,0.1,0,0.2,0c0,0.3,0,0.5,0,0.8v2.6C22.8,31.9,22.8,32.5,22.9,33z M36.6,39c0,0,0,0.1,0,0.1
			c0,0.2-0.2,0.4-0.5,0.4h-1.9c-0.3,0-0.5-0.2-0.5-0.5c0-0.2,0.1-0.4,0.3-0.4c0.1,0,0.1,0,0.2,0h0h1.9l0,0c0.1,0,0.2,0,0.3,0.1
			C36.5,38.8,36.6,38.9,36.6,39z"/>
	</g>
</g>
<g id="Layer_37" class="st0">
	<g class="st1">
		<path class="st8" d="M54.4,27.4c0-0.9-0.7-1.6-1.6-1.6h-17c-0.4-0.5-0.9-1-1.3-1.4v-8.3c0-5.7-4.6-10.3-10.3-10.3
			c-0.9,0-1.6,0.7-1.6,1.6v17c-0.5,0.4-1,0.9-1.4,1.4h-8.3C7.2,25.7,2.6,30.3,2.6,36c0,0.9,0.7,1.6,1.6,1.6h17
			c0.4,0.5,0.9,1,1.4,1.3v8.3c0,5.7,4.6,10.3,10.3,10.3c0.9,0,1.6-0.7,1.6-1.6V39c0.5-0.4,1-0.9,1.3-1.3h8.3
			C49.8,37.6,54.4,33,54.4,27.4z M52.9,27.4c0,4.9-3.9,8.8-8.8,8.8h-7.5c0.8-1.3,1.2-2.9,1.2-4.5c0-1.6-0.4-3.1-1.1-4.4h16.1
			C52.9,27.2,52.9,27.3,52.9,27.4z M20.8,31.6c0-4.3,3.5-7.8,7.8-7.8s7.8,3.5,7.8,7.8s-3.5,7.8-7.8,7.8S20.8,35.9,20.8,31.6z
			 M24.2,7.3c4.9,0,8.8,3.9,8.8,8.8v7.4c-1.3-0.7-2.8-1.1-4.4-1.1c-1.6,0-3.1,0.4-4.5,1.2V7.4C24.1,7.3,24.1,7.3,24.2,7.3z M4.1,36
			c0-4.9,3.9-8.8,8.8-8.8h7.5c-0.7,1.3-1.1,2.8-1.1,4.4c0,1.7,0.4,3.2,1.2,4.5H4.2C4.2,36.1,4.1,36.1,4.1,36z M32.9,56.1
			c-4.9,0-8.8-3.9-8.8-8.8v-7.6c1.3,0.7,2.9,1.2,4.5,1.2c1.6,0,3.1-0.4,4.4-1.1V56C33,56,32.9,56.1,32.9,56.1z"/>
		<path class="st8" d="M41.5,7.3H52c0.4,0,0.8-0.3,0.8-0.8S52.4,5.8,52,5.8H41.5c-0.4,0-0.8,0.3-0.8,0.8S41.1,7.3,41.5,7.3z"/>
		<path class="st8" d="M41.5,16.1h19.1c0.4,0,0.8-0.3,0.8-0.8s-0.3-0.8-0.8-0.8H41.5c-0.4,0-0.8,0.3-0.8,0.8S41.1,16.1,41.5,16.1z"
			/>
		<path class="st8" d="M41.5,46.7c-0.4,0-0.8,0.3-0.8,0.8s0.3,0.8,0.8,0.8H52c0.4,0,0.8-0.3,0.8-0.8s-0.3-0.8-0.8-0.8H41.5z"/>
		<path class="st8" d="M60.6,55.4H41.5c-0.4,0-0.8,0.3-0.8,0.8s0.3,0.8,0.8,0.8h19.1c0.4,0,0.8-0.3,0.8-0.8S61,55.4,60.6,55.4z"/>
	</g>
</g>
<g id="Layer_38" class="st0">
	<g class="st1">
		<path class="st8" d="M59,59.4h-9.3V37.9c0-9.7-7.9-17.5-17.5-17.5s-17.5,7.9-17.5,17.5v21.6H5.2c-0.4,0-0.8,0.3-0.8,0.8
			s0.3,0.8,0.8,0.8H59c0.4,0,0.8-0.3,0.8-0.8S59.4,59.4,59,59.4z M16.1,37.9c0-8.8,7.2-16,16-16s16,7.2,16,16v21.6H16.1V37.9z"/>
		<path class="st8" d="M49.2,20.9c0.2,0,0.4-0.1,0.5-0.2l6.5-6.5c0.3-0.3,0.3-0.8,0-1.1s-0.8-0.3-1.1,0l-6.5,6.5
			c-0.3,0.3-0.3,0.8,0,1.1C48.8,20.8,49,20.9,49.2,20.9z"/>
		<path class="st8" d="M32,14.4c0.4,0,0.8-0.3,0.8-0.8V3.8c0-0.4-0.3-0.8-0.8-0.8s-0.8,0.3-0.8,0.8v9.8C31.3,14,31.6,14.4,32,14.4z"
			/>
		<path class="st8" d="M14.4,20.5c0.1,0.1,0.3,0.2,0.5,0.2s0.4-0.1,0.5-0.2c0.3-0.3,0.3-0.8,0-1.1l-6.4-6.4c-0.3-0.3-0.8-0.3-1.1,0
			s-0.3,0.8,0,1.1L14.4,20.5z"/>
	</g>
</g>
<g id="Layer_39" class="st0">
	<g class="st1">
		<rect x="22.6" y="38.1" class="st8" width="2" height="2"/>
		<rect x="22.6" y="42.1" class="st8" width="2" height="2"/>
		<rect x="23.9" y="46" class="st8" width="2" height="2"/>
		<rect x="18.6" y="38.1" class="st8" width="2" height="2"/>
		<rect x="18.6" y="42.1" class="st8" width="2" height="2"/>
		<rect x="19.9" y="46" class="st8" width="2" height="2"/>
		<rect x="19.9" y="50" class="st8" width="2" height="2"/>
		<rect x="14.6" y="38.1" class="st8" width="2" height="2"/>
		<rect x="14.6" y="42.1" class="st8" width="2" height="2"/>
		<rect x="15.9" y="46" class="st8" width="2" height="2"/>
		<rect x="10.6" y="38.1" class="st8" width="2" height="2"/>
		<rect x="26.6" y="38.1" class="st8" width="2" height="2"/>
		<rect x="26.6" y="42.1" class="st8" width="2" height="2"/>
		<rect x="30.6" y="38.1" class="st8" width="2" height="2"/>
		<path class="st8" d="M23.6,26.1c-1.6,0-2.9,1.3-2.9,2.9S22,32,23.6,32s2.9-1.3,2.9-2.9l0,0C26.5,27.5,25.2,26.1,23.6,26.1z
			 M23.6,30.5c-0.8,0-1.4-0.6-1.4-1.4s0.6-1.4,1.4-1.4s1.4,0.6,1.4,1.4C25,29.9,24.4,30.5,23.6,30.5z"/>
		<path class="st8" d="M41.7,36.4l2.3,1.2l1.2,2.3c0.2,0.4,0.5,0.6,0.9,0.8c0.2,0,0.3,0.1,0.5,0.1c0.3,0,0.5-0.1,0.8-0.2
			c0.3-0.1,0.5-0.4,0.6-0.6l1.2-2.3l2.3-1.2c0.4-0.2,0.6-0.5,0.8-0.9c0.1-0.4,0.1-0.8-0.1-1.2c-0.2-0.3-0.4-0.5-0.6-0.6l-2.3-1.2
			l-1.2-2.3c-0.2-0.4-0.5-0.6-0.9-0.8s-0.8-0.1-1.2,0.1c-0.3,0.1-0.5,0.4-0.6,0.6l-1.2,2.3l-2.3,1.2c-0.8,0.4-1,1.4-0.6,2.1
			C41.2,36.1,41.4,36.3,41.7,36.4z M42.4,35l2.6-1.5l1.5-2.7l0.1,0l1.5,2.6l2.7,1.5l0,0.1l-2.6,1.5l-1.5,2.7c0,0-0.1,0-0.1,0
			L45,36.6l-2.6-1.5V35C42.3,35.1,42.4,35,42.4,35z"/>
		<path class="st8" d="M47.2,23l1.5,0.8l0.8,1.5c0.2,0.4,0.5,0.6,0.9,0.8c0.2,0,0.3,0.1,0.4,0.1c0.3,0,0.5-0.1,0.8-0.2
			c0.3-0.1,0.5-0.4,0.6-0.6l0.8-1.5l1.5-0.8c0.4-0.2,0.6-0.5,0.8-0.9c0.1-0.4,0.1-0.8-0.1-1.2c-0.1-0.3-0.4-0.5-0.6-0.6l-1.5-0.8
			L52.3,18c-0.2-0.4-0.5-0.6-0.9-0.8s-0.8-0.1-1.2,0.1c-0.3,0.1-0.5,0.4-0.6,0.6l-0.8,1.5l-1.5,0.8c-0.8,0.4-1,1.4-0.6,2.1
			C46.8,22.7,47,22.9,47.2,23z M49.8,20.6l1-1.9H51l1,1.9l1.9,1v0.1l-1.9,1l-1,1.9h-0.1l-1-1.9l-1.9-1v-0.1L49.8,20.6z"/>
		<path class="st8" d="M22.5,24.8h2.2c2.8,0,5-2.2,5-5v-9.5c0-2.8-2.2-5-5-5h-2.2c-2.8,0-5,2.2-5,5v9.5
			C17.5,22.6,19.7,24.8,22.5,24.8z M24.7,23.3h-2.2c-1.9,0-3.5-1.6-3.5-3.5v-8.4h9.2v8.4C28.1,21.8,26.6,23.3,24.7,23.3z M22.5,6.8
			h2.2c1.8,0,3.2,1.4,3.4,3.1H19C19.2,8.2,20.7,6.8,22.5,6.8z"/>
		<rect x="22" y="15.3" class="st8" width="3.1" height="1.5"/>
		<path class="st8" d="M55.5,53.2h-7.8c-0.1,0-0.2,0-0.3,0.1l-15.3,8H11.6c0.8-4.7,5.2-4.5,5.5-4.5h13.5l0,0l0,0c0.1,0,0.1,0,0.2,0
			s0.1,0,0.2-0.1l0,0l6.8-4.5c0.3-0.2,0.4-0.7,0.2-1s-0.7-0.4-1-0.2L30.7,55c-1.9-2.3-0.2-4.2,0-4.5c0,0,1.5-1.6,4.2-4.3
			c2.3-2.4,6.6-2.3,6.6-2.3l6.6,0.8h7.6c0.4,0,0.8-0.3,0.8-0.8s-0.3-0.8-0.8-0.8h-7.5l-6.6-0.8c-0.2,0-5-0.2-7.8,2.7
			c-2.6,2.7-4.2,4.3-4.2,4.3c-0.9,1-2.1,3.3-0.6,5.7H17.1c-0.1,0-6.6-0.3-7.1,6.7c0,0.2,0.1,0.4,0.2,0.6s0.3,0.2,0.6,0.2h21.5
			c0.1,0,0.2,0,0.3-0.1l15.3-8h7.6c0.4,0,0.8-0.3,0.8-0.8S56,53.2,55.5,53.2z"/>
		<path class="st8" d="M35.6,35.8c2,0,3.5-1.6,3.5-3.5V4c0-0.9-0.7-1.6-1.7-1.6h-28C8.6,2.3,7.9,3.1,7.9,4v28.3c0,2,1.6,3.5,3.5,3.5
			L35.6,35.8L35.6,35.8z M9.4,32.3V4c0-0.1,0.1-0.2,0.1-0.2h28c0.1,0,0.2,0.1,0.2,0.2v28.3c0,1.1-0.9,2-2,2H11.4
			C10.3,34.3,9.4,33.4,9.4,32.3z"/>
	</g>
</g>
<g id="Layer_40" class="st0">
	<g class="st1">
		<path class="st8" d="M31.3,19.2c3.2,0,5.8-2.6,5.8-5.8s-2.6-5.8-5.8-5.8s-5.8,2.6-5.8,5.8S28.1,19.2,31.3,19.2z M31.3,9.1
			c2.4,0,4.3,1.9,4.3,4.3s-1.9,4.3-4.3,4.3S27,15.8,27,13.4C27,11.1,28.9,9.1,31.3,9.1z"/>
		<path class="st8" d="M29.5,14.2h1.1v1.2c0,0.4,0.3,0.8,0.8,0.8s0.8-0.3,0.8-0.8v-1.2h1.1c0.4,0,0.8-0.3,0.8-0.8s-0.3-0.8-0.8-0.8
			H32v-1.2c0-0.4-0.3-0.8-0.8-0.8s-0.8,0.3-0.8,0.8v1.2h-1.1c-0.4,0-0.8,0.3-0.8,0.8S29,14.2,29.5,14.2z"/>
		<path class="st8" d="M44.6,3.9H17.9c-2.5,0-4.5,2-4.5,4.5v47.2c0,2.5,2,4.5,4.5,4.5h26.6c2.5,0,4.5-2,4.5-4.5V8.4
			C49.1,5.9,47.1,3.9,44.6,3.9z M47.6,55.6c0,1.7-1.3,3-3,3H17.9c-1.6,0-3-1.3-3-3V8.4c0-1.7,1.3-3,3-3h26.6c1.7,0,3,1.3,3,3
			L47.6,55.6L47.6,55.6z"/>
		<path class="st8" d="M43.8,22.7H18.7c-0.7,0-1.2,0.5-1.2,1.2v19c0,0.7,0.5,1.2,1.2,1.2h25.1c0.7,0,1.2-0.5,1.2-1.2v-19
			C45,23.3,44.5,22.7,43.8,22.7z M43.5,42.6H19V24.2h24.5V42.6z"/>
	</g>
</g>
<g id="Layer_41" class="st0">
	<g class="st1">
		<path class="st8" d="M15.2,17.1c0,1,0.4,2,1.1,2.7c0.7,0.7,1.6,1.1,2.6,1.2c0,0,0.1,0,0.1,0l0,0c1,0,2-0.4,2.7-1.1
			c0.7-0.7,1.1-1.7,1.1-2.7c0-2.1-1.7-3.8-3.8-3.8c-1,0-2,0.4-2.7,1.1C15.6,15.1,15.2,16.1,15.2,17.1z M17.4,15.5
			c0.4-0.4,1-0.7,1.6-0.7c0,0,0,0,0,0c1.3,0,2.3,1.1,2.3,2.3c0,0.6-0.2,1.2-0.7,1.6c-0.4,0.4-1,0.7-1.6,0.7c0,0-0.1,0-0.1,0
			c-0.6,0-1.2-0.3-1.6-0.7c-0.4-0.5-0.7-1-0.7-1.7C16.7,16.5,17,15.9,17.4,15.5z"/>
		<path class="st8" d="M12.2,2.9C12.2,2.9,12.2,2.9,12.2,2.9c-0.2-0.6-0.9-0.8-1.4-0.6S10,3.2,10.2,3.7c0.2,0.4,0.6,0.6,1,0.6
			c0.1,0,0.3,0,0.4-0.1C12.1,4,12.4,3.4,12.2,2.9z"/>
		<path class="st8" d="M12.5,7.5c0.1,0,0.3,0,0.4-0.1c0.5-0.2,0.8-0.8,0.6-1.4c-0.2-0.5-0.9-0.8-1.4-0.6s-0.8,0.8-0.6,1.4
			C11.7,7.2,12.1,7.5,12.5,7.5z"/>
		<path class="st8" d="M10.4,8.4C10,8,9.3,8.2,9,8.6c-0.3,0.5-0.2,1.2,0.3,1.5c0,0,0.1,0.1,0.1,0.1c0.1,0.1,0.3,0.1,0.5,0.1
			c0.6,0,1.1-0.5,1.1-1.1C11,8.9,10.8,8.5,10.4,8.4z"/>
		<path class="st8" d="M4.9,6.5C5.2,6,5,5.3,4.5,5.1S3.4,5,3.1,5.5C2.8,6,3,6.6,3.5,6.9c0,0,0,0,0,0C3.7,7,3.8,7.1,4,7.1
			C4.4,7.1,4.8,6.8,4.9,6.5z"/>
		<path class="st8" d="M7.9,8.1C8.2,7.6,8,7,7.5,6.7C7,6.4,6.3,6.6,6,7.1S5.9,8.3,6.5,8.6C6.6,8.7,6.8,8.7,7,8.7
			C7.4,8.7,7.7,8.5,7.9,8.1z"/>
		<path class="st8" d="M4.6,12.1L4.6,12.1c-0.6,0.1-1,0.6-1,1.2c0.1,0.5,0.5,0.9,1,0.9h0.2c0.6-0.1,1-0.6,0.9-1.2S5.2,12,4.6,12.1z"
			/>
		<path class="st8" d="M8.1,11.7c-0.6,0-1,0.5-1,1.1c0,0.5,0.4,0.9,1,1h0.1c0.6,0,1-0.5,1-1.1C9.1,12.1,8.6,11.7,8.1,11.7z"/>
		<path class="st8" d="M26.4,8.9h-8.3c-3.6,0-6.5,2.9-6.5,6.5v18.3c0,1.6,1.3,2.9,2.9,2.9h7c1.6,0,2.8-1.3,2.8-2.8v-9.5
			c0-1.4,0.7-2.8,1.8-3.7l0.1-0.1c0.2-0.1,0.3-0.2,0.5-0.3c0.2-0.1,0.4-0.4,0.4-0.7v-10C27.2,9.2,26.8,8.9,26.4,8.9z M25.7,19.2
			c-0.1,0.1-0.2,0.1-0.3,0.2l-0.1,0.1c-1.5,1.2-2.4,3-2.4,4.9v9.5c0,0.7-0.6,1.3-1.3,1.3h-7c-0.8,0-1.4-0.6-1.4-1.4V15.4
			c0-2.8,2.3-5,5-5h7.6L25.7,19.2L25.7,19.2z"/>
		<path class="st8" d="M48.4,36h-6.6c-7,0-12.7,5.7-12.7,12.7v11.2c0,1.5,1.2,2.7,2.7,2.7h26.6c1.5,0,2.7-1.2,2.7-2.7V48.6
			C61.1,41.6,55.4,36,48.4,36z M59.6,59.8c0,0.7-0.5,1.2-1.2,1.2H31.8c-0.7,0-1.2-0.5-1.2-1.2V48.6c0-6.2,5-11.2,11.2-11.2h6.6
			c6.2,0,11.2,5,11.2,11.2C59.6,48.6,59.6,59.8,59.6,59.8z"/>
		<path class="st8" d="M45.1,33.8c6.5,0,11.7-5.3,11.7-11.7s-5.3-11.7-11.7-11.7s-11.7,5.3-11.7,11.7S38.7,33.8,45.1,33.8z
			 M45.1,11.9c5.6,0,10.2,4.6,10.2,10.2s-4.6,10.2-10.2,10.2c-5.6,0-10.2-4.6-10.2-10.2S39.5,11.9,45.1,11.9z"/>
	</g>
</g>
<g id="Layer_42" class="st0">
	<path class="st9" d="M51.5,61.4H12.4c-2.9,0-5.2-2.3-5.2-5.2V7.8c0-2.9,2.3-5.2,5.2-5.2h39.2c2.9,0,5.2,2.3,5.2,5.2v48.3
		C56.7,59.1,54.4,61.4,51.5,61.4z M12.4,4.1c-2.1,0-3.7,1.7-3.7,3.7v48.3c0,2.1,1.7,3.7,3.7,3.7h39.2c2.1,0,3.7-1.7,3.7-3.7V7.8
		c0-2.1-1.7-3.7-3.7-3.7L12.4,4.1L12.4,4.1z"/>
	<g class="st1">
		<path class="st8" d="M18.7,34.5c-0.2,0-0.4-0.1-0.6-0.2l-3-3.4c-0.3-0.3-0.2-0.8,0.1-1.1c0.3-0.3,0.8-0.2,1.1,0.1l2.5,2.8l6.9-5.1
			c0.3-0.2,0.8-0.2,1,0.2c0.2,0.3,0.2,0.8-0.2,1l-7.5,5.5C19,34.5,18.9,34.5,18.7,34.5z"/>
		<path class="st8" d="M18.7,23c-0.2,0-0.4-0.1-0.6-0.2l-3-3.4c-0.3-0.3-0.2-0.8,0.1-1.1c0.3-0.3,0.8-0.2,1.1,0.1l2.5,2.9l6.9-5.1
			c0.3-0.2,0.8-0.2,1,0.2c0.2,0.3,0.2,0.8-0.2,1l-7.5,5.5C19,22.9,18.9,23,18.7,23z"/>
		<path class="st8" d="M48.1,20h-16c-0.4,0-0.8-0.3-0.8-0.8s0.3-0.8,0.8-0.8h16c0.4,0,0.8,0.3,0.8,0.8S48.5,20,48.1,20z"/>
		<path class="st8" d="M48.1,32h-16c-0.4,0-0.8-0.3-0.8-0.8s0.3-0.8,0.8-0.8h16c0.4,0,0.8,0.3,0.8,0.8S48.5,32,48.1,32z"/>
		<path class="st8" d="M48.1,44h-16c-0.4,0-0.8-0.3-0.8-0.8s0.3-0.8,0.8-0.8h16c0.4,0,0.8,0.3,0.8,0.8S48.5,44,48.1,44z"/>
		<path class="st8" d="M20.9,48c-2.6,0-4.7-2.1-4.7-4.7s2.1-4.7,4.7-4.7s4.7,2.1,4.7,4.7S23.5,48,20.9,48z M20.9,40.1
			c-1.8,0-3.2,1.4-3.2,3.2c0,1.8,1.4,3.2,3.2,3.2s3.2-1.4,3.2-3.2C24.1,41.5,22.7,40.1,20.9,40.1z"/>
	</g>
</g>
<g id="Layer_43" class="st0">
	<path class="st10" d="M39.9,48.3H23.7c-1.8,0-3.3-1.5-3.3-3.3V1.8c0-0.4,0.3-0.8,0.8-0.8s0.8,0.3,0.8,0.8V45c0,1,0.8,1.8,1.8,1.8
		h16.2c1,0,1.8-0.8,1.8-1.8V1.8C41.7,1.3,42,1,42.4,1s0.8,0.3,0.8,0.8V45C43.2,46.8,41.7,48.3,39.9,48.3z"/>
	<path class="st10" d="M12.2,10c-2.1,0-3.8-1.7-3.8-3.8s1.7-3.8,3.8-3.8S16,4.1,16,6.2S14.3,10,12.2,10z M12.2,3.9
		c-1.3,0-2.3,1-2.3,2.3s1,2.3,2.3,2.3s2.3-1,2.3-2.3S13.5,3.9,12.2,3.9z"/>
	<path class="st10" d="M12.2,19.9c-2.1,0-3.8-1.7-3.8-3.8s1.7-3.8,3.8-3.8S16,14,16,16.1S14.3,19.9,12.2,19.9z M12.2,13.8
		c-1.3,0-2.3,1-2.3,2.3s1,2.3,2.3,2.3s2.3-1,2.3-2.3S13.5,13.8,12.2,13.8z"/>
	<path class="st10" d="M12.2,29.8c-2.1,0-3.8-1.7-3.8-3.8s1.7-3.8,3.8-3.8S16,23.9,16,26S14.3,29.8,12.2,29.8z M12.2,23.7
		c-1.3,0-2.3,1-2.3,2.3s1,2.3,2.3,2.3s2.3-1,2.3-2.3S13.5,23.7,12.2,23.7z"/>
	<path class="st10" d="M12.2,39.6c-2.1,0-3.8-1.7-3.8-3.8c0-2.1,1.7-3.8,3.8-3.8s3.8,1.7,3.8,3.8C16,37.9,14.3,39.6,12.2,39.6z
		 M12.2,33.6c-1.3,0-2.3,1-2.3,2.3s1,2.3,2.3,2.3s2.3-1,2.3-2.3S13.5,33.6,12.2,33.6z"/>
	<path class="st10" d="M12.2,49.5c-2.1,0-3.8-1.7-3.8-3.8s1.7-3.8,3.8-3.8s3.8,1.7,3.8,3.8S14.3,49.5,12.2,49.5z M12.2,43.5
		c-1.3,0-2.3,1-2.3,2.3s1,2.3,2.3,2.3s2.3-1,2.3-2.3S13.5,43.5,12.2,43.5z"/>
	<path class="st10" d="M51.2,10c-2.1,0-3.8-1.7-3.8-3.8s1.7-3.8,3.8-3.8S55,4.1,55,6.2S53.3,10,51.2,10z M51.2,3.9
		c-1.3,0-2.3,1-2.3,2.3s1,2.3,2.3,2.3s2.3-1,2.3-2.3S52.5,3.9,51.2,3.9z"/>
	<path class="st10" d="M51.2,19.9c-2.1,0-3.8-1.7-3.8-3.8s1.7-3.8,3.8-3.8S55,14,55,16.1S53.3,19.9,51.2,19.9z M51.2,13.8
		c-1.3,0-2.3,1-2.3,2.3s1,2.3,2.3,2.3s2.3-1,2.3-2.3S52.5,13.8,51.2,13.8z"/>
	<path class="st10" d="M51.2,29.8c-2.1,0-3.8-1.7-3.8-3.8s1.7-3.8,3.8-3.8S55,23.9,55,26S53.3,29.8,51.2,29.8z M51.2,23.7
		c-1.3,0-2.3,1-2.3,2.3s1,2.3,2.3,2.3s2.3-1,2.3-2.3S52.5,23.7,51.2,23.7z"/>
	<path class="st10" d="M51.2,39.6c-2.1,0-3.8-1.7-3.8-3.8c0-2.1,1.7-3.8,3.8-3.8s3.8,1.7,3.8,3.8C55,37.9,53.3,39.6,51.2,39.6z
		 M51.2,33.6c-1.3,0-2.3,1-2.3,2.3s1,2.3,2.3,2.3s2.3-1,2.3-2.3S52.5,33.6,51.2,33.6z"/>
	<path class="st10" d="M51.2,49.5c-2.1,0-3.8-1.7-3.8-3.8s1.7-3.8,3.8-3.8s3.8,1.7,3.8,3.8S53.3,49.5,51.2,49.5z M51.2,43.5
		c-1.3,0-2.3,1-2.3,2.3s1,2.3,2.3,2.3s2.3-1,2.3-2.3S52.5,43.5,51.2,43.5z"/>
	<path class="st10" d="M42.4,61.9c-2.1,0-3.8-1.7-3.8-3.8s1.7-3.8,3.8-3.8c2.1,0,3.8,1.7,3.8,3.8S44.5,61.9,42.4,61.9z M42.4,55.8
		c-1.3,0-2.3,1-2.3,2.3s1,2.3,2.3,2.3s2.3-1,2.3-2.3S43.7,55.8,42.4,55.8z"/>
	<path class="st10" d="M31.9,61.9c-2.1,0-3.8-1.7-3.8-3.8s1.7-3.8,3.8-3.8s3.8,1.7,3.8,3.8S34,61.9,31.9,61.9z M31.9,55.8
		c-1.3,0-2.3,1-2.3,2.3s1,2.3,2.3,2.3s2.3-1,2.3-2.3S33.2,55.8,31.9,55.8z"/>
	<path class="st10" d="M21.4,61.9c-2.1,0-3.8-1.7-3.8-3.8s1.7-3.8,3.8-3.8s3.8,1.7,3.8,3.8S23.5,61.9,21.4,61.9z M21.4,55.8
		c-1.3,0-2.3,1-2.3,2.3s1,2.3,2.3,2.3s2.3-1,2.3-2.3S22.6,55.8,21.4,55.8z"/>
</g>
<g id="Layer_44" class="st0">
	<path class="st10" d="M58.8,42.7H39.9c-1.5,0-2.7-1.2-2.7-2.7v-0.5c0-1.5,1.2-2.7,2.7-2.7h18.9c1.5,0,2.7,1.2,2.7,2.7V40
		C61.5,41.5,60.3,42.7,58.8,42.7z M39.9,38.3c-0.6,0-1.2,0.5-1.2,1.2V40c0,0.6,0.5,1.2,1.2,1.2h18.9c0.6,0,1.2-0.5,1.2-1.2v-0.5
		c0-0.6-0.5-1.2-1.2-1.2H39.9z"/>
	<g class="st1">
		<path class="st11" d="M49.4,51.3c-2,0-3.6-1.6-3.6-3.6s1.6-3.6,3.6-3.6s3.6,1.6,3.6,3.6C52.9,49.7,51.3,51.3,49.4,51.3z
			 M49.4,45.7c-1.1,0-2.1,0.9-2.1,2.1s0.9,2.1,2.1,2.1s2.1-0.9,2.1-2.1C51.4,46.6,50.5,45.7,49.4,45.7z"/>
		<path class="st11" d="M57.6,51.3c-2,0-3.6-1.6-3.6-3.6s1.6-3.6,3.6-3.6s3.6,1.6,3.6,3.6S59.6,51.3,57.6,51.3z M57.6,45.7
			c-1.1,0-2.1,0.9-2.1,2.1s0.9,2.1,2.1,2.1s2.1-0.9,2.1-2.1S58.7,45.7,57.6,45.7z"/>
		<path class="st11" d="M41.1,51.3c-2,0-3.6-1.6-3.6-3.6s1.6-3.6,3.6-3.6s3.6,1.6,3.6,3.6S43.1,51.3,41.1,51.3z M41.1,45.7
			c-1.1,0-2.1,0.9-2.1,2.1s0.9,2.1,2.1,2.1s2.1-0.9,2.1-2.1S42.3,45.7,41.1,45.7z"/>
	</g>
	<g class="st1">
		<path class="st11" d="M49.4,28.6c-2,0-3.6-1.6-3.6-3.6s1.6-3.6,3.6-3.6s3.6,1.6,3.6,3.6S51.3,28.6,49.4,28.6z M49.4,23
			c-1.1,0-2.1,0.9-2.1,2.1s0.9,2.1,2.1,2.1s2.1-0.9,2.1-2.1S50.5,23,49.4,23z"/>
		<path class="st11" d="M41.1,28.6c-2,0-3.6-1.6-3.6-3.6s1.6-3.6,3.6-3.6s3.6,1.6,3.6,3.6S43.1,28.6,41.1,28.6z M41.1,23
			c-1.1,0-2.1,0.9-2.1,2.1s0.9,2.1,2.1,2.1s2.1-0.9,2.1-2.1S42.3,23,41.1,23z"/>
		<path class="st11" d="M57.6,28.6c-2,0-3.6-1.6-3.6-3.6s1.6-3.6,3.6-3.6s3.6,1.6,3.6,3.6S59.6,28.6,57.6,28.6z M57.6,23
			c-1.1,0-2.1,0.9-2.1,2.1s0.9,2.1,2.1,2.1s2.1-0.9,2.1-2.1S58.7,23,57.6,23z"/>
	</g>
	<path class="st10" d="M58.8,20H39.9c-1.5,0-2.7-1.2-2.7-2.7v-0.5c0-1.5,1.2-2.7,2.7-2.7h18.9c1.5,0,2.7,1.2,2.7,2.7v0.5
		C61.5,18.9,60.3,20,58.8,20z M39.9,15.7c-0.6,0-1.2,0.5-1.2,1.2v0.5c0,0.6,0.5,1.2,1.2,1.2h18.9c0.6,0,1.2-0.5,1.2-1.2v-0.5
		c0-0.6-0.5-1.2-1.2-1.2H39.9z"/>
	<path class="st10" d="M24.5,42.7H5.6c-1.5,0-2.7-1.2-2.7-2.7v-0.5c0-1.5,1.2-2.7,2.7-2.7h18.9c1.5,0,2.7,1.2,2.7,2.7V40
		C27.2,41.5,26,42.7,24.5,42.7z M5.6,38.3c-0.6,0-1.2,0.5-1.2,1.2V40c0,0.6,0.5,1.2,1.2,1.2h18.9c0.6,0,1.2-0.5,1.2-1.2v-0.5
		c0-0.6-0.5-1.2-1.2-1.2H5.6z"/>
	<g class="st1">
		<path class="st11" d="M15,51.3c-2,0-3.6-1.6-3.6-3.6s1.6-3.6,3.6-3.6s3.6,1.6,3.6,3.6S17,51.3,15,51.3z M15,45.7
			c-1.1,0-2.1,0.9-2.1,2.1s0.9,2.1,2.1,2.1s2.1-0.9,2.1-2.1S16.2,45.7,15,45.7z"/>
		<path class="st11" d="M23.3,51.3c-2,0-3.6-1.6-3.6-3.6s1.6-3.6,3.6-3.6s3.6,1.6,3.6,3.6C26.8,49.7,25.2,51.3,23.3,51.3z
			 M23.3,45.7c-1.1,0-2.1,0.9-2.1,2.1s0.9,2.1,2.1,2.1s2.1-0.9,2.1-2.1C25.3,46.6,24.4,45.7,23.3,45.7z"/>
		<path class="st11" d="M6.8,51.3c-2,0-3.6-1.6-3.6-3.6s1.6-3.6,3.6-3.6s3.6,1.6,3.6,3.6S8.8,51.3,6.8,51.3z M6.8,45.7
			c-1.1,0-2.1,0.9-2.1,2.1s0.9,2.1,2.1,2.1s2.1-0.9,2.1-2.1C8.9,46.6,7.9,45.7,6.8,45.7z"/>
	</g>
	<g class="st1">
		<path class="st11" d="M15,28.6c-2,0-3.6-1.6-3.6-3.6s1.6-3.6,3.6-3.6s3.6,1.6,3.6,3.6S17,28.6,15,28.6z M15,23
			c-1.1,0-2.1,0.9-2.1,2.1s0.9,2.1,2.1,2.1s2.1-0.9,2.1-2.1S16.2,23,15,23z"/>
		<path class="st11" d="M6.8,28.6c-2,0-3.6-1.6-3.6-3.6s1.6-3.6,3.6-3.6s3.6,1.6,3.6,3.6S8.8,28.6,6.8,28.6z M6.8,23
			c-1.1,0-2.1,0.9-2.1,2.1s0.9,2.1,2.1,2.1s2.1-0.9,2.1-2.1S7.9,23,6.8,23z"/>
		<path class="st11" d="M23.3,28.6c-2,0-3.6-1.6-3.6-3.6s1.6-3.6,3.6-3.6s3.6,1.6,3.6,3.6S25.2,28.6,23.3,28.6z M23.3,23
			c-1.1,0-2.1,0.9-2.1,2.1s0.9,2.1,2.1,2.1s2.1-0.9,2.1-2.1S24.4,23,23.3,23z"/>
	</g>
	<path class="st10" d="M24.5,20H5.6c-1.5,0-2.7-1.2-2.7-2.7v-0.5c0-1.5,1.2-2.7,2.7-2.7h18.9c1.5,0,2.7,1.2,2.7,2.7v0.5
		C27.2,18.9,26,20,24.5,20z M5.6,15.7c-0.6,0-1.2,0.5-1.2,1.2v0.5c0,0.6,0.5,1.2,1.2,1.2h18.9c0.6,0,1.2-0.5,1.2-1.2v-0.5
		c0-0.6-0.5-1.2-1.2-1.2H5.6z"/>
</g>
<g id="Layer_45">
	<g>
		<path class="st12" d="M7.8,37c-2.8,0-5-2.3-5-5s2.2-5,5-5s5,2.3,5,5S10.6,37,7.8,37z M7.8,28.5c-1.9,0-3.5,1.6-3.5,3.5
			s1.6,3.5,3.5,3.5s3.5-1.6,3.5-3.5S9.7,28.5,7.8,28.5z"/>
		<path class="st12" d="M56.2,37c-2.8,0-5-2.2-5-5s2.2-5,5-5s5,2.2,5,5S59,37,56.2,37z M56.2,28.5c-1.9,0-3.5,1.6-3.5,3.5
			s1.6,3.5,3.5,3.5s3.5-1.6,3.5-3.5S58.2,28.5,56.2,28.5z"/>
		<path class="st12" d="M32,47.5c-8.5,0-15.5-6.9-15.5-15.5c0-8.5,6.9-15.5,15.5-15.5S47.5,23.5,47.5,32S40.5,47.5,32,47.5z M32,18
			c-7.7,0-14,6.3-14,14s6.3,14,14,14s14-6.3,14-14S39.7,18,32,18z"/>
	</g>
	<g>
		<path class="st12" d="M32,61.2c-2.8,0-5-2.2-5-5s2.3-5,5-5s5,2.2,5,5S34.8,61.2,32,61.2z M32,52.7c-1.9,0-3.5,1.6-3.5,3.5
			s1.6,3.5,3.5,3.5s3.5-1.6,3.5-3.5S33.9,52.7,32,52.7z"/>
		<path class="st12" d="M32,12.8c-2.8,0-5-2.2-5-5s2.3-5,5-5s5,2.2,5,5S34.8,12.8,32,12.8z M32,4.2c-1.9,0-3.5,1.6-3.5,3.5
			s1.6,3.5,3.5,3.5s3.5-1.6,3.5-3.5S33.9,4.2,32,4.2z"/>
	</g>
	<g>
		<path class="st12" d="M14.9,54.2c-1.3,0-2.6-0.5-3.6-1.5c-2-2-2-5.2,0-7.1c0.9-1,2.2-1.5,3.6-1.5s2.6,0.5,3.6,1.5c2,2,2,5.2,0,7.1
			C17.5,53.6,16.2,54.2,14.9,54.2z M14.9,45.6c-0.9,0-1.8,0.4-2.5,1s-1,1.5-1,2.5s0.4,1.8,1,2.5c1.3,1.3,3.7,1.3,5,0
			c0.7-0.7,1-1.5,1-2.5s-0.4-1.8-1-2.5S15.8,45.6,14.9,45.6z"/>
		<path class="st12" d="M49.1,19.9c-1.3,0-2.6-0.5-3.5-1.5c-1-1-1.5-2.2-1.5-3.6s0.5-2.6,1.5-3.6c2-2,5.2-2,7.1,0
			c1,0.9,1.5,2.2,1.5,3.6s-0.5,2.6-1.5,3.6C51.7,19.4,50.4,19.9,49.1,19.9z M49.1,11.4c-0.9,0-1.8,0.4-2.5,1s-1,1.6-1,2.5
			s0.4,1.8,1,2.5c1.3,1.3,3.7,1.3,5,0c0.7-0.7,1-1.6,1-2.5s-0.4-1.8-1-2.5S50.1,11.4,49.1,11.4z"/>
	</g>
	<g>
		<path class="st12" d="M49.1,54.2c-1.3,0-2.6-0.5-3.5-1.5c-2-2-2-5.2,0-7.1s5.2-2,7.1,0s2,5.2,0,7.1C51.7,53.7,50.4,54.2,49.1,54.2
			z M49.1,45.6c-0.9,0-1.8,0.4-2.5,1s-1,1.5-1,2.5s0.4,1.8,1,2.5c1.3,1.3,3.7,1.3,5,0c0.7-0.7,1-1.5,1-2.5s-0.4-1.8-1-2.5
			S50.1,45.6,49.1,45.6z"/>
		<path class="st12" d="M14.9,19.9c-1.3,0-2.6-0.5-3.6-1.5c-0.9-1-1.5-2.2-1.5-3.6s0.5-2.6,1.5-3.6c0.9-0.9,2.2-1.5,3.6-1.5
			s2.6,0.5,3.6,1.5c1,0.9,1.5,2.2,1.5,3.6s-0.5,2.6-1.5,3.6S16.2,19.9,14.9,19.9z M14.9,11.4c-0.9,0-1.8,0.4-2.5,1s-1,1.6-1,2.5
			s0.4,1.8,1,2.5c1.3,1.3,3.7,1.3,5,0c0.7-0.7,1-1.6,1-2.5s-0.4-1.8-1-2.5S15.8,11.4,14.9,11.4z"/>
	</g>
</g>
<g id="Layer_46" class="st0">
	<path class="st10" d="M9,30.7c-1.8,0-3.2-1.4-3.2-3.2s1.4-3.2,3.2-3.2s3.2,1.4,3.2,3.2S10.8,30.7,9,30.7z M9,25.8
		c-0.9,0-1.7,0.8-1.7,1.7c0,0.9,0.8,1.7,1.7,1.7c0.9,0,1.7-0.8,1.7-1.7C10.7,26.5,10,25.8,9,25.8z"/>
	<path class="st10" d="M16.7,30.7c-1.8,0-3.2-1.4-3.2-3.2s1.4-3.2,3.2-3.2s3.2,1.4,3.2,3.2S18.5,30.7,16.7,30.7z M16.7,25.8
		c-0.9,0-1.7,0.8-1.7,1.7c0,0.9,0.8,1.7,1.7,1.7s1.7-0.8,1.7-1.7C18.4,26.5,17.6,25.8,16.7,25.8z"/>
	<path class="st10" d="M9,39.8c-1.8,0-3.2-1.4-3.2-3.2s1.4-3.2,3.2-3.2s3.2,1.4,3.2,3.2C12.2,38.3,10.8,39.8,9,39.8z M9,34.8
		c-0.9,0-1.7,0.8-1.7,1.7s0.8,1.7,1.7,1.7c0.9,0,1.7-0.8,1.7-1.7S10,34.8,9,34.8z"/>
	<path class="st10" d="M16.7,39.8c-1.8,0-3.2-1.4-3.2-3.2s1.4-3.2,3.2-3.2s3.2,1.4,3.2,3.2C19.9,38.3,18.5,39.8,16.7,39.8z
		 M16.7,34.8c-0.9,0-1.7,0.8-1.7,1.7s0.8,1.7,1.7,1.7s1.7-0.8,1.7-1.7S17.6,34.8,16.7,34.8z"/>
	<path class="st10" d="M9,48.8c-1.8,0-3.2-1.4-3.2-3.2s1.4-3.2,3.2-3.2s3.2,1.4,3.2,3.2S10.8,48.8,9,48.8z M9,43.9
		c-0.9,0-1.7,0.8-1.7,1.7s0.8,1.7,1.7,1.7c0.9,0,1.7-0.8,1.7-1.7S10,43.9,9,43.9z"/>
	<path class="st10" d="M16.7,48.8c-1.8,0-3.2-1.4-3.2-3.2s1.4-3.2,3.2-3.2s3.2,1.4,3.2,3.2S18.5,48.8,16.7,48.8z M16.7,43.9
		c-0.9,0-1.7,0.8-1.7,1.7s0.8,1.7,1.7,1.7s1.7-0.8,1.7-1.7S17.6,43.9,16.7,43.9z"/>
	<path class="st10" d="M9,57.9c-1.8,0-3.2-1.4-3.2-3.2s1.4-3.2,3.2-3.2s3.2,1.4,3.2,3.2C12.2,56.5,10.8,57.9,9,57.9z M9,53
		c-0.9,0-1.7,0.8-1.7,1.7s0.8,1.7,1.7,1.7c0.9,0,1.7-0.8,1.7-1.7S10,53,9,53z"/>
	<path class="st10" d="M16.7,57.9c-1.8,0-3.2-1.4-3.2-3.2s1.4-3.2,3.2-3.2s3.2,1.4,3.2,3.2C19.9,56.5,18.5,57.9,16.7,57.9z M16.7,53
		c-0.9,0-1.7,0.8-1.7,1.7s0.8,1.7,1.7,1.7s1.7-0.8,1.7-1.7S17.6,53,16.7,53z"/>
	<path class="st10" d="M24.5,30.7c-1.8,0-3.2-1.4-3.2-3.2s1.4-3.2,3.2-3.2s3.2,1.4,3.2,3.2S26.3,30.7,24.5,30.7z M24.5,25.8
		c-0.9,0-1.7,0.8-1.7,1.7c0,0.9,0.8,1.7,1.7,1.7c0.9,0,1.7-0.8,1.7-1.7C26.2,26.5,25.5,25.8,24.5,25.8z"/>
	<path class="st10" d="M24.5,39.8c-1.8,0-3.2-1.4-3.2-3.2s1.4-3.2,3.2-3.2s3.2,1.4,3.2,3.2S26.3,39.8,24.5,39.8z M24.5,34.8
		c-0.9,0-1.7,0.8-1.7,1.7s0.8,1.7,1.7,1.7c0.9,0,1.7-0.8,1.7-1.7S25.5,34.8,24.5,34.8z"/>
	<path class="st10" d="M24.5,48.8c-1.8,0-3.2-1.4-3.2-3.2s1.4-3.2,3.2-3.2s3.2,1.4,3.2,3.2S26.3,48.8,24.5,48.8z M24.5,43.9
		c-0.9,0-1.7,0.8-1.7,1.7s0.8,1.7,1.7,1.7c0.9,0,1.7-0.8,1.7-1.7S25.5,43.9,24.5,43.9z"/>
	<path class="st10" d="M24.5,57.9c-1.8,0-3.2-1.4-3.2-3.2s1.4-3.2,3.2-3.2s3.2,1.4,3.2,3.2C27.8,56.5,26.3,57.9,24.5,57.9z M24.5,53
		c-0.9,0-1.7,0.8-1.7,1.7s0.8,1.7,1.7,1.7c0.9,0,1.7-0.8,1.7-1.7S25.5,53,24.5,53z"/>
	<path class="st10" d="M39.1,30.7c-1.8,0-3.2-1.4-3.2-3.2s1.4-3.2,3.2-3.2s3.2,1.4,3.2,3.2S40.9,30.7,39.1,30.7z M39.1,25.8
		c-0.9,0-1.7,0.8-1.7,1.7c0,0.9,0.8,1.7,1.7,1.7s1.7-0.8,1.7-1.7C40.8,26.5,40.1,25.8,39.1,25.8z"/>
	<path class="st10" d="M46.8,30.7c-1.8,0-3.2-1.4-3.2-3.2s1.4-3.2,3.2-3.2s3.2,1.4,3.2,3.2S48.6,30.7,46.8,30.7z M46.8,25.8
		c-0.9,0-1.7,0.8-1.7,1.7c0,0.9,0.8,1.7,1.7,1.7s1.7-0.8,1.7-1.7C48.5,26.5,47.7,25.8,46.8,25.8z"/>
	<path class="st10" d="M39.1,39.8c-1.8,0-3.2-1.4-3.2-3.2s1.4-3.2,3.2-3.2s3.2,1.4,3.2,3.2S40.9,39.8,39.1,39.8z M39.1,34.8
		c-0.9,0-1.7,0.8-1.7,1.7s0.8,1.7,1.7,1.7s1.7-0.8,1.7-1.7S40.1,34.8,39.1,34.8z"/>
	<path class="st10" d="M46.8,39.8c-1.8,0-3.2-1.4-3.2-3.2s1.4-3.2,3.2-3.2s3.2,1.4,3.2,3.2S48.6,39.8,46.8,39.8z M46.8,34.8
		c-0.9,0-1.7,0.8-1.7,1.7s0.8,1.7,1.7,1.7s1.7-0.8,1.7-1.7S47.7,34.8,46.8,34.8z"/>
	<path class="st10" d="M39.1,48.8c-1.8,0-3.2-1.4-3.2-3.2s1.4-3.2,3.2-3.2s3.2,1.4,3.2,3.2S40.9,48.8,39.1,48.8z M39.1,43.9
		c-0.9,0-1.7,0.8-1.7,1.7s0.8,1.7,1.7,1.7s1.7-0.8,1.7-1.7S40.1,43.9,39.1,43.9z"/>
	<path class="st10" d="M46.8,48.8c-1.8,0-3.2-1.4-3.2-3.2s1.4-3.2,3.2-3.2s3.2,1.4,3.2,3.2S48.6,48.8,46.8,48.8z M46.8,43.9
		c-0.9,0-1.7,0.8-1.7,1.7s0.8,1.7,1.7,1.7s1.7-0.8,1.7-1.7S47.7,43.9,46.8,43.9z"/>
	<path class="st10" d="M39.1,57.9c-1.8,0-3.2-1.4-3.2-3.2s1.4-3.2,3.2-3.2s3.2,1.4,3.2,3.2C42.3,56.5,40.9,57.9,39.1,57.9z M39.1,53
		c-0.9,0-1.7,0.8-1.7,1.7s0.8,1.7,1.7,1.7s1.7-0.8,1.7-1.7S40.1,53,39.1,53z"/>
	<path class="st10" d="M46.8,57.9c-1.8,0-3.2-1.4-3.2-3.2s1.4-3.2,3.2-3.2s3.2,1.4,3.2,3.2C50,56.5,48.6,57.9,46.8,57.9z M46.8,53
		c-0.9,0-1.7,0.8-1.7,1.7s0.8,1.7,1.7,1.7s1.7-0.8,1.7-1.7S47.7,53,46.8,53z"/>
	<path class="st10" d="M54.7,30.7c-1.8,0-3.2-1.4-3.2-3.2s1.4-3.2,3.2-3.2s3.2,1.4,3.2,3.2S56.4,30.7,54.7,30.7z M54.7,25.8
		c-0.9,0-1.7,0.8-1.7,1.7c0,0.9,0.8,1.7,1.7,1.7s1.7-0.8,1.7-1.7C56.4,26.5,55.6,25.8,54.7,25.8z"/>
	<path class="st10" d="M54.7,39.8c-1.8,0-3.2-1.4-3.2-3.2s1.4-3.2,3.2-3.2s3.2,1.4,3.2,3.2S56.4,39.8,54.7,39.8z M54.7,34.8
		c-0.9,0-1.7,0.8-1.7,1.7s0.8,1.7,1.7,1.7s1.7-0.8,1.7-1.7S55.6,34.8,54.7,34.8z"/>
	<path class="st10" d="M9,12.6c-1.8,0-3.2-1.4-3.2-3.2S7.3,6.2,9,6.2s3.2,1.4,3.2,3.2S10.8,12.6,9,12.6z M9,7.7
		c-0.9,0-1.7,0.8-1.7,1.7s0.8,1.7,1.7,1.7c0.9,0,1.7-0.8,1.7-1.7C10.7,8.4,10,7.7,9,7.7z"/>
	<path class="st10" d="M16.7,12.6c-1.8,0-3.2-1.4-3.2-3.2s1.4-3.2,3.2-3.2s3.2,1.4,3.2,3.2S18.5,12.6,16.7,12.6z M16.7,7.7
		c-0.9,0-1.7,0.8-1.7,1.7s0.8,1.7,1.7,1.7s1.7-0.8,1.7-1.7C18.4,8.4,17.6,7.7,16.7,7.7z"/>
	<path class="st10" d="M9,21.7c-1.8,0-3.2-1.4-3.2-3.2s1.4-3.2,3.2-3.2s3.2,1.4,3.2,3.2S10.8,21.7,9,21.7z M9,16.7
		c-0.9,0-1.7,0.8-1.7,1.7s0.8,1.7,1.7,1.7c0.9,0,1.7-0.8,1.7-1.7C10.7,17.5,10,16.7,9,16.7z"/>
	<path class="st10" d="M16.7,21.7c-1.8,0-3.2-1.4-3.2-3.2s1.4-3.2,3.2-3.2s3.2,1.4,3.2,3.2S18.5,21.7,16.7,21.7z M16.7,16.7
		c-0.9,0-1.7,0.8-1.7,1.7s0.8,1.7,1.7,1.7s1.7-0.8,1.7-1.7C18.4,17.5,17.6,16.7,16.7,16.7z"/>
	<path class="st10" d="M24.5,12.6c-1.8,0-3.2-1.4-3.2-3.2s1.4-3.2,3.2-3.2s3.2,1.4,3.2,3.2S26.3,12.6,24.5,12.6z M24.5,7.7
		c-0.9,0-1.7,0.8-1.7,1.7s0.8,1.7,1.7,1.7c0.9,0,1.7-0.8,1.7-1.7C26.2,8.4,25.5,7.7,24.5,7.7z"/>
	<path class="st10" d="M24.5,21.7c-1.8,0-3.2-1.4-3.2-3.2s1.4-3.2,3.2-3.2s3.2,1.4,3.2,3.2S26.3,21.7,24.5,21.7z M24.5,16.7
		c-0.9,0-1.7,0.8-1.7,1.7s0.8,1.7,1.7,1.7c0.9,0,1.7-0.8,1.7-1.7C26.2,17.5,25.5,16.7,24.5,16.7z"/>
	<path class="st10" d="M39.1,12.6c-1.8,0-3.2-1.4-3.2-3.2s1.4-3.2,3.2-3.2s3.2,1.4,3.2,3.2S40.9,12.6,39.1,12.6z M39.1,7.7
		c-0.9,0-1.7,0.8-1.7,1.7s0.8,1.7,1.7,1.7s1.7-0.8,1.7-1.7C40.8,8.4,40.1,7.7,39.1,7.7z"/>
	<path class="st10" d="M46.8,12.6c-1.8,0-3.2-1.4-3.2-3.2s1.4-3.2,3.2-3.2S50,7.6,50,9.4S48.6,12.6,46.8,12.6z M46.8,7.7
		c-0.9,0-1.7,0.8-1.7,1.7s0.8,1.7,1.7,1.7s1.7-0.8,1.7-1.7C48.5,8.4,47.8,7.7,46.8,7.7z"/>
	<path class="st10" d="M39.1,21.7c-1.8,0-3.2-1.4-3.2-3.2s1.4-3.2,3.2-3.2s3.2,1.4,3.2,3.2S40.9,21.7,39.1,21.7z M39.1,16.7
		c-0.9,0-1.7,0.8-1.7,1.7s0.8,1.7,1.7,1.7s1.7-0.8,1.7-1.7C40.8,17.5,40.1,16.7,39.1,16.7z"/>
	<path class="st10" d="M46.8,21.7c-1.8,0-3.2-1.4-3.2-3.2s1.4-3.2,3.2-3.2s3.2,1.4,3.2,3.2S48.6,21.7,46.8,21.7z M46.8,16.7
		c-0.9,0-1.7,0.8-1.7,1.7s0.8,1.7,1.7,1.7s1.7-0.8,1.7-1.7C48.5,17.5,47.8,16.7,46.8,16.7z"/>
	<path class="st10" d="M54.7,12.6c-1.8,0-3.2-1.4-3.2-3.2s1.4-3.2,3.2-3.2s3.2,1.4,3.2,3.2S56.4,12.6,54.7,12.6z M54.7,7.7
		c-0.9,0-1.7,0.8-1.7,1.7s0.8,1.7,1.7,1.7s1.7-0.8,1.7-1.7C56.4,8.4,55.6,7.7,54.7,7.7z"/>
	<path class="st10" d="M54.7,21.7c-1.8,0-3.2-1.4-3.2-3.2s1.4-3.2,3.2-3.2s3.2,1.4,3.2,3.2S56.4,21.7,54.7,21.7z M54.7,16.7
		c-0.9,0-1.7,0.8-1.7,1.7s0.8,1.7,1.7,1.7s1.7-0.8,1.7-1.7C56.4,17.5,55.6,16.7,54.7,16.7z"/>
	<path class="st10" d="M54.7,48.8c-1.8,0-3.2-1.4-3.2-3.2s1.4-3.2,3.2-3.2s3.2,1.4,3.2,3.2S56.4,48.8,54.7,48.8z M54.7,43.9
		c-0.9,0-1.7,0.8-1.7,1.7s0.8,1.7,1.7,1.7s1.7-0.8,1.7-1.7S55.6,43.9,54.7,43.9z"/>
	<path class="st10" d="M54.7,57.9c-1.8,0-3.2-1.4-3.2-3.2s1.4-3.2,3.2-3.2s3.2,1.4,3.2,3.2C57.9,56.5,56.4,57.9,54.7,57.9z M54.7,53
		c-0.9,0-1.7,0.8-1.7,1.7s0.8,1.7,1.7,1.7s1.7-0.8,1.7-1.7S55.6,53,54.7,53z"/>
</g>
<g id="Layer_47" class="st0">
	<g class="st1">
		<path id="XMLID_202_" class="st13" d="M11.4,38.9c-2.2,1.3-3,4.1-1.7,6.3c0.6,1.1,1.6,1.8,2.8,2.2c0.4,0.1,0.8,0.2,1.2,0.2
			c0.8,0,1.6-0.2,2.3-0.6c0.1,0,0.1-0.1,0.2-0.1l11.1,6.4c0,0.1,0,0.2,0,0.3c0,2.5,2.1,4.6,4.6,4.6s4.6-2.1,4.6-4.6
			c0-0.1,0-0.2,0-0.3l11.1-6.4c0.1,0,0.2,0.1,0.2,0.1c0.7,0.4,1.5,0.6,2.3,0.6c0.4,0,0.8,0,1.2-0.2c1.2-0.3,2.2-1.1,2.8-2.2
			c1.3-2.2,0.5-5-1.7-6.3c-0.1,0-0.2-0.1-0.2-0.1V26c0.1,0,0.2-0.1,0.2-0.1c2.2-1.3,3-4.1,1.7-6.3c-0.6-1.1-1.6-1.8-2.8-2.1
			c-1.2-0.3-2.4-0.2-3.5,0.5c-0.1,0-0.2,0.1-0.2,0.1l-11.1-6.4c0-0.1,0-0.2,0-0.3c0-2.6-2.1-4.6-4.6-4.6s-4.6,2.1-4.6,4.6
			c0,0.1,0,0.2,0,0.3L16.3,18c-0.1,0-0.1-0.1-0.2-0.1c-1.1-0.6-2.3-0.8-3.5-0.5c-1.2,0.3-2.2,1.1-2.8,2.1c-1.3,2.2-0.5,5,1.7,6.3
			c0.1,0,0.2,0.1,0.2,0.1v12.9C11.6,38.9,11.5,38.9,11.4,38.9z M12.9,46.2c-0.9-0.2-1.6-0.8-2-1.5c-0.9-1.6-0.4-3.6,1.2-4.5
			c1.6-0.9,3.6-0.4,4.6,1.2c0.5,0.8,0.6,1.7,0.3,2.5s-0.8,1.6-1.6,2C14.6,46.3,13.7,46.4,12.9,46.2z M32,56.8
			c-1.8,0-3.3-1.5-3.3-3.3s1.5-3.3,3.3-3.3c1.8,0,3.3,1.5,3.3,3.3S33.8,56.8,32,56.8z M53.2,44.6c-0.5,0.8-1.2,1.3-2,1.5
			s-1.8,0.1-2.5-0.3c-0.8-0.5-1.3-1.2-1.5-2S47,42,47.4,41.3c0.6-1.1,1.7-1.7,2.9-1.7c0.6,0,1.1,0.1,1.7,0.5
			C53.5,41,54.1,43,53.2,44.6z M50.3,18.5c0.3,0,0.6,0,0.9,0.1c0.9,0.2,1.6,0.8,2,1.5c0.9,1.6,0.4,3.6-1.2,4.6
			c-1.6,0.9-3.6,0.4-4.5-1.2c-0.5-0.8-0.6-1.7-0.3-2.5s0.8-1.6,1.5-2C49.1,18.7,49.7,18.5,50.3,18.5z M32,8c1.8,0,3.3,1.5,3.3,3.3
			s-1.5,3.3-3.3,3.3s-3.3-1.5-3.3-3.3S30.2,8,32,8z M10.8,20.2c0.4-0.8,1.2-1.3,2-1.5c0.3-0.1,0.6-0.1,0.9-0.1
			c0.6,0,1.1,0.1,1.7,0.5c0.8,0.5,1.3,1.2,1.6,2s0.1,1.8-0.3,2.5c-0.9,1.6-3,2.1-4.6,1.2C10.5,23.8,9.9,21.8,10.8,20.2z M12.9,26.4
			c0.3,0,0.5,0.1,0.8,0.1c1.6,0,3.1-0.8,4-2.3c0.6-1.1,0.8-2.3,0.5-3.5c-0.2-0.7-0.5-1.2-0.9-1.8l10.4-6c0.6,1.8,2.3,3,4.3,3
			s3.7-1.3,4.3-3l10.4,6c-0.4,0.5-0.7,1.1-0.9,1.8c-0.3,1.2-0.2,2.4,0.5,3.5c0.8,1.5,2.4,2.3,4,2.3c0.3,0,0.5,0,0.8-0.1v12
			c-1.8-0.3-3.8,0.5-4.8,2.2c-0.6,1.1-0.8,2.3-0.5,3.5c0.2,0.7,0.5,1.2,0.9,1.8l-10.4,6c-0.7-1.8-2.3-3-4.3-3s-3.7,1.3-4.3,3
			l-10.4-6c0.4-0.5,0.7-1.1,0.9-1.8c0.3-1.2,0.2-2.4-0.5-3.5c-1-1.7-2.9-2.6-4.8-2.2C12.9,38.4,12.9,26.4,12.9,26.4z"/>
		<path id="XMLID_198_" class="st13" d="M28.4,47.2h7.1c2.6,0,4.8-2.1,4.8-4.8V22.2c0-2.6-2.1-4.8-4.8-4.8h-7.1
			c-2.6,0-4.8,2.1-4.8,4.8v20.3C23.7,45.1,25.8,47.2,28.4,47.2z M28.4,18.7h7.1c1.9,0,3.5,1.6,3.5,3.5v16.1H25V22.2
			C25,20.3,26.5,18.7,28.4,18.7z M25,39.6H39v2.9c0,1.9-1.6,3.5-3.5,3.5h-7.1c-1.9,0-3.5-1.6-3.5-3.5L25,39.6L25,39.6z"/>
		<path id="XMLID_195_" class="st13" d="M32,45.1c1.3,0,2.4-1.1,2.4-2.4s-1.1-2.4-2.4-2.4s-2.4,1.1-2.4,2.4S30.7,45.1,32,45.1z
			 M32,41.7c0.6,0,1.1,0.5,1.1,1.1s-0.5,1.1-1.1,1.1s-1.1-0.5-1.1-1.1S31.4,41.7,32,41.7z"/>
		<path id="XMLID_194_" class="st13" d="M30.2,21.9h3.4c0.4,0,0.6-0.3,0.6-0.6c0-0.4-0.3-0.6-0.6-0.6h-3.4c-0.4,0-0.6,0.3-0.6,0.6
			S29.9,21.9,30.2,21.9z"/>
	</g>
</g>
</svg>
