<?xml version="1.0" encoding="utf-8"?>
<!-- Generator: Adobe Illustrator 27.0.0, SVG Export Plug-In . SVG Version: 6.00 Build 0)  -->
<svg version="1.1" id="Layer_1" xmlns="http://www.w3.org/2000/svg" xmlns:xlink="http://www.w3.org/1999/xlink" x="0px" y="0px"
	 viewBox="0 0 96 96" style="enable-background:new 0 0 96 96;" xml:space="preserve">
<style type="text/css">
	.st0{display:none;}
	.st1{display:inline;}
	.st2{fill:#010101;}
	.st3{display:inline;fill:#010101;}
	.st4{fill:#231F20;}
	.st5{fill:none;stroke:#231F20;stroke-width:2.5;stroke-miterlimit:10;}
	.st6{fill:none;stroke:#231F20;stroke-width:2.5;stroke-linecap:round;stroke-miterlimit:10;}
	.st7{display:inline;fill:#0D0D0D;}
	.st8{fill:#0D0D0D;}
	.st9{fill:#010101;stroke:#010101;stroke-width:0.75;stroke-miterlimit:10;}
	.st10{fill:#010101;stroke:#010101;stroke-width:0.5;stroke-miterlimit:10;}
	.st11{display:inline;fill:none;stroke:#010101;stroke-width:2.5;stroke-miterlimit:10;}
	.st12{fill:none;stroke:#010101;stroke-width:2.5;stroke-miterlimit:10;}
	.st13{fill:none;stroke:#010101;stroke-width:2.5;stroke-linecap:round;stroke-miterlimit:10;}
	.st14{display:inline;fill:none;stroke:#010101;stroke-width:2.5;stroke-linecap:round;}
	.st15{fill:#22282A;stroke:#22282A;stroke-width:2;stroke-miterlimit:10;}
</style>
<g id="pARKING" class="st0">
	<g class="st1">
		<path class="st2" d="M48,5.4C24.5,5.4,5.4,24.5,5.4,48S24.5,90.6,48,90.6S90.6,71.5,90.6,48S71.5,5.4,48,5.4z M48,88.1
			c-22.1,0-40.1-18-40.1-40.1S25.9,7.9,48,7.9s40.1,18,40.1,40.1S70.1,88.1,48,88.1z"/>
		<path class="st2" d="M51.8,25.8H33.9L34,71h2.5l-0.1-18.7h15.3C59,52.3,65,46.4,65,39C65,31.7,59.1,25.8,51.8,25.8z M51.8,49.8
			H36.5l-0.1-21.5h15.3c5.9,0,10.8,4.8,10.8,10.8C62.5,44.9,57.7,49.8,51.8,49.8z"/>
	</g>
</g>
<g id="locate_us" class="st0">
	<g class="st1">
		<path class="st2" d="M48.2,38.7c2.9,0,5.3-1,7.1-3c2-1.8,3-4.2,3-7.1c0-2.5-1-4.9-2.9-7c-1.8-2-4.2-3-7.1-3c-2.9,0-5.3,1-7.1,3
			c-2,1.8-3,4.2-3,7.1s1,5.3,3,7.1C43,37.7,45.4,38.7,48.2,38.7z M42.9,23.4L42.9,23.4c1.4-1.6,3.2-2.3,5.4-2.3s3.9,0.7,5.3,2.2
			c1.5,1.6,2.3,3.5,2.3,5.4c0,2.2-0.7,3.9-2.2,5.3c0,0-0.1,0-0.1,0.1c-1.4,1.5-3.1,2.2-5.3,2.2s-3.9-0.7-5.3-2.2L42.9,34
			c-1.5-1.4-2.2-3.1-2.2-5.3C40.7,26.5,41.4,24.7,42.9,23.4z"/>
		<path class="st2" d="M86.5,89.8L76.1,55.4c-0.1-0.4-0.4-0.7-0.9-0.8l-6.8-2c-0.7-0.2-1.4,0.2-1.6,0.9c-0.2,0.7,0.2,1.4,0.9,1.5
			l6.2,1.8l9.4,31.1l-16.1-7.2c-0.3-0.2-0.7-0.2-1,0L48,89l-18.1-8.3c-0.3-0.2-0.7-0.2-1,0l-16.1,7.2l9.5-31.1l6.2-1.8
			c0.7-0.2,1.1-0.9,0.9-1.5c-0.2-0.7-0.9-1-1.6-0.9l-6.9,2c-0.4,0.1-0.7,0.4-0.8,0.8L9.6,89.8c-0.1,0.5,0,1,0.4,1.3s0.9,0.4,1.3,0.2
			l18.1-8.1l18.1,8.3c0.2,0.1,0.3,0.1,0.5,0.1s0.4,0,0.5-0.1l18.3-8.3l18.1,8.1c0.4,0.2,1,0.1,1.3-0.2
			C86.5,90.8,86.6,90.3,86.5,89.8z"/>
		<path class="st2" d="M47.4,70c0.2,0.3,0.6,0.5,1,0.5l0,0c0.4,0,0.8-0.2,1-0.6l18.2-26.8c0.5-0.5,0.9-1.1,1.3-1.8
			c2.4-3.6,3.6-7.9,3.6-12.5c0-6.7-2.4-12.5-7.1-17.4c-4.7-4.7-10.4-7-17-7C41.6,4.4,36,6.7,31,11.5c-4.7,4.9-7,10.7-7,17.3
			c0,5.4,1.6,10.2,4.6,14.3L47.4,70z M32.8,13.3C37.2,9,42.3,7,48.4,7c5.9,0,11.1,2.1,15.3,6.3c4.2,4.4,6.3,9.6,6.3,15.6
			c0,4.2-1.1,8-3.2,11.2l-0.1,0.1c-0.3,0.6-0.5,0.9-0.9,1.3c-0.1,0.1-0.1,0.1-0.2,0.2L48.4,67.1L30.7,41.6c-2.8-3.7-4.1-8-4.1-12.8
			C26.5,22.8,28.6,17.6,32.8,13.3z"/>
	</g>
</g>
<g id="contact_us" class="st0">
	<path class="st3" d="M85.5,12.8c-3-3.6-6.8-8-11.7-8c-2.1,0-4.2,0.8-6.2,2.5l-6.1,6.4c-2.1,2.2-4.2,4.4-6.3,6.6
		c-0.2,0.2-0.3,0.3-0.4,0.5c-3.4,5.9,2.3,11,6.2,14.5c0.9,0.8,1.6,1.5,2.1,2c0,0.2-0.1,0.8-0.5,1.8c-3.7,8.7-20.3,23.9-25,24
		c-0.9-0.8-1.8-1.7-2.7-2.8c-1-1.1-2.2-2.4-3.6-3.6c-2-1.7-4.2-2.6-6.4-2.6c-6,0-11,6-15.4,11.2c-1,1.3-2.2,2.6-3.2,3.7
		c-0.9,0.9-2.2,3-1.3,6.4c1.7,6.1,10,13.4,14.3,14.7c2.3,0.7,4.7,1,7.3,1c12.1,0,27.3-7.6,40.6-20.2c13.4-12.8,22.3-28.2,23.7-41.2
		C91.9,21,91,19.3,85.5,12.8z M88.4,29.4c-1.3,12.5-9.9,27.4-22.9,39.7C52.6,81.3,38.1,88.6,26.6,88.6c-2.3,0-4.5-0.3-6.6-0.9
		c-3.7-1.1-11.2-7.8-12.6-12.9c-0.5-1.7-0.2-3,0.7-4c1.1-1.2,2.2-2.5,3.3-3.8c4.1-4.8,8.7-10.3,13.5-10.3c1.7,0,3.3,0.7,4.8,2
		c1.3,1.1,2.4,2.3,3.4,3.4s2,2.1,3,3c0.4,0.4,0.9,0.5,1.5,0.5c6.3,0,23.7-17.2,27.3-25.5c0.9-2.1,0.9-3.6,0.1-4.4
		c-0.6-0.6-1.4-1.3-2.4-2.3c-4.3-3.9-7.8-7.5-5.6-11.3c2.1-2.2,4.2-4.4,6.3-6.6l5.9-6.2c1.5-1.2,3.1-1.9,4.6-1.9
		c3.8,0,7.1,3.9,9.8,7.1C88.8,20.5,89.3,21.4,88.4,29.4z"/>
</g>
<g id="Layer_4" class="st0">
	<g class="st1">
		<path class="st4" d="M71.4,76.3c2.8-0.9,5.3-2.5,7.3-4.8c3.4-3.8,5.1-8.9,4.6-14l-3.8-39.4c-0.9-9.1-8.2-16-17-16H33.4
			c-8.8,0-16.1,6.9-16.9,16l-3.8,39.4c-0.5,5.1,1.2,10.2,4.6,14c2.1,2.3,4.6,3.9,7.3,4.8L10,91.4l2.2,2.1l8.1-8.4h55.4l8.1,8.4
			l2.2-2.1L71.4,76.3z M19.5,69.5c-2.8-3.1-4.2-7.4-3.8-11.7l3.8-39.4c0.7-7.6,6.7-13.3,14-13.3h29.1c7.2,0,13.2,5.7,14,13.3
			l3.8,39.4c0.4,4.3-1,8.6-3.8,11.7c-2.7,2.9-6.3,4.6-10.2,4.6H29.7C25.8,74,22.2,72.4,19.5,69.5z M23.2,82l4.9-5.1
			c0.5,0.1,1,0.1,1.6,0.1h36.7c0.5,0,1.1,0,1.6-0.1l4.9,5.1H23.2z"/>
		<path class="st4" d="M36.9,16.2h22.2c1.4,0,2.5-1.1,2.5-2.5v-2.4c0-1.4-1.1-2.5-2.5-2.5H36.9c-1.4,0-2.5,1.1-2.5,2.5v2.4
			C34.4,15.1,35.5,16.2,36.9,16.2z M37.4,11.8h21.2v1.4H37.4V11.8z"/>
		<path class="st4" d="M29.6,51.7h36.8c2,0,3.9-0.8,5.2-2.3c1.3-1.4,2-3.4,1.9-5.3l-1.4-18c-0.3-3.7-3.4-6.5-7-6.5H31
			c-3.7,0-6.8,2.9-7.1,6.5l-1.4,18c-0.2,2,0.5,3.9,1.9,5.3C25.7,50.9,27.6,51.7,29.6,51.7z M26.9,26.4c0.2-2.1,1.9-3.8,4.1-3.8h34.1
			c2.1,0,3.9,1.7,4.1,3.8l1.4,18c0.1,1.1-0.3,2.2-1.1,3.1c-0.8,0.8-1.8,1.3-3,1.3H29.7c-1.2,0-2.2-0.5-3-1.3s-1.2-1.9-1.1-3.1
			L26.9,26.4z"/>
		<path class="st4" d="M36.1,61.4c0-3.7-3-6.8-6.8-6.8c-3.7,0-6.8,3-6.8,6.8c0,3.7,3,6.8,6.8,6.8C33,68.1,36.1,65.1,36.1,61.4z
			 M29.3,65.1c-2.1,0-3.8-1.7-3.8-3.8c0-2.1,1.7-3.8,3.8-3.8s3.8,1.7,3.8,3.8C33.1,63.5,31.4,65.1,29.3,65.1z"/>
		<path class="st4" d="M66.7,54.6c-3.7,0-6.8,3-6.8,6.8c0,3.7,3,6.8,6.8,6.8c3.7,0,6.8-3,6.8-6.8S70.4,54.6,66.7,54.6z M66.7,65.1
			c-2.1,0-3.8-1.7-3.8-3.8c0-2.1,1.7-3.8,3.8-3.8s3.8,1.7,3.8,3.8C70.5,63.5,68.8,65.1,66.7,65.1z"/>
	</g>
</g>
<g id="Layer_5" class="st0">
	<g class="st1">
		<path class="st4" d="M82.3,92.6l2.2-2.1L70.7,76.3C76,75.2,80,70.4,80,64.8v-45C80,13.3,74.7,8,68.2,8H54.4
			c-0.7-2.9-3.4-5.1-6.5-5.1S42.1,5.1,41.4,8H27.6c-6.5,0-11.8,5.3-11.8,11.8v45c0,5.7,4,10.4,9.4,11.5L11.4,90.5l2.2,2.1l7.8-8.1
			h53L82.3,92.6z M48,6c2.1,0,3.7,1.7,3.7,3.7S50,13.4,48,13.4s-3.7-1.7-3.7-3.7C44.3,7.6,45.9,6,48,6z M18.9,64.8v-45
			c0-4.8,3.9-8.8,8.8-8.8h13.7c0.6,3,3.3,5.4,6.6,5.4c3.2,0,5.9-2.3,6.6-5.4h13.7c4.8,0,8.8,3.9,8.8,8.8v45c0,4.8-3.9,8.8-8.8,8.8
			H27.7C22.9,73.5,18.9,69.6,18.9,64.8z M24.4,81.5l4.8-5h37.6l4.8,5H24.4z"/>
		<path class="st4" d="M36.6,61.8c0-3.6-2.9-6.5-6.6-6.5s-6.5,2.9-6.5,6.5s2.9,6.5,6.5,6.5S36.6,65.4,36.6,61.8z M26.5,61.8
			c0-2,1.6-3.5,3.6-3.5s3.6,1.6,3.6,3.5s-1.6,3.5-3.6,3.5C28.1,65.4,26.5,63.8,26.5,61.8z"/>
		<path class="st4" d="M65.9,55.3c-3.6,0-6.6,2.9-6.6,6.5s2.9,6.5,6.6,6.5s6.6-2.9,6.6-6.5S69.6,55.3,65.9,55.3z M65.9,65.4
			c-2,0-3.6-1.6-3.6-3.5s1.6-3.5,3.6-3.5s3.6,1.6,3.6,3.5S67.9,65.4,65.9,65.4z"/>
		<path class="st4" d="M70.2,50.5c2,0,3.7-1.7,3.7-3.7V23.5c0-2-1.7-3.7-3.7-3.7H25.7c-2,0-3.7,1.6-3.7,3.7v23.3
			c0,2,1.6,3.7,3.7,3.7H70.2L70.2,50.5z M70.9,23.5v23.3c0,0.4-0.3,0.7-0.7,0.7H49.5V22.8h20.7C70.6,22.8,70.9,23.1,70.9,23.5z
			 M25.1,46.8V23.5c0-0.4,0.3-0.7,0.7-0.7h20.7v24.7H25.8C25.4,47.5,25.1,47.2,25.1,46.8z"/>
	</g>
</g>
<g id="Layer_6" class="st0">
	<g class="st1">
		<path class="st5" d="M48.1,66.9H82c1.8,0,3.3-1.5,3.3-3.3c0-4.6-0.1-10.9-0.9-18.2c-0.9-7.4-7.5-17.6-11.6-23.3
			c-1.9-2.6-4.9-4.1-8.1-4.1H48.1H31.5c-3.2,0-6.2,1.5-8.1,4.1C19.3,27.8,12.7,38,11.8,45.4c-0.9,7.4-0.9,13.7-0.9,18.2
			c0,1.8,1.5,3.3,3.3,3.3H48.1z"/>
		<path class="st5" d="M15,36c0,0,15.1,4.6,33,4.6S81.3,36,81.3,36"/>
		<g>
			<path class="st5" d="M16,52.3v4.4c0,1.2,1,2.2,2.2,2.2h11.4c1.2,0,2.2-1,2.2-2.2v-1.3c0-1.6-1.1-3-2.7-3.3l-10.5-2
				C17.3,49.8,16,50.8,16,52.3z"/>
			<path class="st5" d="M80,52.3v4.4c0,1.2-1,2.2-2.2,2.2H66.4c-1.2,0-2.2-1-2.2-2.2v-1.3c0-1.6,1.1-3,2.7-3.3l10.5-2
				C78.7,49.8,80,50.8,80,52.3z"/>
		</g>
		<line class="st6" x1="38.9" y1="58.3" x2="57.3" y2="58.3"/>
		<line class="st6" x1="41.4" y1="53.7" x2="54.9" y2="53.7"/>
		<path class="st5" d="M10.9,60.2v15.6c0,1.2,1,2.2,2.2,2.2h5.6c1.2,0,2.2-1,2.2-2.2v-8.9"/>
		<path class="st5" d="M85.3,60.2v15.6c0,1.2-1,2.2-2.2,2.2h-5.6c-1.2,0-2.2-1-2.2-2.2v-8.9"/>
		<g>
			<path class="st5" d="M16.7,32.2h-3.3c-0.7,0-1.3-0.4-1.6-0.9l-0.6-1.1c-0.3-0.6-0.9-0.9-1.6-0.9H4.7c-1,0-1.8,0.8-1.8,1.8
				l-0.6,3.5C2.3,37,3.7,37,4.7,37h9.2"/>
			<path class="st5" d="M79.3,32.2h3.3c0.7,0,1.3-0.4,1.6-0.9l0.6-1.1c0.3-0.6,0.9-0.9,1.6-0.9h4.9c1,0,1.8,0.8,1.8,1.8l0.6,3.5
				c0,2.4-1.4,2.4-2.4,2.4h-9.2"/>
		</g>
	</g>
</g>
<g id="Layer_7" class="st0">
	<path class="st7" d="M95.1,14.3c-0.1-0.6-0.6-1.2-1.2-1.4c-15-5.8-27.5,6.8-27.9,7.3L49.3,35.9H27c-1.9,0-3.8,0.5-5.4,1.6l-4.6,3
		c-0.7,0.4-1,1.2-0.9,2s0.6,1.4,1.4,1.7l16.9,5.9l-11.7,11c-1.3,1.2-3.1,1.9-4.9,1.7L7.7,61.9c-1.8-0.2-3.6,0.5-4.9,1.8L1.6,65
		c-0.5,0.5-0.7,1.2-0.7,1.9c0,0.7,0.4,1.3,0.9,1.7l15.9,9.6c4.7,3.4,11.3,3,15.4-1.1l15.8-15.6L53,82.7c0.1,0.9,0.8,1.7,1.7,1.9
		c0.2,0.1,0.5,0.1,0.7,0.1c0.7,0,1.3-0.3,1.8-0.8l3.1-3.5c1.3-1.5,2.1-3.4,2.1-5.4l2-28.9l30.4-30C95.1,15.6,95.3,15,95.1,14.3z
		 M19.2,42l3.8-2.5c1.2-0.8,2.6-1.2,4-1.2h19.7l-10.2,9.6L19.2,42z M61.8,45l-2.1,29.9c0,1.4-0.5,2.7-1.4,3.8l-3,3.4l-5-25.6
		L31.2,75.4c-3.3,3.2-8.5,3.6-12.2,0.8L3.3,66.7l1.1-1.2c0.8-0.8,1.8-1.2,2.9-1.1l10.1,0.9c2.5,0.2,5-0.7,6.9-2.4L67.7,22
		c0.1-0.1,11.4-11.5,24.5-7L61.8,45z"/>
</g>
<g id="Layer_8" class="st0">
	<g class="st1">
		<path class="st8" d="M86.1,40.4l-1.7,2.5c3.2,2.2,7,5.9,7,10.6c0,9.4-15.5,17.8-36,19.4l0.2,3c22.5-1.8,38.8-11.2,38.8-22.4
			C94.4,48.7,91.5,44.2,86.1,40.4z"/>
		<path class="st8" d="M42.7,73C21.5,71.8,4.5,63.3,4.5,53.5c0-4.7,3.8-8.4,7-10.6l-1.7-2.5c-5.4,3.8-8.3,8.3-8.3,13.1
			c0,11.9,17.7,21.3,41.2,22.5v5.7l8.7-7.3l-8.7-7.3V73L42.7,73z"/>
		<path class="st8" d="M23.3,51.3c1.3,0.6,2.8,1,4.4,1c2.5,0,4.5-0.7,6-2.1s2.3-3.3,2.3-5.6c0-1.6-0.4-3-1.3-4.1
			c-0.7-0.9-1.7-1.7-2.9-2.1c1-0.5,1.9-1.2,2.5-2.1c0.8-1.1,1.3-2.3,1.3-3.7c0-2.3-0.7-4.2-2.1-5.5c-1.4-1.3-3.4-2-5.8-2
			c-1.5,0-2.9,0.3-4.1,0.9c-1.3,0.6-2.2,1.5-2.9,2.7s-1.1,2.5-1.1,3.9V33h2.9v-0.4c0-1.5,0.5-2.7,1.5-3.6s2.3-1.4,3.8-1.4
			c1.6,0,2.9,0.4,3.8,1.3c0.9,0.9,1.3,2.1,1.3,3.6c0,0.9-0.2,1.7-0.7,2.4c-0.4,0.7-1.1,1.2-1.9,1.6c-0.9,0.4-1.9,0.6-3,0.6h-2.6v2.6
			h2.5c2.1,0,3.6,0.4,4.7,1.3c1,0.8,1.5,2,1.5,3.7s-0.5,3-1.4,3.8c-1,0.9-2.3,1.3-4,1.3s-3.1-0.5-4.2-1.4c-1.1-1-1.6-2.2-1.6-3.7
			v-0.4h-2.9v0.4c0,1.5,0.4,2.9,1.1,4.1C20.9,49.8,21.9,50.7,23.3,51.3z"/>
		<path class="st8" d="M56.5,43.1c0-2.6-0.7-4.8-2.1-6.4c-1.4-1.6-3.3-2.5-5.7-2.5c-1.4,0-2.7,0.3-3.9,0.8c-0.8,0.4-1.5,0.9-2.1,1.5
			c0.3-2.6,1.3-4.6,2.7-6.2c1.7-1.7,4.1-2.6,7-2.6H53v-2.6h-0.9c-4,0.1-7.1,1.4-9.2,4c-2.1,2.6-3.2,6.3-3.2,11v2.1
			c0,2.9,0.8,5.3,2.4,7.2c1.6,1.9,3.7,2.8,6.3,2.8c1.6,0,3-0.4,4.2-1.2c1.2-0.8,2.2-1.9,2.8-3.3C56.1,46.4,56.5,44.8,56.5,43.1z
			 M53.6,43.2c0,1.9-0.5,3.5-1.4,4.7c-1,1.2-2.2,1.8-3.7,1.8c-1.7,0-3.1-0.7-4.2-2c-1.1-1.3-1.7-3.1-1.7-5.3v-1.8
			c0.4-1.1,1.1-2,2.2-2.8c1.1-0.8,2.3-1.1,3.6-1.1c1.6,0,2.9,0.6,3.8,1.7C53.1,39.7,53.6,41.3,53.6,43.2z"/>
		<path class="st8" d="M68,52.3c2.7,0,4.8-1,6.2-3c1.4-1.9,2.1-4.8,2.1-8.5V36c-0.1-3.6-0.8-6.3-2.2-8.2c-1.4-1.9-3.5-2.9-6.2-2.9
			s-4.8,1-6.2,3c-1.4,1.9-2.1,4.8-2.1,8.5V41c0,3.6,0.8,6.4,2.2,8.3C63.3,51.3,65.3,52.3,68,52.3z M62.5,41v-5
			c0-2.8,0.5-4.9,1.4-6.3s2.2-2,4-2s3.2,0.7,4.1,2.1c0.9,1.5,1.4,3.6,1.4,6.5v5c0,2.9-0.5,5.1-1.4,6.5s-2.2,2.1-4,2.1
			s-3.1-0.7-4-2.2C63,46.1,62.5,43.9,62.5,41z"/>
		<path class="st8" d="M84.9,34.5c1.3,0,2.4-0.5,3.3-1.4s1.4-2,1.4-3.4c0-1.3-0.5-2.4-1.4-3.4c-0.9-0.9-2-1.4-3.3-1.4
			s-2.4,0.5-3.3,1.4c-0.9,0.9-1.4,2.1-1.4,3.4s0.5,2.4,1.4,3.4C82.5,34.1,83.6,34.5,84.9,34.5z M82.5,29.8c0-0.7,0.2-1.3,0.7-1.8
			s1-0.7,1.7-0.7s1.2,0.2,1.7,0.7c0.4,0.5,0.7,1,0.7,1.8c0,0.7-0.2,1.3-0.7,1.7c-0.4,0.5-1,0.7-1.7,0.7s-1.2-0.2-1.7-0.7
			C82.8,31.1,82.5,30.5,82.5,29.8z"/>
	</g>
</g>
<g id="Layer_9" class="st0">
	<g class="st1">
		<path class="st8" d="M45.5,30.2c7.6,0,13.9-6.2,13.9-13.9c0-7.6-6.2-13.9-13.9-13.9S31.6,8.6,31.6,16.3
			C31.7,24,37.9,30.2,45.5,30.2z M45.5,5c6.3,0,11.4,5.1,11.4,11.4s-5.1,11.4-11.4,11.4s-11.4-5.1-11.4-11.4
			C34.2,10.1,39.3,5,45.5,5z"/>
		<path class="st8" d="M30.9,66.4h0.3c0.9,0,1.6,0.7,1.6,1.6v9.5c0,2.6,2.2,4.8,4.8,4.8h15.8c2.6,0,4.8-2.1,4.8-4.8V68
			c0-0.9,0.7-1.6,1.6-1.6h0.4c1.7,0,3.1-1.4,3.1-3.1V39.2c0-3.5-2.8-6.3-6.3-6.3H34.2c-3.5,0-6.3,2.8-6.3,6.3v24.1
			C27.8,65,29.2,66.4,30.9,66.4z M30.3,39.2c0-2.1,1.7-3.8,3.8-3.8h22.8c2.1,0,3.8,1.7,3.8,3.8v24.1c0,0.3-0.3,0.6-0.6,0.6h-0.4
			c-2.3,0-4.1,1.8-4.1,4.1v9.5c0,1.3-1,2.3-2.3,2.3H37.5c-1.3,0-2.3-1-2.3-2.3V68c0-2.3-1.8-4.1-4.1-4.1h-0.4
			c-0.3,0-0.6-0.3-0.6-0.6L30.3,39.2L30.3,39.2z"/>
		<path class="st8" d="M80.1,67.4L69,62.3l-1.2,12.2l5.4-3.1c0.5,1.2,0.7,2.3,0.7,3.6c0,8.9-12.7,16.1-28.3,16.1S17.3,83.9,17.3,75
			c0-3.1,1.6-6.1,4.6-8.7l-1.6-1.9c-3.6,3.1-5.5,6.8-5.5,10.6c0,10.2,13.8,18.6,30.8,18.6S76.4,85.3,76.4,75c0-1.6-0.4-3.3-1.1-4.8
			L80.1,67.4z"/>
	</g>
</g>
<g id="Layer_10" class="st0">
	<g class="st1">
		<path class="st2" d="M60.4,50.6L42.3,63.9l-6.8-7.6c-0.5-0.6-1.5-0.7-2.1-0.1c-0.6,0.5-0.7,1.5-0.1,2.1l7.7,8.6
			c0.3,0.3,0.7,0.5,1.1,0.5c0.3,0,0.6-0.1,0.9-0.3L62.2,53c0.7-0.5,0.8-1.4,0.3-2.1C62.1,50.3,61.1,50.1,60.4,50.6z"/>
		<path class="st2" d="M90,32.8c0-0.2-0.1-0.5-0.2-0.7V18.5v-0.1c-0.2-3.1-2.2-4.9-5.3-4.9H67v-6C67,6.7,66.3,6,65.5,6
			S64,6.7,64,7.5v6.2H31.7V7.5C31.7,6.7,31,6,30.2,6s-1.5,0.7-1.5,1.5v6.2H11.2c-3.3,0-5.2,1.8-5.2,5v65.8c0,3.4,1.8,5.3,5.2,5.3
			h73.3c3.4,0,5.3-1.9,5.3-5.3V33.4C89.9,33.3,90,33.1,90,32.8z M11.2,16.8h17.5V23c0,0.8,0.7,1.5,1.5,1.5s1.5-0.7,1.5-1.5v-6.2H64
			v6c0,0.8,0.7,1.5,1.5,1.5s1.5-0.7,1.5-1.5v-6.2h17.5c1.5,0,2.2,0.6,2.3,2.1v12.7H9V18.8C9,17.5,9.4,16.8,11.2,16.8z M84.5,86.9
			H11.2c-1.5,0-2.2-0.4-2.2-2.3V34.3h77.8v50.3C86.8,86.3,86.2,86.9,84.5,86.9z"/>
	</g>
</g>
<g id="Layer_11" class="st0">
	<path class="st7" d="M89.2,87.1L67,64.9c5.7-6.2,9.2-14.5,9.2-23.6c0-19.3-15.7-35-35-35s-35,15.7-35,35s15.7,35,35,35
		c9.1,0,17.4-3.5,23.7-9.2l22.2,22.2c0.3,0.3,0.7,0.4,1.1,0.4s0.8-0.1,1.1-0.4C89.8,88.7,89.8,87.7,89.2,87.1z M9.3,41.3
		c0-17.6,14.4-32,32-32s32,14.4,32,32s-14.4,32-32,32S9.3,59,9.3,41.3z"/>
</g>
<g id="Layer_12" class="st0">
	<g class="st1">
		<path class="st8" d="M91.4,36.3l-7.9-7.9c-0.6-0.6-1.5-0.6-2.1,0c-3.8,3.8-10,3.8-13.8,0s-3.8-10,0-13.8c0.6-0.6,0.6-1.5,0-2.1
			l-8-7.9C59,4,58,4,57.5,4.6L41.6,20.5l0,0l0,0L4.5,57.6c-0.6,0.6-0.6,1.5,0,2.1l7.9,8c0.6,0.6,1.5,0.6,2.1,0
			c3.8-3.7,9.9-3.6,13.7,0.1c3.7,3.7,3.8,9.9,0.1,13.7c-0.6,0.6-0.6,1.5,0,2.1l8,8c0.3,0.3,0.7,0.4,1.1,0.4c0.4,0,0.8-0.2,1.1-0.4
			l53-53C92,37.9,92,36.9,91.4,36.3z M74.5,51.2l-0.9-0.9c-0.6-0.6-1.5-0.6-2.1,0s-0.6,1.5,0,2.1l0.9,0.9l-35,35l-5.9-5.9
			c3.8-5,3.4-12.2-1.1-16.8c-4.5-4.5-11.8-4.9-16.8-1.1l-5.9-5.9l35-35l0.7,0.7c0.3,0.3,0.7,0.4,1.1,0.4s0.8-0.1,1.1-0.4
			c0.6-0.6,0.6-1.5,0-2.1l-0.7-0.7L58.7,7.7l5.9,5.9c-3.9,5-3.6,12.3,1,16.9s11.9,4.9,16.9,1l5.9,5.9L74.5,51.2z"/>
		<path class="st8" d="M48.6,25.3c-0.6-0.6-1.5-0.6-2.1,0s-0.6,1.5,0,2.1l3.1,3.1c0.3,0.3,0.7,0.4,1.1,0.4c0.4,0,0.8-0.2,1.1-0.4
			c0.6-0.6,0.6-1.5,0-2.1L48.6,25.3z"/>
		<path class="st8" d="M54.9,31.6c-0.6-0.6-1.5-0.6-2.1,0s-0.6,1.5,0,2.1l3.1,3.1c0.3,0.3,0.7,0.4,1.1,0.4c0.4,0,0.8-0.2,1.1-0.4
			c0.6-0.6,0.6-1.5,0-2.1L54.9,31.6z"/>
		<path class="st8" d="M61.1,37.8c-0.6-0.6-1.5-0.6-2.1,0s-0.6,1.5,0,2.1l3.1,3.1c0.3,0.3,0.7,0.4,1.1,0.4c0.4,0,0.8-0.2,1.1-0.4
			c0.6-0.6,0.6-1.5,0-2.1L61.1,37.8z"/>
		<path class="st8" d="M67.4,44.1c-0.6-0.6-1.5-0.6-2.1,0s-0.6,1.5,0,2.1l3.1,3.1c0.3,0.3,0.7,0.4,1.1,0.4s0.8-0.1,1.1-0.4
			c0.6-0.6,0.6-1.5,0-2.1L67.4,44.1z"/>
	</g>
</g>
<g id="Layer_13" class="st0">
	<g class="st1">
		<path class="st2" d="M83.2,62.8V33.3c0-1.7-1.4-3-3-3H15.3c-1.7,0-3,1.3-3,3v29.5c0,1.7,1.3,3,3,3h16.9h48.1
			C81.8,65.8,83.2,64.5,83.2,62.8z M32.1,63.3H15.2c-0.3,0-0.5-0.2-0.5-0.5V33.3c0-0.3,0.2-0.5,0.5-0.5h64.9c0.3,0,0.5,0.2,0.5,0.5
			v29.5c0,0.3-0.2,0.5-0.5,0.5H32.1z"/>
		<path class="st2" d="M40.5,85.2v1.3h14.4v-1.3c0-0.1,0-0.2,0-0.2c0-0.1,0-0.1,0-0.2v-5c0-1.5-0.6-3-1.6-4
			c-0.9-0.9-2.1-1.4-3.3-1.4h-4.4h-0.1c-2.8,0.2-5,2.6-4.9,5.4v5.1V85C40.5,85,40.5,85.1,40.5,85.2z M45.6,76.8H50
			c0.6,0,1.2,0.3,1.6,0.7c0.6,0.6,0.9,1.4,0.9,2.3v4.3h-9.4v-4.3C43,78.2,44.1,76.9,45.6,76.8z"/>
		<path class="st2" d="M56.9,89.4H38.8c-0.8,0-1.4,0.6-1.4,1.4s0.6,1.4,1.4,1.4h18.1c0.8,0,1.4-0.6,1.4-1.4S57.7,89.4,56.9,89.4z"/>
		<path class="st2" d="M84.1,74.3c-0.1-0.1-0.1-0.1-0.2-0.2c0-0.1-0.1-0.1-0.1-0.2l-3.6-3.6c-1-1.1-2.5-1.7-4.1-1.7
			c-1.3,0.1-2.5,0.6-3.3,1.4l-3.2,3.1h-0.1c-1.9,2.1-1.7,5.4,0.3,7.3l3.6,3.6c0.2,0.1,0.3,0.3,0.5,0.4l0.9,0.6L85,75L84.1,74.3z
			 M74.7,81.8l-3.1-3.1c-1.1-1-1.2-2.7-0.2-3.8l3.1-3.1c0.4-0.4,1-0.6,1.6-0.6c0.8,0,1.6,0.4,2.2,0.9l3.1,3.1L74.7,81.8z"/>
		<path class="st2" d="M89.6,75.9L89.6,75.9c-0.4,0-0.7,0.1-1,0.4L75.8,89.1c-0.3,0.3-0.4,0.6-0.4,1s0.2,0.7,0.4,1
			c0.3,0.3,0.6,0.4,1,0.4s0.7-0.2,1-0.4l12.8-12.8c0.3-0.3,0.4-0.6,0.4-1s-0.2-0.7-0.4-1C90.4,76,90,75.9,89.6,75.9z"/>
		<path class="st2" d="M22.9,70.1c-0.9-0.9-2.1-1.4-3.3-1.4l0,0c-1.5,0-2.9,0.6-4,1.7L12,74c-0.1,0.1-0.2,0.3-0.4,0.4l-0.7,0.9
			l10,10.2l0.9-1c0.1-0.1,0.1-0.2,0.2-0.2l3.7-3.7c2.1-2,2.3-5.3,0.3-7.4L22.9,70.1z M24,78.8l-3.1,3.1l-6.6-6.7l3-3
			c0.6-0.6,1.4-0.9,2.2-0.9l0,0c0.6,0,1.1,0.2,1.6,0.6l3.1,3.1C25.2,76,25.1,77.8,24,78.8z"/>
		<path class="st2" d="M7.4,75.8c-0.6-0.6-1.4-0.5-2,0c-0.3,0.3-0.4,0.6-0.4,1s0.1,0.7,0.4,1l12.8,12.8c0.3,0.3,0.6,0.4,1,0.4
			s0.7-0.2,1-0.4c0.3-0.3,0.4-0.6,0.4-1s-0.2-0.7-0.4-1L7.4,75.8z"/>
		<path class="st2" d="M55,9.5H40.6v1.3c0,0.1,0,0.2,0,0.3v0.1v5c-0.1,2.8,2.1,5.3,5,5.4H50c1.3,0,2.5-0.5,3.3-1.4
			c1-1.1,1.6-2.5,1.6-4v-5.1c0-0.1,0-0.1,0-0.2s0-0.1,0-0.2L55,9.5z M51.5,18.5c-0.4,0.4-1,0.7-1.6,0.7h-4.4
			c-1.5-0.1-2.6-1.4-2.6-2.9V12h9.4v4.3C52.4,17.1,52.1,17.9,51.5,18.5z"/>
		<path class="st2" d="M38.8,6.6h18.1c0.8,0,1.4-0.6,1.4-1.4s-0.6-1.4-1.4-1.4H38.8c-0.8,0-1.4,0.6-1.4,1.4S38,6.6,38.8,6.6z"/>
		<path class="st2" d="M72.8,25.9c0.8,0.8,2,1.3,3.4,1.4c1.5,0,2.9-0.6,4-1.7l3.6-3.6c0.1,0,0.1-0.1,0.2-0.2c0,0,0.1-0.1,0.2-0.2
			l1-0.9L75,10.7l-0.9,0.6c-0.2,0.1-0.3,0.3-0.5,0.4L70,15.3c-2.1,1.9-2.3,5.2-0.3,7.4L72.8,25.9z M71.7,17.2l3-3l6.7,6.6l-3.1,3.1
			c-0.6,0.6-1.4,0.9-2.1,0.9c-0.7,0-1.3-0.3-1.7-0.6l-3.1-3.1C70.5,20,70.6,18.3,71.7,17.2z"/>
		<path class="st2" d="M88.6,19.7c0.3,0.3,0.6,0.4,1,0.4s0.7-0.1,1-0.4s0.4-0.6,0.4-1s-0.2-0.7-0.4-1L77.8,4.9c-0.5-0.5-1.4-0.5-2,0
			c-0.3,0.3-0.4,0.6-0.4,1s0.2,0.7,0.4,1L88.6,19.7z"/>
		<path class="st2" d="M10.9,20.8l0.7,0.9c0.1,0.1,0.2,0.3,0.3,0.4l3.6,3.6c1.1,1.1,2.5,1.7,4,1.7c1.2,0,2.4-0.5,3.3-1.4l3.2-3.2
			c1.9-2.1,1.8-5.4-0.3-7.3L22,11.8c-0.1-0.1-0.1-0.1-0.2-0.2l-0.9-1L11.6,20L10.9,20.8z M20.9,14.1l3.1,3.1c1.1,1,1.2,2.8,0.3,3.8
			l-3.1,3.1c-0.4,0.4-1,0.6-1.6,0.6c-0.8,0-1.6-0.3-2.2-0.9l-3-3L20.9,14.1z"/>
		<path class="st2" d="M6.4,20.6c0.4,0,0.7-0.1,1-0.4L20.2,7.4c0.3-0.3,0.4-0.6,0.4-1s-0.2-0.7-0.4-1c-0.5-0.5-1.4-0.5-2,0L5.4,18.2
			c-0.3,0.3-0.4,0.6-0.4,1s0.1,0.7,0.4,1C5.6,20.4,6,20.6,6.4,20.6z"/>
	</g>
</g>
<g id="Layer_14" class="st0">
	<path class="st3" d="M90.1,33h-3.5c-2.9,0-5.3,2.4-5.3,5.3v3.5c0,2.6,2,4.9,4.5,5.2c0.3,0.1,0.5,0.1,0.8,0.1h0.6
		c-2.1,8.6-9.7,14.7-18.7,14.7c-10.1,0-18.6-7.9-19.2-18v-7.4h5.4c1.1,0,2-0.9,2-2v-9.9c0-1.9-1-3.7-2.6-4.7V19
		c0-2.3-1.9-4.1-4.1-4.1h-0.8v-3.3c0-0.7-0.6-1.3-1.3-1.3s-1.3,0.6-1.3,1.3v3.3H46c-2.3,0-4.1,1.9-4.1,4.1v0.8
		c-1.6,1-2.6,2.8-2.6,4.7v9.9c0,1.1,0.9,2,2,2h5.4v7.4c-0.6,10.1-8.9,18-18.9,18c-8.9,0-16.6-6.1-18.7-14.7h0.3c0.4,0,0.7,0,1.1-0.1
		c2.4-0.5,4.2-2.7,4.2-5.1v-3.5c0-2.9-2.4-5.3-5.3-5.3H5.9c-2.9,0-5.3,2.4-5.3,5.3v3.5c0,2.6,2,4.9,4.5,5.2c0.3,0.1,0.5,0.1,0.8,0.1
		h0.7c2,9.6,10.3,16.6,20.1,17.1v10.4c-1.6,0.8-2.8,2.9-2.8,5.4c0,3.2,1.8,5.7,4,5.7s4-2.6,4-5.7c0-2.5-1.2-4.7-2.8-5.4V64.3
		c7.6-0.5,14.1-5,17.5-11.4v14.9C44,68.6,42,71.7,42,75.4c0,4.3,2.6,7.8,5.9,7.8s5.9-3.5,5.9-7.8c0-3.7-2-6.8-4.6-7.6v-15
		c3.4,6.5,10,11,17.7,11.5v10.4c-1.6,0.8-2.8,2.9-2.8,5.4c0,3.2,1.8,5.7,4,5.7s4-2.6,4-5.7c0-2.5-1.2-4.7-2.8-5.4V64.3
		c9.9-0.4,18.2-7.4,20.3-17.1H90c0.3,0,0.7,0,1.1-0.1c2.4-0.5,4.2-2.7,4.2-5.1v-3.5C95.3,35.4,93,33,90.1,33z M46.1,17.3h1.1h0.1
		h1.5h0.3H50c0.9,0,1.6,0.7,1.6,1.6v0.3h-7.2V19C44.4,18.1,45.2,17.3,46.1,17.3z M41.8,24.5c0-1.1,0.6-2.1,1.6-2.7h9.1
		c1,0.5,1.6,1.5,1.6,2.7v9.3H41.7L41.8,24.5L41.8,24.5z M5.5,44.5c-1.3-0.2-2.4-1.4-2.4-2.7v-3.5c0-1.5,1.2-2.8,2.8-2.8h3.5
		c1.5,0,2.8,1.2,2.8,2.8v3.5c0,1.3-0.9,2.4-2.1,2.7c-0.2,0-0.4,0.1-0.6,0.1H6C5.8,44.5,5.7,44.5,5.5,44.5z M28,83.2
		c-0.4,0-1.5-1.1-1.5-3.2s1.1-3.2,1.5-3.2s1.5,1.1,1.5,3.2C29.5,82,28.4,83.2,28,83.2z M51.4,75.2c0,2.8-1.6,5.3-3.4,5.3
		c-1.8,0-3.4-2.5-3.4-5.3s1.6-5.3,3.4-5.3C49.8,69.9,51.4,72.4,51.4,75.2z M68.2,83.2c-0.4,0-1.5-1.1-1.5-3.2s1.1-3.2,1.5-3.2
		s1.5,1.1,1.5,3.2C69.7,82,68.6,83.2,68.2,83.2z M92.8,41.8c0,1.3-0.9,2.4-2.2,2.7c-0.2,0-0.4,0.1-0.6,0.1h-3.5c-0.1,0-0.2,0-0.4,0
		c-1.4-0.2-2.4-1.4-2.4-2.7v-3.5c0-1.5,1.2-2.8,2.8-2.8H90c1.5,0,2.8,1.2,2.8,2.8C92.8,38.2,92.8,41.8,92.8,41.8z"/>
</g>
<g id="Layer_15" class="st0">
	<g class="st1">
		<path class="st2" d="M27.7,50.7V18.6L2.4,34.9v40.8L27.3,51L27.7,50.7z M5,69.5V36.4l20.1-13v26.2L5,69.5z"/>
		<path class="st2" d="M29,51.5L3.7,77.1h88.7L67.1,51.5H29z M9.9,74.5L30,54.1h36l20.1,20.4H9.9L9.9,74.5z"/>
		<path class="st2" d="M68.3,18.6v32.1l25.3,25.1V35L68.3,18.6z M70.9,49.6V23.4l20.1,13v33.2L70.9,49.6z"/>
		<path class="st2" d="M66,63.3c0-0.1,0-0.2-0.1-0.2c0-0.1-0.1-0.2-0.1-0.2s0-0.1-0.1-0.1c0,0-0.1,0-0.1-0.1s-0.1-0.1-0.1-0.1
			l-3.9-3.2c-0.3-0.2-0.6-0.3-1-0.3c-0.3,0-0.7,0.2-0.9,0.5s-0.3,0.6-0.3,1s0.2,0.7,0.5,0.9l1.1,0.9H35.1l1.1-0.9
			c0.3-0.2,0.4-0.5,0.5-0.9c0-0.3-0.1-0.7-0.3-1s-0.5-0.4-0.9-0.5c-0.3,0-0.7,0.1-0.9,0.3l-3.9,3.2l-0.1,0.1c0,0-0.1,0-0.1,0.1
			c0,0,0,0.1-0.1,0.1c-0.1,0.1-0.1,0.1-0.1,0.2s-0.1,0.1-0.1,0.2v0.1c0,0.1,0,0.1,0,0.1c0,0.1,0,0.2,0,0.3c0,0.1,0,0.2,0.1,0.2
			c0,0.1,0.1,0.1,0.1,0.2c0,0,0,0.1,0.1,0.1c0.1,0.1,0.1,0.1,0.2,0.2l0,0l3.9,3.2c0.2,0.2,0.5,0.3,0.8,0.3c0.4,0,0.8-0.2,1-0.5
			s0.3-0.6,0.3-0.9c0-0.4-0.2-0.7-0.5-0.9l-1.1-0.9H61l-1.1,0.8c-0.6,0.5-0.6,1.3-0.2,1.8c0.3,0.3,0.6,0.5,1,0.5
			c0.3,0,0.6-0.1,0.8-0.3l3.9-3.2l0,0c0.1-0.1,0.1-0.1,0.2-0.2c0,0,0-0.1,0.1-0.1c0.1-0.1,0.1-0.1,0.1-0.2s0.1-0.2,0.1-0.2
			c0-0.1,0-0.2,0-0.2v-0.1C66,63.4,66,63.4,66,63.3z"/>
	</g>
</g>
<g id="Layer_16" class="st0">
	<g class="st1">
		<path class="st2" d="M84.5,70.3h-73c-4.9,0-8.8,3-8.8,6.8c0,3.7,3.9,6.7,8.8,6.7h73c4.9,0,8.8-3,8.8-6.8
			C93.3,73.3,89.3,70.3,84.5,70.3z M84.5,81.2h-73c-3.4,0-6.3-1.9-6.3-4.2c0-2.4,2.8-4.3,6.3-4.3h73c3.4,0,6.3,1.9,6.3,4.2
			C90.8,79.3,88,81.2,84.5,81.2z"/>
		<path class="st2" d="M93.1,61.6h-3.2C89.4,40,72.5,22.5,51.3,20.9c1-0.9,1.7-2.2,1.7-3.7c0-2.7-2.2-4.9-4.9-4.9s-4.9,2.2-4.9,4.9
			c0,1.5,0.7,2.8,1.7,3.7C23.6,22.5,6.8,40.1,6.3,61.6H3.1c-0.7,0-1.3,0.6-1.3,1.3s0.6,1.3,1.3,1.3h90.2c0.7,0,1.3-0.6,1.3-1.3
			S93.8,61.6,93.1,61.6z M48,14.8c1.3,0,2.4,1.1,2.4,2.4s-1.1,2.4-2.4,2.4s-2.4-1.1-2.4-2.4S46.7,14.8,48,14.8z M48,23.2
			c21.4,0,38.8,17.1,39.4,38.4H8.7C9.2,40.4,26.6,23.2,48,23.2z"/>
	</g>
</g>
<g id="Layer_17" class="st0">
	<g class="st1">
		<path class="st2" d="M28,59.1c0.7,0,1.3-0.6,1.3-1.3V37.6c0-0.7-0.6-1.3-1.3-1.3s-1.3,0.6-1.3,1.3v20.2
			C26.7,58.5,27.3,59.1,28,59.1z"/>
		<path class="st2" d="M32.3,54.1c0.7,0,1.3-0.6,1.3-1.3V42.6c0-0.7-0.6-1.3-1.3-1.3S31,41.9,31,42.6v10.2
			C31.1,53.5,31.6,54.1,32.3,54.1z"/>
		<path class="st2" d="M23.6,54.1c0.7,0,1.3-0.6,1.3-1.3V42.6c0-0.7-0.6-1.3-1.3-1.3s-1.3,0.6-1.3,1.3v10.2
			C22.4,53.5,23,54.1,23.6,54.1z"/>
		<path class="st2" d="M49.6,54.1c0.7,0,1.3-0.6,1.3-1.3V42.6c0-0.7-0.6-1.3-1.3-1.3s-1.3,0.6-1.3,1.3v10.2
			C48.4,53.6,48.9,54.1,49.6,54.1z"/>
		<path class="st2" d="M41,54.1c0.7,0,1.3-0.6,1.3-1.3V42.6c0-0.7-0.6-1.3-1.3-1.3s-1.3,0.6-1.3,1.3v10.2
			C39.7,53.5,40.3,54.1,41,54.1z"/>
		<path class="st2" d="M45.3,59.1c0.7,0,1.3-0.6,1.3-1.3V37.6c0-0.7-0.6-1.3-1.3-1.3S44,36.9,44,37.6v20.2
			C44.1,58.5,44.6,59.1,45.3,59.1z"/>
		<path class="st2" d="M36.6,59.1c0.7,0,1.3-0.6,1.3-1.3V37.6c0-0.7-0.6-1.3-1.3-1.3s-1.3,0.6-1.3,1.3v20.2
			C35.4,58.5,35.9,59.1,36.6,59.1z"/>
		<path class="st2" d="M92.8,31c-0.8-0.4-1.7-0.3-2.4,0.3l-18.5,15c-0.3,0.2-0.4,0.4-0.6,0.7V25.7c0-1.1-0.9-2.1-2.1-2.1H4
			c-1.1,0-2.1,0.9-2.1,2.1v44.7c0,1.1,0.9,2.1,2.1,2.1h65.2c1.1,0,2.1-0.9,2.1-2.1V49c0.1,0.3,0.3,0.5,0.6,0.7l18.5,15
			c0.4,0.3,0.9,0.5,1.4,0.5c0.3,0,0.7-0.1,1-0.2c0.8-0.4,1.3-1.1,1.3-2V33C94.1,32.2,93.6,31.4,92.8,31z M68.9,69.9H4.5V26h64.4
			V69.9L68.9,69.9z M91.6,62.4L73.8,48l17.8-14.4V62.4z"/>
	</g>
</g>
<g id="Layer_18" class="st0">
	<path class="st3" d="M48,18.9l-45.7-7v48.4l45.5,23.9l0.2,0.1l45.8-24V11.9L48,18.9z M91,57.1l-41.7-7.2V21.4L91,15V57.1z M46.7,50
		L5,57.3V15l41.7,6.4V50L46.7,50z M48.3,52.4l41,7.1L48,81.1L7.1,59.6L48.3,52.4z"/>
</g>
<g id="Layer_19" class="st0">
	<g class="st1">
		<path class="st9" d="M24.7,92.5h-17c-1.1,0-2.1-0.9-2.1-2.1v-2.1c0-0.1,0.5-8.3,10.6-8.3c10,0,10.6,8.1,10.6,8.2l-0.1,2.2
			C26.7,91.6,25.8,92.5,24.7,92.5z M16.2,82.2c-8.1,0-8.5,6-8.5,6.2v2h17l0.1-2.2C24.7,87.7,23.9,82.2,16.2,82.2z"/>
		<path class="st9" d="M16,80.5c-3.2,0-5.8-2.8-5.8-6.3c0-3.4,2.6-6.3,5.8-6.3s5.8,2.8,5.8,6.3S19.2,80.5,16,80.5z M16,70
			c-2,0-3.7,1.9-3.7,4.2s1.7,4.2,3.7,4.2s3.7-1.9,3.7-4.2S18.1,70,16,70z"/>
		<path class="st9" d="M87.7,92.5h-17c-1.1,0-2.1-0.9-2.1-2.1v-2.1c0-0.1,0.5-8.3,10.6-8.3c10,0,10.6,8.1,10.6,8.2l-0.1,2.2
			C89.8,91.6,88.8,92.5,87.7,92.5z M79.2,82.2c-8.1,0-8.5,6-8.5,6.2v2h17l0.1-2.2C87.7,87.7,86.9,82.2,79.2,82.2z"/>
		<path class="st9" d="M79,80.5c-3.1,0-5.8-2.9-5.8-6.3s2.6-6.3,5.8-6.3s5.8,2.8,5.8,6.3S82.2,80.5,79,80.5z M79,70
			c-2,0-3.7,1.9-3.7,4.2c0,2.3,1.7,4.2,3.7,4.2s3.7-1.9,3.7-4.2S81.1,70,79,70z"/>
		<path class="st9" d="M55.8,27.8H38.7c-1.1,0-2.1-0.9-2.1-2.1v-2.1c0-0.1,0.5-8.3,10.6-8.3c10,0,10.6,8.1,10.6,8.2v2.2
			C57.9,26.9,56.9,27.8,55.8,27.8z M47.2,17.5c-8.1,0-8.5,6-8.5,6.2v2h17.1v-2.1C55.7,23.1,55.1,17.5,47.2,17.5z"/>
		<path class="st9" d="M47.1,15.8c-3.1,0-5.8-2.9-5.8-6.3c0-3.5,2.6-6.3,5.8-6.3s5.8,2.8,5.8,6.3C52.9,13,50.2,15.8,47.1,15.8z
			 M47.1,5.3c-2,0-3.7,1.9-3.7,4.2c0,2.3,1.7,4.2,3.7,4.2s3.7-1.9,3.7-4.2S49.1,5.3,47.1,5.3z"/>
		<path class="st9" d="M65.7,69.5H29.2V34.4h37.2v34.1v1H65.7z M31.2,67.4h33V36.5H49.7H31.2V67.4z"/>
		<path class="st9" d="M12.8,64.5c-0.4,0-0.7-0.2-0.9-0.5c-0.2-0.4-5.1-8.8-4.8-19.9c1.7-31,29.3-37.8,29.6-37.8
			c0.6-0.1,1.1,0.2,1.3,0.8c0.1,0.6-0.2,1.1-0.8,1.3c-1.1,0.3-26.4,6.5-28,35.9C8.9,54.8,13.7,63,13.7,63.1c0.3,0.5,0.1,1.1-0.4,1.4
			C13.2,64.5,13,64.5,12.8,64.5z"/>
		<path class="st9" d="M81.8,64.5c-0.2,0-0.4-0.1-0.5-0.1c-0.5-0.3-0.7-0.9-0.4-1.4c0.1-0.1,4.8-8.3,4.5-18.8
			c-1.6-29.3-26.9-35.6-28-35.9c-0.6-0.1-0.9-0.7-0.8-1.3c0.1-0.6,0.7-0.9,1.3-0.8C58.2,6.3,85.8,13,87.5,44
			c0.3,11.1-4.6,19.6-4.8,19.9C82.5,64.3,82.1,64.5,81.8,64.5z"/>
		<path class="st9" d="M47.5,85.2c-13.1,0-22.1-6.5-22.3-6.6c-0.5-0.3-0.6-1-0.2-1.5c0.3-0.5,1-0.6,1.5-0.2
			c0.2,0.1,19.4,14,42.1-0.1c0.5-0.3,1.1-0.1,1.4,0.3c0.3,0.5,0.2,1.1-0.3,1.4C61.7,83.5,54.1,85.2,47.5,85.2z"/>
		<path class="st9" d="M44.1,57.3c-0.3,0-0.6-0.1-0.8-0.4l-4.8-5.4c-0.4-0.4-0.3-1.1,0.1-1.5c0.4-0.4,1.1-0.4,1.5,0.1l4.2,4.7
			l11.2-8.2c0.5-0.3,1.1-0.2,1.5,0.2c0.3,0.5,0.2,1.1-0.2,1.5l-12,8.8C44.6,57.3,44.4,57.3,44.1,57.3z"/>
	</g>
</g>
<g id="Layer_20" class="st0">
	<path class="st3" d="M65.7,51.6c-0.8-2.5-3.2-4.2-5.9-4.2c0,0,0,0-0.1,0l-10.4,0.1v-8.8c1.2,1.1,2.7,1.8,4.4,1.8
		c0.8,0,1.6-0.2,2.4-0.5c3.1-1.3,4.6-4.7,3.6-7.8c0.6,0.2,1.3,0.3,1.9,0.3c2.5,0,4.9-1.5,5.9-3.9c0.6-1.6,0.6-3.3,0-4.9
		c-0.6-1.4-1.6-2.5-2.9-3.1c2.9-1.5,4.1-5,2.9-8l0,0c-1.3-3-4.7-4.6-7.8-3.6c1-3.1-0.6-6.5-3.6-7.8s-6.5,0.1-8,2.9
		c-0.7-1.3-1.8-2.3-3.2-2.9c-1.6-0.6-3.3-0.6-4.9,0c-3.1,1.3-4.6,4.7-3.6,7.8c-1.4-0.4-2.9-0.4-4.3,0.2c-1.6,0.6-2.8,1.9-3.4,3.4
		c-0.6,1.6-0.6,3.3,0,4.9c0.6,1.4,1.6,2.5,2.9,3.2c-1.3,0.7-2.4,1.8-2.9,3.2c-0.7,1.6-0.7,3.3,0,4.9c1,2.4,3.4,3.9,5.9,3.9
		c0.6,0,1.3-0.1,1.9-0.3c-1,3.1,0.6,6.5,3.6,7.8l0,0c0.8,0.3,1.6,0.5,2.4,0.5c0.8,0,1.7-0.2,2.5-0.5c0.7-0.3,1.3-0.7,1.9-1.2v8.7
		l-10.5,0.1c-2.7,0-5,1.7-5.8,4.1c-7.3,21.9,2.8,41.6,3.2,42.4l0.4,0.7l28.1,0.2l0.3-0.8C71.1,74.7,68.2,59.1,65.7,51.6z M40.4,23.9
		c-0.8-2.1-0.8-4.3,0-6.4c0.9-2,2.4-3.6,4.5-4.5c1-0.4,2.1-0.6,3.2-0.6c3.3,0,6.4,1.9,7.7,5.1c1.8,4.2-0.3,9.1-4.5,10.8
		c-2,0.9-4.3,0.9-6.3,0C42.9,27.5,41.3,25.9,40.4,23.9z M57.3,35.7c-0.4,1-1.1,1.7-2.1,2.1c-2,0.8-4.2-0.1-5-2.1s0.1-4.2,2.1-5
		c0.5-0.2,1-0.3,1.5-0.3c1.5,0,2.9,0.9,3.6,2.4C57.7,33.7,57.7,34.7,57.3,35.7z M65.2,27.7c-0.8,2-3.1,2.9-5,2.1
		c-2-0.8-2.9-3.1-2.1-5c0.6-1.5,2-2.4,3.6-2.4c0.5,0,1,0.1,1.5,0.3c1,0.4,1.7,1.1,2.1,2.1C65.6,25.7,65.6,26.8,65.2,27.7z
		 M61.6,11.2c1.5,0,2.9,0.9,3.6,2.4c0.4,0.9,0.4,2,0,2.9s-1.1,1.7-2.1,2.1c-0.9,0.4-2,0.4-2.9,0s-1.7-1.1-2.1-2.1
		c-0.4-1-0.4-2,0-2.9c0.4-1,1.1-1.7,2.1-2.1C60.6,11.3,61.1,11.2,61.6,11.2z M50.1,5.6c0.6-1.5,2.1-2.4,3.6-2.4c0.5,0,1,0.1,1.5,0.3
		c2,0.8,2.9,3.1,2.1,5c-0.8,2-3,2.9-5,2.1C50.2,9.9,49.3,7.6,50.1,5.6z M41,3.6c0.5-0.2,1-0.3,1.5-0.3s1,0.1,1.5,0.3
		c0.9,0.4,1.7,1.1,2.1,2.1c0.4,0.9,0.4,2,0,2.9S45,10.3,44,10.7c-2,0.8-4.2-0.1-5-2.1C38.1,6.6,39.1,4.4,41,3.6z M31,13.6
		c0.6-1.5,2.1-2.4,3.6-2.4c0.5,0,1,0.1,1.5,0.3c0.9,0.4,1.7,1.1,2.1,2.1s0.4,2,0,2.9l0,0c-0.4,1-1.1,1.7-2.1,2.1
		c-0.9,0.4-2,0.4-2.9,0C31.1,17.9,30.2,15.6,31,13.6z M31,27.8c-0.4-1-0.4-2,0-2.9c0.4-1,1.1-1.7,2.1-2.1c0.5-0.2,1-0.3,1.5-0.3
		c1.5,0,2.9,0.9,3.6,2.4c0.8,2-0.1,4.2-2.1,5C34.1,30.7,31.8,29.7,31,27.8z M46.1,35.7c-0.4,1-1.1,1.7-2.1,2.1c-0.9,0.4-2,0.4-2.9,0
		c-2-0.8-2.9-3.1-2.1-5c0.4-0.9,1.1-1.7,2.1-2.1s2-0.4,2.9,0s1.7,1.1,2.1,2.1C46.5,33.7,46.5,34.7,46.1,35.7z M60.6,92.5l-24.9-0.2
		c-1.7-3.6-9-21.1-2.8-39.8c0.5-1.4,1.9-2.4,3.4-2.4l23.4-0.2l0,0c1.6,0,3,1,3.5,2.5l0,0C65.7,59.5,68.4,74.1,60.6,92.5z"/>
</g>
<g id="Layer_21" class="st0">
	<g transform="translate(0,-952.36218)" class="st1">
		<path class="st10" d="M14,1043.1c-6.2,0-11.3-5.1-11.3-11.3c0-6.2,5.1-11.3,11.3-11.3h4l8.1-7.8v-19.2c0-4.3,2.2-8.2,5.8-10.4
			c-3-2.1-4.9-5.6-4.9-9.3c0-6.2,5.1-11.3,11.3-11.3s11.3,5.1,11.3,11.3c0,3.7-1.8,7.2-4.8,9.3c2.4,1.5,4.2,3.8,5.1,6.4l17.3-16.8
			c0.5-0.5,1.1-0.8,1.8-0.8h0.1h12.3c6.2,0,11.3,5.1,11.3,11.3c0,6.2-5.1,11.3-11.3,11.3h-4.1l-49.1,47.8c-0.5,0.5-1.2,0.8-2,0.8H14
			L14,1043.1z M14,1022.5c-5.1,0-9.3,4.2-9.3,9.3s4.2,9.3,9.3,9.3h12.1c0.2,0,0.4-0.1,0.6-0.3l49.7-48.3h4.9c5.1,0,9.3-4.2,9.3-9.3
			s-4.2-9.3-9.3-9.3H69.2c-0.3,0-0.5,0.1-0.6,0.2l-49.7,48.3H14V1022.5z M38.3,964.6c-5.1,0-9.3,4.2-9.3,9.3c0,3.6,2.1,6.9,5.4,8.4
			l2,1l-2.1,0.9c-3.8,1.6-6.3,5.3-6.3,9.4v17.2l20.1-19.6c-0.8-3.2-2.9-5.8-5.9-7l-2.1-0.9l2-1c3.3-1.5,5.4-4.8,5.4-8.4
			C47.6,968.7,43.4,964.6,38.3,964.6z"/>
	</g>
	<line class="st11" x1="25.9" y1="72.2" x2="69.4" y2="28.7"/>
</g>
<g id="Layer_22" class="st0">
	<g class="st1">
		<path class="st2" d="M51.4,6.4L48,3.1l-3.4,3.3l0,0c-3.3,3.1-31.7,30.5-31.7,48.9c0,19.4,15.8,35.2,35.2,35.2s35.2-15.8,35.2-35.2
			C83.2,36.9,54.7,9.5,51.4,6.4z M48,87.9c-18,0-32.7-14.7-32.7-32.7c0-14.1,19.4-36.2,30.9-47.1l0,0l1.7-1.6l1.7,1.6
			c11.5,10.9,31,33,31,47.1C80.7,73.3,66,87.9,48,87.9z"/>
		<path class="st2" d="M58,66.5c0,0-4.3,4.3-10.1,4.3c-5.7,0-10-4.3-10.1-4.3c-0.5-0.5-1.3-0.5-1.8,0s-0.5,1.3,0,1.8
			c0.2,0.2,5,5.1,11.9,5.1s11.6-4.9,11.9-5.1c0.5-0.5,0.5-1.3,0-1.8C59.3,66,58.5,66,58,66.5z"/>
	</g>
</g>
<g id="Layer_23" class="st0">
	<g class="st1">
		<g>
			<path class="st2" d="M49.6,20.7c-2.6,0-5.1-1.1-6.9-3.2c-3.3-3.8-2.8-9.5,1-12.8c1.8-1.6,4.2-2.4,6.6-2.2
				c2.5,0.2,4.6,1.3,6.2,3.1c3.3,3.8,2.8,9.6-1,12.8l0,0C53.8,19.9,51.7,20.7,49.6,20.7z M49.6,5.1c-1.6,0-3,0.6-4.2,1.6
				c-1.3,1.1-2.1,2.7-2.3,4.5c-0.1,1.7,0.5,3.4,1.6,4.7c2.4,2.7,6.5,3,9.2,0.7l0,0c2.7-2.4,3-6.5,0.7-9.2c-1.1-1.3-2.7-2.1-4.5-2.3
				C49.9,5.1,49.7,5.1,49.6,5.1z M54.7,17.5L54.7,17.5L54.7,17.5z"/>
		</g>
		<g>
			<path class="st2" d="M82.5,57.3H64c-0.4,0-0.8-0.2-1-0.6l-9.8-12.8c-1.1-1.4-1.3-3.3-0.4-4.8c0.8-1.5,2.4-2.5,4.1-2.5l0,0h25.6
				c0.7,0,1.3,0.5,1.3,1.3V56C83.7,56.7,83.2,57.3,82.5,57.3z M64.6,54.7h16.5V39.2H56.8c-0.8,0-1.5,0.5-1.8,1.1
				c-0.4,0.7-0.3,1.5,0.2,2.1L64.6,54.7z"/>
		</g>
		<g>
			<path class="st2" d="M19.6,93.4c-4.4,0-7.9-3.5-7.9-7.9V34.8c0-2.5,1.1-4.8,3-6.5l13.4-11.5c1.6-1.4,3.6-2.1,5.6-2.1
				c2.5,0,4.9,1.1,6.5,3l5.6,6.5c1,1.2,1.6,2.7,1.6,4.4v11.6l6.2,8.1c1.5,1.8,1.2,4.5-0.6,6c-0.9,0.8-2.1,1.2-3.3,1.1
				s-2.3-0.7-3-1.6l-7.8-10.2c-0.2-0.2-0.3-0.5-0.3-0.8v-8.5l-9.4,8c-1.1,0.9-1.7,2.3-1.7,3.7v39.3C27.5,89.9,24,93.4,19.6,93.4z
				 M33.6,17.4c-1.5,0-2.8,0.5-3.9,1.5L16.3,30.4c-1.3,1.1-2.1,2.8-2.1,4.5v50.7c0,2.9,2.4,5.4,5.4,5.4c2.9,0,5.4-2.4,5.4-5.4V46.3
				c0-2.2,0.9-4.3,2.6-5.7l11.6-9.9c0.4-0.4,0.9-0.4,1.4-0.2c0.4,0.2,0.7,0.6,0.7,1.2v10.8l7.6,9.8c0.3,0.4,0.7,0.6,1.2,0.6
				c0.4,0.1,0.9-0.1,1.4-0.4c0.7-0.6,0.7-1.6,0.2-2.5l-6.6-8.4c-0.2-0.2-0.3-0.6-0.3-0.8V28.7c0-1-0.4-1.9-1-2.6l-5.6-6.5
				C37,18.1,35.4,17.4,33.6,17.4z"/>
		</g>
		<g>
			<circle class="st2" cx="59.7" cy="32.9" r="1.5"/>
		</g>
		<g>
			<circle class="st2" cx="59.7" cy="29" r="1.5"/>
		</g>
		<g>
			<circle class="st2" cx="59.7" cy="25.2" r="1.5"/>
		</g>
		<g>
			<circle class="st2" cx="59.7" cy="21.3" r="1.5"/>
		</g>
	</g>
</g>
<g id="Layer_24" class="st0">
	<g class="st1">
		<path class="st2" d="M85,1.9H11c-3.6,0-6.5,2.9-6.5,6.5v28.5c0,3.6,2.9,6.5,6.5,6.5h26v48.3H27v2.5h42v-2.5H59V43.4h26
			c3.6,0,6.5-2.9,6.5-6.5V8.4C91.5,4.8,88.6,1.9,85,1.9z M56.4,91.6H39.6V43.3h16.8V91.6z M89,36.9c0,2.2-1.8,4-4,4H11
			c-2.2,0-4-1.8-4-4V8.4c0-2.2,1.8-4,4-4h74.1c2.2,0,4,1.8,4,4L89,36.9L89,36.9z"/>
		<path class="st2" d="M22.5,16.2c-3.5,0-6.4,2.9-6.4,6.4S19,29,22.5,29s6.4-2.9,6.4-6.4S26,16.2,22.5,16.2z M22.5,26.5
			c-2.2,0-3.9-1.8-3.9-3.9s1.8-3.9,3.9-3.9s3.9,1.8,3.9,3.9S24.6,26.5,22.5,26.5z"/>
		<path class="st2" d="M39.5,16.2c-3.5,0-6.4,2.9-6.4,6.4S36,29,39.5,29s6.4-2.9,6.4-6.4S43,16.2,39.5,16.2z M39.5,26.5
			c-2.2,0-3.9-1.8-3.9-3.9s1.8-3.9,3.9-3.9s3.9,1.8,3.9,3.9S41.7,26.5,39.5,26.5z"/>
		<path class="st2" d="M56.5,16.2c-3.5,0-6.4,2.9-6.4,6.4S53,29,56.5,29s6.4-2.9,6.4-6.4S60,16.2,56.5,16.2z M56.5,26.5
			c-2.2,0-3.9-1.8-3.9-3.9s1.8-3.9,3.9-3.9s3.9,1.8,3.9,3.9S58.7,26.5,56.5,26.5z"/>
		<path class="st2" d="M73.5,16.2c-3.5,0-6.4,2.9-6.4,6.4S70,29,73.5,29s6.4-2.9,6.4-6.4S77,16.2,73.5,16.2z M73.5,26.5
			c-2.2,0-3.9-1.8-3.9-3.9s1.8-3.9,3.9-3.9s3.9,1.8,3.9,3.9S75.7,26.5,73.5,26.5z"/>
	</g>
</g>
<g id="Layer_25" class="st0">
	<path class="st3" d="M66.1,91.5V2H52.6v4.9H14.7v74.9h37.9v9.7h-14V94h41.5v-2.5H66.1L66.1,91.5z M17.2,79.3V9.4h40.9v69.9H17.2
		L17.2,79.3z M55.1,81.8h5.5V6.9h-5.5V4.5h8.5v87h-8.5V81.8z"/>
</g>
<g id="Layer_26" class="st0">
	<g class="st1">
		<path class="st2" d="M28.2,66.8h43.1V23.7H28.2C28.2,23.7,28.2,66.8,28.2,66.8z M30.7,26.2h38.1v38.1H30.7
			C30.7,64.3,30.7,26.2,30.7,26.2z"/>
		<path class="st2" d="M91.9,84.7l-5-5c-0.5-0.5-1.3-0.5-1.8,0s-0.5,1.3,0,1.8l2.9,2.9H11.3V8.6l2.9,2.9c0.2,0.2,0.6,0.4,0.9,0.4
			c0.3,0,0.6-0.1,0.9-0.4c0.5-0.5,0.5-1.3,0-1.8l-5-5c-0.1-0.1-0.3-0.2-0.4-0.3c-0.3-0.1-0.6-0.1-1,0C9.5,4.5,9.3,4.5,9.2,4.7l-5,5
			c-0.5,0.5-0.5,1.3,0,1.8c0.2,0.2,0.6,0.4,0.9,0.4c0.3,0,0.6-0.1,0.9-0.4l2.9-2.9v77.1c0,0.7,0.6,1.3,1.3,1.3h78l-2.9,2.9
			c-0.5,0.5-0.5,1.3,0,1.8c0.2,0.2,0.6,0.4,0.9,0.4s0.6-0.1,0.9-0.4l5-5C92.4,86,92.4,85.2,91.9,84.7z"/>
		<path class="st2" d="M19.6,6.7h1.5c0.7,0,1.3-0.6,1.3-1.3s-0.6-1.3-1.3-1.3h-1.5c-0.7,0-1.3,0.6-1.3,1.3S18.9,6.7,19.6,6.7z"/>
		<path class="st2" d="M65.1,6.7H68c0.7,0,1.3-0.6,1.3-1.3S68.7,4.1,68,4.1h-2.9c-0.7,0-1.3,0.6-1.3,1.3S64.4,6.7,65.1,6.7z"/>
		<path class="st2" d="M71,6.7h2.9c0.7,0,1.3-0.6,1.3-1.3s-0.6-1.3-1.3-1.3H71c-0.7,0-1.3,0.6-1.3,1.3S70.3,6.7,71,6.7z"/>
		<path class="st2" d="M76.9,6.7h2.9c0.7,0,1.3-0.6,1.3-1.3s-0.6-1.3-1.3-1.3h-2.9c-0.7,0-1.3,0.6-1.3,1.3S76.2,6.7,76.9,6.7z"/>
		<path class="st2" d="M82.7,6.7h2.9c0.7,0,1.3-0.6,1.3-1.3s-0.6-1.3-1.3-1.3h-2.9c-0.7,0-1.3,0.6-1.3,1.3S82.1,6.7,82.7,6.7z"/>
		<path class="st2" d="M29.9,6.7h2.9c0.7,0,1.3-0.6,1.3-1.3s-0.6-1.3-1.3-1.3h-2.9c-0.7,0-1.3,0.6-1.3,1.3S29.2,6.7,29.9,6.7z"/>
		<path class="st2" d="M35.8,6.7h2.9c0.7,0,1.3-0.6,1.3-1.3s-0.6-1.3-1.3-1.3h-2.9c-0.7,0-1.3,0.6-1.3,1.3S35.1,6.7,35.8,6.7z"/>
		<path class="st2" d="M59.3,6.7h2.9c0.7,0,1.3-0.6,1.3-1.3s-0.6-1.3-1.3-1.3h-2.9c-0.7,0-1.3,0.6-1.3,1.3S58.6,6.7,59.3,6.7z"/>
		<path class="st2" d="M41.7,6.7h2.9c0.7,0,1.3-0.6,1.3-1.3s-0.6-1.3-1.3-1.3h-2.9c-0.7,0-1.3,0.6-1.3,1.3S41,6.7,41.7,6.7z"/>
		<path class="st2" d="M24.1,6.7H27c0.7,0,1.3-0.6,1.3-1.3S27.7,4.1,27,4.1h-2.9c-0.7,0-1.3,0.6-1.3,1.3S23.4,6.7,24.1,6.7z"/>
		<path class="st2" d="M53.4,6.7h2.9c0.7,0,1.3-0.6,1.3-1.3S57,4.1,56.3,4.1h-2.9c-0.7,0-1.3,0.6-1.3,1.3S52.7,6.7,53.4,6.7z"/>
		<path class="st2" d="M47.5,6.7h2.9c0.7,0,1.3-0.6,1.3-1.3s-0.6-1.3-1.3-1.3h-2.9c-0.7,0-1.3,0.6-1.3,1.3S46.9,6.7,47.5,6.7z"/>
		<path class="st2" d="M88.6,6.7h0.3v2.8c0,0.7,0.6,1.3,1.3,1.3s1.3-0.6,1.3-1.3v-3c0-0.2-0.1-0.4-0.1-0.5c0.1-0.2,0.1-0.3,0.1-0.5
			c0-0.7-0.6-1.3-1.3-1.3h-1.5c-0.7,0-1.3,0.6-1.3,1.3S87.9,6.7,88.6,6.7z"/>
		<path class="st2" d="M90.1,71.3c-0.7,0-1.3,0.6-1.3,1.3v3c0,0.7,0.6,1.3,1.3,1.3s1.3-0.6,1.3-1.3v-3
			C91.4,71.8,90.8,71.3,90.1,71.3z"/>
		<path class="st2" d="M91.4,60.5c0-0.7-0.6-1.3-1.3-1.3s-1.3,0.6-1.3,1.3v3c0,0.7,0.6,1.3,1.3,1.3s1.3-0.6,1.3-1.3V60.5z"/>
		<path class="st2" d="M91.4,54.5c0-0.7-0.6-1.3-1.3-1.3s-1.3,0.6-1.3,1.3v3c0,0.7,0.6,1.3,1.3,1.3s1.3-0.6,1.3-1.3V54.5z"/>
		<path class="st2" d="M91.4,48.5c0-0.7-0.6-1.3-1.3-1.3s-1.3,0.6-1.3,1.3v3c0,0.7,0.6,1.3,1.3,1.3s1.3-0.6,1.3-1.3V48.5z"/>
		<path class="st2" d="M91.4,66.5c0-0.7-0.6-1.3-1.3-1.3s-1.3,0.6-1.3,1.3v3c0,0.7,0.6,1.3,1.3,1.3s1.3-0.6,1.3-1.3V66.5z"/>
		<path class="st2" d="M91.4,12.5c0-0.7-0.6-1.3-1.3-1.3s-1.3,0.6-1.3,1.3v3c0,0.7,0.6,1.3,1.3,1.3s1.3-0.6,1.3-1.3V12.5z"/>
		<path class="st2" d="M91.4,18.5c0-0.7-0.6-1.3-1.3-1.3s-1.3,0.6-1.3,1.3v3c0,0.7,0.6,1.3,1.3,1.3s1.3-0.6,1.3-1.3V18.5z"/>
		<path class="st2" d="M91.4,42.5c0-0.7-0.6-1.3-1.3-1.3s-1.3,0.6-1.3,1.3v3c0,0.7,0.6,1.3,1.3,1.3s1.3-0.6,1.3-1.3V42.5z"/>
		<path class="st2" d="M91.4,24.5c0-0.7-0.6-1.3-1.3-1.3s-1.3,0.6-1.3,1.3v3c0,0.7,0.6,1.3,1.3,1.3s1.3-0.6,1.3-1.3V24.5z"/>
		<path class="st2" d="M91.4,30.5c0-0.7-0.6-1.3-1.3-1.3s-1.3,0.6-1.3,1.3v3c0,0.7,0.6,1.3,1.3,1.3s1.3-0.6,1.3-1.3V30.5z"/>
		<path class="st2" d="M91.4,36.5c0-0.7-0.6-1.3-1.3-1.3s-1.3,0.6-1.3,1.3v3c0,0.7,0.6,1.3,1.3,1.3s1.3-0.6,1.3-1.3V36.5z"/>
	</g>
</g>
<g id="Layer_27" class="st0">
	<g class="st1">
		<path class="st2" d="M5.4,9.5l5.3,5.4c0.2,0.2,0.6,0.4,0.9,0.4c0.3,0,0.6-0.1,0.9-0.4c0.5-0.5,0.5-1.3,0-1.8L9.3,9.8h70.1
			l-3.3,3.3c-0.5,0.5-0.5,1.3,0,1.8c0.2,0.2,0.6,0.4,0.9,0.4s0.6-0.1,0.9-0.4l5.4-5.4c0.2-0.2,0.4-0.6,0.4-0.9l0,0l0,0
			c0-0.4-0.2-0.7-0.4-0.9l-5.4-5.4c-0.5-0.5-1.3-0.5-1.8,0s-0.5,1.3,0,1.8l3.3,3.3H9.3l3.3-3.3c0.5-0.5,0.5-1.3,0-1.8
			s-1.3-0.5-1.8,0L5.4,7.7C5.1,8,5,8.3,5,8.6l0,0l0,0C5,9,5.2,9.3,5.4,9.5z"/>
		<path class="st2" d="M92.3,83.9L89,87.2V17l3.3,3.3c0.2,0.2,0.6,0.4,0.9,0.4s0.6-0.1,0.9-0.4c0.5-0.5,0.5-1.3,0-1.8l-5.4-5.4
			c-0.3-0.3-0.6-0.4-0.9-0.4l0,0c-0.4,0-0.7,0.2-0.9,0.4l-5.4,5.4c-0.5,0.5-0.5,1.3,0,1.8c0.2,0.2,0.6,0.4,0.9,0.4
			c0.3,0,0.6-0.1,0.9-0.4l3.3-3.3v70.1l-3.3-3.3c-0.5-0.5-1.3-0.5-1.8,0s-0.5,1.3,0,1.8l5.4,5.4c0.2,0.2,0.6,0.4,0.9,0.4l0,0l0,0
			c0.4,0,0.7-0.2,0.9-0.4l5.4-5.4c0.5-0.5,0.5-1.3,0-1.8C93.6,83.5,92.8,83.4,92.3,83.9z"/>
		<path class="st2" d="M75.9,18.1H7.5c-1.4,0-2.5,1.1-2.5,2.5V89c0,1.4,1.1,2.5,2.5,2.5h68.4c1.4,0,2.5-1.1,2.5-2.5V20.6
			C78.3,19.2,77.2,18.1,75.9,18.1z M75.8,89H7.5V20.6h68.4L75.8,89L75.8,89z"/>
	</g>
</g>
<g id="Layer_28" class="st0">
	<g class="st1">
		<path class="st12" d="M72.8,17"/>
		<path class="st12" d="M16.8,32.9V18c0-2.2,1.7-4,3.9-4c0,0,0,0,0.1,0h54.4c2.2,0,4,1.8,4,4l0,0v14.9"/>
		<path class="st12" d="M90.9,74.9H5V34.1c0-0.6,0.5-1,1-1h14.1c0.6,0,1,0.5,1,1v23c0,0.9,0.7,1.5,1.6,1.5h50.5
			c0.9,0,1.6-0.7,1.6-1.5v-23c0-0.6,0.5-1,1-1l0,0H90c0.6,0,1,0.5,1,1L90.9,74.9z"/>
		<line class="st13" x1="20.5" y1="82" x2="20.5" y2="74.9"/>
		<line class="st13" x1="75.5" y1="82" x2="75.5" y2="74.9"/>
	</g>
</g>
<g id="Layer_29" class="st0">
	<path class="st3" d="M55.7,53.6c9.9-3.2,17.1-12.6,17.1-23.5C72.8,16.5,61.7,5.3,48,5.3S23.2,16.4,23.2,30.1
		c0,11,7.2,20.3,17.1,23.5c-16.6,3.5-29,18.3-29,35.9c0,0.7,0.6,1.3,1.3,1.3s1.3-0.6,1.3-1.3c0-18.8,15.3-34.2,34.2-34.2
		s34.2,15.3,34.2,34.2c0,0.7,0.6,1.3,1.3,1.3s1.3-0.6,1.3-1.3C84.7,71.9,72.2,57.1,55.7,53.6z M25.7,30c0-12.3,10-22.3,22.3-22.3
		s22.3,10,22.3,22.3S60.3,52.3,48,52.3S25.7,42.3,25.7,30z"/>
</g>
<g id="Layer_30" class="st0">
	<path class="st3" d="M81.3,42.9c2.9-1.7,4.9-4.9,4.9-8.6c0-5.5-4.5-10-10-10s-10,4.5-10,10c0,3.7,2,6.9,5,8.6
		c-3.1,0.9-5.9,2.5-8.2,4.9c-2.9-2.6-6.5-4.4-10.5-5.2c4.5-1.8,7.8-6.2,7.8-11.3c0-6.7-5.4-12.1-12.1-12.1
		c-6.7,0-12.1,5.4-12.1,12.1c0,5.2,3.2,9.6,7.8,11.3c-4.1,0.8-7.8,2.7-10.8,5.4c-2.3-2.4-5.2-4.2-8.4-5.1c3-1.7,5-5,5-8.6
		c0-5.5-4.5-10-10-10s-10,4.5-10,10c0,3.7,2,6.9,4.9,8.6C6.8,45.1,1,52.3,1,60.8v9.9h24.7v6h44.8v-6h24.2v-9.9
		C94.9,52.2,89.1,45,81.3,42.9z M68.7,34.3c0-4.1,3.4-7.5,7.5-7.5s7.5,3.4,7.5,7.5s-3.4,7.5-7.5,7.5S68.7,38.4,68.7,34.3z
		 M38.6,31.3c0-5.3,4.3-9.6,9.6-9.6s9.6,4.3,9.6,9.6s-4.3,9.6-9.6,9.6C42.9,40.9,38.6,36.6,38.6,31.3z M12.3,34.3
		c0-4.1,3.4-7.5,7.5-7.5s7.5,3.4,7.5,7.5s-3.4,7.5-7.5,7.5C15.6,41.7,12.3,38.4,12.3,34.3z M25.8,68.1H3.6v-7.4
		c0-8.9,7.2-16.1,16.1-16.1c4.5,0,8.7,1.9,11.7,5.1c-3.5,4-5.6,9.1-5.6,14.8V68.1z M68.1,74.1H28.2v-9.5c0-11,8.9-19.9,19.9-19.9
		S68,53.6,68,64.6C68.1,64.6,68.1,74.1,68.1,74.1z M92.4,68.1H70.7v-3.5c0-5.8-2.2-11.1-5.8-15c3-3.2,7.1-4.9,11.5-4.9
		c8.8,0,16,7.2,16,16.1C92.4,60.7,92.4,68.1,92.4,68.1z"/>
</g>
<g id="Layer_31" class="st0">
	<g class="st1">
		<path class="st2" d="M92,11.3H4v16.9h9.5v22.1c0,19,15.5,34.5,34.5,34.5s34.5-15.5,34.5-34.5V28.2H92V11.3z M80.1,28.1v22.1
			c0,17.7-14.4,32.1-32.1,32.1S15.9,67.9,15.9,50.2V28.1H80.1z M89.6,13.7v12H6.4v-12C6.4,13.7,89.6,13.7,89.6,13.7z"/>
		<path class="st2" d="M48,67.4c7.8,0,14.2-6.4,14.2-14.2C62.2,45.4,55.8,39,48,39s-14.2,6.4-14.2,14.2S40.2,67.4,48,67.4z
			 M36.2,53.2c0-6.5,5.3-11.8,11.8-11.8s11.8,5.3,11.8,11.8S54.5,65,48,65S36.2,59.7,36.2,53.2z"/>
	</g>
</g>
<g id="Layer_32" class="st0">
	<path id="Path_9555_1_" class="st14" d="M7.2,75l1.6-18.1L19.7,75"/>
	<path class="st3" d="M91.3,60.5H70.2C70,52.5,63.6,46,55.7,46c-7.8,0-14.3,6.4-14.5,14.5h-5.9c0,0-2.7,0-4.5-1.7
		c-1.2-1.1-1.7-2.8-1.7-4.9v-9.6c1.3-0.7,7-3.3,30.1-9.9l0.3-0.1l16.5-16l0.5-0.6h14.9c0.7,0,1.3-0.6,1.3-1.3s-0.6-1.3-1.3-1.3H75.3
		l-1.1,1.4L58.2,32c-30.6,8.8-31.3,10.5-31.5,11.1l-0.1,0.2v10.5c0,2.8,0.8,5.1,2.5,6.7c2.4,2.3,5.7,2.4,6.2,2.4h0.1h6
		c0.9,6.8,6.2,12.1,12.9,12.8H34L20.3,53l-2,21.9c0,0.3,0.1,0.6,0.2,0.8H3.8V78h87.4v-2.3h-34c6.6-0.7,11.9-6,12.9-12.8h21.2
		c0.7,0,1.3-0.6,1.3-1.3S92,60.5,91.3,60.5z M20.8,75.1l1.3-14.3l9,14.9H20.6C20.7,75.5,20.8,75.4,20.8,75.1z M55.8,73.3
		c-6.6,0-12-5.6-12-12.4s5.4-12.4,12-12.4s12,5.6,12,12.4S62.4,73.3,55.8,73.3z"/>
</g>
<g id="Layer_33" class="st0">
	<g class="st1">
		<path class="st2" d="M82.1,16.6c0-0.3,0-0.5,0-0.8c0-0.5,0-1,0-1.6c-0.1-3.5-2.8-6.3-6.3-6.3c-5.7-0.1-11.5-0.1-17.1,0
			c-2.9,0-5.7,0-8.5,0H20.9c-2.7,0-4.8,1.2-6,3.2c-0.8,1.3-0.8,2.8-0.8,4.1v61.9c0,0.5,0,1,0,1.5C14,81,14,83.8,15.5,85.7
			c1.7,2.1,4.2,2.4,6.7,2.4c0.5,0,1.1,0,1.6,0s1,0,1.5,0h50.5l0,0c0.1,0,0.1,0,0.1,0c3.5-0.2,6.1-2.9,6.2-6.4c0-0.6,0-1.1,0-1.7
			c0-0.3,0-0.6,0-0.8L82.1,16.6L82.1,16.6z M79.6,64.7c0,5.5,0,11.1,0,16.7c0,2.4-1.6,4.2-3.9,4.3H21.4c-1.3,0-2.7,0-3.8-1.1
			s-1.2-2.4-1.2-3.8V15.7c0-0.2,0-0.4,0-0.6c0-0.5,0-1,0-1.4c0.3-2.5,2.6-3.4,4.4-3.4h54.8c2.3,0,4,1.7,4,4c0,1.7,0,3.4,0,5
			c0,0.8,0,1.7,0,2.5v34.5C79.6,59.1,79.6,61.9,79.6,64.7z"/>
		<path class="st2" d="M35.8,38.4c0.3,0,0.6-0.1,0.8-0.3c2-2,4-3.9,6-5.9c1.7-1.7,3.4-3.4,5.2-5.1c1.5,1.4,3,2.9,4.5,4.3
			c1.8,1.7,3.7,3.5,5.5,5.2c0.3,0.3,0.5,0.5,0.8,0.7c0.3,0.3,0.5,0.5,0.8,0.8c0.6,0.5,1.3,0.4,1.7-0.1c0.4-0.4,0.5-1.1,0-1.6
			c-1.8-1.7-3.5-3.4-5.3-5c-1.8-1.8-3.7-3.5-5.6-5.3c-0.3-0.2-0.5-0.5-0.8-0.7c-0.3-0.3-0.5-0.5-0.8-0.8c-0.5-0.5-1.2-0.5-1.7,0
			c-2,2-4,3.9-6,5.9s-4,3.9-6,5.9c-0.5,0.5-0.4,1.3,0,1.7C35.2,38.3,35.5,38.4,35.8,38.4z"/>
		<path class="st2" d="M59.4,58c-1.8,1.7-3.5,3.4-5.3,5c-1.8,1.7-3.7,3.5-5.5,5.3c-0.3,0.2-0.5,0.5-0.7,0.7
			c-1.7-1.7-3.5-3.4-5.2-5.1c-2-2-4-3.9-6-5.9c-0.6-0.5-1.3-0.4-1.7,0s-0.5,1.1,0,1.7l0,0c2,1.9,4,3.9,6,5.9s4,3.9,6,5.9
			c0.2,0.2,0.5,0.3,0.8,0.3s0.6-0.1,0.8-0.3c1.9-1.8,3.7-3.5,5.6-5.3c1.8-1.7,3.5-3.3,5.3-5c0.3-0.3,0.5-0.5,0.8-0.8
			s0.5-0.5,0.8-0.7c0.6-0.5,0.4-1.2,0-1.6C60.7,57.6,60,57.4,59.4,58z"/>
	</g>
</g>
<g id="Layer_34">
	<g id="Group_2956_1_" transform="translate(0.75 0.75)">
		<path class="st15" d="M73.5,68V53.5c0-1.2-0.5-2.3-1.3-3.1c-0.8-0.8-1.9-1.3-3.1-1.3l0,0h-4.8L67,12.5c0-0.2,0-0.4,0-0.6
			c0-4.6-3.7-8.3-8.3-8.3H34.9c-0.3,0-0.6,0-0.8,0c-2.2,0.2-4.2,1.3-5.6,3c-1.4,1.7-2.1,3.9-1.8,6.1l3.6,36.4h-4.7
			c-2.4,0-4.4,2-4.4,4.4v14.4h9.7v12.3c0,1.9-0.4,3.7-1.1,5.2c-1.4,3-3.5,4.6-6.4,4.8c-0.7,0-1.2,0.6-1.2,1.3c0,0.7,0.6,1.2,1.3,1.2
			c0,0,0,0,0.1,0c3.8-0.2,6.8-2.3,8.6-6.2c0.9-1.9,1.3-4,1.3-6.3v-3.4h28.3v3.4c0,2.3,0.4,4.4,1.3,6.3c1.8,3.9,4.7,6,8.6,6.2
			c0,0,0,0,0.1,0c0.7,0,1.2-0.5,1.3-1.2c0-0.7-0.5-1.3-1.2-1.3c-2.9-0.1-5-1.8-6.4-4.8c-0.7-1.6-1.1-3.3-1.1-5.2V68H73.5z M34.2,6.1
			c0.2,0,0.4,0,0.6,0h23.8c3.2,0,5.8,2.6,5.8,5.8c0,0.1,0,0.3,0,0.4L61.7,49H32.6l-3.7-36.5C28.7,9.2,31,6.4,34.2,6.1z M23.5,53.5
			c0-1.1,0.9-1.9,1.9-1.9H69l0,0c0.5,0,1,0.2,1.4,0.6s0.6,0.9,0.6,1.4v12H23.5V53.5z M61.5,74.3H33.2V68h28.3V74.3L61.5,74.3z"/>
	</g>
</g>
</svg>
