<?xml version="1.0" encoding="iso-8859-1"?>
<!-- Uploaded to: SVG Repo, www.svgrepo.com, Generator: SVG Repo Mixer Tools -->
<!DOCTYPE svg PUBLIC "-//W3C//DTD SVG 1.1//EN" "http://www.w3.org/Graphics/SVG/1.1/DTD/svg11.dtd">
<svg fill="#000000" height="800px" width="800px" version="1.1" id="Capa_1" xmlns="http://www.w3.org/2000/svg" xmlns:xlink="http://www.w3.org/1999/xlink" 
	 viewBox="0 0 381 381" xml:space="preserve">
<g>
	<path d="M352.652,0H28.348c-4.142,0-7.5,3.358-7.5,7.5v183.463c0,4.143,3.358,7.5,7.5,7.5h324.304c4.142,0,7.5-3.357,7.5-7.5V7.5
		C360.152,3.358,356.794,0,352.652,0z M345.152,183.463H35.848V15h309.304V183.463z"/>
	<path d="M132.126,293.901c0.314,0,0.622-0.025,0.926-0.063c0.305,0.038,0.612,0.063,0.927,0.063c4.142,0,7.5-3.358,7.5-7.5v-33.357
		c0-20.996-17.081-38.077-38.077-38.077s-38.077,17.081-38.077,38.077v33.357c0,4.142,3.358,7.5,7.5,7.5H132.126z M103.401,229.967
		c12.725,0,23.077,10.353,23.077,23.077v25.857H80.324v-25.857C80.324,240.319,90.677,229.967,103.401,229.967z"/>
	<path d="M220.15,293.901c0.314,0,0.622-0.025,0.927-0.063c0.304,0.038,0.612,0.063,0.927,0.063c4.142,0,7.5-3.358,7.5-7.5v-33.357
		c0-20.996-17.082-38.077-38.077-38.077s-38.077,17.081-38.077,38.077v33.357c0,4.142,3.358,7.5,7.5,7.5H220.15z M191.427,229.967
		c12.725,0,23.077,10.353,23.077,23.077v25.857H168.35v-25.857C168.35,240.319,178.702,229.967,191.427,229.967z"/>
	<path d="M308.176,293.901c0.314,0,0.622-0.025,0.927-0.063c0.304,0.038,0.612,0.063,0.927,0.063c4.142,0,7.5-3.358,7.5-7.5v-33.357
		c0-20.996-17.082-38.077-38.077-38.077c-20.996,0-38.078,17.081-38.078,38.077v33.357c0,4.142,3.358,7.5,7.5,7.5H308.176z
		 M279.452,229.967c12.725,0,23.077,10.353,23.077,23.077v25.857h-46.155v-25.857C256.375,240.319,266.727,229.967,279.452,229.967z
		"/>
	<path d="M60.778,302.065c-20.996,0-38.077,17.082-38.077,38.077V373.5c0,4.142,3.358,7.5,7.5,7.5h59.301
		c0.314,0,0.622-0.025,0.926-0.063c0.305,0.037,0.612,0.063,0.927,0.063c4.142,0,7.5-3.358,7.5-7.5v-33.357
		C98.855,319.147,81.774,302.065,60.778,302.065z M60.778,317.065c12.725,0,23.077,10.353,23.077,23.077V366H37.701v-25.857
		C37.701,327.418,48.054,317.065,60.778,317.065z"/>
	<path d="M147.877,302.065c-20.996,0-38.077,17.082-38.077,38.077V373.5c0,4.142,3.358,7.5,7.5,7.5h59.301
		c0.314,0,0.622-0.025,0.927-0.063c0.304,0.037,0.612,0.063,0.927,0.063c4.142,0,7.5-3.358,7.5-7.5v-33.357
		C185.955,319.147,168.873,302.065,147.877,302.065z M147.877,317.065c12.725,0,23.078,10.353,23.078,23.077V366H124.8v-25.857
		C124.8,327.418,135.152,317.065,147.877,317.065z"/>
	<path d="M234.976,302.065c-20.996,0-38.078,17.082-38.078,38.077V373.5c0,4.142,3.358,7.5,7.5,7.5H263.7
		c0.314,0,0.622-0.025,0.927-0.063c0.304,0.037,0.612,0.063,0.926,0.063c4.142,0,7.5-3.358,7.5-7.5v-33.357
		C273.053,319.147,255.972,302.065,234.976,302.065z M234.976,317.065c12.725,0,23.077,10.353,23.077,23.077V366h-46.155v-25.857
		C211.898,327.418,222.251,317.065,234.976,317.065z"/>
	<path d="M322.075,302.065c-20.996,0-38.077,17.082-38.077,38.077V373.5c0,4.142,3.358,7.5,7.5,7.5h59.301
		c0.314,0,0.622-0.025,0.927-0.063c0.304,0.037,0.612,0.063,0.926,0.063c4.142,0,7.5-3.358,7.5-7.5v-33.357
		C360.152,319.147,343.07,302.065,322.075,302.065z M322.075,317.065c12.725,0,23.077,10.353,23.077,23.077V366h-46.154v-25.857
		C298.998,327.418,309.35,317.065,322.075,317.065z"/>
</g>
</svg>