<svg xmlns="http://www.w3.org/2000/svg" width="30.849" height="30.849" viewBox="0 0 30.849 30.849">
  <path id="Icon_metro-user-check" data-name="Icon metro-user-check" d="M31.491,20.244l-8.676,8.676-2.892-2.892-1.928,1.928,4.82,4.82,10.6-10.6Zm-15.424,4.82h9.64V21.6a18.5,18.5,0,0,0-7.712-2.237v-1.59A8.611,8.611,0,0,0,21.851,10.6c0-4.792,0-8.676-5.784-8.676S10.283,5.812,10.283,10.6a8.611,8.611,0,0,0,3.856,7.165v1.59c-6.54.535-11.568,3.748-11.568,7.633h13.5V25.064Z" transform="translate(-2.571 -1.928)" fill="#707070"/>
</svg>
