<?xml version="1.0" encoding="utf-8"?>
<!-- Generator: Adobe Illustrator 27.0.0, SVG Export Plug-In . SVG Version: 6.00 Build 0)  -->
<svg version="1.1" id="Layer_1" xmlns="http://www.w3.org/2000/svg" xmlns:xlink="http://www.w3.org/1999/xlink" x="0px" y="0px"
	 viewBox="0 0 200 200" style="enable-background:new 0 0 200 200;" xml:space="preserve">
<style type="text/css">
	.st0{fill:#B3B3B3;}
</style>
<g>
	<g>
		<path class="st0" d="M99.4,189.9c-16.8,0-33.6,0-50.4,0c-25,0-37.6-10.4-36.4-30.8c0.8-13.3,2.5-26.6,10.9-38.5
			c5.6-8,13.3-13.6,24.8-15.3c5.1-0.8,9.3-0.2,13.6,2.2c6.8,3.8,13.9,7.1,21.7,9.3c17.8,4.8,34.1,1.4,49.2-6.5
			c6.9-3.6,13.2-7,22.1-4.6c9.1,2.5,16.1,6.9,20.7,13.5c10.4,14.7,13,31,11.4,47.6c-1.4,14.6-14,22.9-32.2,23
			C136.3,190,117.9,189.9,99.4,189.9z"/>
	</g>
	<path class="st0" d="M147.4,57.4c0,26.9-20.5,47.4-47.4,47.4c-26.9,0-47.4-20.5-47.4-47.4c0-26.9,20.5-47.4,47.4-47.4
		C126.9,10.1,147.4,30.6,147.4,57.4z"/>
</g>
</svg>
