<?xml version="1.0"?>
<svg xmlns="http://www.w3.org/2000/svg" xmlns:xlink="http://www.w3.org/1999/xlink" version="1.1" id="Capa_1" x="0px" y="0px" viewBox="0 0 480.063 480.063" style="enable-background:new 0 0 480.063 480.063;" xml:space="preserve" width="30px" height="30px"><g><g>
	<g>
		<g>
			<path d="M457.631,47.872c13.197-0.836,23.219-12.212,22.383-25.409c-0.801-12.645-11.313-22.477-23.983-22.431h-432     C10.807-0.017,0.048,10.665,0,23.888c-0.046,12.67,9.786,23.183,22.431,23.983L3.471,148.968     c-2.287,6.095-3.453,12.554-3.44,19.064c0.013,18.301,8.976,35.438,24,45.888v258.112c0,4.418,3.582,8,8,8h416     c4.418,0,8-3.582,8-8V213.92c15.024-10.45,23.987-27.587,24-45.888c0.013-6.51-1.153-12.969-3.44-19.064L457.631,47.872z      M16.031,24.032c0-4.418,3.582-8,8-8h432c4.418,0,8,3.582,8,8s-3.582,8-8,8h-432C19.613,32.032,16.031,28.45,16.031,24.032z      M184.031,464.032h-96v-192h96V464.032z M440.031,464.032h-240v-200c0-4.418-3.582-8-8-8h-112c-4.418,0-8,3.582-8,8v200h-32     v-242.36c24.495,7.359,50.859-2.857,64-24.8c15.909,26.522,50.307,35.126,76.829,19.217c5.825-3.494,10.966-8.019,15.171-13.353     c19.203,24.301,54.47,28.433,78.77,9.23c3.425-2.707,6.523-5.804,9.23-9.23c19.157,24.28,54.371,28.433,78.651,9.276     c5.334-4.208,9.857-9.352,13.349-15.18c13.141,21.943,39.505,32.159,64,24.8V464.032z M424.031,208.032L424.031,208.032     c-22.08-0.026-39.974-17.92-40-40c0-4.418-3.582-8-8-8s-8,3.582-8,8c0.004,22.091-17.901,40.003-39.992,40.008     c-15.911,0.003-30.311-9.424-36.672-24.008c-1.762-4.052-6.476-5.907-10.527-4.145c-1.856,0.807-3.337,2.289-4.145,4.145     c-8.832,20.249-32.407,29.504-52.656,20.672c-9.252-4.036-16.636-11.42-20.672-20.672c-1.762-4.052-6.476-5.907-10.527-4.145     c-1.856,0.807-3.337,2.289-4.145,4.145c-8.832,20.249-32.407,29.504-52.656,20.672c-14.584-6.361-24.011-20.761-24.008-36.672     c0-4.418-3.582-8-8-8s-8,3.582-8,8c0.197,22.091-17.553,40.159-39.644,40.356c-22.091,0.197-40.159-17.553-40.356-39.644     l3.128-16.464c-0.004-0.069-0.004-0.139,0-0.208l19.512-104.04h314.688l14.808,81.432c0.692,3.801,4.001,6.565,7.864,6.568     c0.483,0.002,0.966-0.044,1.44-0.136c4.328-0.81,7.188-4.964,6.4-9.296l-14.24-78.568h71.76l19.496,104     c0.004,0.069,0.004,0.139,0,0.208l3.144,16.464C463.664,190.532,445.863,208.035,424.031,208.032z" data-original="#000000" class="active-path" data-old_color="#000000" fill="#515151"/>
			<path d="M113.023,64.096L113.023,64.096c-4.383-0.547-8.379,2.562-8.928,6.944l-8,64c-0.547,4.383,2.562,8.379,6.944,8.928     c0.329,0.041,0.66,0.062,0.992,0.064c4.031-0.005,7.428-3.008,7.928-7.008l8-64C120.506,68.644,117.402,64.649,113.023,64.096z" data-original="#000000" class="active-path" data-old_color="#000000" fill="#515151"/>
			<path d="M287.991,151.232l-8-80c-0.442-4.396-4.364-7.602-8.76-7.16c0,0,0,0,0,0c-4.396,0.442-7.602,4.364-7.16,8.76c0,0,0,0,0,0     l8,80c0.411,4.088,3.851,7.2,7.96,7.2h0.8c4.396-0.44,7.604-4.36,7.165-8.756C287.994,151.261,287.993,151.246,287.991,151.232z" data-original="#000000" class="active-path" data-old_color="#000000" fill="#515151"/>
			<path d="M208.867,64.075c-0.012-0.001-0.024-0.002-0.036-0.004c-4.394-0.464-8.332,2.722-8.795,7.116     c-0.002,0.015-0.003,0.029-0.005,0.044l-8,80c-0.462,4.394,2.726,8.33,7.12,8.792c0.026,0.003,0.053,0.005,0.08,0.008h0.8     c4.124,0.021,7.588-3.097,8-7.2l8-80C216.471,68.435,213.263,64.515,208.867,64.075z" data-original="#000000" class="active-path" data-old_color="#000000" fill="#515151"/>
			<path d="M384.031,272.032h-128c-4.418,0-8,3.582-8,8v80c0,4.418,3.582,8,8,8h128c4.418,0,8-3.582,8-8v-80     C392.031,275.613,388.449,272.032,384.031,272.032z M376.031,352.032h-112v-64h112V352.032z" data-original="#000000" class="active-path" data-old_color="#000000" fill="#515151"/>
		</g>
	</g>
</g></g> </svg>
