<?xml version="1.0"?>
<svg xmlns="http://www.w3.org/2000/svg" height="30px" viewBox="0 -28 476 476" width="30px"><g><path d="m430 0h-384c-25.394531.0273438-45.9726562 20.605469-46 46v327.515625c.0273438 25.390625 20.605469 45.96875 46 46h384c25.394531-.03125 45.972656-20.609375 46-46v-327.515625c-.027344-25.394531-20.605469-45.9726562-46-46zm0 407.515625h-384c-18.769531-.023437-33.980469-15.234375-34-34v-250.5h452v250.5c-.019531 18.765625-15.230469 33.976563-34 34zm34-296.5h-452v-65.015625c.019531-18.769531 15.230469-33.980469 34-34h384c18.769531.019531 33.980469 15.230469 34 34zm0 0" data-original="#000000" class="active-path" data-old_color="#000000" fill="#515151"/><path d="m133.507812 38.808594h-.074218c-12.785156-.019532-23.167969 10.328125-23.1875 23.113281-.019532 12.785156 10.328125 23.164063 23.113281 23.183594h.074219c12.726562-.058594 23.019531-10.382813 23.039062-23.109375.019532-12.726563-10.238281-23.082032-22.964844-23.183594zm7.78125 31.050781c-2.082031 2.082031-4.910156 3.25-7.855468 3.242187h-.035156c-6.113282-.066406-11.035157-5.046874-11.023438-11.164062.007812-6.117188 4.945312-11.082031 11.058594-11.128906h.039062c4.507813.011718 8.5625 2.742187 10.273438 6.914062 1.714844 4.167969.746094 8.960938-2.453125 12.136719zm0 0" data-original="#000000" class="active-path" data-old_color="#000000" fill="#515151"/><path d="m56.480469 38.566406h-.082031c-12.785157-.019531-23.164063 10.328125-23.183594 23.113282-.019532 12.789062 10.332031 23.167968 23.117187 23.1875h.070313c12.785156.019531 23.167968-10.328126 23.1875-23.113282.019531-12.789062-10.328125-23.167968-23.113282-23.1875zm7.785156 31.054688c-3.578125 3.554687-9.09375 4.265625-13.453125 1.738281-4.359375-2.53125-6.480469-7.671875-5.175781-12.539063 1.308593-4.867187 5.722656-8.253906 10.761719-8.253906h.039062c4.507812.011719 8.566406 2.742188 10.277344 6.914063 1.710937 4.167969.742187 8.960937-2.453125 12.140625zm0 0" data-original="#000000" class="active-path" data-old_color="#000000" fill="#515151"/><path d="m210.535156 39.046875h-.078125c-12.785156-.019531-23.164062 10.332031-23.183593 23.117187-.019532 12.785157 10.332031 23.164063 23.117187 23.183594h.070313c12.785156.019532 23.167968-10.328125 23.1875-23.113281.019531-12.785156-10.328126-23.167969-23.113282-23.1875zm7.78125 31.054687c-3.574218 3.554688-9.089844 4.265626-13.449218 1.738282-4.363282-2.53125-6.484376-7.671875-5.171876-12.539063 1.308594-4.867187 5.722657-8.253906 10.765626-8.253906h.035156c4.507812.015625 8.5625 2.746094 10.277344 6.914063 1.710937 4.171874.742187 8.964843-2.457032 12.140624zm0 0" data-original="#000000" class="active-path" data-old_color="#000000" fill="#515151"/><path d="m295.324219 230.777344c-21.742188-.0625-42.53125 8.933594-57.363281 24.828125-22.089844-23.53125-56.3125-31.183594-86.320313-19.304688-30.007813 11.875-49.71875 40.878907-49.71875 73.152344s19.710937 61.273437 49.71875 73.152344c30.007813 11.878906 64.230469 4.226562 86.320313-19.304688 24.578124 26.1875 63.777343 32.402344 95.257812 15.105469 31.476562-17.300781 47.242188-53.722656 38.3125-88.511719-8.929688-34.789062-40.289062-59.117187-76.207031-59.117187zm-114.648438 145.351562c-36.824219 0-66.675781-29.851562-66.675781-66.675781s29.855469-66.675781 66.679688-66.675781c36.824218 0 66.675781 29.855468 66.671874 66.679687-.042968 36.804688-29.871093 66.628907-66.675781 66.671875zm114.648438 0c-19.007813.050782-37.121094-8.0625-49.734375-22.285156 18.351562-26.746094 18.351562-62.03125 0-88.78125 20.40625-22.863281 53.769531-28.871094 80.867187-14.5625 27.101563 14.308594 40.957031 45.25 33.582031 74.996094-7.371093 29.746094-34.070312 50.632812-64.714843 50.632812zm0 0" data-original="#000000" class="active-path" data-old_color="#000000" fill="#515151"/><path d="m233.738281 229.636719c2.339844 2.324219 6.117188 2.324219 8.457031 0l36.746094-36.480469c5.925782-5.980469 9.257813-14.054688 9.265625-22.472656-.058593-11.859375-6.746093-22.6875-17.324219-28.046875-10.578124-5.359375-23.265624-4.347657-32.859374 2.621093-12.613282-9.152343-30.003907-7.785156-41.035157 3.21875-12.320312 12.355469-12.3125 32.355469.019531 44.699219zm-28.261719-72.679688c3.691407-3.734375 8.738282-5.808593 13.988282-5.75 5.117187-.058593 10.035156 1.976563 13.609375 5.632813.039062.039062.074219.078125.113281.117187l.539062.535157c2.339844 2.34375 6.140626 2.34375 8.484376 0l.535156-.535157c7.65625-7.640625 20.054687-7.640625 27.710937 0 3.679688 3.667969 5.75 8.648438 5.753907 13.847657 0 5.195312-2.0625 10.179687-5.738282 13.851562l-32.5 32.269531-32.492187-32.253906c-7.640625-7.65625-7.644531-20.054687-.003907-27.714844zm0 0" data-original="#000000" class="active-path" data-old_color="#000000" fill="#515151"/></g> </svg>
