<?xml version="1.0" encoding="UTF-8"?>
<!DOCTYPE svg PUBLIC "-//W3C//DTD SVG 1.1//EN" "http://www.w3.org/Graphics/SVG/1.1/DTD/svg11.dtd">
<!-- Creator: CorelDRAW 2021 (64-Bit) -->
<svg xmlns="http://www.w3.org/2000/svg" xml:space="preserve" width="148.516mm" height="54.3594mm" version="1.1" style="shape-rendering:geometricPrecision; text-rendering:geometricPrecision; image-rendering:optimizeQuality; fill-rule:evenodd; clip-rule:evenodd"
viewBox="0 0 13077.89 4786.75"
 xmlns:xlink="http://www.w3.org/1999/xlink"
 xmlns:xodm="http://www.corel.com/coreldraw/odm/2003">
 <defs>
  <style type="text/css">
   <![CDATA[
    .fil3 {fill:none}
    .fil0 {fill:#EB3438}
    .fil1 {fill:#FEFEFE}
    .fil2 {fill:#EB3438;fill-rule:nonzero}
   ]]>
  </style>
 </defs>
 <g id="Layer_x0020_1">
  <metadata id="CorelCorpID_0Corel-Layer"/>
  <g id="_1692203694304">
   <path class="fil0" d="M234.06 2262.59l0 182.31c0,183.6 61.73,467.46 126.78,630.18 47.37,118.48 97.44,232.8 162.3,341.03 16.04,26.74 33.08,50.56 49.06,77.76 9.51,16.2 15.93,23.19 25.74,37.67 47.44,70.06 107.59,152.53 168.15,212.32 13.28,13.11 18.57,18.73 30.16,33.25 16.41,20.57 43.34,43.95 62.99,63.83 46.48,47.02 148.6,132.51 203.13,173.37 47.72,35.76 97.63,73.62 149.32,104.32 106.61,63.34 137.13,78.76 247.05,133.42 28.07,13.97 55.71,23.5 85.78,37.08 15.05,6.79 31.73,12.7 45.56,17.85 79.45,29.57 155.78,54.56 243.44,73.61 213.11,46.31 327.85,57.77 556.51,57.77 271.65,0 518.53,-66.48 757.53,-161.92 31.96,-12.77 62.81,-26.1 93.21,-41.55 63.9,-32.47 104.89,-50.93 171.97,-89.6 14.13,-8.15 25.9,-14.64 40.17,-23.24 69.38,-41.84 132.82,-86.24 194.68,-138.23l71.78 -62.97c26.06,-20.11 42.95,-42.23 66.65,-64.14 15.49,-14.33 21.12,-14.71 34.73,-32.64 9.99,-13.17 20.41,-22.4 32.69,-34.68l63.49 -67.3c53.5,-55.09 132.39,-162.22 171.03,-225.29 17.22,-28.13 32.67,-53.36 50.65,-80.14l49.42 -81.37c31.54,-58.95 59.36,-117.65 84.54,-181 50.14,-126.16 96.76,-258.73 136.16,-390.93 31.3,-105.02 58.45,-221.64 61.99,-334.33 1.32,-42.06 7.92,-79.14 7.92,-126.83 0,-183.9 -14.94,-366.69 -59.37,-539.06 -47.75,-185.27 -107.84,-344.22 -196.97,-504.52 -8.18,-14.71 -15.56,-24.72 -23.69,-39.71 -43.96,-81.13 -100.24,-155.6 -155.85,-228.57 -8.77,-11.51 -18.77,-22.46 -28.72,-34.69l-149.67 -163.42c-36.36,-30.12 -66.6,-64.67 -103.62,-94.54 -133.03,-107.36 -264.76,-204.56 -419.54,-281.94 -138.52,-69.27 -265.48,-118.47 -415.31,-159.35 -16.25,-4.43 -34.06,-8.46 -53.69,-13.68 -171.47,-45.61 -349.51,-60.79 -529.72,-60.79 -152.28,0 -323.73,26.17 -466.7,56.44 -87.07,18.43 -169.48,45.77 -250.18,74.8 -123.5,44.4 -239.5,104.34 -351.46,171.68 -116.84,70.27 -198.36,134.81 -305.2,217.93l-167.18 161.77c-105.64,104.29 -257.39,328.44 -324.57,460.14 -7.76,15.22 -14.25,26.12 -22.44,40.97 -48.33,87.75 -99.21,234.29 -129.04,330.69 -47.96,155.02 -91.64,404.99 -91.64,566.24z"/>
   <path class="fil0" d="M83.46 2020.84c12.95,-9.49 11.48,-32.86 15.01,-48.4 52.56,-231.16 63.37,-316.52 162.18,-547.22 72.74,-169.85 185.04,-346.3 294.43,-486.33 37.78,-48.35 76.99,-93 119.96,-137.63 11.83,-12.29 16.66,-20.97 29.62,-33.79 12.27,-12.12 21.57,-21.44 33.7,-33.67 52.7,-53.19 156.29,-139.84 209.07,-179.33 12.21,-9.14 23.56,-17.62 36.23,-27.18l278.18 -173.62c118.43,-58.74 236.07,-114.16 362.79,-156.38 133.75,-44.57 280.56,-77.68 424.89,-94.28 214.33,-24.65 441.05,-18.52 652.47,16.64 176,29.28 369.47,82.49 529.59,160 64.85,31.39 121.6,57.99 181.15,92.32 96.66,55.73 240.24,144.82 327.71,223.16 49.44,44.27 99.42,83.5 146.67,130.76 47.28,47.29 87.14,91.54 130.55,142.91 52.79,62.47 103.5,127.95 148.64,196.15 123.53,186.63 228.88,389.22 289.39,606.28 34.29,123.01 82.84,340.86 82.28,468.61l6.38 132.43c7.77,49.48 -7.95,200.51 -14.23,255.88 -29.35,258.97 -98.95,514.37 -217.42,745.63 -15.89,31.02 -29.25,61.51 -47.34,91.37 -18.03,29.75 -33.06,57.49 -51.01,87.71 -92.2,155.17 -212.89,290.2 -339.1,417.86l-71.38 63.37c-74.8,71.24 -188.03,153.99 -276.61,206.89 -236.84,141.43 -415.07,220.94 -679.09,287.92 -73.8,18.72 -156.16,33.63 -232.61,40.85 -287.72,27.16 -477.4,16.56 -753.66,-38.25 -72.6,-14.41 -146.09,-34.85 -215.46,-58 -195.73,-65.31 -385.52,-156.81 -552.38,-267.99 -136.86,-91.2 -275.01,-204.37 -387.44,-325.93l-65.35 -73.36c-61.48,-64.55 -111.3,-140.63 -163.79,-212.72 -59.19,-81.3 -105.4,-170.1 -150.95,-261.21 -61.2,-122.39 -111.64,-254.92 -151.09,-395.83 -29.6,-105.72 -53.23,-223.86 -75.15,-333.07l-19.32 -83.72c-4.17,-13.24 -6.57,-14.05 -9.41,-26.26l-7.93 0c-13.92,59.78 -15.85,52.76 -15.85,118.9 0,42.88 21.18,198.85 29.44,247.99 20.48,121.86 45,226.25 82.03,338.06 45.09,136.15 102.84,266.29 175.6,387.17 61.3,101.86 129.79,195.49 202.64,288.79l258.15 268.95c70.61,59.73 139.42,120.27 216.76,171.63 308.06,204.59 639.9,337.1 1015.19,391.73 22.98,3.35 41.09,4.25 63.97,7.36 42.76,5.81 229.13,16.72 263.85,11.78 22.61,-3.21 47.25,-1.2 70.31,-1.08 41.7,0.22 89.55,-4.9 130.41,-8.3 39.78,-3.29 87.43,-9.46 126.59,-16.09 234.57,-39.68 434.4,-97.42 650.48,-193.66 92.64,-41.26 185.46,-94.64 269.59,-150.51l203.81 -148.91c117.71,-91.97 222.36,-201.76 320.18,-313.93 44.5,-51.05 82.03,-104.17 122.58,-158.81 19.69,-26.53 36.94,-55.1 55.69,-83.02 19.23,-28.66 36.16,-58.27 53.45,-89.22l48.78 -89.93c72.68,-145.36 135.19,-297.27 179.21,-454.9 46.09,-165 72.1,-338.7 78.4,-514.35l0 -168.3c-10.96,-309.13 -82.38,-617.62 -212.63,-888.99 -88.96,-185.33 -196.99,-353.95 -329.09,-511.11 -11.38,-13.53 -19.91,-22.85 -30.64,-36.73 -19.27,-24.91 -107.22,-118.45 -137.61,-143.78l-186.25 -162.51c-26.58,-21.26 -53.05,-41.55 -81.85,-60.82 -128.35,-85.92 -260.27,-167.18 -403.37,-226.77 -120.12,-50.03 -241.04,-91.67 -367.87,-123.55 -103.34,-25.99 -252.84,-53.6 -363.04,-57.06 -18.11,-0.56 -17.11,-2.57 -31.94,-3.73 -22.99,-1.8 -46.27,-3.18 -69.79,-4.18l-183.76 0c-250.48,10.13 -511.29,60.44 -723.97,143.82 -33.96,13.32 -64.03,25.78 -96.27,38.48 -178.05,70.15 -350.1,181.39 -501.62,294.97 -12.91,9.67 -24.26,17.14 -36.16,27.25 -13.22,11.24 -23.97,20.43 -36.91,30.46 -49.28,38.17 -93.58,83.83 -139.6,125.94l-126.83 138.7c-10.87,12.16 -19.07,25.12 -29.9,37.48 -81.97,93.63 -183.31,246.6 -240.05,358.38 -85.32,168.1 -132.01,288.99 -189.36,472.5 -26.93,86.19 -62.9,248.98 -62.9,337.37z"/>
   <path class="fil1" d="M1898.83 2650.12c38.01,-43.62 200.16,-306.93 231.21,-358.2 69.19,-114.24 146.06,-261.18 194.06,-400.44 65.8,-190.87 52.88,-319.42 -46.23,-467.88 -68.17,-102.1 -198.01,-209.88 -383.24,-210.32 -89.36,-0.2 -169.88,19.12 -233.33,59.01 -61.16,38.45 -112.62,87.17 -150.44,146.76 -87.03,137.14 -105.33,309.52 -43.17,477.8 50.7,137.28 124.79,281.53 193.34,397.19 46.46,78.42 177.85,307.1 237.81,356.08z"/>
   <path class="fil0" d="M1894.63 2530.78c25.39,-24.65 179.64,-279.98 197.57,-312.39 57.56,-104.02 123.74,-223.62 165.04,-346.14 53.38,-158.35 52.98,-274.47 -31.52,-404.47 -112.32,-172.82 -353.65,-244.45 -531.19,-134.53 -177.23,109.73 -234.46,328.71 -162.1,538.65 40.36,117.06 109.61,241.58 164.98,346.2 27.36,51.7 172.61,298.45 197.22,312.69z"/>
   <polygon class="fil1" points="798.98,2473.42 1280.29,2473.36 1280.31,2306.21 975.77,2306.1 975.78,1949.62 1216.2,1948.45 1217.7,1781.67 977.28,1781.21 975.74,1474.24 1279.32,1473.13 1280.36,1305.99 799.08,1305.93 "/>
   <path class="fil1" d="M2520.66 1472.87l309.41 0.33 -323.69 834.25c-6.04,29.9 -1.38,128.32 -1.38,165.39 122.61,5.46 379.95,0.62 516.58,0.58l-0.01 -167.24c-92.96,0 -239.26,2.86 -325.98,-0.63 46.54,-135.63 325.98,-810.85 325.98,-847.48l-0.08 -152.14 -500.9 0.03 0.07 166.91z"/>
   <path class="fil1" d="M3497.42 2471.38l176.83 2.1c0,-50.26 -4.46,-480.09 3.6,-508.5 32.92,-116.06 87.93,-270.7 125.48,-393.65 14.99,-49.1 77.47,-234.07 82.82,-265.39l-168.46 0.04c-14.51,23.15 -51.21,173.06 -62.21,212.78 -10.12,36.49 -19.87,71.61 -30.45,108.32 -8.24,28.59 -20.06,83.08 -31.5,106.56l-121.18 -427.33 -187.28 -0.35c7.13,34.59 66.11,211.74 81.89,261.14l124.2 390.66c13.29,40.13 6.27,452.62 6.26,513.62z"/>
   <path class="fil1" d="M1853.93 1384.45c-150.24,22.7 -276.55,159.8 -252.63,335.23 20.65,151.47 159.89,282.16 339.85,256.67 149.13,-21.12 277.25,-162.35 253.01,-337.74 -20.84,-150.77 -161.6,-281.13 -340.23,-254.15z"/>
   <path class="fil0" d="M2322.65 4688.04c-317.89,0 -529.63,-51.49 -804.52,-126.82 -66.18,-18.13 -182.19,-67.37 -245.72,-67.37 17.19,73.82 374.17,179.99 426.59,195.62 83.31,24.82 167.86,38.57 259.01,54.08 84.35,14.35 163.63,13.66 212.54,21.38 3.6,0.57 10.34,2.18 16.81,2.94 12.52,1.49 32.9,2.62 57.11,3.4l154.03 0c27.65,-0.92 50.37,-2.43 62.26,-4.56l138.97 -11.62c58.19,-6.7 118.82,-15.69 171.73,-26.43 132.44,-26.89 264.46,-59.78 389.12,-110.24 194.22,-78.61 181.72,-78.45 340.46,-158.9l187.34 -113.87c53.96,-35.88 118.98,-86.35 170.3,-126.93 19.21,-15.2 35.44,-32.33 53.2,-45.89 10.94,-8.36 14.55,-13.37 24.72,-22.83 10.69,-9.94 16.79,-12.57 27.85,-23.68l196.1 -204.19c55.29,-54.39 170.68,-220.36 211.25,-288.11 13.71,-22.9 35.04,-47.7 35.48,-67.57l-125.91 171.33c-16.17,19.77 -29.18,37.73 -45.73,57.32l-46.34 52.74c-8.35,10.95 -13.36,14.55 -22.83,24.73l-229.12 222.68 -256.11 191.73c-11.23,7.02 -20.5,13.74 -30.89,20.64 -20.39,13.54 -42.29,25.62 -64.2,38.84 -258.41,155.99 -502.14,239.11 -799.46,298.33 -133.84,26.65 -330.98,43.24 -464.04,43.24z"/>
   <path class="fil1" d="M2156.9 3540.74l107.76 0.26 0.98 -479.95c18.71,21.29 125.69,430.65 149.43,479.86l123.42 0.13 1.21 -667.43 -109.38 -0.48 -0.11 395.08 -119.75 -395.2 -153.62 -0.66 0.05 668.39z"/>
   <path class="fil1" d="M2932.97 3550.69c116.37,0.11 187.71,-48.49 187.71,-170.49l0.01 -507.92 -118.28 0.01 0.01 515.85c-0.01,44.02 -19.72,67.73 -65.22,66.47 -46.2,-1.29 -58.35,-29.09 -58.35,-74.4l0 -507.92 -122.48 0.36c0.1,143.9 0.02,286.11 0.01,428.3 -0.01,68.6 -7.42,132.62 27.75,184.47 27.21,40.11 76.31,65.21 148.83,65.28z"/>
   <path class="fil1" d="M612.76 2710.29c-25.18,10.03 -33.88,44.46 25.4,44.53l2881.37 -0.14c54.94,0 403.13,5.51 426.4,-2.37 15.66,-5.3 19.97,-21.44 11,-34.9 -7.36,-11.05 -24.72,-9.58 -40.89,-9.48 -530.99,3 -1070.06,0.13 -1601.31,0.1 -157.1,-0.01 -1686.1,-4.05 -1701.96,2.26z"/>
   <path class="fil1" d="M1150.29 3540.83c9.33,0.27 153.03,4.45 160.87,-3.59 7.74,-11.6 110.26,-601.22 118.77,-664.97l-112.61 0.3c-8.52,61.7 -70.99,493.69 -80.91,511.88l-79.64 -511.12 -123.49 -1.14 117 668.64z"/>
   <path class="fil1" d="M1621.87 3540.74l330.88 0.33 1.45 -95.48 -209.91 -0.16 0 -204.57 165.51 -0.74c4.09,-29.25 1.81,-65.4 1.68,-95.54l-165.55 -0.2 -1.74 -175.98 210.09 -0.57 0.23 -95.37 -332.7 -0.13 0.05 668.42z"/>
   <path class="fil1" d="M3341.64 3540.9l330.99 0.1 1.36 -95.29 -209.94 -0.26 0.01 -204.67 165.61 -0.63c3.86,-29.27 1.71,-65.4 1.59,-95.54l-165.44 -0.18 -1.87 -176.1 210.11 -0.52 0.2 -95.13 -332.68 -0.38 0.05 668.6z"/>
   <path class="fil0" d="M1860.72 1477.23c-102.95,20.55 -192.46,114.96 -165.73,243.85 20.65,99.62 119.03,187.52 244.54,161.98 98.35,-20.01 185.4,-119.08 161.5,-242.96 -18.95,-98.23 -116.43,-187.61 -240.3,-162.87z"/>
  </g>
  <polygon class="fil2" points="5988.85,2271.69 5384.87,2271.69 5384.87,1195.65 5964.77,1195.65 5964.77,1347.29 5563.4,1347.29 5563.4,1651.83 5933.26,1651.83 5933.26,1802.69 5563.4,1802.69 5563.4,2120.82 5988.85,2120.82 "/>
  <path id="_1" class="fil2" d="M6750.35 2271.69l-168.8 0 0 -120.13 -3.07 0c-53.02,92.2 -130.63,138.06 -233.34,138.06 -75.56,0 -134.73,-20.49 -177.51,-61.47 -42.77,-40.98 -64.04,-95.29 -64.04,-162.91 0,-144.97 83.5,-229.5 250.51,-253.57l228.22 -32.27c0,-109.63 -52,-164.45 -156.24,-164.45 -91.45,0 -173.92,31.76 -247.43,94.78l0 -152.41c80.94,-48.15 174.43,-71.97 280.47,-71.97 194.15,0 291.23,95.54 291.23,286.62l0 499.73zm-168.03 -377.55l-161.37 22.53c-49.95,6.67 -87.6,18.7 -112.96,36.38 -25.35,17.93 -37.91,48.92 -37.91,93.49 0,32.53 11.78,59.17 34.84,79.91 23.31,20.75 54.56,31.25 93.49,31.25 53.02,0 97.07,-18.69 131.65,-56.09 34.84,-37.14 52.25,-84.02 52.25,-140.62l0 -66.85z"/>
  <polygon id="_2" class="fil2" points="7530.03,1576.02 7115.09,2135.94 7528.49,2135.94 7528.49,2271.69 6871.24,2271.69 6871.24,2206.38 7295.16,1639.02 6911.71,1639.02 6911.71,1503.27 7530.03,1503.27 "/>
  <path id="_3" class="fil2" d="M8341.99 1503.27l-346.56 891.36c-72.23,159.32 -173.15,238.72 -303.27,238.72 -36.62,0 -67.11,-3.33 -91.44,-9.74l0 -144.71c27.4,8.96 52.51,13.31 75.05,13.31 64.8,0 113.46,-32.01 145.48,-96.04l51.74 -126.03 -305.31 -766.87 192.87 0 182.88 558.38c2.05,6.91 6.66,25.36 13.58,55.33l3.84 0c2.56,-11.27 6.92,-29.46 13.32,-54.04l192.1 -559.67 175.72 0z"/>
  <path id="_4" class="fil2" d="M9743.07 1195.65l-386.51 1076.04 -199.78 0 -379.6 -1076.04 195.17 0 265.62 816.31c8.45,26.13 14.86,56.35 19.47,90.93l3.07 0c3.33,-28.69 10.76,-59.42 21.77,-92.46l271.51 -814.78 189.29 0z"/>
  <path id="_5" class="fil2" d="M10418.25 1934.87l-523.55 0c1.8,70.95 23.82,125.76 65.58,164.18 41.75,38.67 99.13,57.89 172.13,57.89 82.22,0 157.26,-24.59 225.91,-73.51l0 140.11c-69.93,44.06 -162.65,66.08 -277.65,66.08 -112.96,0 -201.58,-34.84 -265.87,-104.51 -64.29,-69.93 -96.56,-168.02 -96.56,-294.55 0,-119.62 35.35,-216.96 106.29,-292.25 70.69,-75.31 158.55,-112.96 263.56,-112.96 105.27,0 186.47,33.81 244.1,101.17 57.38,67.63 86.06,161.37 86.06,281.5l0 66.85zm-168.02 -123.2c-0.51,-62.5 -15.11,-111.16 -44.31,-146 -28.94,-34.58 -68.9,-52 -119.87,-52 -50.2,0 -92.47,18.18 -127.3,54.82 -34.84,36.37 -56.09,84.26 -64.04,143.18l355.52 0z"/>
  <path id="_6" class="fil2" d="M11268.63 2271.69l-173.92 0 0 -432.87c0,-143.69 -50.97,-215.41 -152.4,-215.41 -53.02,0 -96.82,19.72 -131.4,59.69 -34.57,39.7 -51.73,89.9 -51.73,150.35l0 438.25 -174.94 0 0 -768.42 174.94 0 0 127.56 3.07 0c57.37,-97.08 140.62,-145.49 248.96,-145.49 83.76,0 147.53,27.15 191.33,81.45 44.06,54.04 66.09,132.68 66.09,235.13l0 469.76z"/>
  <path id="_7" class="fil2" d="M12151.28 2271.69l-174.17 0 0 -121.67 -3.07 0c-50.47,93.24 -129.1,139.6 -235.65,139.6 -181.6,0 -272.27,-108.86 -272.27,-327.09l0 -459.25 174.17 0 0 441.33c0,138.06 53.28,206.96 159.83,206.96 51.49,0 93.75,-18.96 127.04,-56.87 33.3,-38.16 49.95,-87.85 49.95,-149.33l0 -442.09 174.17 0 0 768.42z"/>
  <path id="_8" class="fil2" d="M13028.3 1934.87l-523.55 0c1.8,70.95 23.82,125.76 65.58,164.18 41.75,38.67 99.13,57.89 172.13,57.89 82.22,0 157.26,-24.59 225.91,-73.51l0 140.11c-69.93,44.06 -162.65,66.08 -277.65,66.08 -112.96,0 -201.58,-34.84 -265.87,-104.51 -64.29,-69.93 -96.56,-168.02 -96.56,-294.55 0,-119.62 35.35,-216.96 106.29,-292.25 70.69,-75.31 158.55,-112.96 263.56,-112.96 105.27,0 186.47,33.81 244.1,101.17 57.38,67.63 86.06,161.37 86.06,281.5l0 66.85zm-168.02 -123.2c-0.51,-62.5 -15.11,-111.16 -44.31,-146 -28.94,-34.58 -68.9,-52 -119.87,-52 -50.2,0 -92.47,18.18 -127.3,54.82 -34.84,36.37 -56.09,84.26 -64.04,143.18l355.52 0z"/>
  <path class="fil2" d="M5570.02 3441.57l-47.13 0 -189.13 -519.51 54.05 0 147.07 415.11c2.72,7.79 5.07,15.59 7.05,23.38 2.1,7.92 3.71,16.08 4.95,24.5l1.36 0c1.24,-6.81 2.98,-14.23 5.07,-22.27 2.23,-8.04 4.95,-16.82 8.42,-26.22l153.26 -414.49 52.2 0 -197.17 519.51z"/>
  <polygon id="_1_0" class="fil2" points="5929.71,3441.57 5929.71,2922.05 6183.04,2922.05 6183.04,2966.58 5977.95,2966.58 5977.95,3156.58 6167.95,3156.58 6167.95,3200.36 5977.95,3200.36 5977.95,3397.77 6194.66,3397.77 6194.66,3441.57 "/>
  <path id="_2_1" class="fil2" d="M6743.37 3441.57l-288.58 -416.97c-3.58,-5.32 -7.17,-10.77 -10.64,-16.33 -3.46,-5.57 -6.3,-11.01 -8.53,-16.33l-1.86 0c0.49,4.33 1,10.39 1.36,18.18 0.37,7.67 0.49,17.32 0.49,28.94l0 402.5 -48.24 0 0 -519.51 53.19 0 283.63 411.9c4.32,6.56 8.29,12.62 11.75,18.31 3.46,5.69 6.68,10.88 9.53,15.71l1.85 0c-0.99,-7.92 -1.73,-16.82 -2.22,-26.72 -0.38,-9.9 -0.63,-20.9 -0.63,-33.03l0 -386.17 48.86 0 0 519.51 -49.97 0z"/>
  <path id="_3_2" class="fil2" d="M7379.76 3232.77c0,145.09 -63.82,217.7 -191.6,217.7 -121.59,0 -182.45,-69.88 -182.45,-209.66l0 -318.76 48.24 0 0 314.43c0,56.9 11.51,99.58 34.52,127.78 22.88,28.32 58.51,42.43 106.62,42.43 90.92,0 136.44,-55.04 136.44,-165.13l0 -319.5 48.24 0 0 310.72z"/>
  <polygon id="_4_3" class="fil2" points="7592.13,3441.57 7592.13,2922.05 7845.46,2922.05 7845.46,2966.58 7640.37,2966.58 7640.37,3156.58 7830.36,3156.58 7830.36,3200.36 7640.37,3200.36 7640.37,3397.77 7857.08,3397.77 7857.08,3441.57 "/>
  <path id="_5_4" class="fil2" d="M8029.75 3365.37c8.66,6.56 18.31,12.37 28.82,17.57 10.39,5.2 21.15,9.52 32.16,13.11 10.88,3.46 22.02,6.06 33.03,7.92 11.13,1.85 21.77,2.72 31.91,2.72 39.21,0 68.65,-7.55 88.19,-22.76 19.55,-15.22 29.32,-36.98 29.32,-65.44 0,-13.73 -2.35,-25.85 -6.93,-36.11 -4.58,-10.27 -11.63,-19.8 -21.27,-28.82 -9.77,-8.91 -21.89,-17.81 -36.61,-26.6 -14.72,-8.78 -32.16,-18.8 -52.2,-29.93 -22.14,-12.13 -41.19,-23.5 -57.03,-34.26 -15.83,-10.76 -28.69,-21.77 -38.71,-33.02 -10.02,-11.26 -17.44,-23.38 -22.15,-36.37 -4.69,-13.11 -7.04,-27.96 -7.04,-44.65 0,-21.03 4.45,-39.83 13.36,-56.53 9.03,-16.7 21.03,-30.93 36.24,-42.55 15.22,-11.75 33.03,-20.78 53.44,-27.09 20.41,-6.31 42.18,-9.4 65.31,-9.4 40.81,0 75.08,5.69 102.54,17.07l0 53.19c-30.68,-17.69 -66.55,-26.47 -107.86,-26.47 -15.46,0 -29.94,1.86 -43.67,5.57 -13.6,3.83 -25.48,9.27 -35.75,16.57 -10.27,7.3 -18.43,16.33 -24.24,27.1 -5.94,10.76 -8.9,23.25 -8.9,37.48 0,13.6 1.98,25.23 5.94,35 4.09,9.77 10.39,19.05 19.29,27.71 8.79,8.78 20.29,17.44 34.77,25.97 14.34,8.54 31.91,18.44 52.69,29.57 21.64,11.62 40.69,22.88 56.77,33.89 16.2,11.01 29.68,22.51 40.45,34.39 10.76,11.99 18.8,24.74 24.12,38.09 5.32,13.48 7.92,28.33 7.92,44.78 0,22.76 -4.21,42.67 -12.62,59.99 -8.53,17.32 -20.29,31.67 -35.5,43.04 -15.21,11.26 -33.27,19.92 -54.3,25.73 -21.03,5.81 -44.04,8.66 -69.14,8.66 -8.17,0 -17.94,-0.62 -29.32,-1.97 -11.38,-1.36 -22.75,-3.35 -34.39,-5.82 -11.62,-2.6 -22.63,-5.69 -33.14,-9.15 -10.51,-3.58 -18.92,-7.42 -25.48,-11.5l0 -56.66z"/>
  <path id="_6_5" class="fil2" d="M9188.22 3232.77c0,145.09 -63.82,217.7 -191.6,217.7 -121.59,0 -182.45,-69.88 -182.45,-209.66l0 -318.76 48.24 0 0 314.43c0,56.9 11.51,99.58 34.52,127.78 22.88,28.32 58.51,42.43 106.62,42.43 90.92,0 136.44,-55.04 136.44,-165.13l0 -319.5 48.24 0 0 310.72z"/>
  <path id="_7_6" class="fil2" d="M9756.58 3441.57l-288.58 -416.97c-3.58,-5.32 -7.17,-10.77 -10.64,-16.33 -3.46,-5.57 -6.3,-11.01 -8.53,-16.33l-1.86 0c0.49,4.33 1,10.39 1.36,18.18 0.37,7.67 0.49,17.32 0.49,28.94l0 402.5 -48.24 0 0 -519.51 53.19 0 283.63 411.9c4.32,6.56 8.29,12.62 11.75,18.31 3.46,5.69 6.68,10.88 9.53,15.71l1.85 0c-0.99,-7.92 -1.73,-16.82 -2.22,-26.72 -0.38,-9.9 -0.63,-20.9 -0.63,-33.03l0 -386.17 48.86 0 0 519.51 -49.97 0z"/>
  <polygon id="_8_7" class="fil2" points="10025.61,3441.57 10025.61,2922.05 10073.85,2922.05 10073.85,3397.77 10282.39,3397.77 10282.39,3441.57 "/>
  <polygon id="_9" class="fil2" points="10502.81,3441.57 10454.57,3441.57 10454.57,2922.05 10502.81,2922.05 "/>
  <path id="_10" class="fil2" d="M11181.63 3441.57l0 -358.71c0,-18.31 1.49,-47.87 4.33,-88.69l-1.49 0c-3.34,10.88 -6.43,20.29 -9.15,28.2 -2.84,8.04 -5.44,14.47 -7.79,19.54l-181.21 399.66 -20.66 0 -181.46 -397.06c-5.32,-12.12 -10.76,-29.07 -16.33,-51.08l-1.49 0c1,11.13 1.73,23.75 2.1,38.09 0.37,14.23 0.49,30.06 0.49,47.37l0 362.67 -46.75 0 0 -519.51 56.89 0 176.26 390.5c3.59,8.29 7.18,16.7 10.64,25.24 3.59,8.53 6.81,17.68 9.65,27.33l2.23 0c3.34,-9.65 6.43,-18.43 9.15,-26.47 2.84,-7.92 6.19,-16.57 10.39,-25.73l177.75 -390.87 53.93 0 0 519.51 -47.5 0z"/>
  <polygon id="_11" class="fil2" points="11496.92,3441.57 11448.69,3441.57 11448.69,2922.05 11496.92,2922.05 "/>
  <polygon id="_12" class="fil2" points="11864.78,2966.58 11864.78,3441.57 11816.55,3441.57 11816.55,2966.58 11666.63,2966.58 11666.63,2922.05 12014.7,2922.05 12014.7,2966.58 "/>
  <polygon id="_13" class="fil2" points="12184.78,3441.57 12184.78,2922.05 12438.1,2922.05 12438.1,2966.58 12233.01,2966.58 12233.01,3156.58 12423.01,3156.58 12423.01,3200.36 12233.01,3200.36 12233.01,3397.77 12449.72,3397.77 12449.72,3441.57 "/>
  <path id="_14" class="fil2" d="M12642.44 3441.57l0 -519.51 136.56 0c88.81,0 155.98,21.27 201.37,63.95 45.39,42.67 68.03,105.63 68.03,188.88 0,40.07 -6.3,76.57 -19.05,109.46 -12.62,32.78 -30.93,60.86 -54.8,84.24 -23.87,23.26 -52.94,41.32 -86.96,53.94 -34.02,12.74 -72.37,19.05 -115.16,19.05l-130 0zm48.24 -474.98l0 431.19 79.66 0c35.75,0 67.79,-4.82 95.87,-14.47 28.2,-9.65 52.07,-23.87 71.62,-42.55 19.54,-18.68 34.51,-41.81 44.78,-69.4 10.27,-27.46 15.34,-59.12 15.34,-94.75 0,-140.02 -74.09,-210.03 -222.16,-210.03l-85.1 0z"/>
  <rect class="fil3" y="-0" width="13077.89" height="4786.75"/>
 </g>
</svg>
