<svg id="Layer_x0020_1" xmlns="http://www.w3.org/2000/svg" width="82.352" height="53.313" viewBox="0 0 82.352 53.313">
  <path id="Path_1277" data-name="Path 1277" d="M8.956,21.159l47.84.029,0,3.778c-.724.229-10.351.054-11.964.054H14.887c-1.914,0-4.062.091-5.961-.011l.03-3.85ZM7.519,25.011c-1.246.047-2.555.01-3.807.01-1.536,0-2.274.189-2.263-1.516l0-19.111c0-1.149-.3-2.68.829-2.879.675-.119,51.55-.02,57.308-.02,5.059,0,4.692-.545,4.692,2.9V23.5c0,1.748-.691,1.518-2.3,1.517-1.252,0-2.505,0-3.758,0-.126-1.055-.024-2.7-.025-3.823,0-1.595-.977-1.431-2.359-1.431H9.854c-3.142,0-2.111.335-2.335,5.247ZM1.89.166C.055.615.053,2.048.053,4.053V21.285c0,1.938-.338,3.8,1.009,4.695,1.094.723,3.769.436,5.294.436h51.7c8.548.006,7.624,1.289,7.624-9.652V5.247c0-2.132.364-3.6-1.035-4.718C63.778-.158,60.654.1,59.331.1H7.636A50.976,50.976,0,0,0,1.89.166Z" transform="translate(-0.015 -0.05)" fill="#707070" fill-rule="evenodd"/>
  <path id="Path_1279" data-name="Path 1279" d="M35768.082,20873.844c.328-.7-.371-1.434-1.031-.955a5.556,5.556,0,0,0-.73,1.578c-1.418,4.146.855,5.525,1.242,7.072a6.132,6.132,0,0,1-.664,3.652c-.324.814.223,1.457.953,1.045.313-.18.6-1.1.75-1.559,1.414-4.373-.949-4.773-1.281-7.086A6.791,6.791,0,0,1,35768.082,20873.844Z" transform="translate(-35716.027 -20843.648)" fill="#707070" fill-rule="evenodd"/>
  <path id="Path_1280" data-name="Path 1280" d="M22434.012,20884.6c.33-.729-.328-1.324-.9-1-.344.186-.654,1.02-.814,1.494a7.132,7.132,0,0,0-.338,3.949c.682,2.775,2.736,2.383.895,6.85-.322.789.063,1.5.863,1.129.369-.168.615-1.012.789-1.525C22436.521,20889.508,22431.217,20890.77,22434.012,20884.6Z" transform="translate(-22400.551 -20854.406)" fill="#707070" fill-rule="evenodd"/>
  <path id="Path_1281" data-name="Path 1281" d="M15771.857,20887.729a.713.713,0,0,0-.918-1.016c-.535.232-2.283,4.361-.453,7.084,1.213,1.8,1.266,2.8.213,5.219-.34.785.166,1.463.859,1.127.346-.164.623-1.029.791-1.523C15774.359,20892.689,15769.057,20893.756,15771.857,20887.729Z" transform="translate(-15747.697 -20857.535)" fill="#707070" fill-rule="evenodd"/>
  <path id="Path_1282" data-name="Path 1282" d="M29123.85,20890.307a.707.707,0,0,0-.914-1.008c-.57.254-2.268,4.492-.457,7.068a4.6,4.6,0,0,1,.814,1.5,5.857,5.857,0,0,1-.6,3.73c-.328.781.068,1.486.857,1.127.535-.244,1.7-3.344,1.021-5.451C29124.047,20895.674,29121.85,20894.385,29123.85,20890.307Z" transform="translate(-29081.086 -20860.115)" fill="#707070" fill-rule="evenodd"/>
  <path id="Path_1283" data-name="Path 1283" d="M9104.661,20877.143c.363-.766-.29-1.346-.9-1-.725.4-1.609,3.543-1.151,5.443a4.863,4.863,0,0,0,.692,1.617c1.172,1.873,1.286,2.609.2,5.227-.328.789.151,1.473.864,1.133.518-.246,1.7-3.377,1.007-5.443C9104.8,20882.385,9102.688,20881.293,9104.661,20877.143Z" transform="translate(-9089.801 -20846.951)" fill="#707070" fill-rule="evenodd"/>
  <path id="Path_1284" data-name="Path 1284" d="M4630.836,2645.284a.688.688,0,0,0-.127,1.172c.4.287,5.6.123,5.706.086a.721.721,0,0,0,.136-1.237A31.6,31.6,0,0,0,4630.836,2645.284Z" transform="translate(-4623.979 -2641.476)" fill="#707070" fill-rule="evenodd"/>
  <path id="Path_1285" data-name="Path 1285" d="M2322.861,2648.379a.71.71,0,0,0-.122,1.236,3.468,3.468,0,0,0,1.714.037.726.726,0,0,0,.13-1.2A3.156,3.156,0,0,0,2322.861,2648.379Z" transform="translate(-2319.197 -2644.603)" fill="#707070" fill-rule="evenodd"/>
  <path id="Path_1286" data-name="Path 1286" d="M56292.211,37473.613c0-.008.012-.137.012-.152.02-.109.012-.172.031-.27.328.121.129-.164.25.484l.047.113c.152-.086.152.082.137-.328-.008-.633-.3-.316-1.148-.422a1.824,1.824,0,0,0,.07.746c.348-.172-.031-.18.262-.59.332.223-.012.285.254.594C56292.188,37473.691,56292.16,37473.789,56292.211,37473.613Z" transform="translate(-56213.102 -37420.824)" fill="#707070" fill-rule="evenodd"/>
  <path id="Path_1287" data-name="Path 1287" d="M57208.82,37472.91l-.227.344c.5-.1.563-.605.715-1.1-.344.051-.223.07-.367.465-.164-.371-.027-.437-.391-.457Z" transform="translate(-57128.836 -37419.941)" fill="#707070" fill-rule="evenodd"/>
  <path id="Path_1288" data-name="Path 1288" d="M58623.988,37476.992c.043.211-.137.223-.152.242-.2-.156-.2-.1-.1-.422C58623.93,37476.863,58623.945,37476.777,58623.988,37476.992Zm-.437.379.566-.035c.152-.578.039-.773-.605-.641Z" transform="translate(-58541.824 -37424.438)" fill="#707070" fill-rule="evenodd"/>
  <path id="Path_1289" data-name="Path 1289" d="M58109.438,37467.6c-.016-.012-.047-.02-.055-.027l-.187-.1c-.023-.023-.133.02-.1-.2.047-.277,0-.055.344-.273-.031-.023.07-.109-.266-.074-.391.035-.266.449-.234.641C58109.188,37467.7,58109.148,37467.746,58109.438,37467.6Z" transform="translate(-58027.926 -37414.719)" fill="#707070" fill-rule="evenodd"/>
  <path id="Path_1290" data-name="Path 1290" d="M55376.9,37285c-.086.156-.051-.031-.078.242l.078.762c.223-.117.137-.117.137-.5S55377.121,37285.121,55376.9,37285Z" transform="translate(-55299.652 -37233.051)" fill="#707070" fill-rule="evenodd"/>
</svg>
