<svg xmlns="http://www.w3.org/2000/svg" width="47.182" height="45.047" viewBox="0 0 47.182 45.047">
  <g id="_0_4_" data-name="0 (4)" transform="translate(-30.3 -49.233)">
    <g id="Group_438" data-name="Group 438" transform="translate(31.006 59.25)">
      <path id="Path_755" data-name="Path 755" d="M79.728,135.709V164.26a32.052,32.052,0,0,1-4.248-2.522V135.709a2.146,2.146,0,0,1,2.124-2.167,2.086,2.086,0,0,1,1.5.634A2.185,2.185,0,0,1,79.728,135.709Z" transform="translate(-70.973 -133.541)" fill="none" stroke="#707070" stroke-linecap="round" stroke-linejoin="round" stroke-miterlimit="10" stroke-width="1"/>
      <path id="Path_756" data-name="Path 756" d="M398.8,161.733a30.585,30.585,0,0,1-4.244,2.514V135.7a2.147,2.147,0,0,1,2.118-2.169,2.1,2.1,0,0,1,1.508.638,2.177,2.177,0,0,1,.618,1.531C398.8,145.718,398.8,152.656,398.8,161.733Z" transform="translate(-357.541 -133.53)" fill="none" stroke="#707070" stroke-linecap="round" stroke-linejoin="round" stroke-miterlimit="10" stroke-width="1"/>
      <rect id="Rectangle_282" data-name="Rectangle 282" width="28.259" height="17.703" transform="translate(8.754 5.347)" fill="none" stroke="#707070" stroke-linecap="round" stroke-linejoin="round" stroke-miterlimit="10" stroke-width="1"/>
      <line id="Line_128" data-name="Line 128" y2="17.703" transform="translate(13.565 5.347)" fill="none" stroke="#707070" stroke-linecap="round" stroke-linejoin="round" stroke-miterlimit="10" stroke-width="1"/>
      <line id="Line_129" data-name="Line 129" y2="17.703" transform="translate(18.224 5.347)" fill="none" stroke="#707070" stroke-linecap="round" stroke-linejoin="round" stroke-miterlimit="10" stroke-width="1"/>
      <line id="Line_130" data-name="Line 130" y2="17.703" transform="translate(22.883 5.347)" fill="none" stroke="#707070" stroke-linecap="round" stroke-linejoin="round" stroke-miterlimit="10" stroke-width="1"/>
      <line id="Line_131" data-name="Line 131" y2="17.703" transform="translate(27.543 5.347)" fill="none" stroke="#707070" stroke-linecap="round" stroke-linejoin="round" stroke-miterlimit="10" stroke-width="1"/>
      <line id="Line_132" data-name="Line 132" y2="17.703" transform="translate(32.202 5.347)" fill="none" stroke="#707070" stroke-linecap="round" stroke-linejoin="round" stroke-miterlimit="10" stroke-width="1"/>
      <path id="Path_757" data-name="Path 757" d="M76.776,369.123a33.488,33.488,0,0,1-4.531,4.222,30.858,30.858,0,0,1-4.264,2.762,29.423,29.423,0,0,1-28.189,0,31.7,31.7,0,0,1-4.264-2.77,33.812,33.812,0,0,1-4.524-4.213" transform="translate(-31.006 -345.387)" fill="none" stroke="#707070" stroke-linecap="round" stroke-linejoin="round" stroke-miterlimit="10" stroke-width="1"/>
    </g>
    <line id="Line_133" data-name="Line 133" y1="14.865" transform="translate(72.261 49.733)" fill="none" stroke="#707070" stroke-linecap="round" stroke-linejoin="round" stroke-miterlimit="10" stroke-width="1"/>
  </g>
</svg>
