<svg xmlns="http://www.w3.org/2000/svg" width="79.823" height="76.139" viewBox="0 0 79.823 76.139">
  <g id="Layer_x0020_1" transform="translate(22.99 0.014)">
    <g id="_2397157105408" transform="translate(-22.99 -0.014)">
      <path id="Path_508" data-name="Path 508" d="M3.034,68.3V24.344H76.787V68.3a4.49,4.49,0,0,1-4.544,4.8H7.583a4.487,4.487,0,0,1-4.544-4.8Zm0-54.559c0-5.44,6.849-4.293,11.365-4.293,0,2.935.312,6.365,4.633,6.721A4.806,4.806,0,0,0,24,11.465V9.443H35.113c0,1.927-.195,3.608,1.186,5.128,2.651,2.912,8.408,1.392,8.408-3.107V9.443H55.822c0,1.927-.195,3.608,1.186,5.128,2.339,2.573,8.408,2.038,8.408-3.614V9.443c4.516,0,11.365-1.147,11.365,4.293v7.579H3.028V13.737Zm57.588-.507c-.713,0-1.771-.8-1.771-1.515V4.393c0-1.609,3.536-2.289,3.536.507,0,3.547.774,8.336-1.765,8.336Zm-22.48-2.021c0-4.037-.819-8.336,1.771-8.336s1.771,4.3,1.771,8.336a1.781,1.781,0,1,1-3.536,0Zm-20.709,0c0-3.547-.774-8.336,1.765-8.336.713,0,1.771.8,1.771,1.515V11.71c0,1.609-3.536,2.289-3.536-.507ZM14.4,5.145V6.409H7.839A7.467,7.467,0,0,0,.01,13.987V68.546c0,4.494,3.475,7.579,8.085,7.579H71.748c4.605,0,8.085-3.085,8.085-7.579V13.987A7.478,7.478,0,0,0,72.51,6.409H65.439c0-4.132-.963-6.315-5.307-6.315-3.915,0-4.293,3.709-4.293,6.315H44.724c0-3.709-.557-6.315-5.307-6.315C35.5.094,35.124,3.8,35.124,6.409H24.01V4.638c0-6.036-9.6-6.537-9.6.507Z" transform="translate(-0.01 0.014)" fill="#ed3237" fill-rule="evenodd"/>
      <path id="Path_509" data-name="Path 509" d="M48.859,56.289c1.036-.574,3.981-.29,5.374-.128l.173,3.681c-.184,1.559.056.245-.312.858l-5.307-.122.067-4.282Zm-3.1-.757c0,9.522-1.481,8.085,9.6,8.085.852,0,1.771-.445,1.771-1.264V54.524a1.433,1.433,0,0,0-1.264-1.264H47.528C46.114,53.26,45.758,54.134,45.758,55.532Z" transform="translate(-20.254 -23.595)" fill="#ed3237" fill-rule="evenodd"/>
      <path id="Path_510" data-name="Path 510" d="M85.379,56.223l.072,4.293-5.312.111c-.217-.356-.317.5-.3-2.133A8.067,8.067,0,0,1,80,56.089c1.392-.156,4.349-.44,5.379.128ZM77.11,54.452v7.829c0,.819.919,1.264,1.771,1.264h7.579c2.829,0,2.021-3.775,2.021-8.085a4.071,4.071,0,0,0-.507-2.021c-2.328-.54-6.983-.251-9.6-.251A1.433,1.433,0,0,0,77.11,54.452Z" transform="translate(-34.178 -23.529)" fill="#ed3237" fill-rule="evenodd"/>
      <path id="Path_511" data-name="Path 511" d="M54.095,108.337c.523.858.4,3.658.128,4.56-1.453.089-4.277.418-5.368-.145l-.072-4.293Zm-8.336-.885c0,10.062-1.509,8.336,10.1,8.336a1.433,1.433,0,0,0,1.264-1.264v-7.829c0-.819-.919-1.264-1.771-1.264H47.775a1.9,1.9,0,0,0-2.021,2.021Z" transform="translate(-20.256 -46.715)" fill="#ed3237" fill-rule="evenodd"/>
      <path id="Path_512" data-name="Path 512" d="M80.083,86.849V82.305h5.307C85.389,89.115,85.724,86.264,80.083,86.849ZM77.3,79.777a34.645,34.645,0,0,0,0,9.6c2.328.54,7.211.251,9.85.251,1.943,0,1.264-5.357,1.264-8.336,0-.852-.446-1.765-1.264-1.765-1.76,0-8.614-.228-9.85.251Z" transform="translate(-34.116 -35.211)" fill="#ed3237" fill-rule="evenodd"/>
      <path id="Path_513" data-name="Path 513" d="M48.764,86.073V82.287h5.307v4.544C51.459,86.614,48.764,87.466,48.764,86.073ZM45.735,81.78c0,2.806-.651,7.829,1.264,7.829,2.639,0,7.523.29,9.85-.251a34.647,34.647,0,0,0,0-9.6c-2.328-.54-7.211-.251-9.851-.251C46.008,79.508,45.735,80.756,45.735,81.78Z" transform="translate(-20.226 -35.193)" fill="#ed3237" fill-rule="evenodd"/>
      <path id="Path_514" data-name="Path 514" d="M80.145,108.332l5.307.128-.061,4.282c-1.091.557-3.926.251-5.362.134-.3-.98-.406-3.67.123-4.549Zm-3.029-1.648v7.829a1.433,1.433,0,0,0,1.264,1.264h8.586c2.211,0,1.515-5.591,1.515-8.336a1.9,1.9,0,0,0-2.021-2.021H78.881c-.852,0-1.771.445-1.771,1.264Z" transform="translate(-34.178 -46.71)" fill="#ed3237" fill-rule="evenodd"/>
      <path id="Path_515" data-name="Path 515" d="M23.551,56.133v4.494l-5.457-.011c-.568-.768-.329-3.475-.306-4.438Zm-8.581-1.1v6.821a1.559,1.559,0,0,0,1.765,1.765h7.829a1.563,1.563,0,0,0,1.771-1.765V55.031a1.565,1.565,0,0,0-1.771-1.771H16.735A1.561,1.561,0,0,0,14.97,55.031Z" transform="translate(-6.64 -23.595)" fill="#ed3237" fill-rule="evenodd"/>
      <path id="Path_516" data-name="Path 516" d="M110.673,56.123a20.093,20.093,0,0,1,5.774.033l-.028,3.9c-.145.579-.033.223-.284.568l-5.463.05Zm-2.779-1.1c0,2.038-.345,7.083.373,7.963.919,1.125,6.5.624,9.227.624a1.559,1.559,0,0,0,1.765-1.765V55.021a1.563,1.563,0,0,0-1.765-1.771h-7.829A1.565,1.565,0,0,0,107.894,55.021Z" transform="translate(-47.783 -23.591)" fill="#ed3237" fill-rule="evenodd"/>
      <path id="Path_517" data-name="Path 517" d="M18,82.349h5.307v4.544H18ZM14.97,80.834v7.579a1.433,1.433,0,0,0,1.264,1.264h8.843a1.433,1.433,0,0,0,1.264-1.264V80.834a1.433,1.433,0,0,0-1.264-1.264H16.234a1.433,1.433,0,0,0-1.264,1.264Z" transform="translate(-6.64 -35.255)" fill="#ed3237" fill-rule="evenodd"/>
      <path id="Path_518" data-name="Path 518" d="M110.989,82.349H116.3v4.544h-5.307Zm-3.029-1.515v7.579a1.433,1.433,0,0,0,1.264,1.264h8.843a1.433,1.433,0,0,0,1.264-1.264V80.834a1.433,1.433,0,0,0-1.264-1.264h-8.843A1.433,1.433,0,0,0,107.96,80.834Z" transform="translate(-47.849 -35.255)" fill="#ed3237" fill-rule="evenodd"/>
      <path id="Path_519" data-name="Path 519" d="M23.356,108.409c.44,1.041.256,3.308.161,4.483a15.114,15.114,0,0,1-5.747.006l.273-4.544,5.307.061ZM14.97,107.2v6.821a1.563,1.563,0,0,0,1.765,1.771h7.829a1.565,1.565,0,0,0,1.771-1.771V107.2a1.561,1.561,0,0,0-1.771-1.765H16.735A1.559,1.559,0,0,0,14.97,107.2Z" transform="translate(-6.64 -46.715)" fill="#ed3237" fill-rule="evenodd"/>
      <path id="Path_520" data-name="Path 520" d="M110.783,112.886c-.095-1.175-.284-3.436.156-4.522l5.312.056c.484.785.284,3.53.262,4.466a9.692,9.692,0,0,1-3,.167,9.5,9.5,0,0,1-2.734-.161ZM107.96,107.2v6.821a1.565,1.565,0,0,0,1.771,1.771h7.829a1.561,1.561,0,0,0,1.765-1.771V107.2a1.559,1.559,0,0,0-1.765-1.765h-7.829A1.563,1.563,0,0,0,107.96,107.2Z" transform="translate(-47.849 -46.715)" fill="#ed3237" fill-rule="evenodd"/>
      <path id="Path_521" data-name="Path 521" d="M112.978,58.257a18.758,18.758,0,0,0,5.747.033c-.423,1.5-.095,2.873-.312,4.466l-5.112-.039C113.067,61.141,113.407,59.816,112.978,58.257Zm-.028,4.549,5.463-.05c.251-.34.139.017.284-.568l.028-3.9a20.093,20.093,0,0,0-5.774-.033Z" transform="translate(-50.061 -25.724)" fill="#ed3237" fill-rule="evenodd"/>
      <path id="Path_522" data-name="Path 522" d="M20.273,110.732l5.257.045a17.756,17.756,0,0,0,.212,4.432,19.374,19.374,0,0,0-5.73.006,22.759,22.759,0,0,0,.262-4.477Zm0-.067L20,115.209a15.115,15.115,0,0,0,5.747-.006c.095-1.175.278-3.441-.161-4.483l-5.307-.061Z" transform="translate(-8.869 -49.033)" fill="#ed3237" fill-rule="evenodd"/>
      <path id="Path_523" data-name="Path 523" d="M113.134,110.79l5.257-.006a22.348,22.348,0,0,0,.262,4.427l-5.73-.117A16.464,16.464,0,0,0,113.134,110.79Zm-.212,4.427a9.516,9.516,0,0,0,2.734.161,9.692,9.692,0,0,0,3-.167c.022-.935.217-3.681-.262-4.466l-5.312-.056c-.44,1.086-.251,3.347-.156,4.522Z" transform="translate(-49.994 -49.046)" fill="#ed3237" fill-rule="evenodd"/>
      <path id="Path_524" data-name="Path 524" d="M19.983,58.465a19.6,19.6,0,0,0,5.735-.045c-.434,1.565-.089,2.879-.329,4.494l-5.106-.039c-.223-1.542.106-2.912-.306-4.41Zm0,0c-.028.969-.262,3.67.306,4.438l5.457.011V58.42Z" transform="translate(-8.83 -25.882)" fill="#ed3237" fill-rule="evenodd"/>
      <path id="Path_525" data-name="Path 525" d="M82.312,62.839v-4.41h5.24c-1.03-.568-3.981-.29-5.379-.128a8.067,8.067,0,0,0-.161,2.406C81.994,63.346,82.095,62.483,82.312,62.839Z" transform="translate(-36.345 -25.735)" fill="#ed3237" fill-rule="evenodd"/>
      <path id="Path_526" data-name="Path 526" d="M87.5,115.066h-5.24V110.65c-.529.88-.423,3.569-.123,4.549C83.578,115.316,86.418,115.623,87.5,115.066Z" transform="translate(-36.297 -49.028)" fill="#ed3237" fill-rule="evenodd"/>
      <path id="Path_527" data-name="Path 527" d="M51.37,115.066c1.091.562,3.915.234,5.368.145.267-.9.4-3.7-.128-4.561v4.416Z" transform="translate(-22.771 -49.028)" fill="#ed3237" fill-rule="evenodd"/>
      <path id="Path_528" data-name="Path 528" d="M56.614,62.841c.368-.613.128.707.312-.858L56.754,58.3c-1.392-.156-4.338-.44-5.374.128h5.234Z" transform="translate(-22.775 -25.737)" fill="#ed3237" fill-rule="evenodd"/>
    </g>
  </g>
</svg>
