<svg xmlns="http://www.w3.org/2000/svg" width="62.615" height="43.842" viewBox="0 0 62.615 43.842">
  <g id="Layer_x0020_1" transform="translate(0 0.001)">
    <path id="Path_1057" data-name="Path 1057" d="M300.8,437.017c-.184-7.306-.025-11.589,5.87-15.815,7.955,5.58,12.957.552,14.6.036a13.435,13.435,0,0,1,4.836,6.029c1.18,3.068,1.064,6.236.935,9.706-5.555,1.69-13.869,1.828-19.92,1.22C304.625,437.942,302.908,437.354,300.8,437.017Zm6.1-17.457c-2.532.943-5.306,4.332-6.243,6.774-1.436,3.743-1.361,7.318-1.175,11.58a44.864,44.864,0,0,0,14.371,1.929c7.8.015,7.891-.482,14.473-1.848.163-4.049.311-8.274-1.186-11.744a14.734,14.734,0,0,0-6.1-6.711c-.542.24-.087,0-.478.272l-1.032.833a9.575,9.575,0,0,1-5.674,1.831,10.314,10.314,0,0,1-6.951-2.916Z" transform="translate(-282.591 -396.003)" fill="#b3b3b3" fill-rule="evenodd"/>
    <path id="Path_1058" data-name="Path 1058" d="M706.2,275.8c2.529.815,3.7,1.923,7.214,1.432a11.923,11.923,0,0,0,5.786-2.469,12.291,12.291,0,0,1,4.044,4.182c2.164,3.451,1.913,7.419,1.812,11.458l-1.4.541c-.511.122-.957.205-1.492.31-.993.194-2.03.352-3.023.466a37.455,37.455,0,0,1-6.661.274c-.46-.908-1.342-9-7.426-12.217.4-1.5,1.028-2.156,1.147-3.978Zm-1.2-2.566c.187,3.969-.756,4.253-1.714,6.9l3.054,2.272c3.112,2.98,4.2,6.508,4.816,10.95,2.835.017,13.994-.219,15.251-2.254.026-4.165.312-7.9-1.289-11.473-1.084-2.421-3.995-5.861-6.171-6.542a15.034,15.034,0,0,1-2.97,2.05,9.93,9.93,0,0,1-9.611-.871A16.432,16.432,0,0,0,705,273.232Z" transform="translate(-663.832 -257.76)" fill="#b3b3b3" fill-rule="evenodd"/>
    <path id="Path_1059" data-name="Path 1059" d="M1.387,291.07c-.589-7.839,1.217-12.626,5.774-15.7.862.388,1.571,1.124,2.731,1.629,4.115,1.793,6.748.9,10.244-.474l1.287,3.712c-3.871,3.3-6.586,6.383-7.244,12.473-3.154-.047-10.5-.2-12.791-1.643Zm14,2.885c.536-6.023,2.719-9.463,7.161-12.744.185-.136.24-.186.4-.323l.261-.247c-1.757-3.227-1.32-2.9-1.788-6.843a9.178,9.178,0,0,1-2.871,2.006c-5.064,2.272-8.37-.132-11.154-2.016-2.1.673-4.268,3.3-5.462,5.333C.267,281.976.068,284.288.071,288.058c0,3.8-.457,3.987,1.029,4.452,3.513,1.1,11.039,1.911,14.292,1.446Z" transform="translate(-0.006 -258.43)" fill="#b3b3b3" fill-rule="evenodd"/>
    <path id="Path_1060" data-name="Path 1060" d="M415.908,149.8a7,7,0,1,1,3.544,13.547c-8.99,2.4-12.518-11.38-3.544-13.548Zm-6.409,8.453a8.4,8.4,0,0,0,9.758,6.507,8.276,8.276,0,0,0,6.614-9.693C423.9,144.347,407.252,147.083,409.5,158.256Z" transform="translate(-386.328 -139.984)" fill="#b3b3b3" fill-rule="evenodd"/>
    <path id="Path_1061" data-name="Path 1061" d="M725.032,9.7c-2.189,9.405-15.725,6.182-13.739-2.949A7.057,7.057,0,0,1,719.638,1.5C722.757,2.2,725.971,5.666,725.032,9.7Zm1.362,0c.878-4.978-2.937-8.789-6.759-9.538A8.287,8.287,0,0,0,709.943,6.8a8.353,8.353,0,1,0,16.451,2.9Z" transform="translate(-669.979 -0.001)" fill="#b3b3b3" fill-rule="evenodd"/>
    <path id="Path_1062" data-name="Path 1062" d="M116.391,2.312c9.288-1.885,11.8,11.71,2.958,13.71A7.013,7.013,0,0,1,111,10.7a6.875,6.875,0,0,1,5.4-8.385Zm-6.739,8.4A8.339,8.339,0,1,0,124.8,4.558a4.406,4.406,0,0,0-2.029-2.148C114.56-2.407,108.5,4.748,109.652,10.71Z" transform="translate(-103.367 -0.781)" fill="#b3b3b3" fill-rule="evenodd"/>
  </g>
</svg>
