<svg xmlns="http://www.w3.org/2000/svg" width="41.168" height="47" viewBox="0 0 41.168 47">
  <g id="Group_859" data-name="Group 859" transform="translate(-1433.915 -115)">
    <g id="Layer_x0020_1" transform="translate(1430 115)">
      <path id="Path_948" data-name="Path 948" d="M40.809,4.686H3.067a.118.118,0,0,0-.079.031.1.1,0,0,0-.034.073V7.537a.1.1,0,0,0,.034.073.118.118,0,0,0,.079.031h4.2v19.3a.1.1,0,0,0,.033.074.122.122,0,0,0,.081.03H36.5a.118.118,0,0,0,.079-.031.1.1,0,0,0,.034-.073V7.641h4.2a.118.118,0,0,0,.079-.031.1.1,0,0,0,.034-.073V4.791a.1.1,0,0,0-.034-.073.118.118,0,0,0-.079-.031ZM3.067,3.218H40.809a1.787,1.787,0,0,1,1.21.461,1.507,1.507,0,0,1,.5,1.111V7.537a1.507,1.507,0,0,1-.5,1.111,1.787,1.787,0,0,1-1.21.461h-2.6V26.941a1.507,1.507,0,0,1-.5,1.111,1.788,1.788,0,0,1-1.21.462H7.377a1.784,1.784,0,0,1-1.207-.462l0,0a1.5,1.5,0,0,1-.5-1.108V9.11h-2.6a1.787,1.787,0,0,1-1.21-.461,1.507,1.507,0,0,1-.5-1.111V4.791a1.507,1.507,0,0,1,.5-1.111,1.787,1.787,0,0,1,1.21-.461Z" transform="translate(2.561 18.486)" fill="#707070"/>
      <ellipse id="Ellipse_20" data-name="Ellipse 20" cx="2.523" cy="2.316" rx="2.523" ry="2.316" transform="translate(10.644 6.541)" fill="#707070"/>
      <path id="Path_949" data-name="Path 949" d="M1.77,14.87a.769.769,0,0,0,.8.734.769.769,0,0,0,.8-.734V5.786L6.123,3.115a.689.689,0,0,0-.031-1.033.846.846,0,0,0-1.125.029L2.048,4.943A.71.71,0,0,0,1.77,5.5v9.37Z" transform="translate(6.301 7.568)" fill="#707070"/>
      <path id="Path_950" data-name="Path 950" d="M3.3,4.009a.865.865,0,0,0-.952.734.865.865,0,0,0,.952.734H26.694a.865.865,0,0,0,.952-.734.865.865,0,0,0-.952-.734H3.3Z" transform="translate(9.502 24.955)" fill="#707070"/>
      <path id="Path_951" data-name="Path 951" d="M3.3,5.073a.865.865,0,0,0-.952.734.865.865,0,0,0,.952.734H26.694a.865.865,0,0,0,.952-.734.865.865,0,0,0-.952-.734H3.3Z" transform="translate(9.502 33.66)" fill="#707070"/>
      <path id="Path_952" data-name="Path 952" d="M3.312,6.562a6.5,6.5,0,0,1-.039-.783A4.571,4.571,0,0,1,4.622,2.456,5.922,5.922,0,0,1,8.077.929,9.515,9.515,0,0,1,9.38.856h.009v0l.055,0a9.443,9.443,0,0,1,1.24.073,5.923,5.923,0,0,1,3.455,1.527,4.572,4.572,0,0,1,1.349,3.323,6.5,6.5,0,0,1-.039.783c1.5,2.085-.439,4.329-.993,4.9a5.914,5.914,0,0,1-2.426,3.185,5,5,0,0,1-2.649.763v0a5,5,0,0,1-2.649-.766,5.914,5.914,0,0,1-2.426-3.185c-.555-.572-2.492-2.816-.993-4.9ZM4.867,5.79a5.287,5.287,0,0,0,.058.821.688.688,0,0,1-.158.6h0c-1.159,1.338.509,3.06.781,3.325a.726.726,0,0,1,.236.344h0a4.511,4.511,0,0,0,1.845,2.553,3.313,3.313,0,0,0,1.755.508v0a3.315,3.315,0,0,0,1.755-.511,4.488,4.488,0,0,0,1.826-2.5.714.714,0,0,1,.214-.368h0c.012-.011,2.048-1.888.838-3.334a.693.693,0,0,1-.188-.584h0a5.344,5.344,0,0,0,.065-.867,3.2,3.2,0,0,0-.918-2.33,4.311,4.311,0,0,0-2.511-1.079,7.783,7.783,0,0,0-1.009-.062q-.042,0-.085,0v0A7.836,7.836,0,0,0,8.3,2.381,4.311,4.311,0,0,0,5.784,3.46a3.2,3.2,0,0,0-.918,2.33Z" transform="translate(15.162 -0.854)" fill="#707070"/>
      <path id="Path_953" data-name="Path 953" d="M2.181,11.069c0-.013-.1-4.359,2.857-5.782h0L10.26,2.642l.578-.293.422.471a2.961,2.961,0,0,0,.405.371,4.812,4.812,0,0,0,2.866.87,4.8,4.8,0,0,0,2.874-.847,2.934,2.934,0,0,0,.4-.366l.423-.466.574.291,5.161,2.615h0c2.956,1.422,2.858,5.769,2.857,5.782l-1.593-.017c0-.01.075-3.479-2.014-4.471L23.2,6.572,18.567,4.226q-.074.061-.15.118a6.492,6.492,0,0,1-3.893,1.18A6.513,6.513,0,0,1,10.64,4.315q-.074-.057-.146-.117L5.807,6.572l-.019.009c-2.089.992-2.014,4.461-2.014,4.471l-1.593.017Z" transform="translate(9.996 11.379)" fill="#707070"/>
    </g>
  </g>
</svg>
