<svg id="Layer_x0020_1" xmlns="http://www.w3.org/2000/svg" width="103.924" height="72.766" viewBox="0 0 103.924 72.766">
  <path id="Path_1057" data-name="Path 1057" d="M301.738,448.548c-.306-12.126-.041-19.234,9.742-26.248,13.2,9.261,21.506.915,24.231.059,2.894,1.682,6.492,6.016,8.026,10.006,1.958,5.092,1.766,10.35,1.551,16.109-9.22,2.806-23.018,3.034-33.062,2.025C308.08,450.083,305.231,449.106,301.738,448.548Zm10.128-28.974c-4.2,1.564-8.807,7.19-10.362,11.243-2.383,6.212-2.259,12.147-1.951,19.22,8.02,2.523,14.888,3.184,23.852,3.2,12.944.025,13.1-.8,24.022-3.067.27-6.721.516-13.733-1.968-19.492-1.815-4.209-6.2-9.312-10.131-11.139-.9.4-.144,0-.793.452l-1.712,1.383a15.892,15.892,0,0,1-9.418,3.039,17.118,17.118,0,0,1-11.538-4.839Z" transform="translate(-271.509 -380.473)" fill="#ed3237" fill-rule="evenodd"/>
  <path id="Path_1058" data-name="Path 1058" d="M708.12,277.59c4.2,1.353,6.135,3.191,11.973,2.376a19.789,19.789,0,0,0,9.6-4.1c2.522,1.327,5.035,4.267,6.712,6.941,3.591,5.728,3.175,12.313,3.008,19.017l-2.323.9c-.848.2-1.588.341-2.477.515-1.648.322-3.369.585-5.018.774a62.165,62.165,0,0,1-11.055.455c-.764-1.507-2.227-14.935-12.325-20.276.67-2.495,1.706-3.578,1.9-6.6Zm-1.985-4.259c.311,6.588-1.254,7.059-2.844,11.445l5.069,3.771c5.164,4.946,6.974,10.8,7.993,18.174,4.706.029,23.226-.364,25.313-3.741.043-6.913.517-13.106-2.139-19.042-1.8-4.018-6.63-9.728-10.243-10.859-1.673,1.1-2.384,2.282-4.929,3.4a16.48,16.48,0,0,1-15.951-1.446,27.277,27.277,0,0,0-2.268-1.7Z" transform="translate(-637.801 -247.651)" fill="#ed3237" fill-rule="evenodd"/>
  <path id="Path_1059" data-name="Path 1059" d="M2.3,302.47c-.978-13.01,2.021-20.956,9.583-26.053,1.43.645,2.607,1.865,4.533,2.7,6.83,2.975,11.2,1.5,17-.787l2.136,6.162c-6.425,5.483-10.931,10.594-12.024,20.7-5.234-.078-17.424-.33-21.23-2.727Zm23.244,4.789c.889-10,4.514-15.705,11.886-21.151.306-.226.4-.309.669-.535l.434-.41c-2.917-5.355-2.191-4.818-2.968-11.357-.583.925-3.219,2.636-4.765,3.33-8.4,3.772-13.892-.219-18.513-3.346-3.491,1.117-7.084,5.473-9.066,8.852-2.779,4.735-3.11,8.572-3.1,14.829.006,6.31-.758,6.617,1.708,7.389,5.83,1.824,18.322,3.172,23.721,2.4Z" transform="translate(-0.006 -248.295)" fill="#ed3237" fill-rule="evenodd"/>
  <path id="Path_1060" data-name="Path 1060" d="M420.274,150.791a11.621,11.621,0,1,1,5.882,22.485c-14.92,3.988-20.776-18.887-5.882-22.486Zm-10.637,14.03a13.933,13.933,0,0,0,16.2,10.8,13.736,13.736,0,0,0,10.978-16.088C433.542,141.737,405.907,146.279,409.637,164.822Z" transform="translate(-371.179 -134.493)" fill="#ed3237" fill-rule="evenodd"/>
  <path id="Path_1061" data-name="Path 1061" d="M735.08,16.1c-3.632,15.611-26.1,10.26-22.8-4.9a11.714,11.714,0,0,1,13.852-8.709C731.3,3.657,736.638,9.4,735.08,16.1Zm2.26,0C738.8,7.836,732.465,1.509,726.122.267a13.753,13.753,0,0,0-16.085,11.024c-1.409,7.632,3.668,15.093,11.048,16.21,8.726,1.321,14.983-4.2,16.256-11.405Z" transform="translate(-643.706 0)" fill="#ed3237" fill-rule="evenodd"/>
  <path id="Path_1062" data-name="Path 1062" d="M120.93,3.292c15.416-3.128,19.583,19.435,4.91,22.755a11.639,11.639,0,0,1-13.866-8.838,11.411,11.411,0,0,1,8.956-13.917ZM109.745,17.23A13.841,13.841,0,1,0,134.89,7.02c-1.193-1.927-1.292-2.348-3.368-3.566C117.892-4.539,107.832,7.335,109.745,17.23Z" transform="translate(-99.314 -0.749)" fill="#ed3237" fill-rule="evenodd"/>
</svg>
