<svg xmlns="http://www.w3.org/2000/svg" width="54.136" height="54.01" viewBox="0 0 54.136 54.01">
  <g id="Layer_x0020_1" transform="translate(0.002 0.011)">
    <path id="Path_1362" data-name="Path 1362" d="M11.653,47.939c-.5-1.3-1.535-1.479-3.319-3.445A25.007,25.007,0,0,1,1.874,31.739c-1.306-7.663.9-15.233,4.534-19.863C15.768-.053,31.52-1.6,42.017,6.3c19.131,14.394,10.306,41.557-9.046,45.68C23.9,53.91,20.964,51.42,16.5,50.715c-.861-.136-2.8-1.727-3.567-2.4l-1.462.971c1.094.483,1.99.394,2.693.713.587.266.437.357.8.866,2.143,3,13.111,3.8,18.057,2.6a28.792,28.792,0,0,0,9.441-4.124A27.076,27.076,0,1,0,.808,20.483,28.063,28.063,0,0,0,.581,32.814,28.137,28.137,0,0,0,9.309,47.5c.873.773.982.812,2.343.437Z" transform="translate(0)" fill="#707070" fill-rule="evenodd"/>
    <path id="Path_1363" data-name="Path 1363" d="M412.416,332.678c-1.12-2.142-1.295-.155-1.627-2.413l.028-27.54c3.556.1,7.216.028,10.783.022,3.915-.006,6.043.181,8.127,2.692,1.734,2.09,2.032,5.863,1.491,9.268-.7,4.407-4.331,4.51-4.79,5.944.646.72.071.7,1.071.559,1.3-.177.416-.05.928-.833,1.357-2.077,1.662-.271,2.8-2.008,2.808-4.3,2.007-10.7-.178-13.685-3.154-4.306-8.968-3.357-15.663-3.357-1.026,0-5.3-.413-5.931.436-.473,1.082-.408,29.506.046,30.811l2.919.1Z" transform="translate(-392.823 -289.232)" fill="#707070" fill-rule="evenodd"/>
    <path id="Path_1364" data-name="Path 1364" d="M579.445,451.738c0-1.324-.24-1.488,1.078-1.577,2.114-.142,5.542-.335,6.382,1.668a3.352,3.352,0,0,1-.914,3.936c-1.045.723-3.395.434-4.882.433-2,0-1.661.632-1.663-4.46Zm-1.374-2.759a40.039,40.039,0,0,0-.1,4.738c-.01,4.816-1.107,3.923,5.69,3.925,6.9,0,5.075-6.847,3.349-8.137C585.624,448.466,580.248,448.513,578.071,448.978Z" transform="translate(-554.875 -430.793)" fill="#707070" fill-rule="evenodd"/>
    <path id="Path_1366" data-name="Path 1366" d="M578.352,790.935c.3-5.123-.878-5.74,1.963-5.72,1.815.013,5.69.379,6.809-.5-.708-1.068-.308-.937-1.95-.952-8.954-.085-8.295-.61-8.255,2.929.011.943-.006,1.886.018,2.829.136,5.428.118,2.387.919,4.522-.51.789-.354.334-.707.783-.242.307-.02-.059-.274.442l-.065.317c.1.042-.083.457.9.1.51-.186.191.021.443-.412.956-1.643-.417-3-.973-4.335a.434.434,0,0,1,.167-.023c.027,0,.132-.015.164-.016l.159,0,.68.044Z" transform="translate(-553.825 -752.466)" fill="#707070" fill-rule="evenodd"/>
  </g>
</svg>
