<svg id="_1658770194496" xmlns="http://www.w3.org/2000/svg" width="26.072" height="23.016" viewBox="0 0 26.072 23.016">
  <path id="Path_1269" data-name="Path 1269" d="M24.977.912c.007,1.323.384,4.595.059,5.61a1.945,1.945,0,0,1-.6.908c-.286.24-.808.341-.96.5-.224.23-.132.986-.132,1.363V21.135c0,.491.029.952-.479.966-.552.016-.489-.517-.489-1.014V10.747a11.648,11.648,0,0,0-.118-2.824c-.1-.109-.717-.273-1-.5a1.883,1.883,0,0,1-.575-.882,8.986,8.986,0,0,1-.054-2.793c.053-.9.054-1.9.146-2.809l.756.007,0,3.931c0,.423,0,.861.477.831.454-.029.424-.432.423-.878l0-3.909h.8V4.871c0,.447-.006.856.473.829.437-.025.432-.433.429-.876l0-3.921.834.008ZM3.061,1.083C4.4.808,5.419,3.6,5.525,5.011c.219,2.906-1.567,2.534-1.771,3.025-.114.275-.047,10.764-.047,12.722,0,.519.117,1.182-.312,1.313-.684.209-.655-.484-.654-.984V9.9c0-.523.019-1.082,0-1.6-.019-.576-.488-.472-.874-.718A2.3,2.3,0,0,1,.909,5.34a6.574,6.574,0,0,1,.612-2.59c.3-.63.861-1.528,1.54-1.667ZM4.61,8.554a2.562,2.562,0,0,0,1.559-1.53,4.952,4.952,0,0,0,.169-2.692c-.048-.336.072-.309.286-.474a9.872,9.872,0,0,1,3.483-1.922A10.354,10.354,0,0,1,15.6,1.754a10.035,10.035,0,0,1,2.259.842,14.024,14.024,0,0,1,1.862,1.219,8.382,8.382,0,0,0,.144,3.075,2.612,2.612,0,0,0,1.614,1.662c-.052,2.623,0,5.534,0,8.211,0,.763.1.788-.206,1.175a10.266,10.266,0,0,1-12.63,2.9,9.917,9.917,0,0,1-3.053-2.352,7.424,7.424,0,0,1-.632-.731c-.378-.529-.346-.458-.344-1.039V8.554ZM19.783,2.687l-1.415-.838a11.2,11.2,0,0,0-10.94.322c-.128.082-.216.123-.346.219s-.223.163-.358.252L6.04,3.13C5.112.079,2.655-1.04,1.007,1.766c-.839,1.428-1.5,4.1-.49,5.715a2.827,2.827,0,0,0,1.326,1.1c-.019.835-.071,12.866.029,13.339a1.388,1.388,0,0,0,2.739-.407c.008-.9-.021-1.8,0-2.7a9.42,9.42,0,0,1,.782.8l.824.724a11.142,11.142,0,0,0,11.8,1.354,10.994,10.994,0,0,0,3.223-2.369.992.992,0,0,1,.094-.1c.108-.09.009-.025.136-.089,0,.763-.068,1.924.013,2.639a1.384,1.384,0,0,0,2.752-.028c.065-.8.007-1.855.007-2.681V13.8c0-.866.086-1.731.05-2.585-.037-.894-.042-1.734-.051-2.636a4.236,4.236,0,0,0,.732-.425,3.139,3.139,0,0,0,1.1-2.578c.018-1.477-.139-3.157-.2-4.654C25.83-.122,25.832-.014,24.418,0L20.8.029c-1.175.009-.891.148-1.015,2.659Z" transform="translate(-0.006 0.01)" fill="#707070" fill-rule="evenodd"/>
  <path id="Path_1273" data-name="Path 1273" d="M1327.675,1001.81a6.258,6.258,0,0,1-3.115,4.657,6.019,6.019,0,0,1-1.07.478,6.218,6.218,0,1,1,4.185-5.135Zm-13.25.047a7.122,7.122,0,0,0,14.155-1.584,7.31,7.31,0,0,0-1.59-3.758,6.557,6.557,0,0,0-1.37-1.264,7.127,7.127,0,0,0-7.6-.4,5.9,5.9,0,0,0-1.062.724l-.866.869A7.117,7.117,0,0,0,1314.425,1001.857Z" transform="translate(-1308.327 -989.36)" fill="#707070" fill-rule="evenodd"/>
</svg>
