<svg xmlns="http://www.w3.org/2000/svg" width="46.266" height="39.043" viewBox="0 0 46.266 39.043">
  <g id="Group_857" data-name="Group 857" transform="translate(-1180.224 -119.001)">
    <g id="Layer_x0020_1" transform="translate(1180.234 119.012)">
      <g id="_3057637201632" transform="translate(-0.01 -0.011)">
        <path id="Path_1560" data-name="Path 1560" d="M109.467,19.691h14.909v3.8h-9.4a.726.726,0,1,0-.09,1.446h9.488v1.446H109.467V24.932h3.073c.912,0,1.13-1.446-.271-1.446h-2.8Zm0-2.892h14.909v1.446H109.467ZM105.22,9.751V30.082c0,1.507,1.462,1.562,1.45.095-.058-7.017.034-14.123-.006-21.15a7.336,7.336,0,0,1,12.448-5.488,7.182,7.182,0,0,1,2.191,5.58c0,.256-.309.478-.566.5-.344.036-.475-.174-.7-.324a6.231,6.231,0,0,0-1.726-4.69l-.608-.566a6.039,6.039,0,0,0-7.991.533,5.886,5.886,0,0,0-1.693,4V28.817c0,.972,1.446,1.051,1.446-.271v-.723h14.909v2.711a.7.7,0,0,0,1.314.32c.247-.5.132-6.371.132-7.187V9.028A7.276,7.276,0,0,1,136.093,2.1,7.568,7.568,0,0,1,138.3,3.594l.814.993a7.943,7.943,0,0,1,1.336,4.175c.006.609-.359.942-.83.83-1.075-.257.165-1.41-1.461-4.05a6.014,6.014,0,0,0-8.588-1.614,5.88,5.88,0,0,0-2,2.517,11.82,11.82,0,0,0-.489,4.752.746.746,0,0,0,.855.764c1.591-.35-.8-3.879,2.148-6.616a4.486,4.486,0,0,1,2.421-1.107,4.275,4.275,0,0,1,2.739.512,4.428,4.428,0,0,1,1.806,1.718c1.057,1.914.172,2.976,1.254,3.987a2.079,2.079,0,0,0,3.505-1.246,7.748,7.748,0,0,0-.873-4.277A8.575,8.575,0,0,0,135.058.243c-3.226-.766-5.681.263-8.024,2.225L126.027,3.63a8.656,8.656,0,0,0-1.651,4.855v6.958H109.467V8.395a4.453,4.453,0,0,1,.66-2.051,4.6,4.6,0,0,1,5.693-1.773A4.649,4.649,0,0,1,118.4,7.506c.326,1.214.086,1.755.4,2.4a2.1,2.1,0,0,0,3.951-.969,8.632,8.632,0,0,0-.842-3.947,8.3,8.3,0,0,0-1.527-2.177c-.079-.086-.048-.06-.126-.144A8.555,8.555,0,0,0,117.6.8a8.666,8.666,0,0,0-7.291.031c-3.624,1.675-5.09,4.985-5.09,8.916Z" transform="translate(-97.99 0.011)" fill="#707070" fill-rule="evenodd"/>
        <path id="Path_1561" data-name="Path 1561" d="M0,441.143c0,1.455.912.2,3.008,1.782,4.535,3.412,6.562-.878,8.468-.878h.9c1.619,0,2.353,2.168,5.241,2.168a4.575,4.575,0,0,0,2.686-.928c1.586-1.2,1.552-1.24,3.277-1.24,1.639,0,2.4,2.168,5.15,2.168,2.717,0,3.568-2.168,5.151-2.168,1.9,0,1.651.068,3.277,1.241,2.039,1.47,4.149,1.1,6.043-.324,1.572-1.182,1.585-.743,2.468-.966a.716.716,0,0,0,.592-.578v-.231a.637.637,0,0,0-.542-.588c-3.432,0-3.133,2.168-5.874,2.168-2.349,0-2.171-2.168-5.783-2.168-2.585,0-2.969,2.168-5.332,2.168-2.6,0-2.233-2.168-5.874-2.168-2.589,0-2.979,2.168-5.331,2.168-2.629,0-2.219-2.168-5.874-2.168-3.363,0-3.881,4.135-7.938,1.071A4.32,4.32,0,0,0,.542,440.6a.694.694,0,0,0-.542.542Z" transform="translate(0.001 -410.327)" fill="#707070" fill-rule="evenodd"/>
        <path id="Path_1562" data-name="Path 1562" d="M163.08,515.987c0,.836.714.721,1.422.837a3.349,3.349,0,0,1,1.547.8c1.935,1.567,4.186,1.88,6.235.337,2.135-1.606,3.2-1.7,5.394-.039a4.659,4.659,0,0,0,5.822.051c.894-.633,1.351-1.217,2.711-1.217,2.366,0,2.8,2.211,5.6,2.211a5.1,5.1,0,0,0,3.253-1.265,4.135,4.135,0,0,1,1.43-.829c.752-.212,1.643.127,1.643-.978,0-.925-2.291-.657-3.678.479-3.867,3.166-4.838-1.021-7.888-1.021a4.323,4.323,0,0,0-3.369,1.058c-4.108,3.1-4.632-1.058-7.745-1.058a4.458,4.458,0,0,0-3.472,1.046c-1.933,1.461-3.088,1.591-5.124.052a4.262,4.262,0,0,0-3.24-1.1c-.256,0-.542.377-.542.633Z" transform="translate(-151.875 -479.93)" fill="#707070" fill-rule="evenodd"/>
        <path id="Path_1563" data-name="Path 1563" d="M423.48,188.275v16.807a.726.726,0,1,0,1.446.091V188.094C424.926,187.15,423.48,186.908,423.48,188.275Z" transform="translate(-394.383 -174.447)" fill="#707070" fill-rule="evenodd"/>
        <path id="Path_1564" data-name="Path 1564" d="M458.99,366.906a.679.679,0,0,0,.723.723c.721,0,.4-.542,2.349-.542,2.095,0,2.327,2.168,5.512,2.168,2.347,0,3.075-1.726,4.662-2.115.7-.17,1.482.062,1.482-.777,0-.613-.434-.723-.9-.723-2.791,0-2.712,2.168-5.6,2.168-2.171,0-2.29-2.168-5.6-2.168-.875,0-2.62.523-2.62,1.265Z" transform="translate(-427.454 -340.517)" fill="#707070" fill-rule="evenodd"/>
        <path id="Path_1565" data-name="Path 1565" d="M-.009,515.883c0,1.077.8.768,1.573.957,1.008.246,1.593,1.1,2.822,1.7,2.409,1.166,5.9-.563,5.338-1.715-.832-1.72-2.317,2.658-6.007-.417-1.433-1.193-3.727-1.443-3.727-.521Z" transform="translate(0.01 -479.916)" fill="#707070" fill-rule="evenodd"/>
        <path id="Path_1566" data-name="Path 1566" d="M0,366.167c0,1.043,1.166.394,2.369,1.155.451.285,1.751,1.375,2.24,1.375.51,0,.723-.329.723-.813,0-.352-.648-.659-.9-.818-.319-.2-.66-.491-.984-.733C2.473,365.605,0,364.809,0,366.166Z" transform="translate(0.001 -340.321)" fill="#707070" fill-rule="evenodd"/>
      </g>
    </g>
  </g>
</svg>
