<svg xmlns="http://www.w3.org/2000/svg" width="47.8" height="45.525" viewBox="0 0 47.8 45.525">
  <g id="_0_10_" data-name="0 (10)" transform="translate(0.65 0.65)">
    <path id="Path_554" data-name="Path 554" d="M67.237,187.414a15.4,15.4,0,0,1-3.182,9.384,9.913,9.913,0,0,1-4.563-3.217,9.951,9.951,0,1,0-4.572,3.217,15.379,15.379,0,0,0,4.572,4.032,15.5,15.5,0,1,1,7.746-13.416Z" transform="translate(-36.237 -158.697)" fill="none" stroke="#707070" stroke-linecap="round" stroke-linejoin="round" stroke-miterlimit="10" stroke-width="1.3"/>
    <path id="Path_555" data-name="Path 555" d="M213.746,187.413a15.5,15.5,0,1,1-27.818-9.376,9.919,9.919,0,0,1,4.572,3.217,9.8,9.8,0,0,0-2.162,6.159,9.907,9.907,0,1,0,9.907-9.907,9.788,9.788,0,0,0-3.182.532,15.453,15.453,0,0,0-4.563-4.032,15.474,15.474,0,0,1,23.246,13.407Z" transform="translate(-167.246 -158.696)" fill="none" stroke="#707070" stroke-linecap="round" stroke-linejoin="round" stroke-miterlimit="10" stroke-width="1.3"/>
    <path id="Path_556" data-name="Path 556" d="M132.248,50.639c0,5.393-6.776,9.565-6.776,9.565s-6.776-4.172-6.776-9.565a3.647,3.647,0,0,1,6.776-1.876,3.647,3.647,0,0,1,6.776,1.876Z" transform="translate(-109.971 -46.988)" fill="none" stroke="#707070" stroke-linecap="round" stroke-linejoin="round" stroke-miterlimit="10" stroke-width="1.3"/>
  </g>
</svg>
