<svg id="Layer_x0020_1" xmlns="http://www.w3.org/2000/svg" width="68.528" height="42.065" viewBox="0 0 68.528 42.065">
  <path id="Path_1025" data-name="Path 1025" d="M.121,2078.792c.043-.153-.021,0,.041-.132l.192.378c.117-.219-.028-.226.122-.427.237.153.012.211.224.455a.776.776,0,0,0-.044-.515l-.473-.03-.183.55c.1-.113.037.008.1-.157.008-.023.016-.1.022-.121Z" transform="translate(0 -2040.615)" fill="#7a7a7a" fill-rule="evenodd"/>
  <path id="Path_1026" data-name="Path 1026" d="M627.059,39.948l2.613.016c.55.113.426.166.6.28C627.815,41.045,627.066,39.952,627.059,39.948Zm-20.62,0h3.288l-.163.453c-.558,0-1.11.013-1.654.014C605.857,40.417,606.916,40.228,606.439,39.947Zm-7.308.432c.169-.246.026-.315.606-.417.086-.015.728-.045.837-.047,1.252-.022,1.252.021,1.7.33l-3.144.134Zm-20.609-.134c.752-.5,2.017-.3,3.21-.3-.509.7-.152.469-1.48.473A4.749,4.749,0,0,1,578.522,40.244Zm49.743-5.435,1.189-.023-.059,3.632-1.275-.007.145-3.6ZM600.3,34.8l.847,0c.164.28.174.116.272.661l-.115,2.957h-1.176a7.081,7.081,0,0,1-.178-1.846c0-.051.015-.842.017-.853l.333-.916Zm-20.339,0,.565,0a5.472,5.472,0,0,1,.16,3.613l-1.173.005-.135-2.977c.244-.8-.122-.312.583-.643Zm27.684.015,1.192-.012c.009,1.109.243,2.666-.344,3.618l-.848-.018-.278-2.686c.087-.76-.088.2.089-.5.017-.066.071-.158.087-.21A1.756,1.756,0,0,1,607.643,34.809Zm-.269-3.335,22.081-.037-.009,1.752H607.4Zm-28.008-.021,22.086-.015-.007,1.751H579.39l-.024-1.736Zm25.85-1.743c.284-3.141,1.428-3.7,4.685-3.686l16.953,0c3.181-.021,4.821.462,4.762,3.819Zm-27.992.034c.006-3.429,1.359-3.736,4.712-3.714l16.952,0c3.467-.02,4.71.214,4.755,3.816l-26.418-.1Zm51.037-5.3c0-2.088-.888-6.819,2.213-6,1.774.466,1.23,5.158,1.007,6.94A7.866,7.866,0,0,0,628.261,24.447Zm-18.015-.067c-.163-5.12-.077-10.358-.118-15.493-.063-7.8,3.935-7.232,8.25-7.232,2.736,0,4.937-.424,6.57,1.229,1.357,1.375,1.754,3.442,1.745,6-.018,5.181.053,10.379-.012,15.535Zm-4.9.955c.011-1.669-.084-3.539-.012-5.174.094-2.146,1.177-2.053,3.122-1.51l.065,5.812A6.112,6.112,0,0,0,605.346,25.335Zm-5.1-.863c0-2.089-.884-6.521,2-6.076,2.145.33,1.291,5.066,1.318,6.932A9.691,9.691,0,0,0,600.248,24.472Zm-18.112-.031c-.084-5.169.006-10.379-.012-15.553-.027-7.681,3.417-7.24,8.288-7.235,4.853.005,8.313-.463,8.286,7.235-.018,5.177.056,10.377-.013,15.534l-16.548.02Zm-4.837.951c-.249-1.9-.717-6.453,1.019-6.942,3.115-.877,2.192,3.905,2.2,5.987a7.8,7.8,0,0,0-3.215.955Zm56.059,5.843c.4-2.333.132-7.2.143-9.933.015-3.736-1.489-4.82-5.118-4.35l-.025-6.652c0-11.109-3.807-10.257-12.806-10.257-9.965,0-6.2,12.081-7.16,16.9-2.029-.641-2.806.072-4.229.743-1.07-1.17-2.037-1.1-3.814-.69l-.043-9.239c0-8.947-7.331-7.716-13-7.714-8.23,0-6.8,10.108-6.79,16.909-2.874-.485-4.913.264-4.913,3.235,0,3.252-.18,8.006.115,11.068l2.087.514a60.468,60.468,0,0,1-.017,6.216c-.16.994-2.267,4.019.479,4.019,4.035,0,6.612.609,4.641-3-.586-1.074-.357-2.65-.359-4.246l15.915-.008.006,1.26c.013,4.989-1.36,2.009-.817,5.8,9.71,1,5.995-1.624,5.587-3.605-.226-1.1-.035-5.248-.045-6.7l2.7,0,0,6.48c0,1.633-4.653,4.983,5.545,3.829.559-4.1-.763.241-.806-7.071l15.928.033,0,2.361c0,2.6-2.612,4.825.593,4.825,7.391,0,5.041-.719,4.231-3.747a55.815,55.815,0,0,1-.085-6.445,1.131,1.131,0,0,1,.225-.1c.057-.02.157-.067.228-.09l1.616-.348Z" transform="translate(-565.049 0.015)" fill="#b3b3b3" fill-rule="evenodd"/>
  <path id="Path_1047" data-name="Path 1047" d="M2269.64,2191.32c.476.281-.582.47,1.47.468.545,0,1.1-.018,1.655-.014l.162-.453Z" transform="translate(-2228.25 -2151.358)" fill="#c1c1c1" fill-rule="evenodd"/>
  <path id="Path_1048" data-name="Path 1048" d="M3400.36,2191.4c.006,0,.754,1.1,3.211.3-.172-.114-.049-.166-.6-.28Z" transform="translate(-3338.35 -2151.437)" fill="#c1c1c1" fill-rule="evenodd"/>
  <path id="Path_1049" data-name="Path 1049" d="M738.76,2189.5a4.75,4.75,0,0,0,1.73.177c1.328,0,.971.222,1.48-.472C740.777,2189.2,739.512,2189,738.76,2189.5Z" transform="translate(-725.288 -2149.24)" fill="#c1c1c1" fill-rule="evenodd"/>
  <path id="Path_1050" data-name="Path 1050" d="M1868.87,2189.732l3.144-.134c-.45-.309-.45-.353-1.7-.33-.109,0-.751.032-.837.047C1868.9,2189.417,1869.039,2189.486,1868.87,2189.732Z" transform="translate(-1834.789 -2149.338)" fill="#c1c1c1" fill-rule="evenodd"/>
</svg>
