<svg xmlns="http://www.w3.org/2000/svg" width="1603.977" height="1603.599" viewBox="0 0 1603.977 1603.599">
  <g id="Layer_x0020_1" transform="translate(-0.07 -0.065)">
    <g id="_2718266608928" transform="translate(0.071 0.065)">
      <path id="Path_1935" data-name="Path 1935" d="M763.17,94.236c161.616-7.3,287.988,30.906,418.015,108.877,40.185,24.1,90.411,65.443,123.31,99,27.7,28.25,36.9,38.88,61.391,71.083,181.155,238.2,192.954,551.179,35.206,807.864-21.982,35.769-32.512,46.5-57.636,77.1-27.562,33.569-32.271,36.1-63.883,68.63l-24.189,20.705c-49.443,37.644-74.465,56.931-133.037,87.024-179.31,92.126-394.128,101.11-581.82,26.581-84.767-33.659-175.934-92.942-240.955-158.8l-42.234-47.677c-32.219-35.979-65.048-88.1-87.744-132.215C77.354,943.134,68.763,727.787,143.122,540.461c29.224-73.622,43.7-88.18,78.185-144.1l58.471-74.033c9.186-8.421,13.921-14.637,22.192-22.787a744.717,744.717,0,0,1,179.9-129.935c79.278-40.641,180.015-70.8,281.3-75.375ZM1603.2,842.316c7.69-185.9-37.144-325.536-126.42-473.506a592.592,592.592,0,0,0-40.888-58.489c-7.28-9.153-15.028-17.744-22.556-27.147-14.65-18.3-45.539-46.71-63.009-64.778L1325,194.13c-4.878-4.486-8.419-6.186-13.3-10.461l-27.675-22.017c-31.861-26.62-81.448-55.709-124.005-77.113C954.124-19.014,715.973-27.036,501.181,58.682,432.633,86.039,337.793,141.043,283.405,191.1L206.3,265.371c-5.241,6.454-5.737,6.712-12.309,13.717L120.178,380.441c-133.5,214.755-158.215,486-61.548,722.724,24.711,60.513,47.4,97.431,79.229,147.86l30.583,42.839c28.83,38.847,62.993,69.793,97.2,103.828,43.517,43.293,122.474,93.969,178.5,122.1,248.057,124.526,560.172,110.588,791.21-43.112,45.233-30.091,50-37.206,85.781-63.326,9.44-6.891,17.548-15.42,26.663-23.045a356.942,356.942,0,0,0,49.943-51.752c11.023-13.836,33.605-36.739,45-54.4,3.79-5.877,7.192-8.957,11.316-14.648,85.688-118.259,142.856-275.352,149.136-427.188Z" transform="translate(-0.071 -0.065)" fill="#ed3237" fill-rule="evenodd"/>
      <path id="Path_1936" data-name="Path 1936" d="M10830.542,3167.36c1.4,19.843,22.991,36.481,33.016,46.5l118.286,118.3c26.92,27,52.273,52.26,79.249,79.257,18.581,18.6,58.734,69.506,97.328,25.544,36.142-41.17-19.655-81.124-36.541-98.156l-196.341-196.677c-5.58-10.266-2.016-479.07-2.126-552.116-.1-67.672-63.5-62.887-81.945-40.07-18.912,23.395-11.108,109.483-11.108,146.62v314.654c0,48.709-3.165,108.838.183,156.144Z" transform="translate(-10074.857 -2358.234)" fill="#ed3237" fill-rule="evenodd"/>
    </g>
  </g>
</svg>
