<svg id="_1724523368768" xmlns="http://www.w3.org/2000/svg" width="59.603" height="40.336" viewBox="0 0 59.603 40.336">
  <path id="Path_1066" data-name="Path 1066" d="M53.764,26.518c.248,1.451.374,11.455-.18,12.35l-15,.013c-.523-.85-.472-10.88-.183-12.4,1.185-.584,10.868-.267,13.593-.287,1.387-.01,1.154-.072,1.773.321ZM30.375,31.333l2.543-.1s.348,4.674.364,5.725c0,.15.02,1.063.008,1.144-.146.957-.083.55-.387.9l-2.509-.088c-.166-.264-.169-.04-.256-.575l.238-7.01Zm-1.473.019c.626.482.21,7.164-.018,7.546l-2.513.114c-.35-.29-.193.076-.344-.642l.117-7.031,2.758.013ZM5.5,26.525c1.046-.631,6.486-.313,7.709-.313,1.884,0,6.189-.344,7.71.246.166,1.915.427,11.347-.2,12.419l-15.11.034L5.5,26.525Zm26.919,1.958c.416.953.517.83.177,1.584l-.562,0c-.239-.49-.638.766-.174-.83C32.194,28.09,32.116,28.808,32.421,28.483Zm-5.506.052c.128.153.3-.143.493.715.351,1.55.141.179-.149.807l-.562.01C26.578,29.795,25.91,30.466,26.916,28.535Zm3.7.773c-.2.57.172.4-.212.613l-.314-1.1c-.021-.43.032-1.15.031-1.625l.878.071c.833-.256.391-.219.251.443-.014.067-.058.19-.078.257a.779.779,0,0,1-.185.274l-.371,1.063Zm-1.946-2.023c.524.789.392.394.317,2.152C27.819,27.808,28.09,27.577,28.664,27.285ZM25,38.9l-2.874.018L22.1,12.477c2.087-1.022,6.24-6.024,8.024-6.449A51.141,51.141,0,0,0,37.141,12.2l.042,26.722-2.9-.011c-.2-5.037,1.5-12.885-4.49-13.01-6.384-.133-4.54,7.946-4.793,13ZM38.35,19.946l9.7-.33c1.561.013,2.41-.249,3.37.47a13.578,13.578,0,0,0,2.554,2.249,14.438,14.438,0,0,0,2.742,2.323l.3.149c.524.337.519-.835.388.734L38.4,25.288l-.285-4.649a1.371,1.371,0,0,1,.232-.693ZM2.584,24.913l5.571-4.8c.075-.079.2-.272.265-.189l1.126-.336c1.454-.113,10.393-.219,11.4.359l-.035,5.325c-.067.026-.165,0-.2.074s-.158.054-.214.06l-18.25-.013c.039-.967-.059-.1.344-.48ZM41.56,9.752,50.7,9.743l.059,9.014-12.329,0c0-8.509-.721-3.362,2.261-5.44.948-.661,1.859-1.1,2.238-1.931-.538-1.273-.695-.513-1.368-1.637ZM20.709,13.911c.338.549.131-.721.282.835.031.321-.011,1.054-.012,1.419a5.633,5.633,0,0,1-.214,2.495l-1.068.233c-1.986.068-9.829.129-10.7-.166-.035-.059-.094-.214-.1-.179l-.14-8.261c.144-.629-.018-.217.3-.561l9,.025c-.53,1.035-.756.545-1.353,1.638.464.854,2.912,2.885,4.009,2.522Zm-2.285-2.889a31.154,31.154,0,0,0,3.019-2.361,10.879,10.879,0,0,0,1.328-1.187l7.018-5.932c1,.487,4.459,3.874,5.622,4.783.7.543.829.731,1.485,1.322l4.3,3.324a2.745,2.745,0,0,1-1.849,1.6c-1.569-1.1-8.87-8.108-9.553-8.08-.5.021-8.751,7.613-9.553,8.088a3.18,3.18,0,0,1-1.812-1.556ZM53.95,8.507C38.435,8.3,42.264,10.551,35.031,4.186c-.848-.746-1.068-.574-1.7-1.563H46.647c2.406.025,7.185,5.638,7.3,5.884ZM5.689,8.482c.24-.382,5.187-5.755,7.219-5.874,4.15-.244,9.121.042,13.378.014L25.242,3.762C21.014,6.947,21.088,8.5,17.426,8.5L5.689,8.482ZM1.928,24.06C.523,25.97.293,23.5.276,26c1.073.416,3.318.107,4.1.4.342,1.2.159,4.528.159,6.345l-.03,5.614a1.081,1.081,0,0,1-.284.613C.242,38.649.256,38.686,0,39.882c1.369.775,25.625.3,29.508.295,4.163-.007,28.087.428,29.854-.209-.227-1.251.258-1.3-4.282-1.01l-.312-6.215a44.551,44.551,0,0,1,.122-6.366c1.685-.4,3.288.114,4.713-.411-.249-1.078-.411-.873-1.3-1.516l-4.848-4.132c-1.895-1.319-1.458-1.661-1.447-4.433.008-1.983-.086-4.144.053-6.1L56.1,9.731c.352-1.5-2.826-3.847-4.044-4.872C49.26,2.5,48.911,1.367,46.67,1.364L33.145,1.4C30.437,1.386,31.521.785,29.789-.01c-1.038.518-.925.583-1.524,1.368-3.313.088-14.36-.451-16.631.079-.72.168-5.058,4.355-6.618,5.692-.811.7-1.841,1.156-1.474,2.4a12.693,12.693,0,0,0,4.046.222l.071,8.938c-.2.966-5.123,4.319-5.732,5.366Z" transform="translate(0 0.01)" fill="#707070" fill-rule="evenodd"/>
  <path id="Path_1089" data-name="Path 1089" d="M1521.235,1053.833l-.059-12.374,15.243.01-.18,12.35c.554-.895.428-10.9.18-12.35-.619-.394-.386-.332-1.773-.321-2.725.02-12.408-.3-13.593.287-.289,1.518-.34,11.548.183,12.4Z" transform="translate(-1482.654 -1014.942)" fill="#737c85" fill-rule="evenodd"/>
  <path id="Path_1090" data-name="Path 1090" d="M1518.526,785.925l19.005.251c.131-1.569.136-.4-.388-.734l-.3-.149.3.149c-.249.422.268.387-1.939.36-3.466-.043-14.8-.167-16.678.124l-.053-5.342,13.072.139c-.96-.719-1.809-.457-3.37-.47l-9.7.33a1.367,1.367,0,0,0-.232.693Z" transform="translate(-1480.123 -760.627)" fill="#535d6a" fill-rule="evenodd"/>
  <path id="Path_1092" data-name="Path 1092" d="M107.9,777.487l-.035,5.325c-3.255-.44-16.827.5-18.322-.359-.4.381-.306-.487-.344.48l18.25.013c.056-.006.175.02.214-.06s.136-.047.2-.074l.035-5.325c-1-.578-9.941-.472-11.4-.359l-1.126.336c-.066-.083-.19.111-.265.189l12.786-.166Z" transform="translate(-86.96 -757.53)" fill="#535d6a" fill-rule="evenodd"/>
  <path id="Path_1093" data-name="Path 1093" d="M234.375,1053.234c.632-1.072.371-10.5.2-12.419-1.521-.59-5.826-.246-7.71-.246-1.223,0-6.663-.319-7.709.313h15.26l-.046,12.353Z" transform="translate(-213.658 -1014.346)" fill="#737c85" fill-rule="evenodd"/>
  <path id="Path_1094" data-name="Path 1094" d="M349.083,396.771c.866.295,8.709.234,10.7.166l1.068-.233a5.634,5.634,0,0,0,.214-2.495c0-.366.043-1.1.012-1.419-.151-1.556.057-.286-.282-.835l.055,4.749-11.763.067.058-9c-.317.343-.155-.068-.3.561l.14,8.261c.009-.035.068.12.1.179Z" transform="translate(-340.082 -378.034)" fill="#737c85" fill-rule="evenodd"/>
  <path id="Path_1095" data-name="Path 1095" d="M6.609,973.619a1.082,1.082,0,0,0,.284-.613l.03-5.614c0-1.817.183-5.143-.159-6.345-.787-.291-3.032.018-4.1-.4.018-2.5.248-.03,1.652-1.939-1.115.708-2.022.615-1.844,2.164a10.4,10.4,0,0,0,4.3.173L6.61,973.619Z" transform="translate(-2.384 -934.64)" fill="#737c85" fill-rule="evenodd"/>
  <path id="Path_1096" data-name="Path 1096" d="M2179.659,1047.6l-.04-12.459c1.189.012,3.786.481,4.563-.532-1.425.525-3.028.01-4.713.411a44.549,44.549,0,0,0-.122,6.366Z" transform="translate(-2124.579 -1008.634)" fill="#737c85" fill-rule="evenodd"/>
  <path id="Path_1098" data-name="Path 1098" d="M1200.626,1252.124l-.018-7.585,2.543-.1-.016,7.772c.3-.353.241.055.387-.9.012-.081-.005-.995-.008-1.144-.016-1.051.353-5.149-.364-5.725l-2.543.1-.238,7.01C1200.457,1252.084,1200.46,1251.86,1200.626,1252.124Z" transform="translate(-1170.233 -1213.196)" fill="#737c85" fill-rule="evenodd"/>
  <path id="Path_1110" data-name="Path 1110" d="M1260.927,1136.461l.562,0c.34-.754.239-.631-.177-1.584-.305.325-.227-.394-.559.751C1260.288,1137.227,1260.688,1135.971,1260.927,1136.461Z" transform="translate(-1228.89 -1106.387)" fill="#fff" fill-rule="evenodd"/>
  <path id="Path_1111" data-name="Path 1111" d="M1051.2,1138.472c.289-.628.5.743.149-.807-.194-.859-.365-.562-.493-.715-1.005,1.931-.337,1.26-.218,1.532Z" transform="translate(-1023.944 -1108.405)" fill="#fff" fill-rule="evenodd"/>
  <path id="Path_1112" data-name="Path 1112" d="M1122.571,1087.16c-.575.292-.846.523.317,2.152C1122.963,1087.554,1123.095,1087.949,1122.571,1087.16Z" transform="translate(-1093.906 -1059.865)" fill="#fff" fill-rule="evenodd"/>
  <path id="Path_1113" data-name="Path 1113" d="M1198.639,1082.953c-.391-.67-.247-.689-.255-1.623.39-.559-.134-.114.639-.414l-.013.974a.778.778,0,0,0,.185-.274c.02-.068.064-.19.078-.257.141-.662.583-.7-.25-.443l-.878-.071c0,.475-.052,1.2-.031,1.625l.314,1.1c.385-.211.016-.042.212-.613Z" transform="translate(-1168.028 -1053.634)" fill="#737c85" fill-rule="evenodd"/>
  <path id="Path_1114" data-name="Path 1114" d="M1208.567,1088.667l.371-1.063.012-.974c-.772.3-.249-.145-.639.414.008.934-.136.953.255,1.623Z" transform="translate(-1177.956 -1059.348)" fill="#fff" fill-rule="evenodd"/>
</svg>
