<svg xmlns="http://www.w3.org/2000/svg" width="53.751" height="50.518" viewBox="0 0 53.751 50.518">
  <g id="Layer_x0020_1" transform="translate(0.03 -0.016)">
    <path id="Path_1344" data-name="Path 1344" d="M45.968,48.759c-1.465.05-1.862.411-2.212-.782a11.109,11.109,0,0,1-.3-2.6l3.164.076-.656,3.3ZM7.65,48.771l-.513-3.361,3.1-.027a12.955,12.955,0,0,1-.362,2.838C9.5,49.109,8.95,48.805,7.65,48.771Zm-2.337-31.5c3.578-1.284,6.215,1.945,6.426,5.139,1,15.155-2.436,14.189,3.969,14.169l24.416.034c1.371-.022,1.655.124,1.825-1.227.081-.644-.013-2.288-.015-3.04-.006-2.491-.287-9.8.339-11.663.937-2.8,4.364-5.081,7.476-2.815,2.837,2.065,2.355,5.473,2.359,9.662.018,17.624,1.38,16.285-8.105,16.285l-36.422,0c-7.621.016-5.98-1.132-6-18.089,0-4.465-.017-7.108,3.73-8.452ZM13.337,28.69l1.77-.035,23.78-.013,1.468.076L40.3,34.977,39.187,35l-24.08.006-1.737-.042-.026-1.413-.007-4.863Zm-3.631-12.9c.039-6.444,2.709-10.228,7.23-12.309C24.709-.094,41.114.423,43.657,11.924c1.059,4.788-.14,4.332-1.174,5.36-2.979,2.959-1.771,7.114-2.257,9.8L13.47,27.062c-.456-2.306.2-4.705-.56-6.962-.952-2.834-2.618-3.023-3.2-4.307Zm-1.581-.308C-.46,15.123,0,21.45,0,29.038c0,3.6-.055,7.249-.009,10.847.049,3.834,1.632,5.425,5.385,5.517a17.194,17.194,0,0,1,.5,2.509l.38,1.739c.551,1.2,4.405,1.276,5.012-.379l.712-3.793,29.732-.088c.358,1.67.455,4.05,1.172,4.665.776.532,3.2.408,4.18.166.053-.055.123-.225.141-.18l.409-.84c.074-.255.165-1.005.205-1.284a17.36,17.36,0,0,1,.5-2.51c3.787-.106,5.335-1.657,5.384-5.522.046-3.6-.009-7.242-.009-10.846,0-7.6.465-13.9-8.128-13.553C45.5,4.769,37.615,0,26.845.016,15.987.035,8.256,4.739,8.125,15.486Z" transform="translate(0 0)" fill="#707070" fill-rule="evenodd"/>
  </g>
</svg>
