<svg xmlns="http://www.w3.org/2000/svg" width="55.994" height="51.655" viewBox="0 0 55.994 51.655">
  <g id="Layer_x0020_1" transform="translate(-0.045 -0.096)">
    <g id="_2431127687728" transform="translate(0.045 0.096)">
      <path id="Path_1301" data-name="Path 1301" d="M4047.9,23868.223l5.064-.01,0,14.092-5.068,0Zm-7.329,11.959c-1.338.209-11.219.418-13.487.5-4.543.16-4.524.434-8.027-2.3l-10.153-7.328c-.531-.365-3.729-2.408-3.854-3.043.6-.645,2.5-.568,3.51-.393a6.056,6.056,0,0,1,2.679,1.383c1.592,1.117,7.99,5.742,9.466,6.613,2.128,1.252,4.506.617,7.077.621,1.706,0,10.44.611,11.455-.723.835-1.094-.224-2.018-.806-2.52-1.093-.939-1.182-.8-2.97-1.088a11.657,11.657,0,0,0-3.419-.355,5.624,5.624,0,0,1-3.488-.145,3.975,3.975,0,0,1-2.11-1.748,22.675,22.675,0,0,1,4.531-1.977c2.49-.49,12.552,2.578,15.814,3.27v9.477c-2.526-.031-1.784-.943-6.219-.246Zm6.3,3.131a37.7,37.7,0,0,0,7.121-.012c.179-.891.169-15.318-.012-16.078a36.463,36.463,0,0,0-7.153,0l-.049,2.555c-1.607-.119-10.684-2.967-14.271-3.27-2.02-.17-3.042.549-4.584,1.193-1.181.5-3.534,1.057-2.323,2.877a6.211,6.211,0,0,0,3.68,2.188,6.768,6.768,0,0,0,2.65-.059,18.928,18.928,0,0,1,5.033.619c.54.246,1.4.848,1.427,1.5-1.938.764-9.646.227-12.421.334-2.7.1-3.356.49-5.4-.947l-8.623-6.057a6.278,6.278,0,0,0-3.136-1.607c-1.675-.3-4.741-.332-4.881,1.469-.075.967.708,1.42,1.3,1.822l15.144,10.867a5.624,5.624,0,0,0,2.186,1.047c1.653.43,9.974-.145,12.356-.229a52.24,52.24,0,0,0,6.214-.311c2.291-.426,3.452.055,5.632.389Z" transform="translate(-3998.131 -23831.818)" fill="#707070" fill-rule="evenodd"/>
      <path id="Path_1302" data-name="Path 1302" d="M47.968,27.612l-.021.054c-.516.518.035-.348-1.152.664-.758.647-.846.076-1.013-.511-.025.038-.362-.258-.086.532a.583.583,0,0,0,.5.331c.874.164,3.536-.211,4.607.048.394.1.2.046.352.137.577.368.755.55.507,1.416-.808.66-4.432.332-5.883.332H3.965c-1.3,0-2.376.234-2.713-.513-.253-.7.114-.99.579-1.233L2.29,28.7a5.02,5.02,0,0,1,.693-.024c.421,0,.841.007,1.262.007a21.822,21.822,0,0,0,2.6-.042l-.218-.925-1.649-.017c-.109-6.2,3.571-12.064,6.411-14.789a21.926,21.926,0,0,1,15.1-6.158c11.866.006,21.7,10.1,21.487,20.864ZM24.327,5.686c-.157-2.128-.186-4.342,2.014-4.46,2.818-.151,2.3,3.1,2.307,4.445l-4.321.015Zm-1.138.15c-1.923.806-2.741.145-7.591,2.612A22.713,22.713,0,0,0,5.726,19.272C4.419,22.183,4.2,24.295,3.839,27.715c-1.51,0-2.668-.191-3.4.813a2.016,2.016,0,0,0,.64,2.925c.958.566,6.6.28,8.2.28h34.4c1.507,0,7.307.281,8.208-.277a2.057,2.057,0,0,0,.627-2.913c-.968-1.283-1.914-.465-3.429-.914a22.872,22.872,0,0,0-3.667-11.712,23.745,23.745,0,0,0-4.866-5.347A23.061,23.061,0,0,0,33.875,6.9c-1.295-.45-3.009-.653-4.11-1.05-.036-1.336.231-2.975-.434-4.055a3.256,3.256,0,0,0-5.714-.008c-.657,1.078-.392,2.715-.429,4.05Z" transform="translate(-0.045 -0.096)" fill="#707070" fill-rule="evenodd"/>
      <path id="Path_1305" data-name="Path 1305" d="M1276.445,19000.525c.011.027.039.076.051.107l.105.639-.935.051.007-.906.715,0A1.148,1.148,0,0,1,1276.445,19000.525Zm-2.759-.1.923.023,0,.852h-.909Zm-.514,0c.289.27.279.43.139.846l-.393-.031C1272.976,19000.605,1272.788,19000.709,1273.172,19000.428Zm-.55.881c-.156-.006-.442,0-.576-.014l-.483-.121.006-.742,1.029-.014Zm-1.548-.883c.2.254.2-.459.223.467.021.721-.09.277-.223.416-.235-.111-.277.209-.278-.416C1270.8,19000.213,1270.875,19000.553,1271.075,19000.426Zm-1.415,0,.826,0,.029.879h-.87Zm-2.029-.014.964.016.011.863-.882.006Zm-.745.895c.176-.758-.079-.537.413-.641C1267.579,19001.211,1267.381,19001.246,1266.885,19001.3Zm-1.825-.887c.223.125.238-.32.3.465.061.746.034.17-.161.408-.22-.07-.3.27-.338-.391C1264.815,19000.139,1264.99,19000.521,1265.061,19000.418Zm-3.334,0-.1.781a3.415,3.415,0,0,1-1.686.035l.012-.781Zm-2.1.355a1.378,1.378,0,0,1,.009.252c-.078.393.03.164-.313.271,0-.006-.289.1-.158-.537.123-.6-.084-.143.3-.324C1259.53,19000.535,1259.583,19000.482,1259.63,19000.771Zm-1.641-.324.883,0-.016.826-.9.01Zm-.62-.035c.228.129.261-.314.3.471.032.633-.13.365-.161.408-.317-.1-.292.32-.325-.389C1257.15,19000.172,1257.311,19000.508,1257.369,19000.412Zm-1.5.021.984.018.029.807-1.042.037Zm-.817.457c-.013-.8.076-.344.359-.463.429.871.01.846,0,.861C1255.1,19001.2,1255.064,19001.6,1255.052,19000.891Zm-1.6-.482c.12.215.148-.367.167.484.018.756-.051.26-.167.42-.25-.1-.312.291-.317-.418S1253.239,19000.533,1253.453,19000.408Zm-6.993-.006c.258.16.328.35.448.9l-.542-.113C1246.2,19000.627,1246.286,19000.662,1246.46,19000.4Zm-2.146.008,1.622.041.118.832-1.735.025,0-.9Zm-2.81.895c.384-.611.02-.613.481-.889.321.482.165.15.091.8Zm-2.316-.863c.434.152.143-.154.5.8l-.542-.068a.959.959,0,0,1-.059-.412A.476.476,0,0,1,1239.188,19000.441Zm38.265.809c-.82.1-.332.014-.517-.137-.18-.582-.132-.484.153-.68C1277.567,19000.814,1277.1,19000.68,1277.453,19001.25Zm-26.8-.834c.42.217.2.111.471.893l-.529-.105A.681.681,0,0,1,1250.656,19000.416Zm-.357.807a10.271,10.271,0,0,1-3.162-.018.876.876,0,0,1,.023-.8l.394.762c1.338-.037.108-.854,2.576-.744Zm24.907-.912.156.945-.371,0a1.126,1.126,0,0,1,.071-.941l-5.8.018.081.9c-.684.084-.412-.57-.287-.916h-2.367c.027.885-.054,1.141-1.029.9l.1-.887-1.371-.008a3.613,3.613,0,0,1,.224.988l-1.857-.107a8.177,8.177,0,0,1,.179-.879l-.614-.006c.146.379.389.959-.32.936l.127-.92-7.483-.018.131.947-.834-.029a1.686,1.686,0,0,1,.153-.918l-1.385,0a2.44,2.44,0,0,1,.159,1l-1.546-.1-.05-.8a2.819,2.819,0,0,0,1.362-.105l-4.443.01c-.075.391-.161.518-.527.49a1.189,1.189,0,0,1,.039-.26c.007-.025.093-.186.116-.227l-3.957,0c.184.572.433.93-.309.941l.113-.926-.539-.014.133.977-.888.018a6.346,6.346,0,0,1,.263-1l-1.345.012c.166.563.109.4.032.932-.877,0-1.8.164-1.314-.937l-1.375.006.218.926a22.059,22.059,0,0,1-2.6.041c-.422,0-.841,0-1.262-.006a4.77,4.77,0,0,0-.693.023l-.458.172,49.326,0c-.153-.09.041-.043-.352-.139-1.071-.258-3.733.115-4.607-.047a.585.585,0,0,1-.5-.33c-.276-.791.062-.494.086-.531.167.586.255,1.154,1.013.51,1.187-1.012.636-.145,1.152-.664l.021-.055-.021.055Z" transform="translate(-1232.051 -18972.707)" fill="#707070" fill-rule="evenodd"/>
      <path id="Path_1306" data-name="Path 1306" d="M6134.039,6927.967c.786-2.991,4.315-7.485,5.85-8.9,4.7-4.325,7.914-4.864,9.008-5.718-5.15.335-11.018,4.959-13.134,9.141C6135.4,6923.2,6133.543,6926.989,6134.039,6927.967Z" transform="translate(-6125.072 -6903.339)" fill="#707070" fill-rule="evenodd"/>
      <path id="Path_1308" data-name="Path 1308" d="M10360.008,19128.188a10.273,10.273,0,0,0,3.162.018l-.169-.8c-2.469-.107-1.238.707-2.577.746l-.394-.762A.879.879,0,0,0,10360.008,19128.188Z" transform="translate(-10344.923 -19099.689)" fill="#707070" fill-rule="evenodd"/>
      <path id="Path_1309" data-name="Path 1309" d="M21200.4,19064.3h-1.455a8.4,8.4,0,0,0-.178.881l1.857.107A3.527,3.527,0,0,0,21200.4,19064.3Z" transform="translate(-21168.07 -19036.691)" fill="#707070" fill-rule="evenodd"/>
      <path id="Path_1310" data-name="Path 1310" d="M19260.391,19132.73a3.445,3.445,0,0,0,1.688-.039l.1-.781-1.77.039Z" transform="translate(-19232.498 -19104.203)" fill="#707070" fill-rule="evenodd"/>
      <path id="Path_1311" data-name="Path 1311" d="M8467.654,19129.8l1.736-.027-.119-.832-1.621-.039Z" transform="translate(-8455.388 -19101.201)" fill="#707070" fill-rule="evenodd"/>
      <path id="Path_1312" data-name="Path 1312" d="M5400.315,19065.777l-1.282-.006c-.485,1.1.438.938,1.314.936C5400.425,19066.176,5400.481,19066.338,5400.315,19065.777Z" transform="translate(-5391.081 -19038.162)" fill="#707070" fill-rule="evenodd"/>
      <path id="Path_1313" data-name="Path 1313" d="M13270.738,19055.926l-.075-.006a2.818,2.818,0,0,1-1.362.109l.051.795,1.545.1A2.464,2.464,0,0,0,13270.738,19055.926Z" transform="translate(-13250.084 -19028.322)" fill="#707070" fill-rule="evenodd"/>
      <path id="Path_1314" data-name="Path 1314" d="M23204.727,19061.5l-.926.012-.1.887C23204.676,19062.639,23204.754,19062.383,23204.727,19061.5Z" transform="translate(-23170.096 -19033.895)" fill="#707070" fill-rule="evenodd"/>
      <path id="Path_1315" data-name="Path 1315" d="M27283.6,19135.764l.488.123c.131.012.418,0,.572.008l-.023-.887-1.029.012Z" transform="translate(-27244.086 -19107.295)" fill="#707070" fill-rule="evenodd"/>
      <path id="Path_1316" data-name="Path 1316" d="M16427.1,19145.961l1.043-.037-.029-.807-.984-.018Z" transform="translate(-16403.311 -19117.375)" fill="#707070" fill-rule="evenodd"/>
      <path id="Path_1317" data-name="Path 1317" d="M24568.094,19129.686l.883-.008-.01-.861-.965-.016Z" transform="translate(-24532.422 -19101.1)" fill="#707070" fill-rule="evenodd"/>
      <path id="Path_1318" data-name="Path 1318" d="M28749.713,19138.176h.906l0-.85-.924-.025Z" transform="translate(-28708.064 -19109.586)" fill="#707070" fill-rule="evenodd"/>
      <path id="Path_1319" data-name="Path 1319" d="M30116.7,19132.25l.936-.051-.105-.641c-.012-.031-.039-.078-.051-.105a.969.969,0,0,0-.057-.105l-.715-.006Z" transform="translate(-30073.08 -19103.635)" fill="#707070" fill-rule="evenodd"/>
      <path id="Path_1320" data-name="Path 1320" d="M25959.3,19138.381l.871,0-.027-.879-.828,0Z" transform="translate(-25921.707 -19109.785)" fill="#707070" fill-rule="evenodd"/>
      <path id="Path_1321" data-name="Path 1321" d="M17885.5,19151.736l.9-.01.018-.828-.883,0Z" transform="translate(-17859.598 -19123.164)" fill="#707070" fill-rule="evenodd"/>
      <path id="Path_1322" data-name="Path 1322" d="M7125.325,19060.887l-.492-.006a6.425,6.425,0,0,0-.263,1l.888-.016Z" transform="translate(-7114.252 -19033.277)" fill="#707070" fill-rule="evenodd"/>
      <path id="Path_1323" data-name="Path 1323" d="M15110.356,19059.482l-.55,0a1.69,1.69,0,0,0-.153.92l.834.027Z" transform="translate(-15087.768 -19031.879)" fill="#707070" fill-rule="evenodd"/>
      <path id="Path_1324" data-name="Path 1324" d="M15881.932,19123.326c.008-.014.428.01,0-.861-.283.119-.373-.342-.359.465C15881.584,19123.641,15881.619,19123.238,15881.932,19123.326Z" transform="translate(-15858.571 -19094.746)" fill="#707070" fill-rule="evenodd"/>
      <path id="Path_1325" data-name="Path 1325" d="M22651.17,19124.957c.2-.236.221.338.16-.408-.062-.783-.078-.34-.3-.463-.072.1-.246-.281-.2.482C22650.869,19125.227,22650.949,19124.889,22651.17,19124.957Z" transform="translate(-22618.02 -19096.375)" fill="#707070" fill-rule="evenodd"/>
      <path id="Path_1326" data-name="Path 1326" d="M14559.6,19128.273c.117-.162.186.334.168-.42-.021-.852-.048-.27-.168-.484-.214.127-.321-.227-.316.486S14559.354,19128.176,14559.6,19128.273Z" transform="translate(-14538.201 -19099.668)" fill="#707070" fill-rule="evenodd"/>
      <path id="Path_1327" data-name="Path 1327" d="M26754.318,19122.717c.131-.141.242.3.223-.418-.029-.926-.021-.213-.223-.467-.2.125-.281-.211-.279.467C26754.041,19122.922,26754.082,19122.6,26754.318,19122.717Z" transform="translate(-26715.293 -19094.115)" fill="#707070" fill-rule="evenodd"/>
      <path id="Path_1328" data-name="Path 1328" d="M17351.377,19123.582c.031-.041.191.227.16-.406-.039-.785-.072-.344-.3-.471-.061.094-.221-.242-.186.488C17351.084,19123.9,17351.061,19123.484,17351.377,19123.582Z" transform="translate(-17325.92 -19095)" fill="#707070" fill-rule="evenodd"/>
      <path id="Path_1329" data-name="Path 1329" d="M18701.559,19146.09c.342-.107.234.119.311-.27a1.369,1.369,0,0,0-.008-.252c-.047-.289-.1-.236-.162-.338-.383.182-.176-.277-.3.322C18701.27,19146.191,18701.555,19146.086,18701.559,19146.09Z" transform="translate(-18674.281 -19117.506)" fill="#707070" fill-rule="evenodd"/>
      <path id="Path_1330" data-name="Path 1330" d="M9823.06,19124.807l.542.113c-.119-.553-.189-.744-.447-.9C9822.98,19124.275,9822.893,19124.24,9823.06,19124.807Z" transform="translate(-9808.745 -19096.324)" fill="#707070" fill-rule="evenodd"/>
      <path id="Path_1331" data-name="Path 1331" d="M12739.116,19132.709l.529.1c-.271-.781-.051-.674-.471-.893A.688.688,0,0,0,12739.116,19132.709Z" transform="translate(-12720.569 -19104.211)" fill="#707070" fill-rule="evenodd"/>
      <path id="Path_1332" data-name="Path 1332" d="M30920.184,19145.93c.186.15-.3.23.516.135-.355-.568.113-.434-.365-.814C30920.051,19145.445,30920,19145.346,30920.184,19145.93Z" transform="translate(-30875.299 -19117.525)" fill="#707070" fill-rule="evenodd"/>
      <path id="Path_1333" data-name="Path 1333" d="M7939.989,19063.2l-.2.018-.113.928C7940.422,19064.127,7940.174,19063.77,7939.989,19063.2Z" transform="translate(-7928.182 -19035.588)" fill="#707070" fill-rule="evenodd"/>
      <path id="Path_1334" data-name="Path 1334" d="M6527.26,19133.848l.572-.086c.074-.652.23-.32-.091-.8C6527.28,19133.236,6527.645,19133.238,6527.26,19133.848Z" transform="translate(-6517.807 -19105.252)" fill="#707070" fill-rule="evenodd"/>
      <path id="Path_1335" data-name="Path 1335" d="M4853.312,19150.445l.543.068c-.354-.955-.062-.648-.5-.8a.484.484,0,0,0-.105.32A.969.969,0,0,0,4853.312,19150.445Z" transform="translate(-4846.221 -19121.977)" fill="#707070" fill-rule="evenodd"/>
      <path id="Path_1336" data-name="Path 1336" d="M28219.4,19141.635l.395.033c.137-.418.15-.578-.143-.848C28219.271,19141.1,28219.459,19141,28219.4,19141.635Z" transform="translate(-28178.533 -19113.102)" fill="#707070" fill-rule="evenodd"/>
      <path id="Path_1337" data-name="Path 1337" d="M20677.563,19060.9l-.2.018-.125.918C20677.953,19061.859,20677.711,19061.281,20677.563,19060.9Z" transform="translate(-20647.297 -19033.297)" fill="#707070" fill-rule="evenodd"/>
      <path id="Path_1338" data-name="Path 1338" d="M25438.727,19060.689l-.207-.02c-.125.346-.4,1,.289.92Z" transform="translate(-25401.52 -19033.066)" fill="#707070" fill-rule="evenodd"/>
      <path id="Path_1339" data-name="Path 1339" d="M29596.572,19060.1l-.143,0a1.123,1.123,0,0,0-.07.941h.373Z" transform="translate(-29553.42 -19032.496)" fill="#707070" fill-rule="evenodd"/>
      <path id="Path_1340" data-name="Path 1340" d="M24053.4,19303.9c.494-.059.7-.094.414-.643C24053.322,19303.367,24053.578,19303.145,24053.4,19303.9Z" transform="translate(-24018.568 -19275.307)" fill="#707070" fill-rule="evenodd"/>
      <path id="Path_1341" data-name="Path 1341" d="M10779.065,19063.4l-.371,0c-.024.041-.109.2-.117.227a1.3,1.3,0,0,0-.04.262C10778.9,19063.916,10778.99,19063.789,10779.065,19063.4Z" transform="translate(-10762.928 -19035.791)" fill="#707070" fill-rule="evenodd"/>
    </g>
  </g>
</svg>
