<?xml version="1.0" encoding="UTF-8"?>
<!DOCTYPE svg PUBLIC "-//W3C//DTD SVG 1.1//EN" "http://www.w3.org/Graphics/SVG/1.1/DTD/svg11.dtd">
<!-- Creator: CorelDRAW 2021 (64-Bit) -->
<svg xmlns="http://www.w3.org/2000/svg" xml:space="preserve" width="111.702mm" height="111.562mm" version="1.1" style="shape-rendering:geometricPrecision; text-rendering:geometricPrecision; image-rendering:optimizeQuality; fill-rule:evenodd; clip-rule:evenodd"
viewBox="0 0 1310.86 1309.21"
 xmlns:xlink="http://www.w3.org/1999/xlink"
 xmlns:xodm="http://www.corel.com/coreldraw/odm/2003">
 <defs>
  <style type="text/css">
   <![CDATA[
    .fil0 {fill:#2D2D2D}
    .fil1 {fill:#FDFDFD}
   ]]>
  </style>
 </defs>
 <g id="Layer_x0020_1">
  <metadata id="CorelCorpID_0Corel-Layer"/>
  <path class="fil0" d="M1260.17 1069.73c-0.26,18.05 1.72,94.5 -0.48,108.16 -15.31,95.51 -9.97,45.35 -32.46,76.3 -39.14,-15.66 -82.26,51.36 -46.53,-91.61 15.96,-63.85 29.14,-64.54 79.47,-92.84zm-1192.88 -5.79c25.02,25.16 17.23,4.6 40.89,48.05 0.27,0.48 23.35,54.86 24.49,59.29 34.06,131.16 43.32,76.07 -65.38,93.49 -11.24,-19.36 -26.42,36.22 -37.32,-88.42 -15.59,-178.46 11.29,-78.86 37.32,-112.41zm1056.63 -514.14c190.33,-55.71 136.97,54.4 136.97,478.13 -81.35,-33.86 -30.58,32.3 -86.68,-95.61 -48.08,-109.62 -111.44,-275.03 -50.29,-382.51zm-1080.48 305.61c-3.03,-140.56 -40.82,-367.17 115.63,-316.23 135.66,44.16 -7.9,453.15 -112.44,483.34l-3.19 -167.11zm256.03 -358.6c-338.14,25.8 -253.69,4.52 -253.79,-80.92 108.74,-1.46 1119.31,-24.2 1213.56,19.97 -15.37,103.97 25.07,54.58 -118.61,62.82l-841.15 -1.87zm-26.75 -175.43c64.03,-41.63 352.08,-196.96 371.19,-261.98 140.5,80.55 154.45,135.47 331.92,231.47l116.8 81.52 -882.34 -3.02 62.43 -47.98zm-271.66 65.71l-1.05 907.95 180.3 -0.08c-52.13,-306.85 -68.18,-203.47 -9.68,-332.5 25.31,-55.86 46.27,-116.98 60.52,-189.95 50.63,-259.22 -45.08,-232.71 406.27,-221.45 656.79,16.37 278.79,-56.38 488.42,381.44 40.89,85.37 52.62,60.31 39.58,155.42 -14.31,104.34 -36.34,92.86 -23.5,221.3l164.98 -2.48c-9.81,-1131.7 83.94,-845.69 -281.83,-1039.39 -165.61,-87.69 -259.66,-185.67 -382.12,-267.35 -243.85,246.52 -424.41,274.99 -641.9,387.09z"/>
  <path class="fil1" d="M210.28 369.36l882.34 3.02 -116.8 -81.52c-177.47,-96 -191.42,-150.92 -331.92,-231.47 -19.11,65.03 -307.15,220.35 -371.19,261.98l-62.43 47.98z"/>
  <path class="fil1" d="M1259.23 435.86c-94.25,-44.16 -1104.82,-21.42 -1213.56,-19.97 0.1,85.44 -84.35,106.72 253.79,80.92l841.15 1.87c143.68,-8.24 103.24,41.14 118.61,-62.82z"/>
  <path class="fil1" d="M43.44 855.41l3.19 167.11c104.54,-30.19 248.1,-439.19 112.44,-483.34 -156.45,-50.94 -118.66,175.67 -115.63,316.23z"/>
  <path class="fil1" d="M1123.91 549.8c-61.15,107.48 2.21,272.89 50.29,382.51 56.1,127.91 5.33,61.75 86.68,95.61 0,-423.72 53.36,-533.83 -136.97,-478.13z"/>
  <path class="fil1" d="M1227.23 1254.18c22.49,-30.94 17.15,19.21 32.46,-76.3 2.2,-13.66 0.22,-90.11 0.48,-108.16 -50.32,28.3 -63.5,28.99 -79.47,92.84 -35.73,142.97 7.39,75.95 46.53,91.61z"/>
 </g>
</svg>
