<svg id="_1724649247888" xmlns="http://www.w3.org/2000/svg" width="43.989" height="39.849" viewBox="0 0 43.989 39.849">
  <path id="Path_1180" data-name="Path 1180" d="M1.985,37.9l.646-.069.294.014h38l.294-.013.714.055.1.91H37.59l-35.657,0,.051-.892Zm37.334-7.985v-12.7l-.005-.5H40.44l-.007,20.17-1.113,0V29.913Zm-7.084-.994h6.137l-.006,7.951-.468.018-5.666,0,0-7.968ZM31.3,20.1l-.005,1.686-.017,15.107-1.108,0-.009-20.177,1.128.007L31.3,20.1ZM12.661,18.581l.013-1.27,0-.6h1.095V36.888H12.676l-.015-18.308ZM5.585,28.931l6.133-.01-.006.406v7.561H6.051l-.466-.01V28.931ZM3.516,16.717l1.121,0-.007.5V36.888H3.516V16.717Zm28.71.008c1.027-.483,1.142-.624,1.111-1.9l3.888.006c-.01,1.211.116,1.57,1.145,1.874l0,11.248-6.133.012-.006-11.235ZM11.752,19.413l0,2.745-.04,5.8L5.58,27.957,5.585,16.7c.98-.3,1.142-.7,1.119-1.881l3.881.006c-.016,1.3.114,1.42,1.1,1.9l.064,2.688ZM29.2,21.791l.31-.031.089.72-.389.058L29.2,36.887H14.72l-.008-20.21c1-.18,1.157-.765,1.138-1.852H28.031c.043,1.3.151,1.4,1.145,1.9l.025,5.066Zm8.97-6.966h3.385c-.01,1.125-.165.936-1.216.929a11.767,11.767,0,0,1-2.1-.057l-.07-.872Zm-26.655,0,3.4,0c-.035,1.145-.1.929-1.246.922a8.066,8.066,0,0,1-2.069-.075l-.086-.848Zm-5.81.853a8.285,8.285,0,0,1-2,.071c-1.1,0-1.307.257-1.313-.931l3.362.005Zm23.325-.829,3.376-.026c-.023.863.114.926-.762.926H29.787c-.857,0-.727-.107-.755-.9ZM.96,12.932l1.323-.051.164-.934,39.061,0,.136.9,1.317.1.028.926-42,.006L.96,12.932ZM20.532,2.671c.343-.716.293-1.69,1.355-1.754a1.234,1.234,0,0,1,1.044.492c.37.431.266.71.384,1.2,1.207.5,4.008-.1,9.516,2.672a17.5,17.5,0,0,1,5.188,4c.143.155.244.227.385.39s.182.247.351.433l.527.658c.1.178-.006-.051.12.228l-6-.025c-.2-.324-.381-.821-.561-1.193-.189-.392-.382-.776-.559-1.109-.625-1.167-4.2-6.118-4.965-4.736-.149.518.149.639.5.892a11.011,11.011,0,0,1,1.624,1.5,16.725,16.725,0,0,1,2.88,4.666L11.627,11a15.084,15.084,0,0,1,3.968-5.729c1.021-1.038,1.534-.736,1.312-1.662-.576-.273-.672-.076-1.137.267a14.749,14.749,0,0,0-4.66,5.9c-.177.37-.366.878-.565,1.211l-6,0,.678-.957a19.2,19.2,0,0,1,5.826-4.722,23.573,23.573,0,0,1,4.316-1.736,45.233,45.233,0,0,1,5.163-.907ZM3.316,10.985c-1.089.025-1.645-.1-1.847.984-1.089,0-1.487.305-1.49,1.435,0,1.184.373,1.422,1.47,1.425-.031,1.222.158,1.429,1.077,1.9L2.554,36.9c-1.583-.03-1.874,1.272-1.5,2.713.8.334,18.368.135,20.917.135,2.6,0,20.058.215,20.919-.135.358-1.458.085-2.748-1.5-2.714V16.724c1.275-.614.866-.626,1.155-1.89,1.093,0,1.416-.326,1.417-1.431,0-1.136-.408-1.433-1.5-1.434-.186-1.048-.777-.958-1.839-.984-.316-.344-.491-.7-.808-1.069a17.628,17.628,0,0,0-2.706-2.869A22.162,22.162,0,0,0,25.5,1.964c-.266-.036-.52-.064-.8-.091-.537-.051-.465.035-.623-.339A2.1,2.1,0,0,0,21.975-.04a2.075,2.075,0,0,0-2.1,1.579c-.189.472-.124.241-1.419.421A23.7,23.7,0,0,0,11.306,4.1,20.489,20.489,0,0,0,4.548,9.358L3.316,10.984Z" transform="translate(0.021 0.04)" fill="#707070" fill-rule="evenodd"/>
  <path id="Path_1226" data-name="Path 1226" d="M1987.12,1483.118l.389-.058-.089-.72-.31.031Z" transform="translate(-1957.888 -1460.54)" fill="#5a5a5a" fill-rule="evenodd"/>
</svg>
