<svg xmlns="http://www.w3.org/2000/svg" width="26.64" height="20.244" viewBox="0 0 26.64 20.244">
  <path id="Icon_metro-profile" data-name="Icon metro-profile" d="M29.236,10.6H27.373V7.772l-3.846-.06.02,2.892H11.991l.079-2.892L8.3,7.772v2.892L6.4,10.6a1.916,1.916,0,0,0-1.9,1.928v13.5a1.916,1.916,0,0,0,1.9,1.928H29.236a1.916,1.916,0,0,0,1.9-1.928v-13.5A1.916,1.916,0,0,0,29.236,10.6ZM24.479,8.676h1.9v3.856h-1.9ZM12.11,15.243c1.149,0,2.082,1.241,2.082,2.772s-.932,2.772-2.082,2.772-2.082-1.241-2.082-2.772.932-2.772,2.082-2.772ZM9.256,8.676h1.9v3.856h-1.9ZM7.988,24.05s.225-1.834.738-2.18a7.223,7.223,0,0,1,1.989-.576s.957,1.036,1.364,1.036,1.363-1.036,1.363-1.036a7.2,7.2,0,0,1,1.989.576c.6.407.753,2.18.753,2.18h-8.2Zm19.346-.914H18.77v-.964h8.563Zm0-1.928H18.77v-.964h8.563Zm0-1.928H18.77v-.964h8.563Zm0-1.928H18.77v-.964h8.563Z" transform="translate(-4.499 -7.712)"/>
</svg>
