<svg xmlns="http://www.w3.org/2000/svg" width="29.927" height="30.296" viewBox="0 0 29.927 30.296">
  <g id="Icon_feather-settings" data-name="Icon feather-settings" transform="translate(1 1)">
    <path id="Path_38" data-name="Path 38" d="M21.117,17.359A3.809,3.809,0,1,1,17.308,13.5,3.834,3.834,0,0,1,21.117,17.359Z" transform="translate(-3.345 -3.21)" fill="none" stroke="#000" stroke-linecap="round" stroke-linejoin="round" stroke-width="2"/>
    <path id="Path_39" data-name="Path 39" d="M24.857,19.507a2.143,2.143,0,0,0,.419,2.341l.076.077a2.6,2.6,0,0,1,0,3.64,2.515,2.515,0,0,1-3.592,0l-.076-.077a2.074,2.074,0,0,0-2.31-.424A2.123,2.123,0,0,0,18.1,27.005v.219a2.539,2.539,0,1,1-5.078,0v-.116a2.12,2.12,0,0,0-1.371-1.942,2.074,2.074,0,0,0-2.31.424l-.076.077a2.515,2.515,0,0,1-3.592,0,2.6,2.6,0,0,1,0-3.64l.076-.077a2.143,2.143,0,0,0,.419-2.341,2.094,2.094,0,0,0-1.917-1.286H4.039a2.573,2.573,0,0,1,0-5.145h.114A2.1,2.1,0,0,0,6.07,11.79a2.143,2.143,0,0,0-.419-2.341l-.076-.077a2.6,2.6,0,0,1,0-3.64,2.515,2.515,0,0,1,3.592,0l.076.077a2.074,2.074,0,0,0,2.31.424h.1a2.123,2.123,0,0,0,1.269-1.942V4.072a2.539,2.539,0,1,1,5.078,0v.116A2.123,2.123,0,0,0,19.272,6.13a2.074,2.074,0,0,0,2.31-.424l.076-.077a2.516,2.516,0,0,1,3.592,0,2.6,2.6,0,0,1,0,3.64l-.076.077a2.143,2.143,0,0,0-.419,2.341v.1a2.094,2.094,0,0,0,1.917,1.286h.216a2.573,2.573,0,0,1,0,5.145h-.114a2.094,2.094,0,0,0-1.917,1.286Z" transform="translate(-1.5 -1.5)" fill="none" stroke="#000" stroke-linecap="round" stroke-linejoin="round" stroke-width="2"/>
  </g>
</svg>
