<svg xmlns="http://www.w3.org/2000/svg" width="21.285" height="21.285" viewBox="0 0 21.285 21.285">
  <path id="Icon_ionic-ios-checkmark-circle" data-name="Icon ionic-ios-checkmark-circle" d="M14.017,3.375A10.642,10.642,0,1,0,24.66,14.017,10.641,10.641,0,0,0,14.017,3.375Zm5.449,7.7-6.841,6.871h-.005a.924.924,0,0,1-.594.281.9.9,0,0,1-.6-.292L8.563,15.071a.2.2,0,0,1,0-.292l.911-.911a.2.2,0,0,1,.287,0l2.272,2.272,6.242-6.288a.2.2,0,0,1,.143-.061h0a.186.186,0,0,1,.143.061l.9.926A.2.2,0,0,1,19.466,11.075Z" transform="translate(-3.375 -3.375)" fill="#fff"/>
</svg>
